<?xml version="1.0" encoding="UTF-8"?><svg id="Camada_1" xmlns="http://www.w3.org/2000/svg" viewBox="0 0 1040 512.09"><defs><style>.cls-1{fill:#0a528f;}.cls-2{fill:#2d7fc5;}.cls-3{fill-rule:evenodd;}.cls-3,.cls-4{fill:#51a3e8;}.cls-5{opacity:.15;stroke:#fff;stroke-miterlimit:10;stroke-width:5px;}.cls-5,.cls-6{fill:none;}.cls-7{opacity:.1;}.cls-8{letter-spacing:-.11em;}.cls-9{fill:#fff;font-family:ArialMT, Arial;font-size:14px;}.cls-10{letter-spacing:-.02em;}</style></defs><rect class="cls-4" x="403.25" y="11.65" width="230.75" height="227" rx="20" ry="20"/><rect class="cls-4" x="159.25" y="10.65" width="230.75" height="227" rx="20" ry="20"/><rect class="cls-5" x="167.75" y="19.37" width="213.75" height="210.28" rx="18.53" ry="18.53"/><rect class="cls-5" x="412.25" y="19.37" width="213.75" height="210.28" rx="18.53" ry="18.53"/><rect class="cls-4" x="646.25" y="11.65" width="230.75" height="227" rx="20" ry="20"/><polygon class="cls-2" points="520.27 302.93 516.35 302.93 516.43 245.38 520.35 245.38 520.27 302.93"/><path class="cls-2" d="M426.88,358.28c19.39-30.03,53.12-49.95,91.43-49.95s72.04,19.92,91.43,49.95h7.27c-20.09-33.58-56.81-56.1-98.7-56.1s-78.61,22.52-98.69,56.1h7.26Z"/><path class="cls-1" d="M348.42,437.14c-8.82,32.5-38.55,56.48-73.79,56.48-42.17,0-76.47-34.32-76.47-76.49,0-3.23,.22-6.42,.62-9.57h-18.6c-.01,.13-.02,.22-.03,.34h-36.14v18.49h36.13c4.66,48.03,45.26,85.7,94.5,85.7,45.48,0,83.59-32.14,92.81-74.95h-19.02Z"/><path class="cls-1" d="M688.39,396.28c8.82-32.5,38.55-56.48,73.79-56.48,42.17,0,76.47,34.32,76.47,76.49,0,3.23-.22,6.42-.62,9.57h18.6c.01-.13,.02-.22,.03-.34h36.14v-18.49h-36.13c-4.66-48.03-45.26-85.7-94.5-85.7-45.48,0-83.59,32.14-92.81,74.95h19.02Z"/><path class="cls-1" d="M592.11,437.14c-8.81,32.5-38.56,56.48-73.79,56.48-42.17,0-76.46-34.32-76.46-76.49,0-3.12,.2-6.19,.57-9.23h-73.34c-4.49-42.82-39.73-85.71-94.44-85.71-45.38,0-83.38,31.98-92.73,74.59h19.03c8.94-32.32,38.58-56.11,73.7-56.11,47.23,0,76.47,39.7,76.47,76.46,0,3.15-.21,6.23-.58,9.26h73.3c4.66,48.03,45.25,85.7,94.49,85.7,45.49,0,83.59-32.14,92.81-74.95h-19.02Z"/><path class="cls-1" d="M835.95,437.14c-8.81,32.5-38.56,56.48-73.79,56.48-42.17,0-76.46-34.32-76.46-76.49,0-3.12,.2-6.19,.57-9.23h-73.34c-4.49-42.82-39.73-85.71-94.44-85.71-45.38,0-83.38,31.98-92.73,74.59h19.03c8.94-32.32,38.58-56.11,73.7-56.11,47.23,0,76.47,39.7,76.47,76.46,0,3.15-.21,6.23-.58,9.26h73.3c4.66,48.03,45.25,85.7,94.49,85.7,45.49,0,83.59-32.14,92.81-74.95h-19.02Z"/><g><path class="cls-2" d="M527.3,302.18c0,4.96-4.01,8.98-8.99,8.98s-8.98-4.02-8.98-8.98,4.02-8.99,8.98-8.99,8.99,4,8.99,8.99Z"/><path class="cls-2" d="M518.31,312.36c-5.62,0-10.19-4.56-10.19-10.18s4.57-10.2,10.19-10.2,10.2,4.57,10.2,10.2-4.58,10.18-10.2,10.18Zm0-17.96c-4.27,0-7.77,3.48-7.77,7.78s3.5,7.76,7.77,7.76,7.77-3.48,7.77-7.76-3.47-7.78-7.77-7.78Z"/></g><polygon class="cls-2" points="764.12 302.93 760.19 302.93 760.28 245.38 764.2 245.38 764.12 302.93"/><path class="cls-2" d="M670.72,358.28c19.39-30.03,53.12-49.95,91.43-49.95s72.04,19.92,91.43,49.95h7.27c-20.09-33.58-56.81-56.1-98.7-56.1s-78.61,22.52-98.69,56.1h7.26Z"/><g><path class="cls-2" d="M771.14,302.18c0,4.96-4.01,8.98-8.99,8.98s-8.98-4.02-8.98-8.98,4.02-8.99,8.98-8.99,8.99,4,8.99,8.99Z"/><path class="cls-2" d="M762.16,312.36c-5.62,0-10.19-4.56-10.19-10.18s4.57-10.2,10.19-10.2,10.2,4.57,10.2,10.2-4.58,10.18-10.2,10.18Zm0-17.96c-4.27,0-7.77,3.48-7.77,7.78s3.5,7.76,7.77,7.76,7.77-3.48,7.77-7.76-3.47-7.78-7.77-7.78Z"/></g><polygon class="cls-2" points="276.13 302.18 272.19 302.17 272.29 244.62 276.2 244.62 276.13 302.18"/><path class="cls-2" d="M182.73,358.27c19.39-30.02,53.12-49.94,91.43-49.94s72.05,19.92,91.43,49.94h7.27c-20.09-33.56-56.81-56.09-98.7-56.09s-78.61,22.53-98.69,56.09h7.26Z"/><g><path class="cls-2" d="M265.19,302.18c0-4.98,4.01-8.99,8.98-8.99s8.99,4,8.99,8.99-4.02,8.98-8.99,8.98-8.98-4.02-8.98-8.98Z"/><path class="cls-2" d="M274.16,291.98c5.63,0,10.2,4.57,10.2,10.2s-4.57,10.18-10.2,10.18-10.2-4.57-10.2-10.18,4.58-10.2,10.2-10.2Zm0,17.96c4.28,0,7.78-3.47,7.78-7.76s-3.5-7.78-7.78-7.78-7.76,3.48-7.76,7.78,3.48,7.76,7.76,7.76Z"/></g><text class="cls-9" transform="translate(190.87 54.97)"><tspan x="0" y="0">O acolhimento, o vínculo e </tspan><tspan x=".77" y="18">a busca de autonomia dos </tspan><tspan x="6.62" y="36">sujeitos, por meio de um </tspan><tspan x="17.11" y="54">diálogo aberto e uma </tspan><tspan x="7.38" y="72">escuta qualificada, pode </tspan><tspan x="30.73" y="90">ser percebido na </tspan><tspan x="-1.95" y="108">realização de dinâmicas de </tspan><tspan x="-1.95" y="126">grupo, brincadeiras, uso de </tspan><tspan x="15.54" y="144">linguagem adequada.</tspan></text><text class="cls-9" transform="translate(471.7 45.97)"><tspan x="0" y="0">Compreendem </tspan><tspan x="-.78" y="18">conhecimentos </tspan><tspan x="-9.33" y="36">técnico-científicos </tspan><tspan x="-25.29" y="54">específicos, servem de </tspan><tspan x="-26.47" y="72">subsídio para o manejo </tspan><tspan x="-41.11" y="90">grupal.</tspan><tspan class="cls-10" x="1.69" y="90"> </tspan><tspan class="cls-8" x="5.33" y="90">T</tspan><tspan x="12.33" y="90">ambém auxiliam na </tspan><tspan x="-24.13" y="108">confecção de recursos </tspan><tspan x="-35.03" y="126">pedagógicos como álbuns </tspan><tspan x="-42.03" y="144">seriados, vídeos educativos, </tspan><tspan x="-14.4" y="162">panfletos, cartazes.</tspan></text><text class="cls-9" transform="translate(702.21 55.97)"><tspan x="0" y="0">Representadas por </tspan><tspan x="-5.44" y="18">equipamentos, como </tspan><tspan x="-19.06" y="36">glicosímetro, aparelho de </tspan><tspan x="4.28" y="54">pressão, balança, </tspan><tspan x="-16.32" y="72">formulários para registro </tspan><tspan x="-24.13" y="90">de atividades da prática de </tspan><tspan x="-.77" y="108">grupo, também são </tspan><tspan x="-19.46" y="126">utilizadas no processo de </tspan><tspan x="33.07" y="144">cuidado.</tspan></text><rect class="cls-6" width="1040" height="11"/><g><path class="cls-4" d="M553.8,433.64l4.46-45.99c.04-.46-.1-.92-.39-1.28-.29-.36-.72-.58-1.18-.63l-58.15-5.63c-.96-.1-1.82,.61-1.91,1.57l-.76,7.81h3.52l.56-5.73,54.66,5.3-4.12,42.51-2.54-.25v3.52l3.94,.38c1,.03,1.8-.45,1.91-1.57Z"/><path class="cls-4" d="M484.52,442.44h58.42c.97,0,1.75-.78,1.75-1.75v-46.21c0-.97-.78-1.75-1.75-1.75h-58.42c-.97,0-1.75,.78-1.75,1.75v46.21c0,.97,.78,1.75,1.75,1.75Zm1.75-46.21h54.92v42.71h-54.92v-42.71Z"/><path class="cls-4" d="M490.77,434.93h45.92v-34.68h-45.92v34.68Zm22.74-22.89c2.07,0,3.75,1.68,3.75,3.75,0,1.26-.63,2.37-1.58,3.05l-5.62-4.53c.57-1.34,1.9-2.28,3.45-2.28Zm-19.14,13.53l10.01-10.32c.69-.52,1.81-.52,2.49,0l9.57,7.71,5.14-5.37c.49-.38,1.29-.38,1.79,0l9.74,6.46h.02v7.48h-38.77v-5.96Z"/></g><g><path class="cls-3" d="M746.76,428.65c.67-.97,.82-1.8,.48-2.68-.56-1.44-1.11-2.89-1.65-4.33l-.05-.14c-.53-1.39-1.05-2.79-1.59-4.17l-.03-.07c-2.03-5.25-4.14-10.69-6.31-16.15-.32-.79-.67-1.61-1.2-2.07-.55-.47-1.21-.72-1.91-.72-1.18,0-2.23,.69-2.67,1.77-1.09,2.67-2.14,5.37-3.15,7.98l-.33,.84c-.63,1.62-1.25,3.24-1.88,4.85l-.47,1.2c-1.35,3.51-2.75,7.14-4.16,10.7-.41,1.05-.33,1.95,.27,2.86,.49,.74,1.04,1.41,1.63,1.98,2.72,2.64,6.2,4,10.62,4.17,.2-.01,.4-.03,.59-.04h.08c.49-.04,1.01-.07,1.49-.14,4.51-.59,7.96-2.56,10.24-5.84Zm-20.88-5.15l.52-1.33c.71-1.79,1.4-3.59,2.09-5.38l.3-.79c.3-.77,.6-1.54,.89-2.31l.13-.35c.53-1.35,1.07-2.76,1.64-4.15,.46-1.11,1.54-1.83,2.77-1.83,.72,0,1.43,.26,1.98,.74,.53,.45,.81,1.08,1.02,1.63,1.13,2.83,2.28,5.81,3.21,8.21,.28,.71,.54,1.41,.8,2.1l.02,.04c.29,.76,.57,1.51,.86,2.27l.53,1.36-16.78-.19Z"/><path class="cls-3" d="M798.03,418.21c-.89-2.29-1.78-4.59-2.66-6.89l-2.89-7.52c-1.31-3.41-2.67-6.94-4.03-10.39-.32-.8-.67-1.61-1.2-2.07-.56-.48-1.22-.73-1.91-.73-1.23,0-2.33,.8-2.81,2.03-.93,2.39-1.86,4.78-2.79,7.17l-.3,.78c-2.22,5.7-4.51,11.59-6.8,17.43-.4,1.01-.29,1.92,.33,2.85,.44,.67,.98,1.31,1.6,1.92,2.74,2.69,6.3,4.01,11.21,4.15,.14-.01,.31-.03,.5-.05,.57-.05,1.35-.13,2.09-.27,4.23-.78,7.4-2.81,9.43-6.03,.49-.78,.57-1.54,.24-2.38Zm-21.11-1.35l.53-1.33c.73-1.85,1.45-3.7,2.16-5.56l.15-.38c.33-.85,.65-1.7,.98-2.54l.18-.47c.51-1.32,1.04-2.69,1.59-4.02,.46-1.11,1.54-1.83,2.77-1.83,.73,0,1.43,.26,1.98,.73,.53,.46,.81,1.08,1.02,1.63,1.08,2.72,2.14,5.44,3.16,8.08l.06,.16c.27,.71,.54,1.41,.81,2.12l.05,.13c.27,.71,.54,1.42,.81,2.13l.53,1.36-16.78-.2Z"/><path class="cls-3" d="M783.61,444.99c-.35-.26-.7-.53-1.05-.79-1.36-1.03-2.74-2.07-4.18-2.91-3.24-1.89-7.07-3.14-12.07-3.93-1.36-.22-1.97-.9-1.95-2.21,.03-3.58,.03-7.32,.04-10.62v-.46c0-2.78,0-5.56,0-8.34v-6.84c-.01-4.72-.01-9.45-.01-14.17v-1.32s-8.96,1.38-8.96,1.38v34.95s0,5.7,0,5.7c0,1.08-.5,1.71-1.5,1.87-1.42,.23-2.67,.47-3.82,.73-5.12,1.17-9.32,3.14-12.86,6.01-.38,.31-.87,.73-1.25,1.19-.35,.43-.44,.91-.26,1.34,.19,.44,.65,.76,1.25,.87,.56,.1,1.17,.11,1.76,.11h.47c6.72,0,13.42,0,20.11,0h12.53c3.45,0,6.9,0,10.35-.01,1.25,0,1.63-.48,1.82-.89,.32-.69,.19-1.2-.41-1.65Z"/><path class="cls-3" d="M726.67,394.96h0c.35,0,.71-.03,1.08-.08,1.69-.26,3.38-.51,5.06-.76l.23-.04c1.02-.15,2.04-.3,3.05-.45,5.64-.85,11.28-1.69,16.92-2.54,.32-.05,.56-.08,.77-.1l16.97-2.62v.06s2.32-.36,2.32-.36c2.22-.35,4.44-.7,6.66-1.03,1.75-.26,3.5-.52,5.25-.78l.51-.07c2.7-.39,5.77-.84,8.74-1.31,1.23-.19,2.22-.73,2.85-1.55,.66-.85,.88-1.99,.64-3.21-.33-1.66-2.2-2.91-4.33-2.91-.26,0-.53,.02-.79,.06-.69,.1-1.38,.2-2.06,.3h-.06c-.57,.09-1.15,.17-1.72,.26-1,.15-2,.29-3,.44h-.06c-2.44,.36-4.96,.73-7.42,1.15-1.43,.25-2.61,.36-3.71,.36-1.46,0-2.78-.2-4.05-.62-1.2-.4-2.52-.8-4.13-1.27-1.99-.58-3.92-.87-5.73-.87-2.28,0-4.46,.47-6.48,1.38-1.95,.88-3.75,2.09-5.25,3.16-2.18,1.55-4.89,3.18-8.42,3.53-2.56,.25-5.15,.67-7.67,1.07-.65,.11-1.3,.21-1.95,.31l-.99,.15c-1.73,.27-3.52,.54-5.2,.98-.95,.25-1.74,.87-2.22,1.75-.52,.94-.59,2-.21,2.92,.72,1.74,2.27,2.69,4.38,2.69Z"/></g><g><path class="cls-4" d="M252.66,416.41c-1.53-2.15-3.95-3.8-7.69-4.98-1.63,1.18-3.62,1.88-5.79,1.88s-4.18-.71-5.81-1.9c-7.36,2.15-9.55,6.25-9.93,12.22,.81,1.81,3.43,3.04,6.83,3.76l1.1,.21c3.8,.65,8.35,.72,12.46,.3,1.37-4.76,4.03-8.59,8.83-11.48Z"/><path class="cls-4" d="M285.39,413.56c-2.95,2.13-6.57,3.4-10.48,3.4s-7.57-1.28-10.53-3.43c-13.34,3.9-17.3,11.32-17.99,22.13,1.48,3.27,6.21,5.5,12.36,6.8l2,.38c9.71,1.67,22.21,1.26,31.21-.84l1.99-.51c4.98-1.39,8.57-3.37,9.48-5.83-.77-10.76-5.04-17.99-18.04-22.09Z"/><path class="cls-4" d="M285.39,413.56c-2.95,2.13-6.57,3.4-10.48,3.4s-7.57-1.28-10.53-3.43c-13.34,3.9-17.3,11.32-17.99,22.13,1.48,3.27,6.21,5.5,12.36,6.8l2,.38c9.71,1.67,22.21,1.26,31.21-.84l1.99-.51c4.98-1.39,8.57-3.37,9.48-5.83-.77-10.76-5.04-17.99-18.04-22.09Z"/><circle class="cls-4" cx="275.05" cy="400.73" r="13.73"/><path class="cls-4" d="M247.01,403.02c0,4.42-3.59,8.01-8.01,8.01s-8.01-3.59-8.01-8.01,3.59-8.01,8.01-8.01,8.01,3.59,8.01,8.01Z"/><path class="cls-4" d="M296.54,416.41c1.53-2.15,3.95-3.8,7.69-4.98,1.63,1.18,3.62,1.88,5.79,1.88s4.18-.71,5.81-1.9c7.36,2.15,9.55,6.25,9.93,12.22-.81,1.81-3.43,3.04-6.82,3.76l-1.1,.21c-3.8,.65-8.35,.72-12.46,.3-1.37-4.76-4.03-8.59-8.83-11.48Z"/><path class="cls-4" d="M302.18,403.02c0,4.42,3.59,8.01,8.01,8.01s8.01-3.59,8.01-8.01-3.59-8.01-8.01-8.01-8.01,3.59-8.01,8.01Z"/><g class="cls-7"><path class="cls-4" d="M288.78,400.73c0-7.58-6.15-13.73-13.73-13.73-.02,0-.03,0-.05,0v27.46s.03,0,.05,0c7.59,0,13.73-6.15,13.73-13.73Z"/><path class="cls-4" d="M285.39,413.56c-2.93,2.11-6.51,3.37-10.39,3.39v26.91c6.01-.07,12.01-.71,16.96-1.87l1.99-.51c4.98-1.39,8.57-3.37,9.48-5.83-.77-10.76-5.04-17.99-18.04-22.09Z"/></g></g><rect class="cls-5" x="655.25" y="19.37" width="213.75" height="210.28" rx="18.53" ry="18.53"/></svg>