<svg xmlns="http://www.w3.org/2000/svg" viewBox="0 0 1087.42 654.72"><defs><style>.cls-1{isolation:isolate;}.cls-2{fill:#666;opacity:0.12;}.cls-13,.cls-3{fill:#4d7fb4;}.cls-11,.cls-4{fill:#e6e6e6;}.cls-10,.cls-12,.cls-4,.cls-6{mix-blend-mode:multiply;}.cls-5{fill:#d7b280;}.cls-6{fill:#d9d9d9;}.cls-7{fill:#fbd095;}.cls-8{fill:#0f4384;}.cls-9{fill:#f8f8f8;}.cls-10{fill:#ccc;}.cls-12{fill:#e8e8e8;}.cls-13{font-size:18px;}.cls-13,.cls-16{font-family:Arial-BoldMT, Arial;}.cls-13,.cls-16,.cls-19{font-weight:700;}.cls-14{letter-spacing:-0.02em;}.cls-15{font-size:14px;}.cls-15,.cls-18{fill:#666565;}.cls-15,.cls-17{font-family:ArialMT, Arial;}.cls-17{font-weight:400;}.cls-19{font-size:25px;font-family:Arial-BoldItalicMT, Arial;font-style:italic;}.cls-19,.cls-20{fill:#fff;}</style></defs><title>infografico3-1</title><g class="cls-1"><g id="Camada_1" data-name="Camada 1"><path class="cls-2" d="M1684.15,904.14s0,0,0,0l-5.5-59.49v0s0,0,0,0l-10.19-67.44v0h0L1660.17,729a.14.14,0,0,1,0-.06s0,0,0,0l-20.46-71.78h0s0,0,0-.05,0,0,0-.06l-36.19-78.65h0l0,0,0,0L1577,535.85h0v0h0L1540.06,483s0,0,0,0,0,0,0-.05l-32.18-35s-.06,0-.09,0a.24.24,0,0,0-.06-.08l-25.52-16h0a.76.76,0,0,0-.3-.1l-25-2,0-.05-.08.05-.64-.05h0s0,0,0,0h-.1a.63.63,0,0,0-.23.08s0,0,0,0h0l-20.13,11.46a.63.63,0,0,0-.29.29l-11.92,21.67s0,.05,0,.07a.5.5,0,0,0,0,.13l0,.08-5.71,55.18s0,0,0,0,0,0,0,.05l2,58.06-2.15,3.85-9.53-11.88L1403.52,526l-1.58-39.34V378.27h.07l0-.38,0-.22a.91.91,0,0,0-.07-.43l-2.08-40.42-16.47,40.43-.43,1h15.55l-20.77,16.37-8.58-7.23,4.89-25.44,0-.18-6.5-11.07.25,35.58-.32-.28a.72.72,0,0,0-.78-.09.74.74,0,0,0-.39.65v17.11a1,1,0,0,0-.24.82.92.92,0,0,0,.24.47v22.41h0l1.5,34.58V536.2l0,.4-.15.14.14,0L1365.13,570l-3.77,11.79v0a.66.66,0,0,0,0,.28c0,.05,0,.11,0,.16h0l.72,2-7.24-12V514.15l0,0a.43.43,0,0,0,0-.05l-7.58-54.92a.43.43,0,0,0,0-.07.5.5,0,0,0,0-.13s0-.05,0-.07l-12.64-21.19a.73.73,0,0,0-.3-.28l-20.49-10.65h0s0,0,0,0a1.09,1.09,0,0,0-.24-.07h-.09s0,0,0,0h0l-.63.07-.08,0,0,0-24.9,3a.57.57,0,0,0-.28.11h0l-25,16.95h0s-.06.06-.09.09l-.06,0-31,36.27s0,0,0,0l0,0-35.08,54.24h0v0h0l-25,43.38a.08.08,0,0,0,0,0l0,0h0l-33.5,80s0,0,0,.06,0,0,0,.05h0v0l-18,72.52s0,0,0,0v.06h0l-6.63,48.46h0L1105,850s0,0,0,0,0,0,0,0l-3.48,59.67v0s0,0,0,.06,0,0,0,.06l7.27,53.22h0v0h0l0,0a.65.65,0,0,0,.14.29l0,0,23.07,24.4,0,0,.05,0,.08.06.08.06a.67.67,0,0,0,.28.06h19.28l22.62-7.82h0l55.73-31.24v0h0l0,0L1269,937.09s0,0,.07-.05l36.84-9.94h0l32.33-14.62a.74.74,0,0,0,.32-.29l9.32-15.94s0-.06,0-.09,0,0,.06-.09l16.27-59.66h0l14-45,.1.54,0-1,.41-1.32s0,0,0,0c.6-2.72.18-38.74,0-50l3.16-53.89s0,0,0,0,0,0,0,0l-3.16-51.54v0s0,0,0-.07,0,0,0,0l-4.49-15.42,1.56,4.35a.72.72,0,0,0,.67.48h0l.4,1.11-.11-1.18a.73.73,0,0,0,.41-.73l0-.42,11.4-3.46,12.83,1.62h.07a.5.5,0,0,0,.13,0,1.08,1.08,0,0,0,.19,0l.23,0a.69.69,0,0,0,.47-.58l2.73-20.46a.69.69,0,0,0,.31-.25l9.63-14.46-6.59,11.83h0s0,.06,0,.1,0,0,0,.07l-10.88,42.82s0,0,0,.06l0,.07v0l-1.41,51.6h0v0a.77.77,0,0,0,.06.3l16.74,36.67s0,0,.06.07l.1.11h0a.6.6,0,0,0,.1.23l26.55,29.61L1423.12,746a.7.7,0,0,0-.77,0,.73.73,0,0,0-.35.66l3.16,58.54h0l1.27,49.5s0,0,0,0v0l4.58,38.16,0,0a.32.32,0,0,0,0,.09s0,.06,0,.09l9,20.32a.68.68,0,0,0,.4.38l23.68,9.15h.08l0,0,.79.18.12.1,0-.09,38.32,8.42h.08l42.91,4.44h0l38.43,11.15.22,0a.69.69,0,0,0,.59-.33l.08,0,0-.07h0a.74.74,0,0,0-.08-.84l-1.87-2.17,29.11,33h0l.35.4h0l0,0a.58.58,0,0,0,.24.14l0,0,22.71,6.92.2,0,19.28-.75,0,0a.6.6,0,0,0,.24,0,.71.71,0,0,0,.09-.07l.08-.06,0,0h0l22.22-25.3s0,0,0,0a.78.78,0,0,0,.14-.29s0,0,0-.05h0l5.46-53.48a.43.43,0,0,1,0,0S1684.15,904.17,1684.15,904.14ZM1387.53,617.51l-10.33,3.16-2.58-27.13,7.64,14.19Zm-75.74,305.37,9.3-6.83L1345,898.52l-7.45,12.72ZM1235.19,946l36-22.18-3,11.95Zm-94.72,40.64,24.44-4.57-13.15,4.57ZM1377.54,635.8l2.9,47.22-19.7-30.45,9.7-9.68Zm.15,147.23-2.93-15.83-7.67-41.31,1.73,2.32,8.63,11.64C1377.65,755.33,1377.79,773.65,1377.69,783ZM1132.25,986l-20.71-21.91,3.86.64,21.67,3.62-3.79,13.87Zm-22.16-24.18-6.68-48.92,13.88,21.63,10.52,16.38-15.13,9.32Zm4.65-182.24,5.81-42.46,3.71,12,3.76,12.09-10.18,14.1Zm84.37-244,31.22-48.28-7,33.19Zm96-92-4,3.71-2.52-16.21,22.68-2.71Zm39-3.84L1344.37,457,1331,448.42l2.26-6.35Zm-198.92,541,3.3-12.07,12.29,4,20.63,6.74-37.78,7.06ZM1292.45,448l20.84-19.57L1328.63,448Zm68.33,207.26,19.73,30.51L1366.29,720ZM1232.41,484.37h38.36L1252.86,498,1225,519.19v0Zm132.66,108.19-2,30.57-18.83-41.62,20.66,10.62Zm-193.26,42.15.58-3,32.89-4.62-37.49,28Zm189.89-.33-2,14.25-14.53-61.72,17.75,39.23ZM1215.64,934.32l-77.35,32.51-8.38-15.17Zm-85.75,15.85,29.23-85.47,62.14,67-78.58,15.9Zm195.72-215.73,38.3-10.19-60,75.8Zm-55-28.76-61.44-79.35,34.27-14.57Zm51.38-204.89-44.62,27.39-3.6-43.5Zm-43.38,28.33,21.79-13.37,22.87-14.05,12.18,41.62ZM1331.35,670l-57.07,36.91,68.21-125L1359,652.13ZM1299,796.6l2,6.37-87.16,2.64,58.21-94.81Zm-9.19,69.72-52.79,10.42L1214,808.38Zm-75.22-59.27,86.53-2.63-10.09,61Zm20.89,69.59-75.24-13.78,52-55.12Zm-74.66-12.2,74.84,13.71-13.38,52.55-28.22-30.42Zm157.94,9.06-39.31,25.62L1292,867.57l4.82,1.06ZM1302,801.34l-10.21-32.51-18.34-58.39,50.72,23.78L1317,755.84Zm-89.77,4.2-64.58-17.73,122.41-76.49Zm98.65,46-18.34,13.53,9.89-59.79,4.46,5.19,23.11,27Zm-38.4-144.34-27.77-96,96.56-30.08Zm-125.72,81.85,64.44,17.69-51.92,55-1.26-7.35ZM1224,929.92l13.18-51.72,52.1-10.28L1258,897.61Zm79.77-71.28,26-19.22-9.63,32.89-26.87-5.95Zm35.42-377.88-15.44,18.62-12.74-20-18-28.26,11.84,7.6Zm-48.47-30.59,31.25,49.09-37.6-12.57-10.4-3.47L1284.21,463Zm-14.77,78.38-50.2-8.07,46.6-35.47,1.45,17.53Zm65.29,51.1-96.13,30L1277,530.56Zm-194.38,207L1167.28,658l103.52,51.2Zm177.87-53.77-24.41-11.44L1273.78,709l84.46-54.62-6.11,14.31Zm-.27-232.1,15-18L1336,540.19Zm-45.38,400.36,39.46-25.7-24.84,43-5.3-6.26Zm32.9-86.94-8.38-9.78h51.34l-23.88,32Zm29.79-235.95L1279.94,531l43.85,10.95,12,3,4.43,25Zm-98.44,32-34.93,14.85L1192.89,585l82.3-53.69ZM1269.8,707l-101.69-50.29L1207.84,627Zm-124.08,84.35,10.46,60.75,1.85,10.75-15.09,6.67-20.64,9.11,7.06-26.29Zm81.69,137.26,42.09-40,20.2-19.18-12.29,31-30,16.93Zm69.25-12.6,10.54-18.22L1321,874.06l15.71,6.13-15.62,14Zm6.83-113.11,61.34-77.53-9.11,77.53Zm-47-330.83,32.21-21.28-16.11,31.77-8.22-5.35Zm12.48,56.8,5.72.92-80.89,52.78,30.48-60.87Zm-77,57.64,15,38.88-33.93,4.77H1173l1.93-4.43Zm-34.35,278.11-28.45,83.2L1122,880.4Zm120.68,37.81,14,16.58-19.11,2.41Zm48-169.72,33.06-77.37,5.71,67-6.08,1.62Zm5.6-276,7,22.21-4.92-3.16-40.94-26.29h36.51Zm-167,207.44-19.39,122-5.34-8.38L1129.6,761.2ZM1322,871l5.2-17.77,4.39-15,12.06-.51,17.9-.74L1340.72,855Zm21.26-292.32-5.49-30.91,15.37,24.43-1.58,1Zm-214.5,183.85,15.61,24.5-20-3.58-9.47-1.69Zm-17.21,200,17-10.45,8.07,14.63-20.46-3.41Zm28.5,5.06,79.41-33.37-45.34,44.5-14.52-4.74Zm83.53-35.2,6.12-3.45,43.91-24.76-37.73,37.28-5.72,5.65-6.1-13.65Zm90.59-30.18,19.75-17.7-28.36,40.86-10.56-6Zm46.66-251.84,2.45-17.13.88-6.14,1.6.89,11.2,6.27-7.59,7.58Zm-29.44-200,6.15,3.93,8.16,5.22-5.5,18.6Zm-60.93,32.51H1235l20.21-10Zm-62.79,68.87-14.56,29.08,2-19.36,2.35-23.19,24.72-15.42Zm-44.12,111.73-34.7,95.54-7.8-25.13,40-66.19ZM1144,792.28l-14.31,53.31L1121,878l-14.44-27.83,33.27-51.42Zm-23.28,89.78,2.13,20,4.92,46.17-24.66-38.43,17.33-27.27Zm155.88,21.27L1274,913l-2.36,8.87L1235,944.48ZM1270,934.75l2.91-11.77,18-2.27-15.69,10.55Zm58.37-39.57,9.65-13.9,8.42,14.4-37.55,27.57Zm9.4-16.13-15.7-6.12,8.63-7.42,30.17-25.94L1354,851.24Zm25-43.53-30.18,1.26,1.37-1.84L1356,805.35l3.13,14Zm-25.45-291.21,6-10.22,10.16-17.31V570Zm16.06-30.21-16,27.3,3.43-57.66,9.12,22Zm-90-66,25,1.22-31.87,21.06Zm-90.82,134,2.79.46,15.7,2.64-18.49,42.45Zm-1.82,51-4.55,23.14-10,1.56-15.51,2.4,11.81-10.63Zm186.56,169.13,8.75-74.47,4.44,24,6.94,37.38-5.09,3.32Zm-10.52-307.84L1341,480.55l5.31-17.95,6.37,46.15Zm-16.84-47.12L1316,429.55l17,8.86Zm-40.11.7L1265,446.75l22.23-15.1Zm-35.14,23.64-20,9.84,26.45-31Zm-63.24,112.22-18.46-3.09,22.78-39.59Zm-20.31,47-6.22,5.6-24.67,22.23,30.89-73.78Zm-32.22,31.15,25.82-4,.64-.1-43.21,71.58Zm-12,123.47,17.87,3.2-24.76,38.27-13.12,20.28,7.46-64Zm-6.41,94.51-17.27,27.16,3.17-54.33ZM1210,945.57l12.41-12.18,6.58,14.72-50.32,28.22Zm93.85-19.42-31,8.39,21-14.08Zm35-46.2,9.44-16.13,13.22-22.58-14.41,52.81Zm32.62-150.58-4.82-6.49,11.87-28.6,1.84-4.42-2.8,47.73ZM1344.2,579.85l.46-.31,9.25-6.06,10,16.5Zm13,224.15,19.72-12.87-13.15,42.32Zm7.2-178.39,1.83-28.31.08-1.37.1.26L1377,632.67Zm2.15-34,0-.06s0-.06,0-.09v0l-.65-1.06-2.32-6.48,9.24,6.51-.3.18.44-.08.05,0v.17l-.13.2.14-.09,2.43,26.3-7.62-21.32Zm1.38-202.38.94.09.05-.25,7.74,6.52-8.81,6.95V388.13l.07.06Zm32.58-12.44-.06.05h-15.25l13.62-33.42,1.72,33.36ZM1389,617.27l-12.27-22.77,22.86,24.11Zm11.49-194.59-2.19-7.05-1.28-4.13a2,2,0,0,0,.09-.26l0-.3,3.34-4.47Zm1.33,101-8-9.73,6.8-23,1.32,32.89Zm.72,7,3.65,35.76-8.49-12,1.82-8.93Zm-33.26-30.92,3,5.15,3.46,5.88-6.49,20.72Zm23.42-57.33-.69-.74,8.48-12.12v21.2Zm5.76-12.46-6.16,8.8,1.6-9.75,2.46-14.9,4,13.05Zm-7.86,10.3-13-12.92,6.8-5.65,10.71-8.89-2.62,15.9ZM1380,469.61l11.34-26.49,8.85,9.48-7.73,6.51Zm11.55,45-17.77,16-3.72,3.36,7-22.34Zm.84-1.32-4-.82-10.3-2.12,14.34-14.11Zm-15-4.28,1.42-34.64,13.39,20.05Zm-7,27.51,31.53-9.41h0l-5.39,26.42Zm31.25-10.85-30.09,9,16.07-14.49,5.32-4.79v.45l.17-.58,4.22,5.17Zm-1.42-71.12-7.41,38.13-13.62-20.39Zm-31.73-48.88,25.92,6-17.47,14.51-.1-.24v-.39l0,.23-3.07-7.47ZM1390.26,442l-11.51,26.9-1.4-39.74ZM1376,508.31l-3.26-5.55-3.31-5.63,4.93-12.95,2.94-7.72Zm5.74,62.18,11-10.7-15.09,22.85C1379.17,578.4,1380.75,573.49,1381.7,570.49Zm24.09-1.89-29.74,19L1397,555.94ZM1370,538l25.79,16.76-14.44,14-7.07-19.15Zm3.76,50.45,0,.07-6.86-17.72h13.22C1377.82,578,1375.15,585.67,1373.78,588.47Zm20-79.23V494.81l6-5.72-4.65,15.71Zm-17.75-76.45,1.32,37.45-8-8.51,1.11-4.81ZM1395.64,408l-.25,1.52-16.08-13.56,20.43-16.11Zm-2.69,1.35-23.63-5.51,8.84-7Zm-15.62,63L1371,489l-1.66,4.37V463.76Zm0,116.29,29.62-18.5a.53.53,0,0,0,.17,0l8.57,10.68Zm23.16-128.53v26.33l-.2.19-6.09,5.84,3.17-16.31Zm-32.71-52.12,4.32,10.52,3.37,8.19h-7.69Zm7.87,20.17-6.6,28.58-1.24-28.58Zm4.37,141.26H1366.6l2.44-29.85Zm-8,18.77-9.17-6.47,3-9.42Zm3.84,3.34,28,7.54-2.53,19Zm29,6-28-7.32,37.66-7.21Zm-4.34-193.46-2.86,3.6,2.86-19.6Zm52.24,333.29.33.08-7,22.84-.65,1.9,0,0-29.49-32.89Zm51.31,192.89-.66-1.32-6.82-13.66,45.17,18.88Zm-9.84-15.4.48-.14,2.79,5.58,4.8,9.61-34.84-7.65Zm-81.09-190-15.37-33.66L1416.45,660l-3.3,64.81Zm-2-130,9.42-16.88,9.92,6-11.38,6.41Zm15-133.67,9.7-17.66.73,1.85,2.65,6.73-2.62,1.82Zm10.7-19,16.72-9.51-7.72,10.6-5.56,7.63-.9-2.29Zm21.4-10.9,22.76,1.82-2,16.3-1.56-1.35Zm24.13,2.36,22.73,14.22L1480.37,450l.1-.87Zm52.07,46.74-18.13-8.09-7.19-20.88,27.49,29.94Zm17.6,41.11-2.76-1.58L1541.1,487,1574,534Zm112.29,353.59,13.16-27.7,5,54.17ZM1414.45,727.24l.12-2.42,3.31-64.81,18.32,39,17.34,37-.09,0Zm4.64-208.65,11.55-30.84.28,3,5.1,54.47L1425.68,529Zm37.12-87.18,5.68,4.95,15.81,13.79-36.16,1.41,6.26-8.59Zm200,306.74-4.5,16.46-37.92-94.13,44.87,68.71Zm26.35,166.07L1676,915.29l-16.77,28.3,4.79-66.38,11.5,16.74Zm-17.48,55.37L1651,962.5l.09-.17,7.48-14.77,17.33,9.78Zm-10.37,22.48-38-5.58,32.54-12Zm-192.66-62.84-29.47-26.55,7-13.73,1.15-2.24,20.76,41.35Zm-28.76-128,11.29-23.74-3,27.15-4.41,39.83-10.55-29.23Zm-20.27-163.27-3-30.81,20.44-11.52-7.79,18.95ZM1428.83,461l10-6.95L1431,482.16l-6.14-18.37Zm110.11,23.12,8.55,34.51-15.34-10.8-31.55-22.21,11.56-.45Zm87.87,250.46-14.27-73.47,38.53,95.64-15,25.5Zm40.85,130-4,8.5-15.45-50.59-10.44-34.16,39.39,56.37Zm-84.57-239.12-13.95-1.4,13.67-39.45,20.49,42.89ZM1456.31,755.11l49.9-43.43L1516.65,782l-69.37-19Zm114.58-129.34,33,3.33,5.39,23.23Zm91.84,249.83-4.89,67.7-31.26-82L1641,867Zm-207.16-19.7,14.27,13.73-5.28.86-23.19,3.78-2.93-34.86Zm-5.66-383.56,27.36-19.06-29.07,49.44-16.07-18Zm49.17,14L1546.85,520,1497,530l1-19.44Zm-30.44,332.13,24.81-32.19-21.64,79.54Zm36.91,46.21-33.19,4.55,14.5-53.3,8.28-30.44,24.76,77.23Zm-31.93,5.85,46.54-6.38,1.34,33.3Zm-3.07-2.23-31.82-30.62,28.55-18.18Zm26-82.94,32.16,29.75-8.11,45.27-1.89-5.9Zm-49.52-20.75,46.85,18.69-25.83,33.51-6.18-15.34Zm-4.49,110.93,28.41-4.64.23.42v.21l0-.12,21.7,40-15.51-11.05Zm53.33-343.5,34.61,77.77-97.08-26.2,47.8-39.46Zm-45.9-28,47.64-18-2.12,43.62Zm23.72-41.95,5.8-9.86,17.86,32.37L1450,502.53Zm20.59,68.57-21.95,6.39-34.37,10L1448.77,505,1472,518.1ZM1621.25,857l-81.78-43.88,30-7.12,48,47.33Zm-103.08-74.5-10.28-69.13,59.89,90.22Zm49.22,22.5-18.74,4.45-10.9,2.58-18.29-27.4Zm54.94,54.23-91.95-1.83,7.59-43.44Zm-114-152.4,24-94.92L1567,625.11Zm-1.88,1.62-73-123.3,97.5,26.32Zm26.68,182-8.2-12.93,4.36-15.81Zm91.69-31.91-19.6-19.32-34.15-33.65,63.79-20.19ZM1570,804.32l-61-91.9,124.93,71.66Zm-39.65,54.5,91.11,1.82-86.6,31.88Zm95.77.7,9.87-71.94,26.37,86.31-7.67-3ZM1508.2,710.29l101.71-55.21,24.82,127.78Zm.94-2.16,59.19-82.37,40.72,28.14Zm-4.48.08-86.55-51.46,14.13-70.82Zm-9.29,204.65L1473.2,872l28.42,16,19.16,10.77-18.6,10.35ZM1523,898.29l-1.4-34.91,8.67-48.39a.73.73,0,0,0-.22-.68l-34.45-31.86,0,0,0,0h0l.13-.48-.3.39-.24-.1v0l-37-14.73,59,16.16L1536.69,813l-7.85,44.92-5.37,19.46a.78.78,0,0,0,.09.6l10.12,15.93s0,0,.06.06,0,.06,0,.08L1563,921.89Zm9.37-287.95-34.56-77.65,84.07,50.44-14.1,40.69Zm-94.68-61.63L1493,532.58l-22.09,18.23-38.06,31.41,4.29-30.07ZM1419,658.94l86.26,51.29-50.08,25.85-25.47-54.3Zm20.71,176.43-1.23.79,7.74-69.94L1467,818Zm95.94,58.42,87.33-32.15-54.9,63ZM1498.66,484l-17.17-31.13,32.91,20Zm-21.56-32.33-44.82,31.22,8.34-29.79,3.55-.14Zm-59.75,201.65-1.6-8.95-2.39-13.41,16.4-39.88-6.55,32.88Zm234.82,303.83-2.77,5.46L1579.66,930l77.6,17.05Zm-154-425.87,50.1-10.06,32.54,59.64ZM1432,486.7l15.56,17.43L1437.34,544l-4.29-45.72ZM1412.11,632l4.12,23.13-16.66-15.48Zm85.15,281.45,25-13.9,42.13,24.81-55.19-9Zm-61.47-361.79-4.44,31.1-10.09-6.08,13.85-23.87Zm19,349.75-12.07-24,.23.16,50.52,36-28.62,7.91Zm115.32,24.12,55-64.17,32.07,84.18-86.8-19.87ZM1611,653.31l-5.32-23,31,25.92-14.86-1.71Zm-29.52-74.25-27-49.4-4-7.41,25.23,14.45,4.45,32.74ZM1522,483.36l-21.11.82,15-10.55,20.54,9.17Zm-66.57,254.23,46.32-23.91-25.89,22.54L1447.35,761l.07-.26ZM1437,839.81l.83,9.8,1.92,22.79L1428,854.67l3.17-5.21ZM1603.67,625l-.35-.73-19.57-41,18.17-3.78.2,0,.82,24ZM1514.4,471.14l-21.85-13.28-10.72-6.52,24.43-2.15.55-.05,2.66,7.7Zm-13.34,444.42,25,4.06,39.48,6.42-19,8.54L1535.67,930Zm152.86-106.49-17-24.32,30.22-6.62,9.62,63.65Zm-16.74-25.86L1652,758.12l14.52,18.67Zm15.47-26.53,6.66-24.33,7.25,42.21Zm-40.78-101.8,17.19,2,9.39,1.08,19,66.78Zm-6.67-26.81-1.56-45.93L1637,654.67Zm-21.89-46.13-2.26-16.6-3.51-25.89,24.11,38.67Zm-153-97.36-10.72,28.63,4.8-46.36Zm2.23,57.83,3.64,5.74-15.26,26.29-1.81-53.17Zm-20.66,88.05-6.67,4.07-5.7,3.48,9.44-37.18Zm4.53,26.79-18.65,31.2,1.29-47.3Zm20.38,180.23-9,14.76-1.09-42.68Zm3.12,37.69-7.75,15.26-4-32.85Zm207.93,88.27L1614,975.94l-42-47.56Zm3.18,1.83-.37-1.2,25.38-5.25-20,22.7Zm15.7-14.81-7.4-4.17,12.55-21.17,10.54-17.77-5,49.14ZM1444.83,763.67l-6.45,13.56-12,25.1-2.92-54.23,20.94,15.15ZM1461,920.23l-19.78-7.64-7.51-17Zm87.79,15,19.06-7.67L1583,945.18Zm98.66,47.22.4.06-11.3.44-13.29-4.06Zm-278.21-603.1-.17-23.27,3.49,5.95Z" transform="translate(-607.32 -336.82)"/><g id="Place_for_Number"><path class="cls-3" d="M1158.81,704.25a65.77,65.77,0,0,1,0,131.53H860V704.25Z" transform="translate(-607.32 -336.82)"/><path class="cls-4" d="M860,835.78h64.66A229.09,229.09,0,0,0,1071,704.25H860Z" transform="translate(-607.32 -336.82)"/></g><g id="Place_for_Number-2" data-name="Place_for_Number"><path class="cls-3" d="M1158.81,550.8a65.77,65.77,0,0,1,0,131.53H860V550.8Z" transform="translate(-607.32 -336.82)"/><path class="cls-4" d="M860,682.33h218.88a229.38,229.38,0,0,0,0-131.53H860Z" transform="translate(-607.32 -336.82)"/></g><g id="Place_for_Number-3" data-name="Place_for_Number"><path class="cls-3" d="M1158.81,397.35a65.77,65.77,0,0,1,0,131.53H860V397.35Z" transform="translate(-607.32 -336.82)"/><path class="cls-4" d="M860,528.88H1071a229,229,0,0,0-146.4-131.53H860Z" transform="translate(-607.32 -336.82)"/></g><g id="Target"><ellipse id="Shadow" class="cls-4" cx="252.63" cy="618.45" rx="252.63" ry="36.27"/><g id="Stand"><path class="cls-5" d="M843.06,943.39h33.78a2.3,2.3,0,0,0,2.3-2.3V815.18H840.75V941.09A2.31,2.31,0,0,0,843.06,943.39Z" transform="translate(-607.32 -336.82)"/><path class="cls-6" d="M879.14,815.18V843c-6.33.53-12.73.82-19.19.82s-12.87-.29-19.2-.82V815.18Z" transform="translate(-607.32 -336.82)"/><rect class="cls-6" x="233.43" y="524.22" width="38.39" height="6.07"/><rect class="cls-6" x="233.43" y="557.31" width="38.39" height="6.08"/><rect class="cls-7" x="121.51" y="530.3" width="263.72" height="27.01"/><rect class="cls-5" x="121.51" y="549.92" width="263.72" height="7.39"/><path class="cls-7" d="M1056.84,961.26a2,2,0,0,1-2,3.12h-36.43a5.94,5.94,0,0,1-4.92-3.12L937.2,799.69l36.55-14.36Z" transform="translate(-607.32 -336.82)"/><path class="cls-5" d="M1024.05,964.38h-5.62a5.94,5.94,0,0,1-4.92-3.12L931.84,788.34l7.65-3Z" transform="translate(-607.32 -336.82)"/><path class="cls-6" d="M973.75,785.33,984,807a226.59,226.59,0,0,1-34.58,18.52L937.2,799.69Z" transform="translate(-607.32 -336.82)"/><path class="cls-7" d="M663.06,961.26c-.82,1.72.07,3.12,2,3.12h36.42a5.94,5.94,0,0,0,4.93-3.12l76.3-161.57-36.54-14.36Z" transform="translate(-607.32 -336.82)"/><path class="cls-5" d="M695.85,964.38h5.61a5.94,5.94,0,0,0,4.93-3.12l81.67-172.92-7.65-3Z" transform="translate(-607.32 -336.82)"/><path class="cls-6" d="M746.15,785.33l36.54,14.36-12.2,25.85A227.16,227.16,0,0,1,735.9,807Z" transform="translate(-607.32 -336.82)"/></g><g id="Target-2" data-name="Target"><path class="cls-3" d="M640.73,616.56c0,120.88,98.35,219.22,219.22,219.22s219.21-98.34,219.21-219.22S980.82,397.35,860,397.35,640.73,495.69,640.73,616.56Zm9.06,0c0-115.88,94.28-210.16,210.16-210.16s210.15,94.28,210.15,210.16S975.83,826.72,860,826.72,649.79,732.45,649.79,616.57Z" transform="translate(-607.32 -336.82)"/><circle class="cls-8" cx="859.95" cy="616.56" r="214.6" transform="translate(-791.42 451.84) rotate(-45)"/><path class="cls-9" d="M686.55,616.56A173.4,173.4,0,1,0,860,443.17,173.4,173.4,0,0,0,686.55,616.56Z" transform="translate(-607.32 -336.82)"/><circle class="cls-3" cx="859.95" cy="616.56" r="130.05" transform="translate(-438.84 1080.7) rotate(-84.84)"/><path class="cls-9" d="M773.25,616.56A86.7,86.7,0,1,0,860,529.87,86.7,86.7,0,0,0,773.25,616.56Z" transform="translate(-607.32 -336.82)"/><path class="cls-8" d="M816.6,616.56A43.35,43.35,0,1,0,860,573.22,43.35,43.35,0,0,0,816.6,616.56Z" transform="translate(-607.32 -336.82)"/></g></g><path id="Shadow-2" data-name="Shadow" class="cls-10" d="M861.53,613.82a3.17,3.17,0,0,1-3.17,5.5L668.57,509.75c1-1.85,2.09-3.68,3.18-5.49Z" transform="translate(-607.32 -336.82)"/><g id="Arrow"><path class="cls-11" d="M671.66,458.56a3.17,3.17,0,0,1,4.45-.39h0L862,614.14a3.17,3.17,0,0,1-4.07,4.86L672.06,463.05l0,0a3.16,3.16,0,0,1-.39-4.44h0Z" transform="translate(-607.32 -336.82)"/><path class="cls-10" d="M861.26,619.43a3.12,3.12,0,0,1-3.34-.43L690.07,478.16l-18-15.11,0,0a3.14,3.14,0,0,1-1-3.21Z" transform="translate(-607.32 -336.82)"/><path class="cls-3" d="M630.09,423.27h0c8-9.5,18.52-17.28,32.07-5.9s34.15,40.75,24,52.91-42.71-3-56.26-14.4S622.13,432.77,630.09,423.27Z" transform="translate(-607.32 -336.82)"/><path class="cls-12" d="M686.11,470.28c-10.2,12.16-42.71-3-56.26-14.4s-7.72-23.11.24-32.61Z" transform="translate(-607.32 -336.82)"/></g><text class="cls-13" transform="translate(633.6 104.43)"><tspan class="cls-14">V</tspan><tspan x="11.68" y="0">isão</tspan></text><text class="cls-15" transform="translate(633.6 131.56)">“Um mundo livre da tuberculose: zero mortes, adoecimento e sofrimento <tspan x="0" y="20">devido à tuberculose”.</tspan></text><text class="cls-13" transform="translate(633.6 411.33)">Metas a serem atingidas até 2035</text><text class="cls-15" transform="translate(650.08 438.36)">Redução de 95% das mortes por<tspan class="cls-14" x="204.67" y="0"> </tspan><tspan x="208.31" y="0">TB (em comparação com 2015) </tspan><tspan x="-0.01" y="20">(</tspan><tspan class="cls-16" x="4.65" y="20">menos de 1 óbito/100.000 habitantes</tspan><tspan x="248.18" y="20">);</tspan><tspan x="-0.03" y="60">Redução de 90% na taxa de incidência de</tspan><tspan class="cls-14" x="262.27" y="60"> </tspan><tspan x="265.91" y="60">TB (</tspan><tspan class="cls-16" x="292.35" y="60">menos de 10 novos </tspan><tspan class="cls-16"><tspan x="-0.04" y="80">casos/100.000 habitantes</tspan><tspan class="cls-17" x="168.06" y="80">);</tspan></tspan><tspan x="-0.06" y="120">Nenhuma família enfrentando gastos catastróficos (gastos que </tspan><tspan x="-0.07" y="140">ultrapassam uma proporção da renda ou da capacidade de pagar dos </tspan><tspan x="-0.07" y="160">cidadãos, podendo contribuir para o empobrecimento e dificultar o </tspan><tspan x="-0.08" y="180">acesso à saúde) por conta da doença.</tspan></text><text class="cls-13" transform="translate(633.6 270.36)">Objetivo</text><text class="cls-15" transform="translate(633.6 297.49)">O fim da epidemia global da doença.</text><circle class="cls-18" cx="638.41" cy="433.19" r="2.86"/><circle class="cls-18" cx="638.41" cy="494.34" r="2.86"/><circle class="cls-18" cx="638.41" cy="553.62" r="2.86"/><rect class="cls-8" x="124.75" y="292.38" width="255.75" height="50.14" rx="25.07"/><text class="cls-19" transform="translate(153.3 325.71)"><tspan xml:space="preserve"> End TB strategy </tspan></text><path class="cls-20" d="M1128.08,458.67a12.65,12.65,0,0,1-4.56,3c-.67-6-2.47-8.9-7.14-14a1.45,1.45,0,0,0-2.14,2c4.39,4.77,5.87,7.17,6.42,12.67a10.23,10.23,0,0,1-3.16-.23l-.33-.07h0l-.32-.07a12.73,12.73,0,0,0-1.71-.29c-1-2.69-2.2-5-4.43-5.74-1.87-.58-4.09.11-7,2.16a1.46,1.46,0,1,0,1.68,2.38c2-1.45,3.54-2.05,4.44-1.76s1.51,1.37,2.21,3a14.88,14.88,0,0,0-8.53,4.46,1.45,1.45,0,0,0,2.07,2,12.6,12.6,0,0,1,5.34-3.29c-.08,4.36-1.3,7.16-3.72,8.51a1.46,1.46,0,0,0,.71,2.73,1.4,1.4,0,0,0,.71-.19c3.5-2,5.19-5.73,5.19-11.47a9.93,9.93,0,0,1,2.36.26l.33.07h0l.32.08a13.09,13.09,0,0,0,3,.36,14.5,14.5,0,0,0,10.3-4.6,1.46,1.46,0,0,0-2.08-2Z" transform="translate(-607.32 -336.82)"/><path class="cls-20" d="M1128.56,465.9c-4.65,1.17-8.81,4.54-11.7,9.38-7.75,4.5-14.1,6.05-18.88,4.58a1.45,1.45,0,1,0-.86,2.77,15,15,0,0,0,3.66.6c-3.29,3.44-6.15,7.78-4.6,12.27a1.44,1.44,0,0,0,1.37,1,1.5,1.5,0,0,0,.47-.08,1.46,1.46,0,0,0,.91-1.85c-1.06-3.08,1-6.77,6.31-11.58a34.88,34.88,0,0,0,9.26-3.15c-2.5,4.57-6.19,7.75-10.31,8.77a1.46,1.46,0,0,0,.71,2.83,15.79,15.79,0,0,0,1.84-.6c-1.17,3-1.67,6.26-.15,9.55a1.45,1.45,0,1,0,2.64-1.22c-1.36-3-.73-6.24,2.08-11a21.31,21.31,0,0,0,4.06-4.24c2.24,3.51,2.38,7.23.46,11.57a1.46,1.46,0,0,0,.74,1.92,1.4,1.4,0,0,0,.59.13,1.46,1.46,0,0,0,1.33-.87c2.53-5.73,2-10.77-1.46-15.41.28-.51.56-1,.81-1.55l.21-.44h0l.2-.44c2.49-5.3,6.5-9,11-10.11a1.46,1.46,0,0,0-.71-2.83Z" transform="translate(-607.32 -336.82)"/><path class="cls-20" d="M1157.65,465.31a13.15,13.15,0,0,0,3-.36l.32-.08h0l.33-.07a9.9,9.9,0,0,1,2.35-.26c0,5.74,1.7,9.51,5.19,11.47a1.43,1.43,0,0,0,.71.19,1.44,1.44,0,0,0,1.27-.75,1.46,1.46,0,0,0-.56-2c-2.42-1.35-3.64-4.15-3.71-8.51a12.5,12.5,0,0,1,5.33,3.29,1.45,1.45,0,0,0,2.07-2,14.86,14.86,0,0,0-8.52-4.46c.7-1.66,1.38-2.77,2.2-3s2.4.31,4.45,1.76a1.46,1.46,0,1,0,1.68-2.38c-2.91-2.05-5.14-2.74-7-2.16-2.24.71-3.42,3.05-4.43,5.74a12.73,12.73,0,0,0-1.71.29l-.32.07h0l-.32.07a10.27,10.27,0,0,1-3.17.23c.56-5.5,2-7.89,6.43-12.67a1.45,1.45,0,0,0-2.14-2c-4.68,5.08-6.48,8-7.14,14a12.82,12.82,0,0,1-4.57-3,1.45,1.45,0,1,0-2.07,2A14.48,14.48,0,0,0,1157.65,465.31Z" transform="translate(-607.32 -336.82)"/><path class="cls-20" d="M1176.73,483.23a15,15,0,0,0,3.65-.6,1.45,1.45,0,1,0-.85-2.77c-4.78,1.47-11.13-.08-18.88-4.58-2.89-4.84-7.05-8.21-11.71-9.38a1.46,1.46,0,0,0-.7,2.83c4.51,1.13,8.53,4.81,11,10.11l.21.44h0l.2.44c.26.54.54,1,.82,1.55-3.49,4.64-4,9.68-1.47,15.41a1.46,1.46,0,0,0,1.33.87,1.37,1.37,0,0,0,.59-.13,1.45,1.45,0,0,0,.74-1.92c-1.92-4.34-1.78-8.06.47-11.57a21.27,21.27,0,0,0,4,4.24c2.82,4.75,3.45,8,2.08,11a1.46,1.46,0,0,0,.71,1.93,1.49,1.49,0,0,0,.61.13,1.44,1.44,0,0,0,1.32-.84c1.52-3.29,1-6.58-.14-9.55a14.64,14.64,0,0,0,1.84.6,1.34,1.34,0,0,0,.35,0,1.46,1.46,0,0,0,.35-2.87c-4.12-1-7.8-4.2-10.31-8.77a35,35,0,0,0,9.26,3.15c5.36,4.81,7.38,8.5,6.32,11.58a1.45,1.45,0,0,0,.9,1.85,1.6,1.6,0,0,0,.47.08,1.46,1.46,0,0,0,1.38-1C1182.87,491,1180,486.67,1176.73,483.23Z" transform="translate(-607.32 -336.82)"/><path class="cls-20" d="M1157.35,436.7a7.39,7.39,0,0,0-7.42.4,7.49,7.49,0,0,0-3.46,6.68c.06,1.29.1,4.41.14,7.14l0,1.83a.82.82,0,0,1-.24.62.91.91,0,0,1-1.51-.61V414.64c0-1.88-2.22-3-6.08-3s-6.09,1.08-6.09,3v38.12a.92.92,0,0,1-1.52.61.82.82,0,0,1-.24-.62l0-1.67c0-2.77.11-6,.16-7.3a7.47,7.47,0,0,0-3.46-6.68,7.39,7.39,0,0,0-7.42-.4,57.78,57.78,0,0,0-31.55,54.62c.12,2.23.29,4.45.49,6.64a13.76,13.76,0,0,0,6.66,10.57,14,14,0,0,0,7.22,2,14.17,14.17,0,0,0,5.39-1.08c2.31-1,4.67-2.09,7-3.18a96.53,96.53,0,0,1,10.86-4.64,7.53,7.53,0,0,0,5.07-7.6c-.33-6.23-.54-12.61-.64-19v0a8.33,8.33,0,0,1,7.36-8.55,8,8,0,0,1,6.22,2.13,8.18,8.18,0,0,1,2.6,6.09v0c-.09,6.5-.31,13-.64,19.32a7.53,7.53,0,0,0,5.07,7.6,94.81,94.81,0,0,1,10.86,4.65c2.29,1.08,4.65,2.21,7,3.17a13.9,13.9,0,0,0,12.6-.94,13.71,13.71,0,0,0,6.66-10.57c.21-2.19.37-4.41.49-6.64A57.76,57.76,0,0,0,1157.35,436.7Zm-32,62.19a94.91,94.91,0,0,0-11.2,4.78c-2.36,1.12-4.58,2.18-6.83,3.11a11,11,0,0,1-10-.74,10.87,10.87,0,0,1-5.26-8.35c-.2-2.16-.36-4.33-.48-6.53a54.83,54.83,0,0,1,30-51.86,4.53,4.53,0,0,1,2.05-.5,4.65,4.65,0,0,1,4.61,4.85c-.06,1.33-.11,4.58-.16,7.38l0,1.67h0l-.24,22.34h0v0c.1,6.42.32,12.85.65,19.11A4.65,4.65,0,0,1,1125.38,498.89Zm20.9-32.4a10.91,10.91,0,0,0-8.46-2.9,10.75,10.75,0,0,0-7,3.56l.11-10.73a4.08,4.08,0,0,0,.93.12,3.78,3.78,0,0,0,3.78-3.78V415a11.61,11.61,0,0,1,6.35,0v37.73a3.79,3.79,0,0,0,3.79,3.78,4.07,4.07,0,0,0,.92-.12l.12,10.68A7.72,7.72,0,0,0,1146.28,466.49ZM1186,491.16c-.12,2.2-.28,4.37-.48,6.53a10.86,10.86,0,0,1-5.27,8.35,11,11,0,0,1-10,.74c-2.24-.93-4.46-2-6.82-3.11a96.61,96.61,0,0,0-11.2-4.78,4.64,4.64,0,0,1-3.08-4.69c.34-6.36.55-12.9.65-19.44v0h0l-.26-22h0l0-1.83c0-2.76-.09-5.93-.14-7.23a4.6,4.6,0,0,1,2.13-4.11,4.51,4.51,0,0,1,4.53-.24A54.83,54.83,0,0,1,1186,491.16Z" transform="translate(-607.32 -336.82)"/><path class="cls-20" d="M1190.18,618.87a4.2,4.2,0,0,0-4.19,4.19v7.1a3.92,3.92,0,0,0-3.51,1.1l-5.21,5.17a20.07,20.07,0,0,0-3.9,2.48,14.27,14.27,0,0,0-5.12,11.13v3.35l-3,3.38a2.08,2.08,0,0,0,1.55,3.47h7.84a1.26,1.26,0,0,0,.9-.37l16.8-16.81a6.88,6.88,0,0,0,2-4.92V623.06A4.19,4.19,0,0,0,1190.18,618.87Zm1.65,19.27a4.36,4.36,0,0,1-1.3,3.13l-16.43,16.44h-6.32l2.68-3a1.28,1.28,0,0,0,.32-.85V650a11.75,11.75,0,0,1,4.19-9.17,17,17,0,0,1,3.59-2.24,2,2,0,0,0,.35-.25l5.35-5.33a1.46,1.46,0,0,1,2,0,1.42,1.42,0,0,1,0,2l-.84.81h0l-5.73,5.54h0c-.06.06-.08.14-.14.21a2.41,2.41,0,0,0,.14,3,2.23,2.23,0,0,0,1.59.66,2.35,2.35,0,0,0,1.67-.7,30.68,30.68,0,0,0,4.39-7l.72-.7a4,4,0,0,0,.45-5.06v-8.73a1.66,1.66,0,1,1,3.31,0Z" transform="translate(-607.32 -336.82)"/><path class="cls-20" d="M1158,589.94a3.44,3.44,0,0,0,1.29-.81c1.15-1.2,2.13-3.27.32-6.36a12.06,12.06,0,0,0-6.11-5c-7.86-3-14.85-4.61-21.36-4.87a17.33,17.33,0,0,0-15,7.84,41.69,41.69,0,0,0-6.21,31,4.55,4.55,0,0,0,.49,1.38L1107,628.38a1.25,1.25,0,0,0,.86,1.57,1,1,0,0,0,.35,0,1.27,1.27,0,0,0,1.22-.91l4.09-14a8.09,8.09,0,0,0,1.78.81,4.16,4.16,0,0,0,1.21.17,4.41,4.41,0,0,0,2.26-.63,4.91,4.91,0,0,0,2.26-3.19c1.74-8.26,4.33-11.86,8.77-12.39,2.16,0,4.41,2.7,6.51,7.75a1.26,1.26,0,0,0,1,.76,1.28,1.28,0,0,0,1.15-.4c1-1.13,2.17-2.4,3.44-3.82a14.17,14.17,0,0,0,3.55-10.77c-.12-1.23-.27-2.58-.45-4a2.87,2.87,0,0,1,1.1-2.64,2.71,2.71,0,0,1,2.72-.4,34.61,34.61,0,0,1,6,3.27,3.68,3.68,0,0,0,.35.15,15.22,15.22,0,0,1,1.85,5.69l1.58,22.76-3-.88a1.24,1.24,0,0,0-1,.1,1.22,1.22,0,0,0-.61.76l-3.65,12.43a4.56,4.56,0,0,1-5.66,3.09l-8.28-2.42a1.26,1.26,0,0,0-1.57.85l-3.61,12.33a1.27,1.27,0,0,0,.86,1.57,1.1,1.1,0,0,0,.35.05,1.27,1.27,0,0,0,1.22-.91l3.26-11.11,7.06,2.07a6.85,6.85,0,0,0,2,.29,7.1,7.1,0,0,0,6.81-5.1l3.29-11.22,3.53,1a1.27,1.27,0,0,0,1.62-1.3l-1.71-24.63A17.09,17.09,0,0,0,1158,589.94Zm-8.39-6a5.28,5.28,0,0,0-5.2.75,5.35,5.35,0,0,0-2.06,5c.17,1.43.32,2.77.44,4a11.59,11.59,0,0,1-2.92,8.83l-2.12,2.36c-2.38-5-5-7.46-8.17-7.48-7.31.86-9.72,7.76-11.11,14.39a2.39,2.39,0,0,1-1.09,1.53,1.77,1.77,0,0,1-1.45.21,5.56,5.56,0,0,1-1.69-.84,2.19,2.19,0,0,1-.86-1.36,39.24,39.24,0,0,1,5.84-29.18,14.77,14.77,0,0,1,12.25-6.71h.57a64.94,64.94,0,0,1,20.56,4.7,9.45,9.45,0,0,1,4.82,3.93c1.09,1.84.6,2.74,0,3.31a1.06,1.06,0,0,1-1.34.13A36.11,36.11,0,0,0,1149.65,584Z" transform="translate(-607.32 -336.82)"/><path class="cls-20" d="M1156.09,627.32l7.9,2.51a1.2,1.2,0,0,0,.38,0,1.27,1.27,0,0,0,.38-2.47l-7.9-2.5a1.26,1.26,0,1,0-.76,2.41Z" transform="translate(-607.32 -336.82)"/><path class="cls-20" d="M1163.18,633.65a1.27,1.27,0,0,0,.38-2.47l-7.9-2.5a1.25,1.25,0,0,0-1.59.82,1.27,1.27,0,0,0,.82,1.59l7.9,2.5A1.32,1.32,0,0,0,1163.18,633.65Z" transform="translate(-607.32 -336.82)"/><path class="cls-20" d="M1175.44,630.2a27.32,27.32,0,0,1-5.94-8,5.38,5.38,0,0,0-4.16.36,1.27,1.27,0,0,0,.58,2.39,1.19,1.19,0,0,0,.58-.15,2.94,2.94,0,0,1,4.15,3.49,1.27,1.27,0,0,0,.83,1.59,3,3,0,0,1,1.72,1.45,2.94,2.94,0,0,1-1.26,4,3,3,0,0,1-2.24.19,1.26,1.26,0,0,0-1.58.82,2.94,2.94,0,0,1-5.41.47,1.26,1.26,0,1,0-2.24,1.17,5.44,5.44,0,0,0,3.2,2.69,5.56,5.56,0,0,0,1.64.26,5.47,5.47,0,0,0,4.75-2.78,4.9,4.9,0,0,0,.54,0,5.47,5.47,0,0,0,4.84-8Z" transform="translate(-607.32 -336.82)"/><path class="cls-20" d="M1170.3,728.54h-19a10.9,10.9,0,0,0-21.5,0h-19a8.46,8.46,0,0,0-8.45,8.45v73.08a8.46,8.46,0,0,0,8.45,8.45h59.44a8.46,8.46,0,0,0,8.46-8.45V737A8.46,8.46,0,0,0,1170.3,728.54Zm-37,1.81a7.27,7.27,0,1,1,14.54,0,1.84,1.84,0,0,0,.72,1.45c4.81,3.68,10.23,7.89,10.8,8.44a2.7,2.7,0,0,1,.8,1.93,2.73,2.73,0,0,1-2.73,2.73h-33.72a2.73,2.73,0,0,1-1.93-4.66c.57-.54,6-4.76,10.81-8.44A1.83,1.83,0,0,0,1133.31,730.35Zm41.81,79.72a4.83,4.83,0,0,1-4.82,4.82h-59.44a4.83,4.83,0,0,1-4.82-4.82V737a4.82,4.82,0,0,1,4.82-4.82h15.29c-3,2.33-6.39,5-6.92,5.5a6.29,6.29,0,0,0-1.87,4.5,6.36,6.36,0,0,0,6.36,6.36h33.72a6.36,6.36,0,0,0,4.5-10.86h0c-.53-.54-3.91-3.17-6.92-5.5h15.28a4.82,4.82,0,0,1,4.82,4.82Z" transform="translate(-607.32 -336.82)"/><path class="cls-20" d="M1140.58,733.08a2.73,2.73,0,1,0-2.73-2.73A2.73,2.73,0,0,0,1140.58,733.08Z" transform="translate(-607.32 -336.82)"/><path class="cls-20" d="M1129.17,755.35h-10a1.81,1.81,0,0,0-1.81,1.82v10a1.81,1.81,0,0,0,1.81,1.81h10a1.81,1.81,0,0,0,1.82-1.81v-10A1.81,1.81,0,0,0,1129.17,755.35Zm-1.81,10H1121V759h6.37Z" transform="translate(-607.32 -336.82)"/><path class="cls-20" d="M1129.17,774.44h-10a1.81,1.81,0,0,0-1.81,1.82v10a1.81,1.81,0,0,0,1.81,1.82h10a1.81,1.81,0,0,0,1.82-1.82v-10A1.81,1.81,0,0,0,1129.17,774.44Zm-1.81,10H1121v-6.37h6.37Z" transform="translate(-607.32 -336.82)"/><path class="cls-20" d="M1129.17,793.53h-10a1.81,1.81,0,0,0-1.81,1.81v10a1.81,1.81,0,0,0,1.81,1.82h10a1.81,1.81,0,0,0,1.82-1.82v-10A1.81,1.81,0,0,0,1129.17,793.53Zm-1.81,10H1121v-6.36h6.37Z" transform="translate(-607.32 -336.82)"/><path class="cls-20" d="M1162,760.35h-22.32a1.82,1.82,0,1,0,0,3.63H1162a1.82,1.82,0,1,0,0-3.63Z" transform="translate(-607.32 -336.82)"/><path class="cls-20" d="M1162,779.44h-22.32a1.82,1.82,0,1,0,0,3.63H1162a1.82,1.82,0,1,0,0-3.63Z" transform="translate(-607.32 -336.82)"/><path class="cls-20" d="M1162,798.53h-22.32a1.82,1.82,0,1,0,0,3.63H1162a1.82,1.82,0,1,0,0-3.63Z" transform="translate(-607.32 -336.82)"/></g></g></svg>