<?xml version="1.0" encoding="UTF-8"?><svg id="Camada_1" xmlns="http://www.w3.org/2000/svg" viewBox="0 0 1075.31 387.75"><defs><style>.cls-1{fill:#fff;}.cls-2{fill:#0a528f;}.cls-3{fill:#2d7fc5;}.cls-4{fill:none;stroke:#0a528f;stroke-miterlimit:10;stroke-width:2px;}.cls-5{fill:#51a3e8;}.cls-6{fill:#ccc;}</style></defs><rect class="cls-3" x="227.02" y="32.85" width="173.12" height="39.35" rx="10" ry="10"/><rect class="cls-4" x="1.18" y="205.97" width="278.57" height="39.35" rx="10" ry="10"/><g><path class="cls-2" d="M24.09,226.57l1.99-.19c.12,.67,.36,1.16,.73,1.47s.86,.47,1.48,.47c.66,0,1.16-.14,1.49-.42,.33-.28,.5-.6,.5-.98,0-.24-.07-.44-.21-.61-.14-.17-.39-.31-.74-.44-.24-.08-.79-.23-1.64-.44-1.1-.27-1.87-.61-2.31-1-.62-.56-.93-1.24-.93-2.04,0-.52,.15-1,.44-1.45,.29-.45,.71-.79,1.27-1.03,.55-.23,1.22-.35,2-.35,1.27,0,2.23,.28,2.87,.84,.64,.56,.98,1.3,1.01,2.23l-2.05,.09c-.09-.52-.28-.9-.56-1.12-.29-.23-.72-.34-1.3-.34s-1.06,.12-1.4,.37c-.22,.16-.33,.37-.33,.63,0,.24,.1,.44,.3,.62,.26,.22,.89,.44,1.88,.68,1,.23,1.73,.48,2.21,.73s.85,.59,1.12,1.03c.27,.44,.4,.97,.4,1.62,0,.58-.16,1.12-.48,1.63-.32,.51-.78,.88-1.37,1.13-.59,.25-1.33,.37-2.21,.37-1.28,0-2.27-.3-2.95-.89-.69-.59-1.1-1.46-1.23-2.59Z"/><path class="cls-2" d="M34.04,221.53v-1.8h1.94v1.8h-1.94Zm0,8.34v-7.35h1.94v7.35h-1.94Z"/><path class="cls-2" d="M37.29,227.78l1.95-.3c.08,.38,.25,.67,.5,.86,.25,.2,.61,.29,1.07,.29,.5,0,.88-.09,1.13-.28,.17-.13,.26-.3,.26-.52,0-.15-.05-.27-.14-.37-.1-.09-.31-.18-.65-.26-1.57-.35-2.56-.66-2.98-.95-.58-.4-.87-.95-.87-1.65,0-.64,.25-1.17,.75-1.6s1.28-.65,2.34-.65,1.75,.16,2.24,.49c.49,.33,.83,.81,1.01,1.45l-1.83,.34c-.08-.29-.23-.5-.45-.66-.22-.15-.53-.23-.94-.23-.51,0-.88,.07-1.1,.21-.15,.1-.22,.23-.22,.39,0,.14,.06,.26,.19,.35,.18,.13,.78,.31,1.82,.55,1.04,.23,1.76,.52,2.17,.86,.41,.35,.61,.83,.61,1.45,0,.67-.28,1.25-.84,1.74-.56,.48-1.4,.73-2.5,.73-1,0-1.79-.2-2.38-.61-.58-.41-.96-.96-1.14-1.65Z"/><path class="cls-2" d="M49.22,222.53v1.55h-1.33v2.96c0,.6,.01,.95,.04,1.05,.02,.1,.08,.18,.17,.25,.09,.06,.2,.1,.33,.1,.18,0,.44-.06,.78-.19l.17,1.51c-.45,.19-.96,.29-1.54,.29-.35,0-.67-.06-.95-.18s-.49-.27-.62-.46c-.13-.19-.22-.44-.27-.76-.04-.23-.06-.68-.06-1.37v-3.2h-.89v-1.55h.89v-1.46l1.95-1.13v2.59h1.33Z"/><path class="cls-2" d="M54.82,227.53l1.94,.33c-.25,.71-.64,1.25-1.18,1.62s-1.21,.56-2.02,.56c-1.28,0-2.22-.42-2.84-1.25-.48-.67-.73-1.51-.73-2.53,0-1.22,.32-2.17,.95-2.86s1.44-1.03,2.41-1.03c1.09,0,1.95,.36,2.59,1.08s.93,1.83,.91,3.32h-4.87c.01,.58,.17,1.02,.47,1.35s.67,.48,1.12,.48c.3,0,.56-.08,.77-.25,.21-.17,.36-.43,.47-.8Zm.11-1.96c-.01-.56-.16-.99-.44-1.28-.28-.29-.61-.44-1.01-.44-.42,0-.77,.15-1.05,.46-.28,.31-.41,.73-.41,1.26h2.9Z"/><path class="cls-2" d="M58.3,222.53h1.79v1c.64-.78,1.4-1.17,2.29-1.17,.47,0,.88,.1,1.22,.29,.35,.19,.63,.49,.85,.88,.32-.39,.67-.68,1.04-.88,.37-.19,.77-.29,1.2-.29,.54,0,1,.11,1.37,.33,.37,.22,.65,.54,.84,.96,.13,.31,.2,.82,.2,1.52v4.7h-1.94v-4.2c0-.73-.07-1.2-.2-1.41-.18-.28-.46-.42-.83-.42-.27,0-.53,.08-.77,.25-.24,.17-.41,.41-.52,.73-.11,.32-.16,.83-.16,1.52v3.53h-1.94v-4.03c0-.71-.03-1.18-.1-1.38-.07-.21-.18-.36-.32-.46-.15-.1-.34-.15-.59-.15-.3,0-.57,.08-.81,.24-.24,.16-.41,.39-.52,.7-.1,.3-.16,.81-.16,1.51v3.57h-1.94v-7.35Z"/><path class="cls-2" d="M72.49,224.77l-1.76-.32c.2-.71,.54-1.24,1.02-1.58,.48-.34,1.2-.51,2.16-.51,.87,0,1.51,.1,1.94,.31,.42,.21,.72,.47,.9,.78,.17,.32,.26,.9,.26,1.74l-.02,2.27c0,.65,.03,1.12,.09,1.43,.06,.31,.18,.63,.35,.99h-1.92c-.05-.13-.11-.32-.19-.57-.03-.12-.06-.19-.07-.23-.33,.32-.69,.56-1.06,.73-.38,.16-.78,.24-1.21,.24-.76,0-1.35-.21-1.79-.62-.44-.41-.65-.93-.65-1.56,0-.42,.1-.78,.3-1.11s.48-.57,.83-.75,.87-.32,1.55-.45c.91-.17,1.54-.33,1.89-.48v-.19c0-.37-.09-.64-.28-.8-.18-.16-.53-.24-1.04-.24-.35,0-.62,.07-.81,.2-.19,.14-.35,.37-.47,.72Zm2.6,1.58c-.25,.08-.64,.18-1.18,.3-.54,.12-.89,.23-1.06,.34-.25,.18-.38,.41-.38,.69s.1,.51,.3,.71c.2,.2,.46,.3,.77,.3,.35,0,.68-.12,1-.35,.23-.18,.39-.39,.46-.64,.05-.17,.08-.48,.08-.95v-.39Z"/><path class="cls-2" d="M89.59,229.87h-1.81v-1.08c-.3,.42-.65,.73-1.06,.94s-.82,.31-1.23,.31c-.84,0-1.57-.34-2.17-1.02-.6-.68-.9-1.63-.9-2.85s.29-2.19,.88-2.84c.59-.65,1.33-.97,2.22-.97,.82,0,1.53,.34,2.13,1.02v-3.65h1.94v10.14Zm-5.19-3.83c0,.78,.11,1.35,.33,1.7,.31,.51,.75,.76,1.31,.76,.45,0,.83-.19,1.14-.57s.47-.95,.47-1.71c0-.84-.15-1.45-.46-1.82-.3-.37-.69-.56-1.17-.56s-.85,.18-1.16,.55-.47,.91-.47,1.64Z"/><path class="cls-2" d="M95.76,227.53l1.94,.33c-.25,.71-.64,1.25-1.18,1.62s-1.21,.56-2.02,.56c-1.28,0-2.22-.42-2.84-1.25-.48-.67-.73-1.51-.73-2.53,0-1.22,.32-2.17,.95-2.86s1.44-1.03,2.41-1.03c1.09,0,1.95,.36,2.59,1.08s.93,1.83,.91,3.32h-4.87c.01,.58,.17,1.02,.47,1.35s.67,.48,1.12,.48c.3,0,.56-.08,.77-.25,.21-.17,.36-.43,.47-.8Zm.11-1.96c-.01-.56-.16-.99-.44-1.28-.28-.29-.61-.44-1.01-.44-.42,0-.77,.15-1.05,.46-.28,.31-.41,.73-.41,1.26h2.9Z"/><path class="cls-2" d="M102.64,227.78l1.95-.3c.08,.38,.25,.67,.5,.86,.25,.2,.61,.29,1.07,.29,.5,0,.88-.09,1.13-.28,.17-.13,.26-.3,.26-.52,0-.15-.05-.27-.14-.37-.1-.09-.31-.18-.65-.26-1.57-.35-2.56-.66-2.98-.95-.58-.4-.87-.95-.87-1.65,0-.64,.25-1.17,.75-1.6s1.28-.65,2.34-.65,1.75,.16,2.24,.49c.49,.33,.83,.81,1.01,1.45l-1.83,.34c-.08-.29-.23-.5-.45-.66-.22-.15-.53-.23-.94-.23-.51,0-.88,.07-1.1,.21-.15,.1-.22,.23-.22,.39,0,.14,.06,.26,.19,.35,.18,.13,.78,.31,1.82,.55,1.04,.23,1.76,.52,2.17,.86,.41,.35,.61,.83,.61,1.45,0,.67-.28,1.25-.84,1.74-.56,.48-1.4,.73-2.5,.73-1,0-1.79-.2-2.38-.61-.58-.41-.96-.96-1.14-1.65Z"/><path class="cls-2" d="M116.03,229.87v-1.1c-.27,.39-.62,.7-1.05,.93-.44,.23-.9,.34-1.38,.34s-.94-.11-1.33-.33c-.39-.22-.68-.52-.85-.91-.18-.39-.26-.93-.26-1.63v-4.65h1.94v3.38c0,1.03,.04,1.67,.11,1.9,.07,.23,.2,.42,.39,.55s.43,.2,.72,.2c.33,0,.63-.09,.89-.27,.26-.18,.44-.41,.54-.68,.1-.27,.15-.93,.15-1.98v-3.1h1.94v7.35h-1.81Z"/><path class="cls-2" d="M119.79,222.53h1.81v1.08c.24-.37,.55-.67,.95-.9,.4-.23,.85-.35,1.33-.35,.85,0,1.58,.33,2.17,1,.59,.67,.89,1.6,.89,2.79s-.3,2.18-.9,2.86c-.6,.68-1.33,1.02-2.18,1.02-.41,0-.77-.08-1.1-.24-.33-.16-.68-.44-1.04-.83v3.7h-1.94v-10.14Zm1.92,3.55c0,.83,.16,1.44,.49,1.83,.33,.39,.73,.59,1.2,.59s.83-.18,1.13-.54c.3-.36,.45-.96,.45-1.78,0-.77-.15-1.34-.46-1.72s-.69-.56-1.15-.56-.87,.18-1.18,.55c-.31,.37-.47,.91-.47,1.63Z"/><path class="cls-2" d="M128.05,226.1c0-.65,.16-1.27,.48-1.87,.32-.6,.77-1.07,1.35-1.38,.58-.32,1.23-.48,1.95-.48,1.11,0,2.02,.36,2.73,1.08s1.07,1.63,1.07,2.74-.36,2.03-1.08,2.76-1.62,1.1-2.71,1.1c-.67,0-1.32-.15-1.93-.46s-1.08-.75-1.39-1.34c-.32-.59-.48-1.3-.48-2.15Zm1.99,.1c0,.73,.17,1.29,.52,1.67,.35,.39,.77,.58,1.28,.58s.93-.19,1.28-.58c.34-.39,.52-.95,.52-1.69s-.17-1.27-.52-1.66c-.34-.39-.77-.58-1.28-.58s-.93,.19-1.28,.58-.52,.95-.52,1.67Z"/><path class="cls-2" d="M139.01,229.87h-1.94v-7.35h1.81v1.04c.31-.49,.59-.82,.83-.98s.53-.24,.84-.24c.44,0,.87,.12,1.28,.37l-.6,1.69c-.33-.21-.63-.32-.91-.32s-.5,.08-.69,.22c-.19,.15-.34,.42-.45,.81-.11,.39-.16,1.21-.16,2.46v2.27Z"/><path class="cls-2" d="M146.03,222.53v1.55h-1.33v2.96c0,.6,.01,.95,.04,1.05,.02,.1,.08,.18,.17,.25,.09,.06,.2,.1,.33,.1,.18,0,.44-.06,.78-.19l.17,1.51c-.45,.19-.96,.29-1.54,.29-.35,0-.67-.06-.95-.18s-.49-.27-.62-.46c-.13-.19-.22-.44-.27-.76-.04-.23-.06-.68-.06-1.37v-3.2h-.89v-1.55h.89v-1.46l1.95-1.13v2.59h1.33Z"/><path class="cls-2" d="M151.64,227.53l1.94,.33c-.25,.71-.64,1.25-1.18,1.62s-1.21,.56-2.02,.56c-1.28,0-2.22-.42-2.84-1.25-.48-.67-.73-1.51-.73-2.53,0-1.22,.32-2.17,.95-2.86s1.44-1.03,2.41-1.03c1.09,0,1.95,.36,2.59,1.08s.93,1.83,.91,3.32h-4.87c.01,.58,.17,1.02,.47,1.35s.67,.48,1.12,.48c.3,0,.56-.08,.77-.25,.21-.17,.36-.43,.47-.8Zm.11-1.96c-.01-.56-.16-.99-.44-1.28-.28-.29-.61-.44-1.01-.44-.42,0-.77,.15-1.05,.46-.28,.31-.41,.73-.41,1.26h2.9Z"/><path class="cls-2" d="M158.75,226.1c0-.65,.16-1.27,.48-1.87,.32-.6,.77-1.07,1.35-1.38,.58-.32,1.23-.48,1.95-.48,1.11,0,2.02,.36,2.73,1.08s1.07,1.63,1.07,2.74-.36,2.03-1.08,2.76-1.62,1.1-2.71,1.1c-.67,0-1.32-.15-1.93-.46s-1.08-.75-1.39-1.34c-.32-.59-.48-1.3-.48-2.15Zm1.99,.1c0,.73,.17,1.29,.52,1.67,.35,.39,.77,.58,1.28,.58s.93-.19,1.28-.58c.34-.39,.52-.95,.52-1.69s-.17-1.27-.52-1.66c-.34-.39-.77-.58-1.28-.58s-.93,.19-1.28,.58-.52,.95-.52,1.67Z"/><path class="cls-2" d="M169.71,229.87h-1.94v-7.35h1.81v1.04c.31-.49,.59-.82,.83-.98s.53-.24,.84-.24c.44,0,.87,.12,1.28,.37l-.6,1.69c-.33-.21-.63-.32-.91-.32s-.5,.08-.69,.22c-.19,.15-.34,.42-.45,.81-.11,.39-.16,1.21-.16,2.46v2.27Z"/><path class="cls-2" d="M173.18,230.36l2.22,.27c.04,.26,.12,.44,.26,.53,.18,.14,.47,.21,.87,.21,.51,0,.89-.08,1.14-.23,.17-.1,.3-.27,.39-.49,.06-.16,.09-.46,.09-.89v-1.07c-.58,.79-1.31,1.19-2.2,1.19-.99,0-1.77-.42-2.34-1.25-.45-.66-.68-1.48-.68-2.46,0-1.23,.3-2.17,.89-2.82,.59-.65,1.33-.98,2.21-.98s1.66,.4,2.25,1.2v-1.03h1.82v6.59c0,.87-.07,1.51-.21,1.94s-.34,.77-.6,1.01c-.26,.24-.6,.44-1.03,.57s-.98,.21-1.64,.21c-1.24,0-2.13-.21-2.65-.64-.52-.43-.78-.97-.78-1.62,0-.06,0-.14,0-.23Zm1.74-4.31c0,.78,.15,1.35,.45,1.71,.3,.36,.67,.54,1.12,.54,.48,0,.88-.19,1.2-.56,.33-.37,.49-.92,.49-1.65s-.16-1.33-.47-1.69c-.31-.37-.71-.55-1.19-.55s-.85,.18-1.15,.54c-.3,.36-.45,.91-.45,1.66Z"/><path class="cls-2" d="M183.47,224.77l-1.76-.32c.2-.71,.54-1.24,1.02-1.58,.48-.34,1.2-.51,2.16-.51,.87,0,1.51,.1,1.94,.31,.42,.21,.72,.47,.9,.78,.17,.32,.26,.9,.26,1.74l-.02,2.27c0,.65,.03,1.12,.09,1.43,.06,.31,.18,.63,.35,.99h-1.92c-.05-.13-.11-.32-.19-.57-.03-.12-.06-.19-.07-.23-.33,.32-.69,.56-1.06,.73-.38,.16-.78,.24-1.21,.24-.76,0-1.35-.21-1.79-.62-.44-.41-.65-.93-.65-1.56,0-.42,.1-.78,.3-1.11s.48-.57,.83-.75,.87-.32,1.55-.45c.91-.17,1.54-.33,1.89-.48v-.19c0-.37-.09-.64-.28-.8-.18-.16-.53-.24-1.04-.24-.35,0-.62,.07-.81,.2-.19,.14-.35,.37-.47,.72Zm2.6,1.58c-.25,.08-.64,.18-1.18,.3-.54,.12-.89,.23-1.06,.34-.25,.18-.38,.41-.38,.69s.1,.51,.3,.71c.2,.2,.46,.3,.77,.3,.35,0,.68-.12,1-.35,.23-.18,.39-.39,.46-.64,.05-.17,.08-.48,.08-.95v-.39Z"/><path class="cls-2" d="M196.57,229.87h-1.94v-3.75c0-.79-.04-1.31-.12-1.54-.08-.23-.22-.41-.4-.54-.19-.13-.41-.19-.67-.19-.34,0-.64,.09-.91,.28-.27,.18-.45,.43-.55,.73-.1,.3-.15,.87-.15,1.69v3.33h-1.94v-7.35h1.81v1.08c.64-.83,1.45-1.25,2.42-1.25,.43,0,.82,.08,1.18,.23s.62,.35,.81,.59,.31,.51,.38,.82c.07,.3,.11,.74,.11,1.31v4.56Z"/><path class="cls-2" d="M198.54,221.53v-1.8h1.94v1.8h-1.94Zm0,8.34v-7.35h1.94v7.35h-1.94Z"/><path class="cls-2" d="M201.7,229.87v-1.51l2.75-3.16c.45-.52,.79-.88,1-1.1-.23,.01-.52,.02-.89,.03h-2.59s0-1.6,0-1.6h6.07v1.38l-2.81,3.24-.99,1.07c.54-.03,.87-.05,1-.05h3.01v1.71h-6.56Z"/><path class="cls-2" d="M211.01,224.77l-1.76-.32c.2-.71,.54-1.24,1.02-1.58,.48-.34,1.2-.51,2.16-.51,.87,0,1.51,.1,1.94,.31,.42,.21,.72,.47,.9,.78,.17,.32,.26,.9,.26,1.74l-.02,2.27c0,.65,.03,1.12,.09,1.43,.06,.31,.18,.63,.35,.99h-1.92c-.05-.13-.11-.32-.19-.57-.03-.12-.06-.19-.07-.23-.33,.32-.69,.56-1.06,.73-.38,.16-.78,.24-1.21,.24-.76,0-1.35-.21-1.79-.62-.44-.41-.65-.93-.65-1.56,0-.42,.1-.78,.3-1.11s.48-.57,.83-.75,.87-.32,1.55-.45c.91-.17,1.54-.33,1.89-.48v-.19c0-.37-.09-.64-.28-.8-.18-.16-.53-.24-1.04-.24-.35,0-.62,.07-.81,.2-.19,.14-.35,.37-.47,.72Zm2.6,1.58c-.25,.08-.64,.18-1.18,.3-.54,.12-.89,.23-1.06,.34-.25,.18-.38,.41-.38,.69s.1,.51,.3,.71c.2,.2,.46,.3,.77,.3,.35,0,.68-.12,1-.35,.23-.18,.39-.39,.46-.64,.05-.17,.08-.48,.08-.95v-.39Z"/><path class="cls-2" d="M223.84,224.7l-1.92,.35c-.06-.38-.21-.67-.44-.86-.23-.19-.52-.29-.89-.29-.48,0-.87,.17-1.16,.5-.29,.33-.43,.89-.43,1.68,0,.87,.15,1.49,.44,1.85,.29,.36,.69,.54,1.18,.54,.37,0,.67-.1,.91-.31,.24-.21,.4-.57,.5-1.08l1.91,.33c-.2,.88-.58,1.54-1.14,1.98-.56,.45-1.32,.67-2.26,.67-1.07,0-1.93-.34-2.57-1.02s-.96-1.62-.96-2.81,.32-2.16,.96-2.83c.64-.68,1.51-1.01,2.6-1.01,.89,0,1.61,.19,2.13,.58,.53,.39,.91,.97,1.14,1.76Z"/><path class="cls-2" d="M225.32,221.53v-1.8h1.94v1.8h-1.94Zm0,8.34v-7.35h1.94v7.35h-1.94Z"/><path class="cls-2" d="M228.8,226.1c0-.65,.16-1.27,.48-1.87,.32-.6,.77-1.07,1.35-1.38,.58-.32,1.23-.48,1.95-.48,1.11,0,2.02,.36,2.73,1.08s1.07,1.63,1.07,2.74-.36,2.03-1.08,2.76-1.62,1.1-2.71,1.1c-.67,0-1.32-.15-1.93-.46s-1.08-.75-1.39-1.34c-.32-.59-.48-1.3-.48-2.15Zm1.99,.1c0,.73,.17,1.29,.52,1.67,.35,.39,.77,.58,1.28,.58s.93-.19,1.28-.58c.34-.39,.52-.95,.52-1.69s-.17-1.27-.52-1.66c-.34-.39-.77-.58-1.28-.58s-.93,.19-1.28,.58-.52,.95-.52,1.67Z"/><path class="cls-2" d="M244.58,229.87h-1.94v-3.75c0-.79-.04-1.31-.12-1.54-.08-.23-.22-.41-.4-.54-.19-.13-.41-.19-.67-.19-.34,0-.64,.09-.91,.28-.27,.18-.45,.43-.55,.73-.1,.3-.15,.87-.15,1.69v3.33h-1.94v-7.35h1.81v1.08c.64-.83,1.45-1.25,2.42-1.25,.43,0,.82,.08,1.18,.23s.62,.35,.81,.59,.31,.51,.38,.82c.07,.3,.11,.74,.11,1.31v4.56Z"/><path class="cls-2" d="M248.01,224.77l-1.76-.32c.2-.71,.54-1.24,1.02-1.58,.48-.34,1.2-.51,2.16-.51,.87,0,1.51,.1,1.94,.31,.42,.21,.72,.47,.9,.78,.17,.32,.26,.9,.26,1.74l-.02,2.27c0,.65,.03,1.12,.09,1.43,.06,.31,.18,.63,.35,.99h-1.92c-.05-.13-.11-.32-.19-.57-.03-.12-.06-.19-.07-.23-.33,.32-.69,.56-1.06,.73-.38,.16-.78,.24-1.21,.24-.76,0-1.35-.21-1.79-.62-.44-.41-.65-.93-.65-1.56,0-.42,.1-.78,.3-1.11s.48-.57,.83-.75,.87-.32,1.55-.45c.91-.17,1.54-.33,1.89-.48v-.19c0-.37-.09-.64-.28-.8-.18-.16-.53-.24-1.04-.24-.35,0-.62,.07-.81,.2-.19,.14-.35,.37-.47,.72Zm2.6,1.58c-.25,.08-.64,.18-1.18,.3-.54,.12-.89,.23-1.06,.34-.25,.18-.38,.41-.38,.69s.1,.51,.3,.71c.2,.2,.46,.3,.77,.3,.35,0,.68-.12,1-.35,.23-.18,.39-.39,.46-.64,.05-.17,.08-.48,.08-.95v-.39Z"/><path class="cls-2" d="M254.43,229.87v-10.14h1.94v10.14h-1.94Z"/></g><g><rect class="cls-6" x="172.73" y="20.66" width="27.54" height="3.15"/><rect class="cls-6" x="166.82" y="51.35" width="63.74" height="3.15" transform="translate(251.61 -145.78) rotate(90)"/></g><rect class="cls-6" x="172.73" y="83.22" width="27.54" height="3.15"/><rect class="cls-6" x="146.76" y="147.74" width="280.93" height="3.15"/><rect class="cls-6" x="170.37" y="366.5" width="707.43" height="3.15"/><rect class="cls-6" x="199.48" y="50.95" width="27.54" height="3.15"/><rect class="cls-6" x="400.14" y="52.13" width="27.54" height="3.15"/><rect class="cls-6" x="378.11" y="100.53" width="96" height="3.15" transform="translate(528.21 -324.01) rotate(90)"/><rect class="cls-6" x="424.54" y="97.38" width="27.54" height="3.15"/><g><rect class="cls-6" x="170.37" y="299.62" width="482.38" height="3.15"/><rect class="cls-6" x="625.2" y="98.56" width="27.54" height="3.15"/></g><rect class="cls-6" x="550.15" y="198.44" width="202.24" height="2.95" transform="translate(851.18 -451.35) rotate(90)"/><rect class="cls-6" x="650.59" y="198.34" width="27.54" height="3.15"/><rect class="cls-6" x="850.26" y="198.34" width="27.54" height="3.15"/><rect class="cls-6" x="791.14" y="282.4" width="170.17" height="3.15" transform="translate(1160.2 -592.25) rotate(90)"/><rect class="cls-6" x="874.65" y="277.58" width="27.54" height="3.15"/><rect class="cls-2" y="0" width="173.12" height="39.35" rx="10" ry="10"/><rect class="cls-2" x=".39" y="129.64" width="173.12" height="39.35" rx="10" ry="10"/><rect class="cls-2" x=".39" y="65.12" width="173.12" height="39.35" rx="10" ry="10"/><g><path class="cls-1" d="M36.32,23.32V13.3h3.03l1.82,6.84,1.8-6.84h3.04v10.02h-1.88v-7.89l-1.99,7.89h-1.95l-1.98-7.89v7.89h-1.88Z"/><path class="cls-1" d="M52.2,21.01l1.91,.32c-.25,.7-.63,1.24-1.17,1.6s-1.2,.55-1.99,.55c-1.26,0-2.2-.41-2.8-1.24-.48-.66-.72-1.49-.72-2.5,0-1.2,.31-2.15,.94-2.83s1.42-1.02,2.39-1.02c1.08,0,1.93,.36,2.56,1.07s.92,1.81,.9,3.28h-4.81c.01,.57,.17,1.01,.46,1.33s.67,.48,1.11,.48c.3,0,.55-.08,.76-.25s.36-.43,.46-.79Zm.11-1.94c-.01-.56-.16-.98-.43-1.27s-.61-.43-1-.43c-.42,0-.77,.15-1.04,.46s-.41,.72-.4,1.24h2.87Z"/><path class="cls-1" d="M62.44,23.32h-1.78v-1.07c-.3,.41-.65,.72-1.05,.93s-.81,.3-1.22,.3c-.83,0-1.55-.34-2.14-1.01s-.89-1.61-.89-2.81,.29-2.17,.87-2.81,1.31-.96,2.19-.96c.81,0,1.51,.34,2.11,1.01v-3.61h1.92v10.02Zm-5.13-3.79c0,.77,.11,1.34,.32,1.68,.31,.5,.74,.75,1.3,.75,.44,0,.82-.19,1.13-.56s.46-.94,.46-1.69c0-.83-.15-1.43-.45-1.8s-.69-.55-1.16-.55-.84,.18-1.15,.54-.46,.9-.46,1.62Z"/><path class="cls-1" d="M64.33,15.08v-1.78h1.92v1.78h-1.92Zm0,8.24v-7.26h1.92v7.26h-1.92Z"/><path class="cls-1" d="M74.55,18.21l-1.89,.34c-.06-.38-.21-.66-.43-.85s-.52-.29-.88-.29c-.48,0-.86,.17-1.15,.5s-.43,.88-.43,1.66c0,.86,.14,1.47,.43,1.83s.68,.53,1.17,.53c.36,0,.66-.1,.9-.31s.4-.56,.49-1.07l1.89,.32c-.2,.87-.57,1.52-1.13,1.96s-1.3,.66-2.24,.66c-1.06,0-1.91-.33-2.54-1s-.95-1.6-.95-2.78,.32-2.13,.95-2.8,1.49-1,2.57-1c.88,0,1.59,.19,2.11,.57s.9,.96,1.12,1.74Z"/><path class="cls-1" d="M77.45,18.28l-1.74-.31c.2-.7,.53-1.22,1.01-1.56s1.19-.51,2.13-.51c.86,0,1.49,.1,1.91,.3s.71,.46,.89,.77,.26,.89,.26,1.72l-.02,2.24c0,.64,.03,1.11,.09,1.41s.18,.63,.35,.97h-1.9c-.05-.13-.11-.32-.18-.57-.03-.11-.05-.19-.07-.23-.33,.32-.68,.56-1.05,.72s-.77,.24-1.2,.24c-.75,0-1.34-.2-1.77-.61s-.65-.92-.65-1.54c0-.41,.1-.78,.29-1.1s.47-.57,.82-.74,.86-.32,1.53-.45c.9-.17,1.52-.33,1.87-.47v-.19c0-.37-.09-.63-.27-.79s-.53-.24-1.03-.24c-.34,0-.61,.07-.8,.2s-.35,.37-.46,.71Zm2.57,1.56c-.25,.08-.64,.18-1.17,.29s-.88,.23-1.05,.33c-.25,.18-.38,.4-.38,.68s.1,.5,.3,.7,.46,.29,.77,.29c.35,0,.68-.11,.99-.34,.23-.17,.39-.39,.46-.64,.05-.16,.08-.48,.08-.94v-.38Z"/><path class="cls-1" d="M83.65,16.06h1.77v.99c.63-.77,1.39-1.16,2.26-1.16,.46,0,.87,.1,1.21,.29s.62,.48,.84,.87c.32-.39,.66-.68,1.03-.87s.76-.29,1.18-.29c.53,0,.98,.11,1.35,.32s.65,.53,.83,.95c.13,.31,.2,.81,.2,1.5v4.64h-1.92v-4.15c0-.72-.07-1.19-.2-1.39-.18-.27-.45-.41-.82-.41-.27,0-.52,.08-.76,.25s-.41,.4-.51,.72-.16,.82-.16,1.5v3.49h-1.92v-3.98c0-.71-.03-1.16-.1-1.37s-.17-.36-.32-.46-.34-.15-.58-.15c-.3,0-.56,.08-.8,.24s-.41,.39-.51,.69-.15,.8-.15,1.5v3.53h-1.92v-7.26Z"/><path class="cls-1" d="M100.45,21.01l1.91,.32c-.25,.7-.63,1.24-1.17,1.6s-1.2,.55-1.99,.55c-1.26,0-2.2-.41-2.8-1.24-.48-.66-.72-1.49-.72-2.5,0-1.2,.31-2.15,.94-2.83s1.42-1.02,2.39-1.02c1.08,0,1.93,.36,2.56,1.07s.92,1.81,.9,3.28h-4.81c.01,.57,.17,1.01,.46,1.33s.67,.48,1.11,.48c.3,0,.55-.08,.76-.25s.36-.43,.46-.79Zm.11-1.94c-.01-.56-.16-.98-.43-1.27s-.61-.43-1-.43c-.42,0-.77,.15-1.04,.46s-.41,.72-.4,1.24h2.87Z"/><path class="cls-1" d="M110.63,23.32h-1.92v-3.71c0-.78-.04-1.29-.12-1.52s-.22-.41-.4-.54-.41-.19-.67-.19c-.33,0-.63,.09-.9,.27s-.45,.42-.54,.72-.15,.86-.15,1.67v3.29h-1.92v-7.26h1.78v1.07c.63-.82,1.43-1.23,2.39-1.23,.42,0,.81,.08,1.16,.23s.62,.35,.8,.58,.31,.51,.38,.81,.11,.73,.11,1.29v4.51Z"/><path class="cls-1" d="M115.91,16.06v1.53h-1.31v2.93c0,.59,.01,.94,.04,1.04s.08,.18,.17,.24,.2,.1,.32,.1c.18,0,.44-.06,.77-.18l.16,1.49c-.45,.19-.95,.29-1.52,.29-.35,0-.66-.06-.94-.17s-.48-.27-.61-.45-.22-.43-.27-.75c-.04-.22-.06-.67-.06-1.35v-3.17h-.88v-1.53h.88v-1.44l1.93-1.12v2.56h1.31Z"/><path class="cls-1" d="M116.8,19.59c0-.64,.16-1.26,.47-1.85s.76-1.05,1.34-1.37,1.22-.47,1.93-.47c1.1,0,2,.36,2.7,1.07s1.05,1.61,1.05,2.7-.35,2.01-1.06,2.73-1.6,1.08-2.68,1.08c-.67,0-1.3-.15-1.9-.45s-1.06-.74-1.38-1.32-.47-1.29-.47-2.12Zm1.97,.1c0,.72,.17,1.27,.51,1.65s.76,.57,1.26,.57,.92-.19,1.26-.57,.51-.94,.51-1.67-.17-1.26-.51-1.64-.76-.57-1.26-.57-.92,.19-1.26,.57-.51,.93-.51,1.65Z"/><path class="cls-1" d="M125.12,21.25l1.93-.29c.08,.37,.25,.66,.5,.85s.6,.29,1.05,.29c.5,0,.87-.09,1.12-.27,.17-.13,.25-.3,.25-.51,0-.15-.05-.27-.14-.36-.1-.09-.31-.18-.64-.25-1.55-.34-2.53-.65-2.95-.94-.57-.39-.86-.94-.86-1.63,0-.63,.25-1.16,.75-1.59s1.27-.64,2.31-.64,1.73,.16,2.21,.49,.82,.8,1,1.44l-1.81,.33c-.08-.28-.22-.5-.44-.65s-.53-.23-.93-.23c-.51,0-.87,.07-1.09,.21-.15,.1-.22,.23-.22,.39,0,.14,.06,.25,.19,.35,.17,.13,.77,.31,1.79,.54s1.74,.52,2.14,.85c.4,.34,.6,.82,.6,1.43,0,.67-.28,1.24-.83,1.72s-1.38,.72-2.47,.72c-.99,0-1.77-.2-2.35-.6s-.95-.95-1.13-1.63Z"/></g><g><path class="cls-1" d="M39.74,87.44v-10.02h7.43v1.7h-5.41v2.22h5.03v1.69h-5.03v2.73h5.6v1.69h-7.62Z"/><path class="cls-1" d="M53.81,90.2v-3.65c-.25,.32-.56,.58-.94,.77s-.78,.28-1.21,.28c-.82,0-1.5-.31-2.04-.93-.63-.72-.94-1.71-.94-2.95,0-1.17,.29-2.08,.89-2.73s1.32-.98,2.2-.98c.48,0,.9,.1,1.25,.31s.67,.52,.94,.93v-1.07h1.77v10.02h-1.92Zm.06-6.48c0-.74-.15-1.3-.45-1.66s-.68-.54-1.14-.54-.85,.18-1.17,.55-.47,.95-.47,1.76,.15,1.37,.45,1.73,.67,.53,1.11,.53,.83-.2,1.16-.59,.5-.99,.5-1.77Z"/><path class="cls-1" d="M62.4,87.44v-1.09c-.26,.39-.61,.69-1.04,.92s-.89,.33-1.36,.33-.93-.11-1.31-.32-.67-.52-.84-.9-.26-.92-.26-1.61v-4.59h1.92v3.34c0,1.02,.04,1.65,.11,1.88s.2,.41,.39,.55,.42,.2,.71,.2c.33,0,.62-.09,.88-.27s.44-.4,.53-.67,.14-.92,.14-1.96v-3.06h1.92v7.26h-1.78Z"/><path class="cls-1" d="M66.17,79.2v-1.78h1.92v1.78h-1.92Zm0,8.24v-7.26h1.92v7.26h-1.92Z"/><path class="cls-1" d="M70.01,80.18h1.79v1.07c.23-.36,.55-.66,.94-.89s.84-.34,1.32-.34c.84,0,1.56,.33,2.15,.99s.88,1.58,.88,2.76-.3,2.15-.89,2.83-1.31,1.01-2.15,1.01c-.4,0-.76-.08-1.09-.24s-.67-.43-1.03-.82v3.66h-1.92v-10.02Zm1.9,3.51c0,.82,.16,1.42,.49,1.81s.72,.58,1.18,.58,.82-.18,1.11-.54,.44-.94,.44-1.76c0-.76-.15-1.33-.46-1.7s-.68-.55-1.13-.55-.86,.18-1.17,.54-.46,.9-.46,1.61Z"/><path class="cls-1" d="M80.05,82.4l-1.74-.31c.2-.7,.53-1.22,1.01-1.56s1.19-.51,2.13-.51c.86,0,1.49,.1,1.91,.3s.71,.46,.89,.77,.26,.89,.26,1.72l-.02,2.24c0,.64,.03,1.11,.09,1.41s.18,.63,.35,.97h-1.9c-.05-.13-.11-.32-.18-.57-.03-.11-.05-.19-.07-.23-.33,.32-.68,.56-1.05,.72s-.77,.24-1.2,.24c-.75,0-1.34-.2-1.77-.61s-.65-.92-.65-1.54c0-.41,.1-.78,.29-1.1s.47-.57,.82-.74,.86-.32,1.53-.45c.9-.17,1.52-.33,1.87-.47v-.19c0-.37-.09-.63-.27-.79s-.53-.24-1.03-.24c-.34,0-.61,.07-.8,.2s-.35,.37-.46,.71Zm2.57,1.56c-.25,.08-.64,.18-1.17,.29s-.88,.23-1.05,.33c-.25,.18-.38,.4-.38,.68s.1,.5,.3,.7,.46,.29,.77,.29c.35,0,.68-.11,.99-.34,.23-.17,.39-.39,.46-.64,.05-.16,.08-.48,.08-.94v-.38Z"/><path class="cls-1" d="M86.26,80.18h1.77v.99c.63-.77,1.39-1.16,2.26-1.16,.46,0,.87,.1,1.21,.29s.62,.48,.84,.87c.32-.39,.66-.68,1.03-.87s.76-.29,1.18-.29c.53,0,.98,.11,1.35,.32s.65,.53,.83,.95c.13,.31,.2,.81,.2,1.5v4.64h-1.92v-4.15c0-.72-.07-1.19-.2-1.39-.18-.27-.45-.41-.82-.41-.27,0-.52,.08-.76,.25s-.41,.4-.51,.72-.16,.82-.16,1.5v3.49h-1.92v-3.98c0-.71-.03-1.16-.1-1.37s-.17-.36-.32-.46-.34-.15-.58-.15c-.3,0-.56,.08-.8,.24s-.41,.39-.51,.69-.15,.8-.15,1.5v3.53h-1.92v-7.26Z"/><path class="cls-1" d="M103.05,85.13l1.91,.32c-.25,.7-.63,1.24-1.17,1.6s-1.2,.55-1.99,.55c-1.26,0-2.2-.41-2.8-1.24-.48-.66-.72-1.49-.72-2.5,0-1.2,.31-2.15,.94-2.83s1.42-1.02,2.39-1.02c1.08,0,1.93,.36,2.56,1.07s.92,1.81,.9,3.28h-4.81c.01,.57,.17,1.01,.46,1.33s.67,.48,1.11,.48c.3,0,.55-.08,.76-.25s.36-.43,.46-.79Zm.11-1.94c-.01-.56-.16-.98-.43-1.27s-.61-.43-1-.43c-.42,0-.77,.15-1.04,.46s-.41,.72-.4,1.24h2.87Z"/><path class="cls-1" d="M113.24,87.44h-1.92v-3.71c0-.78-.04-1.29-.12-1.52s-.22-.41-.4-.54-.41-.19-.67-.19c-.33,0-.63,.09-.9,.27s-.45,.42-.54,.72-.15,.86-.15,1.67v3.29h-1.92v-7.26h1.78v1.07c.63-.82,1.43-1.23,2.39-1.23,.42,0,.81,.08,1.16,.23s.62,.35,.8,.58,.31,.51,.38,.81,.11,.73,.11,1.29v4.51Z"/><path class="cls-1" d="M118.51,80.18v1.53h-1.31v2.93c0,.59,.01,.94,.04,1.04s.08,.18,.17,.24,.2,.1,.32,.1c.18,0,.44-.06,.77-.18l.16,1.49c-.45,.19-.95,.29-1.52,.29-.35,0-.66-.06-.94-.17s-.48-.27-.61-.45-.22-.43-.27-.75c-.04-.22-.06-.67-.06-1.35v-3.17h-.88v-1.53h.88v-1.44l1.93-1.12v2.56h1.31Z"/><path class="cls-1" d="M119.4,83.71c0-.64,.16-1.26,.47-1.85s.76-1.05,1.34-1.37,1.22-.47,1.93-.47c1.1,0,2,.36,2.7,1.07s1.05,1.61,1.05,2.7-.35,2.01-1.06,2.73-1.6,1.08-2.68,1.08c-.67,0-1.3-.15-1.9-.45s-1.06-.74-1.38-1.32-.47-1.29-.47-2.12Zm1.97,.1c0,.72,.17,1.27,.51,1.65s.76,.57,1.26,.57,.92-.19,1.26-.57,.51-.94,.51-1.67-.17-1.26-.51-1.64-.76-.57-1.26-.57-.92,.19-1.26,.57-.51,.93-.51,1.65Z"/><path class="cls-1" d="M127.72,85.37l1.93-.29c.08,.37,.25,.66,.5,.85s.6,.29,1.05,.29c.5,0,.87-.09,1.12-.27,.17-.13,.25-.3,.25-.51,0-.15-.05-.27-.14-.36-.1-.09-.31-.18-.64-.25-1.55-.34-2.53-.65-2.95-.94-.57-.39-.86-.94-.86-1.63,0-.63,.25-1.16,.75-1.59s1.27-.64,2.31-.64,1.73,.16,2.21,.49,.82,.8,1,1.44l-1.81,.33c-.08-.28-.22-.5-.44-.65s-.53-.23-.93-.23c-.51,0-.87,.07-1.09,.21-.15,.1-.22,.23-.22,.39,0,.14,.06,.25,.19,.35,.17,.13,.77,.31,1.79,.54s1.74,.52,2.14,.85c.4,.34,.6,.82,.6,1.43,0,.67-.28,1.24-.83,1.72s-1.38,.72-2.47,.72c-.99,0-1.77-.2-2.35-.6s-.95-.95-1.13-1.63Z"/></g><g><path class="cls-1" d="M37.4,153.97v-10.02h3.25c1.23,0,2.03,.05,2.41,.15,.57,.15,1.06,.48,1.44,.98s.58,1.15,.58,1.95c0,.62-.11,1.13-.33,1.55s-.51,.75-.85,.99-.69,.4-1.05,.48c-.48,.1-1.18,.14-2.1,.14h-1.32v3.78h-2.02Zm2.02-8.33v2.84h1.11c.8,0,1.33-.05,1.6-.16s.48-.27,.63-.49,.23-.48,.23-.78c0-.36-.11-.67-.32-.9s-.49-.39-.81-.44c-.24-.05-.73-.07-1.46-.07h-.98Z"/><path class="cls-1" d="M48.57,153.97h-1.92v-7.26h1.78v1.03c.31-.49,.58-.81,.82-.96s.52-.23,.83-.23c.44,0,.86,.12,1.26,.36l-.59,1.67c-.32-.21-.62-.31-.9-.31s-.5,.07-.68,.22-.33,.42-.44,.8-.16,1.2-.16,2.43v2.24Z"/><path class="cls-1" d="M51.73,150.24c0-.64,.16-1.26,.47-1.85s.76-1.05,1.34-1.37,1.22-.47,1.93-.47c1.1,0,2,.36,2.7,1.07s1.05,1.61,1.05,2.7-.35,2.01-1.06,2.73-1.6,1.08-2.68,1.08c-.67,0-1.3-.15-1.9-.45s-1.06-.74-1.38-1.32-.47-1.29-.47-2.12Zm1.97,.1c0,.72,.17,1.27,.51,1.65s.76,.57,1.26,.57,.92-.19,1.26-.57,.51-.94,.51-1.67-.17-1.26-.51-1.64-.76-.57-1.26-.57-.92,.19-1.26,.57-.51,.93-.51,1.65Z"/><path class="cls-1" d="M67.06,148.85l-1.89,.34c-.06-.38-.21-.66-.43-.85s-.52-.29-.88-.29c-.48,0-.86,.17-1.15,.5s-.43,.88-.43,1.66c0,.86,.14,1.47,.43,1.83s.68,.53,1.17,.53c.36,0,.66-.1,.9-.31s.4-.56,.49-1.07l1.89,.32c-.2,.87-.57,1.52-1.13,1.96s-1.3,.66-2.24,.66c-1.06,0-1.91-.33-2.54-1s-.95-1.6-.95-2.78,.32-2.13,.95-2.8,1.49-1,2.57-1c.88,0,1.59,.19,2.11,.57s.9,.96,1.12,1.74Z"/><path class="cls-1" d="M72.72,151.66l1.91,.32c-.25,.7-.63,1.24-1.17,1.6s-1.2,.55-1.99,.55c-1.26,0-2.2-.41-2.8-1.24-.48-.66-.72-1.49-.72-2.5,0-1.2,.31-2.15,.94-2.83s1.42-1.02,2.39-1.02c1.08,0,1.93,.36,2.56,1.07s.92,1.81,.9,3.28h-4.81c.01,.57,.17,1.01,.46,1.33s.67,.48,1.11,.48c.3,0,.55-.08,.76-.25s.36-.43,.46-.79Zm.11-1.94c-.01-.56-.16-.98-.43-1.27s-.61-.43-1-.43c-.42,0-.77,.15-1.04,.46s-.41,.72-.4,1.24h2.87Z"/><path class="cls-1" d="M82.96,153.97h-1.78v-1.07c-.3,.41-.65,.72-1.05,.93s-.81,.3-1.22,.3c-.83,0-1.55-.34-2.14-1.01s-.89-1.61-.89-2.81,.29-2.17,.87-2.81,1.31-.96,2.19-.96c.81,0,1.51,.34,2.11,1.01v-3.61h1.92v10.02Zm-5.13-3.79c0,.77,.11,1.34,.32,1.68,.31,.5,.74,.75,1.3,.75,.44,0,.82-.19,1.13-.56s.46-.94,.46-1.69c0-.83-.15-1.43-.45-1.8s-.69-.55-1.16-.55-.84,.18-1.15,.54-.46,.9-.46,1.62Z"/><path class="cls-1" d="M84.85,145.72v-1.78h1.92v1.78h-1.92Zm0,8.24v-7.26h1.92v7.26h-1.92Z"/><path class="cls-1" d="M88.6,146.71h1.77v.99c.63-.77,1.39-1.16,2.26-1.16,.46,0,.87,.1,1.21,.29s.62,.48,.84,.87c.32-.39,.66-.68,1.03-.87s.76-.29,1.18-.29c.53,0,.98,.11,1.35,.32s.65,.53,.83,.95c.13,.31,.2,.81,.2,1.5v4.64h-1.92v-4.15c0-.72-.07-1.19-.2-1.39-.18-.27-.45-.41-.82-.41-.27,0-.52,.08-.76,.25s-.41,.4-.51,.72-.16,.82-.16,1.5v3.49h-1.92v-3.98c0-.71-.03-1.16-.1-1.37s-.17-.36-.32-.46-.34-.15-.58-.15c-.3,0-.56,.08-.8,.24s-.41,.39-.51,.69-.15,.8-.15,1.5v3.53h-1.92v-7.26Z"/><path class="cls-1" d="M105.39,151.66l1.91,.32c-.25,.7-.63,1.24-1.17,1.6s-1.2,.55-1.99,.55c-1.26,0-2.2-.41-2.8-1.24-.48-.66-.72-1.49-.72-2.5,0-1.2,.31-2.15,.94-2.83s1.42-1.02,2.39-1.02c1.08,0,1.93,.36,2.56,1.07s.92,1.81,.9,3.28h-4.81c.01,.57,.17,1.01,.46,1.33s.67,.48,1.11,.48c.3,0,.55-.08,.76-.25s.36-.43,.46-.79Zm.11-1.94c-.01-.56-.16-.98-.43-1.27s-.61-.43-1-.43c-.42,0-.77,.15-1.04,.46s-.41,.72-.4,1.24h2.87Z"/><path class="cls-1" d="M115.58,153.97h-1.92v-3.71c0-.78-.04-1.29-.12-1.52s-.22-.41-.4-.54-.41-.19-.67-.19c-.33,0-.63,.09-.9,.27s-.45,.42-.54,.72-.15,.86-.15,1.67v3.29h-1.92v-7.26h1.78v1.07c.63-.82,1.43-1.23,2.39-1.23,.42,0,.81,.08,1.16,.23s.62,.35,.8,.58,.31,.51,.38,.81,.11,.73,.11,1.29v4.51Z"/><path class="cls-1" d="M120.86,146.71v1.53h-1.31v2.93c0,.59,.01,.94,.04,1.04s.08,.18,.17,.24,.2,.1,.32,.1c.18,0,.44-.06,.77-.18l.16,1.49c-.45,.19-.95,.29-1.52,.29-.35,0-.66-.06-.94-.17s-.48-.27-.61-.45-.22-.43-.27-.75c-.04-.22-.06-.67-.06-1.35v-3.17h-.88v-1.53h.88v-1.44l1.93-1.12v2.56h1.31Z"/><path class="cls-1" d="M121.74,150.24c0-.64,.16-1.26,.47-1.85s.76-1.05,1.34-1.37,1.22-.47,1.93-.47c1.1,0,2,.36,2.7,1.07s1.05,1.61,1.05,2.7-.35,2.01-1.06,2.73-1.6,1.08-2.68,1.08c-.67,0-1.3-.15-1.9-.45s-1.06-.74-1.38-1.32-.47-1.29-.47-2.12Zm1.97,.1c0,.72,.17,1.27,.51,1.65s.76,.57,1.26,.57,.92-.19,1.26-.57,.51-.94,.51-1.67-.17-1.26-.51-1.64-.76-.57-1.26-.57-.92,.19-1.26,.57-.51,.93-.51,1.65Z"/><path class="cls-1" d="M130.06,151.9l1.93-.29c.08,.37,.25,.66,.5,.85s.6,.29,1.05,.29c.5,0,.87-.09,1.12-.27,.17-.13,.25-.3,.25-.51,0-.15-.05-.27-.14-.36-.1-.09-.31-.18-.64-.25-1.55-.34-2.53-.65-2.95-.94-.57-.39-.86-.94-.86-1.63,0-.63,.25-1.16,.75-1.59s1.27-.64,2.31-.64,1.73,.16,2.21,.49,.82,.8,1,1.44l-1.81,.33c-.08-.28-.22-.5-.44-.65s-.53-.23-.93-.23c-.51,0-.87,.07-1.09,.21-.15,.1-.22,.23-.22,.39,0,.14,.06,.25,.19,.35,.17,.13,.77,.31,1.79,.54s1.74,.52,2.14,.85c.4,.34,.6,.82,.6,1.43,0,.67-.28,1.24-.83,1.72s-1.38,.72-2.47,.72c-.99,0-1.77-.2-2.35-.6s-.95-.95-1.13-1.63Z"/></g><rect class="cls-2" x=".39" y="281.52" width="173.12" height="39.35" rx="10" ry="10"/><rect class="cls-2" x=".39" y="348.4" width="173.12" height="39.35" rx="10" ry="10"/><g><path class="cls-1" d="M47.39,302.15l1.97-.19c.12,.66,.36,1.15,.72,1.46s.85,.46,1.47,.46c.65,0,1.14-.14,1.47-.41,.33-.28,.5-.6,.5-.97,0-.24-.07-.44-.21-.61-.14-.17-.38-.31-.73-.43-.24-.08-.78-.23-1.62-.44-1.08-.27-1.85-.6-2.28-.99-.62-.55-.92-1.22-.92-2.02,0-.51,.14-.99,.43-1.43,.29-.45,.71-.78,1.25-1.02s1.2-.35,1.97-.35c1.26,0,2.2,.28,2.84,.83s.97,1.29,1,2.21l-2.02,.09c-.09-.51-.27-.88-.56-1.11-.28-.22-.71-.34-1.28-.34s-1.05,.12-1.38,.36c-.21,.16-.32,.36-.32,.62,0,.24,.1,.44,.3,.61,.26,.21,.88,.44,1.86,.67s1.71,.47,2.18,.72c.47,.25,.84,.59,1.11,1.02,.27,.43,.4,.96,.4,1.6,0,.57-.16,1.11-.48,1.61s-.77,.87-1.35,1.12c-.58,.24-1.31,.37-2.18,.37-1.27,0-2.24-.29-2.92-.88-.68-.58-1.08-1.44-1.22-2.56Z"/><path class="cls-1" d="M61.43,303.1l1.91,.32c-.25,.7-.63,1.24-1.17,1.6-.53,.37-1.2,.55-1.99,.55-1.26,0-2.2-.41-2.8-1.24-.48-.66-.72-1.5-.72-2.5,0-1.2,.31-2.15,.94-2.83,.63-.68,1.42-1.02,2.39-1.02,1.08,0,1.93,.36,2.56,1.07,.62,.71,.92,1.81,.9,3.28h-4.81c.01,.57,.17,1.01,.46,1.33,.3,.32,.67,.47,1.11,.47,.3,0,.55-.08,.76-.25s.36-.43,.46-.79Zm.11-1.94c-.01-.56-.16-.98-.43-1.27-.27-.29-.61-.43-1-.43-.42,0-.77,.15-1.04,.46s-.41,.72-.4,1.24h2.87Z"/><path class="cls-1" d="M68.34,298.16v1.53h-1.31v2.93c0,.59,.01,.94,.04,1.04,.02,.1,.08,.18,.17,.24s.2,.1,.32,.1c.18,0,.44-.06,.77-.18l.16,1.49c-.45,.19-.95,.29-1.52,.29-.35,0-.66-.06-.94-.17-.28-.12-.48-.27-.61-.45-.13-.19-.22-.43-.27-.75-.04-.22-.06-.67-.06-1.35v-3.17h-.88v-1.53h.88v-1.44l1.93-1.12v2.56h1.31Z"/><path class="cls-1" d="M69.23,301.68c0-.64,.16-1.26,.47-1.85s.76-1.05,1.34-1.37,1.22-.47,1.93-.47c1.1,0,2,.36,2.7,1.07,.7,.71,1.05,1.61,1.05,2.7s-.35,2.01-1.06,2.73c-.71,.72-1.6,1.08-2.68,1.08-.67,0-1.3-.15-1.9-.45s-1.06-.74-1.38-1.32c-.31-.58-.47-1.29-.47-2.12Zm1.97,.1c0,.72,.17,1.27,.51,1.65s.76,.57,1.26,.57,.92-.19,1.26-.57,.51-.94,.51-1.67-.17-1.26-.51-1.64-.76-.57-1.26-.57-.92,.19-1.26,.57-.51,.93-.51,1.65Z"/><path class="cls-1" d="M80.07,305.42h-1.92v-7.26h1.78v1.03c.31-.49,.58-.81,.82-.96s.52-.23,.83-.23c.44,0,.86,.12,1.26,.36l-.59,1.67c-.32-.21-.62-.31-.9-.31s-.5,.07-.68,.22c-.19,.15-.33,.42-.44,.8s-.16,1.2-.16,2.43v2.24Z"/><path class="cls-1" d="M86.89,303.34l1.93-.29c.08,.37,.25,.66,.5,.85,.25,.19,.6,.29,1.05,.29,.5,0,.87-.09,1.12-.27,.17-.13,.25-.3,.25-.51,0-.15-.05-.27-.14-.36-.1-.09-.31-.18-.64-.25-1.55-.34-2.53-.65-2.95-.94-.57-.39-.86-.94-.86-1.63,0-.63,.25-1.16,.75-1.59s1.27-.64,2.31-.64,1.73,.16,2.21,.49,.82,.8,1,1.44l-1.81,.33c-.08-.28-.22-.5-.44-.65s-.53-.23-.93-.23c-.51,0-.87,.07-1.09,.21-.15,.1-.22,.23-.22,.39,0,.14,.06,.25,.19,.35,.17,.13,.77,.31,1.79,.54s1.74,.52,2.14,.85c.4,.34,.6,.82,.6,1.43,0,.67-.28,1.24-.83,1.72s-1.38,.72-2.47,.72c-.99,0-1.77-.2-2.35-.6s-.95-.95-1.13-1.63Z"/><path class="cls-1" d="M96.79,300.37l-1.74-.31c.2-.7,.53-1.22,1.01-1.56s1.19-.51,2.13-.51c.86,0,1.49,.1,1.91,.3,.42,.2,.71,.46,.89,.77,.17,.31,.26,.89,.26,1.72l-.02,2.24c0,.64,.03,1.11,.09,1.41,.06,.3,.18,.63,.35,.97h-1.9c-.05-.13-.11-.32-.18-.57-.03-.11-.05-.19-.07-.23-.33,.32-.68,.56-1.05,.72s-.77,.24-1.2,.24c-.75,0-1.34-.2-1.77-.61s-.65-.92-.65-1.54c0-.41,.1-.78,.29-1.1,.2-.32,.47-.57,.82-.74,.35-.17,.86-.32,1.53-.45,.9-.17,1.52-.33,1.87-.47v-.19c0-.37-.09-.63-.27-.79-.18-.16-.53-.24-1.03-.24-.34,0-.61,.07-.8,.2-.19,.13-.35,.37-.46,.71Zm2.57,1.56c-.25,.08-.64,.18-1.17,.29s-.88,.23-1.05,.33c-.25,.18-.38,.4-.38,.68s.1,.5,.3,.7,.46,.29,.77,.29c.35,0,.68-.11,.99-.34,.23-.17,.39-.38,.46-.64,.05-.16,.08-.48,.08-.94v-.38Z"/><path class="cls-1" d="M107.92,305.42v-1.09c-.26,.39-.61,.69-1.04,.92s-.89,.33-1.36,.33-.93-.11-1.31-.32-.67-.51-.84-.9-.26-.92-.26-1.61v-4.59h1.92v3.34c0,1.02,.04,1.65,.11,1.88,.07,.23,.2,.41,.39,.55,.19,.13,.42,.2,.71,.2,.33,0,.62-.09,.88-.27,.26-.18,.44-.4,.53-.67,.1-.27,.14-.92,.14-1.96v-3.06h1.92v7.26h-1.78Zm-2.49-8.15l.94-2.04h2.15l-1.88,2.04h-1.22Z"/><path class="cls-1" d="M118.35,305.42h-1.78v-1.07c-.3,.42-.65,.72-1.05,.93-.4,.2-.81,.3-1.22,.3-.83,0-1.55-.34-2.14-1.01-.59-.67-.89-1.61-.89-2.81s.29-2.17,.87-2.81c.58-.64,1.31-.96,2.19-.96,.81,0,1.51,.34,2.11,1.01v-3.61h1.92v10.02Zm-5.13-3.79c0,.77,.11,1.33,.32,1.68,.31,.5,.74,.75,1.3,.75,.44,0,.82-.19,1.13-.56,.31-.38,.46-.94,.46-1.68,0-.83-.15-1.43-.45-1.8-.3-.37-.69-.55-1.16-.55s-.84,.18-1.15,.54c-.31,.36-.46,.9-.46,1.62Z"/><path class="cls-1" d="M124.44,303.1l1.91,.32c-.25,.7-.63,1.24-1.17,1.6-.53,.37-1.2,.55-1.99,.55-1.26,0-2.2-.41-2.8-1.24-.48-.66-.72-1.5-.72-2.5,0-1.2,.31-2.15,.94-2.83,.63-.68,1.42-1.02,2.39-1.02,1.08,0,1.93,.36,2.56,1.07,.62,.71,.92,1.81,.9,3.28h-4.81c.01,.57,.17,1.01,.46,1.33,.3,.32,.67,.47,1.11,.47,.3,0,.55-.08,.76-.25s.36-.43,.46-.79Zm.11-1.94c-.01-.56-.16-.98-.43-1.27-.27-.29-.61-.43-1-.43-.42,0-.77,.15-1.04,.46s-.41,.72-.4,1.24h2.87Z"/></g><g><path class="cls-1" d="M21.08,371.52v-10.02h6.87v1.7h-4.85v2.37h4.18v1.7h-4.18v4.26h-2.02Z"/><path class="cls-1" d="M29.16,367.78c0-.64,.16-1.26,.47-1.85s.76-1.05,1.34-1.37,1.22-.47,1.93-.47c1.1,0,2,.36,2.7,1.07,.7,.71,1.05,1.61,1.05,2.7s-.35,2.01-1.06,2.73c-.71,.72-1.6,1.08-2.68,1.08-.67,0-1.3-.15-1.9-.45s-1.06-.74-1.38-1.32c-.31-.58-.47-1.29-.47-2.12Zm1.97,.1c0,.72,.17,1.27,.51,1.65s.76,.57,1.26,.57,.92-.19,1.26-.57,.51-.94,.51-1.67-.17-1.26-.51-1.64-.76-.57-1.26-.57-.92,.19-1.26,.57-.51,.93-.51,1.65Z"/><path class="cls-1" d="M40,371.52h-1.92v-7.26h1.78v1.03c.31-.49,.58-.81,.82-.96s.52-.23,.83-.23c.44,0,.86,.12,1.26,.36l-.59,1.67c-.32-.21-.62-.31-.9-.31s-.5,.07-.68,.22c-.19,.15-.33,.42-.44,.8s-.16,1.2-.16,2.43v2.24Z"/><path class="cls-1" d="M45.04,366.47l-1.74-.31c.2-.7,.53-1.22,1.01-1.56s1.19-.51,2.13-.51c.86,0,1.49,.1,1.91,.3,.42,.2,.71,.46,.89,.77,.17,.31,.26,.89,.26,1.72l-.02,2.24c0,.64,.03,1.11,.09,1.41,.06,.3,.18,.63,.35,.97h-1.9c-.05-.13-.11-.32-.18-.57-.03-.11-.05-.19-.07-.23-.33,.32-.68,.56-1.05,.72s-.77,.24-1.2,.24c-.75,0-1.34-.2-1.77-.61s-.65-.92-.65-1.54c0-.41,.1-.78,.29-1.1,.2-.32,.47-.57,.82-.74,.35-.17,.86-.32,1.53-.45,.9-.17,1.52-.33,1.87-.47v-.19c0-.37-.09-.63-.27-.79-.18-.16-.53-.24-1.03-.24-.34,0-.61,.07-.8,.2-.19,.13-.35,.37-.46,.71Zm2.57,1.56c-.25,.08-.64,.18-1.17,.29s-.88,.23-1.05,.33c-.25,.18-.38,.4-.38,.68s.1,.5,.3,.7,.46,.29,.77,.29c.35,0,.68-.11,.99-.34,.23-.17,.39-.38,.46-.64,.05-.16,.08-.48,.08-.94v-.38Z"/><path class="cls-1" d="M61.94,371.52h-1.78v-1.07c-.3,.42-.65,.72-1.05,.93-.4,.2-.81,.3-1.22,.3-.83,0-1.55-.34-2.14-1.01-.59-.67-.89-1.61-.89-2.81s.29-2.17,.87-2.81c.58-.64,1.31-.96,2.19-.96,.81,0,1.51,.34,2.11,1.01v-3.61h1.92v10.02Zm-5.13-3.79c0,.77,.11,1.33,.32,1.68,.31,.5,.74,.75,1.3,.75,.44,0,.82-.19,1.13-.56,.31-.38,.46-.94,.46-1.68,0-.83-.15-1.43-.45-1.8-.3-.37-.69-.55-1.16-.55s-.84,.18-1.15,.54c-.31,.36-.46,.9-.46,1.62Z"/><path class="cls-1" d="M63.39,367.78c0-.64,.16-1.26,.47-1.85s.76-1.05,1.34-1.37,1.22-.47,1.93-.47c1.1,0,2,.36,2.7,1.07,.7,.71,1.05,1.61,1.05,2.7s-.35,2.01-1.06,2.73c-.71,.72-1.6,1.08-2.68,1.08-.67,0-1.3-.15-1.9-.45s-1.06-.74-1.38-1.32c-.31-.58-.47-1.29-.47-2.12Zm1.97,.1c0,.72,.17,1.27,.51,1.65s.76,.57,1.26,.57,.92-.19,1.26-.57,.51-.94,.51-1.67-.17-1.26-.51-1.64-.76-.57-1.26-.57-.92,.19-1.26,.57-.51,.93-.51,1.65Z"/><path class="cls-1" d="M75.6,369.44l1.93-.29c.08,.37,.25,.66,.5,.85,.25,.19,.6,.29,1.05,.29,.5,0,.87-.09,1.12-.27,.17-.13,.25-.3,.25-.51,0-.15-.05-.27-.14-.36-.1-.09-.31-.18-.64-.25-1.55-.34-2.53-.65-2.95-.94-.57-.39-.86-.94-.86-1.63,0-.63,.25-1.16,.75-1.59s1.27-.64,2.31-.64,1.73,.16,2.21,.49,.82,.8,1,1.44l-1.81,.33c-.08-.28-.22-.5-.44-.65s-.53-.23-.93-.23c-.51,0-.87,.07-1.09,.21-.15,.1-.22,.23-.22,.39,0,.14,.06,.25,.19,.35,.17,.13,.77,.31,1.79,.54s1.74,.52,2.14,.85c.4,.34,.6,.82,.6,1.43,0,.67-.28,1.24-.83,1.72s-1.38,.72-2.47,.72c-.99,0-1.77-.2-2.35-.6s-.95-.95-1.13-1.63Z"/><path class="cls-1" d="M88.27,369.21l1.91,.32c-.25,.7-.63,1.24-1.17,1.6-.53,.37-1.2,.55-1.99,.55-1.26,0-2.2-.41-2.8-1.24-.48-.66-.72-1.5-.72-2.5,0-1.2,.31-2.15,.94-2.83,.63-.68,1.42-1.02,2.39-1.02,1.08,0,1.93,.36,2.56,1.07,.62,.71,.92,1.81,.9,3.28h-4.81c.01,.57,.17,1.01,.46,1.33,.3,.32,.67,.47,1.11,.47,.3,0,.55-.08,.76-.25s.36-.43,.46-.79Zm.11-1.94c-.01-.56-.16-.98-.43-1.27-.27-.29-.61-.43-1-.43-.42,0-.77,.15-1.04,.46s-.41,.72-.4,1.24h2.87Z"/><path class="cls-1" d="M95.18,364.26v1.53h-1.31v2.93c0,.59,.01,.94,.04,1.04,.02,.1,.08,.18,.17,.24s.2,.1,.32,.1c.18,0,.44-.06,.77-.18l.16,1.49c-.45,.19-.95,.29-1.52,.29-.35,0-.66-.06-.94-.17-.28-.12-.48-.27-.61-.45-.13-.19-.22-.43-.27-.75-.04-.22-.06-.67-.06-1.35v-3.17h-.88v-1.53h.88v-1.44l1.93-1.12v2.56h1.31Z"/><path class="cls-1" d="M96.07,367.78c0-.64,.16-1.26,.47-1.85s.76-1.05,1.34-1.37,1.22-.47,1.93-.47c1.1,0,2,.36,2.7,1.07,.7,.71,1.05,1.61,1.05,2.7s-.35,2.01-1.06,2.73c-.71,.72-1.6,1.08-2.68,1.08-.67,0-1.3-.15-1.9-.45s-1.06-.74-1.38-1.32c-.31-.58-.47-1.29-.47-2.12Zm1.97,.1c0,.72,.17,1.27,.51,1.65s.76,.57,1.26,.57,.92-.19,1.26-.57,.51-.94,.51-1.67-.17-1.26-.51-1.64-.76-.57-1.26-.57-.92,.19-1.26,.57-.51,.93-.51,1.65Z"/><path class="cls-1" d="M106.9,371.52h-1.92v-7.26h1.78v1.03c.31-.49,.58-.81,.82-.96s.52-.23,.83-.23c.44,0,.86,.12,1.26,.36l-.59,1.67c-.32-.21-.62-.31-.9-.31s-.5,.07-.68,.22c-.19,.15-.33,.42-.44,.8s-.16,1.2-.16,2.43v2.24Z"/><path class="cls-1" d="M113.72,369.44l1.93-.29c.08,.37,.25,.66,.5,.85,.25,.19,.6,.29,1.05,.29,.5,0,.87-.09,1.12-.27,.17-.13,.25-.3,.25-.51,0-.15-.05-.27-.14-.36-.1-.09-.31-.18-.64-.25-1.55-.34-2.53-.65-2.95-.94-.57-.39-.86-.94-.86-1.63,0-.63,.25-1.16,.75-1.59s1.27-.64,2.31-.64,1.73,.16,2.21,.49,.82,.8,1,1.44l-1.81,.33c-.08-.28-.22-.5-.44-.65s-.53-.23-.93-.23c-.51,0-.87,.07-1.09,.21-.15,.1-.22,.23-.22,.39,0,.14,.06,.25,.19,.35,.17,.13,.77,.31,1.79,.54s1.74,.52,2.14,.85c.4,.34,.6,.82,.6,1.43,0,.67-.28,1.24-.83,1.72s-1.38,.72-2.47,.72c-.99,0-1.77-.2-2.35-.6s-.95-.95-1.13-1.63Z"/><path class="cls-1" d="M123.62,366.47l-1.74-.31c.2-.7,.53-1.22,1.01-1.56s1.19-.51,2.13-.51c.86,0,1.49,.1,1.91,.3,.42,.2,.71,.46,.89,.77,.17,.31,.26,.89,.26,1.72l-.02,2.24c0,.64,.03,1.11,.09,1.41,.06,.3,.18,.63,.35,.97h-1.9c-.05-.13-.11-.32-.18-.57-.03-.11-.05-.19-.07-.23-.33,.32-.68,.56-1.05,.72s-.77,.24-1.2,.24c-.75,0-1.34-.2-1.77-.61s-.65-.92-.65-1.54c0-.41,.1-.78,.29-1.1,.2-.32,.47-.57,.82-.74,.35-.17,.86-.32,1.53-.45,.9-.17,1.52-.33,1.87-.47v-.19c0-.37-.09-.63-.27-.79-.18-.16-.53-.24-1.03-.24-.34,0-.61,.07-.8,.2-.19,.13-.35,.37-.46,.71Zm2.57,1.56c-.25,.08-.64,.18-1.17,.29s-.88,.23-1.05,.33c-.25,.18-.38,.4-.38,.68s.1,.5,.3,.7,.46,.29,.77,.29c.35,0,.68-.11,.99-.34,.23-.17,.39-.38,.46-.64,.05-.16,.08-.48,.08-.94v-.38Z"/><path class="cls-1" d="M134.75,371.52v-1.09c-.26,.39-.61,.69-1.04,.92s-.89,.33-1.36,.33-.93-.11-1.31-.32-.67-.51-.84-.9-.26-.92-.26-1.61v-4.59h1.92v3.34c0,1.02,.04,1.65,.11,1.88,.07,.23,.2,.41,.39,.55,.19,.13,.42,.2,.71,.2,.33,0,.62-.09,.88-.27,.26-.18,.44-.4,.53-.67,.1-.27,.14-.92,.14-1.96v-3.06h1.92v7.26h-1.78Zm-2.49-8.15l.94-2.04h2.15l-1.88,2.04h-1.22Z"/><path class="cls-1" d="M145.18,371.52h-1.78v-1.07c-.3,.42-.65,.72-1.05,.93-.4,.2-.81,.3-1.22,.3-.83,0-1.55-.34-2.14-1.01-.59-.67-.89-1.61-.89-2.81s.29-2.17,.87-2.81c.58-.64,1.31-.96,2.19-.96,.81,0,1.51,.34,2.11,1.01v-3.61h1.92v10.02Zm-5.13-3.79c0,.77,.11,1.33,.32,1.68,.31,.5,.74,.75,1.3,.75,.44,0,.82-.19,1.13-.56,.31-.38,.46-.94,.46-1.68,0-.83-.15-1.43-.45-1.8-.3-.37-.69-.55-1.16-.55s-.84,.18-1.15,.54c-.31,.36-.46,.9-.46,1.62Z"/><path class="cls-1" d="M151.28,369.21l1.91,.32c-.25,.7-.63,1.24-1.17,1.6-.53,.37-1.2,.55-1.99,.55-1.26,0-2.2-.41-2.8-1.24-.48-.66-.72-1.5-.72-2.5,0-1.2,.31-2.15,.94-2.83,.63-.68,1.42-1.02,2.39-1.02,1.08,0,1.93,.36,2.56,1.07,.62,.71,.92,1.81,.9,3.28h-4.81c.01,.57,.17,1.01,.46,1.33,.3,.32,.67,.47,1.11,.47,.3,0,.55-.08,.76-.25s.36-.43,.46-.79Zm.11-1.94c-.01-.56-.16-.98-.43-1.27-.27-.29-.61-.43-1-.43-.42,0-.77,.15-1.04,.46s-.41,.72-.4,1.24h2.87Z"/></g><g><path class="cls-1" d="M243.08,56.18v-8.33h-2.97v-1.7h7.96v1.7h-2.97v8.33h-2.02Z"/><path class="cls-1" d="M252.53,53.87l1.91,.32c-.25,.7-.63,1.24-1.17,1.6s-1.2,.55-1.99,.55c-1.26,0-2.2-.41-2.8-1.24-.48-.66-.72-1.49-.72-2.5,0-1.2,.31-2.15,.94-2.83s1.42-1.02,2.39-1.02c1.08,0,1.93,.36,2.56,1.07s.92,1.81,.9,3.28h-4.81c.01,.57,.17,1.01,.46,1.33s.67,.48,1.11,.48c.3,0,.55-.08,.76-.25s.36-.43,.46-.79Zm.11-1.94c-.01-.56-.16-.98-.43-1.27s-.61-.43-1-.43c-.42,0-.77,.15-1.04,.46s-.41,.72-.4,1.24h2.87Z"/><path class="cls-1" d="M262.44,51.06l-1.89,.34c-.06-.38-.21-.66-.43-.85s-.52-.29-.88-.29c-.48,0-.86,.17-1.15,.5s-.43,.88-.43,1.66c0,.86,.14,1.47,.43,1.83s.68,.53,1.17,.53c.36,0,.66-.1,.9-.31s.4-.56,.49-1.07l1.89,.32c-.2,.87-.57,1.52-1.13,1.96s-1.3,.66-2.24,.66c-1.06,0-1.91-.33-2.54-1s-.95-1.6-.95-2.78,.32-2.13,.95-2.8,1.49-1,2.57-1c.88,0,1.59,.19,2.11,.57s.9,.96,1.12,1.74Z"/><path class="cls-1" d="M270.5,56.18h-1.92v-3.71c0-.78-.04-1.29-.12-1.52s-.22-.41-.4-.54-.41-.19-.67-.19c-.33,0-.63,.09-.9,.27s-.45,.42-.54,.72-.15,.86-.15,1.67v3.29h-1.92v-7.26h1.78v1.07c.63-.82,1.43-1.23,2.39-1.23,.42,0,.81,.08,1.16,.23s.62,.35,.8,.58,.31,.51,.38,.81,.11,.73,.11,1.29v4.51Z"/><path class="cls-1" d="M272.01,52.45c0-.64,.16-1.26,.47-1.85s.76-1.05,1.34-1.37,1.22-.47,1.93-.47c1.1,0,2,.36,2.7,1.07s1.05,1.61,1.05,2.7-.35,2.01-1.06,2.73-1.6,1.08-2.68,1.08c-.67,0-1.3-.15-1.9-.45s-1.06-.74-1.38-1.32-.47-1.29-.47-2.12Zm1.97,.1c0,.72,.17,1.27,.51,1.65s.76,.57,1.26,.57,.92-.19,1.26-.57,.51-.94,.51-1.67-.17-1.26-.51-1.64-.76-.57-1.26-.57-.92,.19-1.26,.57-.51,.93-.51,1.65Z"/><path class="cls-1" d="M281,56.18v-10.02h1.92v10.02h-1.92Z"/><path class="cls-1" d="M284.45,52.45c0-.64,.16-1.26,.47-1.85s.76-1.05,1.34-1.37,1.22-.47,1.93-.47c1.1,0,2,.36,2.7,1.07s1.05,1.61,1.05,2.7-.35,2.01-1.06,2.73-1.6,1.08-2.68,1.08c-.67,0-1.3-.15-1.9-.45s-1.06-.74-1.38-1.32-.47-1.29-.47-2.12Zm1.97,.1c0,.72,.17,1.27,.51,1.65s.76,.57,1.26,.57,.92-.19,1.26-.57,.51-.94,.51-1.67-.17-1.26-.51-1.64-.76-.57-1.26-.57-.92,.19-1.26,.57-.51,.93-.51,1.65Z"/><path class="cls-1" d="M293.27,56.66l2.19,.27c.04,.26,.12,.43,.25,.53,.18,.14,.47,.21,.86,.21,.5,0,.88-.08,1.13-.23,.17-.1,.3-.26,.38-.49,.06-.16,.09-.45,.09-.88v-1.06c-.57,.78-1.3,1.18-2.17,1.18-.98,0-1.75-.41-2.32-1.24-.45-.65-.67-1.46-.67-2.43,0-1.22,.29-2.15,.88-2.79s1.31-.96,2.18-.96,1.64,.39,2.22,1.18v-1.02h1.8v6.51c0,.86-.07,1.5-.21,1.92s-.34,.76-.59,1-.6,.43-1.02,.57-.96,.21-1.62,.21c-1.23,0-2.1-.21-2.62-.63s-.77-.96-.77-1.6c0-.06,0-.14,0-.23Zm1.72-4.26c0,.77,.15,1.33,.45,1.69s.67,.54,1.1,.54c.47,0,.87-.18,1.19-.55s.49-.91,.49-1.63-.15-1.31-.46-1.67-.7-.55-1.18-.55-.84,.18-1.14,.54-.45,.9-.45,1.64Z"/><path class="cls-1" d="M302,47.93v-1.78h1.92v1.78h-1.92Zm0,8.24v-7.26h1.92v7.26h-1.92Z"/><path class="cls-1" d="M307.32,51.13l-1.74-.31c.2-.7,.53-1.22,1.01-1.56s1.19-.51,2.13-.51c.86,0,1.49,.1,1.91,.3s.71,.46,.89,.77,.26,.89,.26,1.72l-.02,2.24c0,.64,.03,1.11,.09,1.41s.18,.63,.35,.97h-1.9c-.05-.13-.11-.32-.18-.57-.03-.11-.05-.19-.07-.23-.33,.32-.68,.56-1.05,.72s-.77,.24-1.2,.24c-.75,0-1.34-.2-1.77-.61s-.65-.92-.65-1.54c0-.41,.1-.78,.29-1.1s.47-.57,.82-.74,.86-.32,1.53-.45c.9-.17,1.52-.33,1.87-.47v-.19c0-.37-.09-.63-.27-.79s-.53-.24-1.03-.24c-.34,0-.61,.07-.8,.2s-.35,.37-.46,.71Zm2.57,1.56c-.25,.08-.64,.18-1.17,.29s-.88,.23-1.05,.33c-.25,.18-.38,.4-.38,.68s.1,.5,.3,.7,.46,.29,.77,.29c.35,0,.68-.11,.99-.34,.23-.17,.39-.39,.46-.64,.05-.16,.08-.48,.08-.94v-.38Z"/><path class="cls-1" d="M317.58,46.16h4.01c.79,0,1.38,.03,1.77,.1s.74,.2,1.05,.41,.56,.49,.77,.84,.31,.74,.31,1.17c0,.47-.13,.9-.38,1.29s-.6,.69-1.03,.88c.61,.18,1.08,.48,1.41,.91s.49,.93,.49,1.51c0,.46-.11,.9-.32,1.33s-.5,.77-.87,1.03-.82,.42-1.36,.48c-.34,.04-1.15,.06-2.44,.07h-3.41v-10.02Zm2.02,1.67v2.32h1.33c.79,0,1.28-.01,1.47-.03,.35-.04,.62-.16,.82-.36s.3-.46,.3-.78-.09-.56-.26-.76-.42-.31-.76-.35c-.2-.02-.78-.03-1.73-.03h-1.16Zm0,3.99v2.68h1.87c.73,0,1.19-.02,1.39-.06,.3-.05,.55-.19,.73-.4s.28-.5,.28-.85c0-.3-.07-.56-.22-.77s-.36-.36-.63-.46-.87-.14-1.79-.14h-1.63Z"/><path class="cls-1" d="M327.67,47.93v-1.78h1.92v1.78h-1.92Zm0,8.24v-7.26h1.92v7.26h-1.92Z"/><path class="cls-1" d="M331.12,52.45c0-.64,.16-1.26,.47-1.85s.76-1.05,1.34-1.37,1.22-.47,1.93-.47c1.1,0,2,.36,2.7,1.07s1.05,1.61,1.05,2.7-.35,2.01-1.06,2.73-1.6,1.08-2.68,1.08c-.67,0-1.3-.15-1.9-.45s-1.06-.74-1.38-1.32-.47-1.29-.47-2.12Zm1.97,.1c0,.72,.17,1.27,.51,1.65s.76,.57,1.26,.57,.92-.19,1.26-.57,.51-.94,.51-1.67-.17-1.26-.51-1.64-.76-.57-1.26-.57-.92,.19-1.26,.57-.51,.93-.51,1.65Z"/><path class="cls-1" d="M339.97,48.92h1.77v.99c.63-.77,1.39-1.16,2.26-1.16,.46,0,.87,.1,1.21,.29s.62,.48,.84,.87c.32-.39,.66-.68,1.03-.87s.76-.29,1.18-.29c.53,0,.98,.11,1.35,.32s.65,.53,.83,.95c.13,.31,.2,.81,.2,1.5v4.64h-1.92v-4.15c0-.72-.07-1.19-.2-1.39-.18-.27-.45-.41-.82-.41-.27,0-.52,.08-.76,.25s-.41,.4-.51,.72-.16,.82-.16,1.5v3.49h-1.92v-3.98c0-.71-.03-1.16-.1-1.37s-.17-.36-.32-.46-.34-.15-.58-.15c-.3,0-.56,.08-.8,.24s-.41,.39-.51,.69-.15,.8-.15,1.5v3.53h-1.92v-7.26Z"/><path class="cls-1" d="M356.77,53.87l1.91,.32c-.25,.7-.63,1.24-1.17,1.6s-1.2,.55-1.99,.55c-1.26,0-2.2-.41-2.8-1.24-.48-.66-.72-1.49-.72-2.5,0-1.2,.31-2.15,.94-2.83s1.42-1.02,2.39-1.02c1.08,0,1.93,.36,2.56,1.07s.92,1.81,.9,3.28h-4.81c.01,.57,.17,1.01,.46,1.33s.67,.48,1.11,.48c.3,0,.55-.08,.76-.25s.36-.43,.46-.79Zm.11-1.94c-.01-.56-.16-.98-.43-1.27s-.61-.43-1-.43c-.42,0-.77,.15-1.04,.46s-.41,.72-.4,1.24h2.87Zm-2.45-3.9l.94-2.04h2.15l-1.88,2.04h-1.22Z"/><path class="cls-1" d="M367.01,56.18h-1.78v-1.07c-.3,.41-.65,.72-1.05,.93s-.81,.3-1.22,.3c-.83,0-1.55-.34-2.14-1.01s-.89-1.61-.89-2.81,.29-2.17,.87-2.81,1.31-.96,2.19-.96c.81,0,1.51,.34,2.11,1.01v-3.61h1.92v10.02Zm-5.13-3.79c0,.77,.11,1.34,.32,1.68,.31,.5,.74,.75,1.3,.75,.44,0,.82-.19,1.13-.56s.46-.94,.46-1.69c0-.83-.15-1.43-.45-1.8s-.69-.55-1.16-.55-.84,.18-1.15,.54-.46,.9-.46,1.62Z"/><path class="cls-1" d="M368.9,47.93v-1.78h1.92v1.78h-1.92Zm0,8.24v-7.26h1.92v7.26h-1.92Z"/><path class="cls-1" d="M379.12,51.06l-1.89,.34c-.06-.38-.21-.66-.43-.85s-.52-.29-.88-.29c-.48,0-.86,.17-1.15,.5s-.43,.88-.43,1.66c0,.86,.14,1.47,.43,1.83s.68,.53,1.17,.53c.36,0,.66-.1,.9-.31s.4-.56,.49-1.07l1.89,.32c-.2,.87-.57,1.52-1.13,1.96s-1.3,.66-2.24,.66c-1.06,0-1.91-.33-2.54-1s-.95-1.6-.95-2.78,.32-2.13,.95-2.8,1.49-1,2.57-1c.88,0,1.59,.19,2.11,.57s.9,.96,1.12,1.74Z"/><path class="cls-1" d="M382.01,51.13l-1.74-.31c.2-.7,.53-1.22,1.01-1.56s1.19-.51,2.13-.51c.86,0,1.49,.1,1.91,.3s.71,.46,.89,.77,.26,.89,.26,1.72l-.02,2.24c0,.64,.03,1.11,.09,1.41s.18,.63,.35,.97h-1.9c-.05-.13-.11-.32-.18-.57-.03-.11-.05-.19-.07-.23-.33,.32-.68,.56-1.05,.72s-.77,.24-1.2,.24c-.75,0-1.34-.2-1.77-.61s-.65-.92-.65-1.54c0-.41,.1-.78,.29-1.1s.47-.57,.82-.74,.86-.32,1.53-.45c.9-.17,1.52-.33,1.87-.47v-.19c0-.37-.09-.63-.27-.79s-.53-.24-1.03-.24c-.34,0-.61,.07-.8,.2s-.35,.37-.46,.71Zm2.57,1.56c-.25,.08-.64,.18-1.17,.29s-.88,.23-1.05,.33c-.25,.18-.38,.4-.38,.68s.1,.5,.3,.7,.46,.29,.77,.29c.35,0,.68-.11,.99-.34,.23-.17,.39-.39,.46-.64,.05-.16,.08-.48,.08-.94v-.38Z"/></g><rect class="cls-3" x="452.08" y="79.28" width="173.12" height="39.35" rx="10" ry="10"/><g><path class="cls-1" d="M479.81,103.61v-8.33h-2.97v-1.7h7.96v1.7h-2.97v8.33h-2.02Z"/><path class="cls-1" d="M489.26,101.29l1.91,.32c-.25,.7-.63,1.24-1.17,1.6s-1.2,.55-1.99,.55c-1.26,0-2.2-.41-2.8-1.24-.48-.66-.72-1.49-.72-2.5,0-1.2,.31-2.15,.94-2.83s1.42-1.02,2.39-1.02c1.08,0,1.93,.36,2.56,1.07s.92,1.81,.9,3.28h-4.81c.01,.57,.17,1.01,.46,1.33s.67,.48,1.11,.48c.3,0,.55-.08,.76-.25s.36-.43,.46-.79Zm.11-1.94c-.01-.56-.16-.98-.43-1.27s-.61-.43-1-.43c-.42,0-.77,.15-1.04,.46s-.41,.72-.4,1.24h2.87Z"/><path class="cls-1" d="M499.17,98.49l-1.89,.34c-.06-.38-.21-.66-.43-.85s-.52-.29-.88-.29c-.48,0-.86,.17-1.15,.5s-.43,.88-.43,1.66c0,.86,.14,1.47,.43,1.83s.68,.53,1.17,.53c.36,0,.66-.1,.9-.31s.4-.56,.49-1.07l1.89,.32c-.2,.87-.57,1.52-1.13,1.96s-1.3,.66-2.24,.66c-1.06,0-1.91-.33-2.54-1s-.95-1.6-.95-2.78,.32-2.13,.95-2.8,1.49-1,2.57-1c.88,0,1.59,.19,2.11,.57s.9,.96,1.12,1.74Z"/><path class="cls-1" d="M507.23,103.61h-1.92v-3.71c0-.78-.04-1.29-.12-1.52s-.22-.41-.4-.54-.41-.19-.67-.19c-.33,0-.63,.09-.9,.27s-.45,.42-.54,.72-.15,.86-.15,1.67v3.29h-1.92v-7.26h1.78v1.07c.63-.82,1.43-1.23,2.39-1.23,.42,0,.81,.08,1.16,.23s.62,.35,.8,.58,.31,.51,.38,.81,.11,.73,.11,1.29v4.51Z"/><path class="cls-1" d="M508.73,99.87c0-.64,.16-1.26,.47-1.85s.76-1.05,1.34-1.37,1.22-.47,1.93-.47c1.1,0,2,.36,2.7,1.07s1.05,1.61,1.05,2.7-.35,2.01-1.06,2.73-1.6,1.08-2.68,1.08c-.67,0-1.3-.15-1.9-.45s-1.06-.74-1.38-1.32-.47-1.29-.47-2.12Zm1.97,.1c0,.72,.17,1.27,.51,1.65s.76,.57,1.26,.57,.92-.19,1.26-.57,.51-.94,.51-1.67-.17-1.26-.51-1.64-.76-.57-1.26-.57-.92,.19-1.26,.57-.51,.93-.51,1.65Z"/><path class="cls-1" d="M517.73,103.61v-10.02h1.92v10.02h-1.92Z"/><path class="cls-1" d="M521.17,99.87c0-.64,.16-1.26,.47-1.85s.76-1.05,1.34-1.37,1.22-.47,1.93-.47c1.1,0,2,.36,2.7,1.07s1.05,1.61,1.05,2.7-.35,2.01-1.06,2.73-1.6,1.08-2.68,1.08c-.67,0-1.3-.15-1.9-.45s-1.06-.74-1.38-1.32-.47-1.29-.47-2.12Zm1.97,.1c0,.72,.17,1.27,.51,1.65s.76,.57,1.26,.57,.92-.19,1.26-.57,.51-.94,.51-1.67-.17-1.26-.51-1.64-.76-.57-1.26-.57-.92,.19-1.26,.57-.51,.93-.51,1.65Z"/><path class="cls-1" d="M529.99,104.08l2.19,.27c.04,.26,.12,.43,.25,.53,.18,.14,.47,.21,.86,.21,.5,0,.88-.08,1.13-.23,.17-.1,.3-.26,.38-.49,.06-.16,.09-.45,.09-.88v-1.06c-.57,.78-1.3,1.18-2.17,1.18-.98,0-1.75-.41-2.32-1.24-.45-.65-.67-1.46-.67-2.43,0-1.22,.29-2.15,.88-2.79s1.31-.96,2.18-.96,1.64,.39,2.22,1.18v-1.02h1.8v6.51c0,.86-.07,1.5-.21,1.92s-.34,.76-.59,1-.6,.43-1.02,.57-.96,.21-1.62,.21c-1.23,0-2.1-.21-2.62-.63s-.77-.96-.77-1.6c0-.06,0-.14,0-.23Zm1.72-4.26c0,.77,.15,1.33,.45,1.69s.67,.54,1.1,.54c.47,0,.87-.18,1.19-.55s.49-.91,.49-1.63-.15-1.31-.46-1.67-.7-.55-1.18-.55-.84,.18-1.14,.54-.45,.9-.45,1.64Z"/><path class="cls-1" d="M538.72,95.36v-1.78h1.92v1.78h-1.92Zm0,8.24v-7.26h1.92v7.26h-1.92Z"/><path class="cls-1" d="M544.05,98.56l-1.74-.31c.2-.7,.53-1.22,1.01-1.56s1.19-.51,2.13-.51c.86,0,1.49,.1,1.91,.3s.71,.46,.89,.77,.26,.89,.26,1.72l-.02,2.24c0,.64,.03,1.11,.09,1.41s.18,.63,.35,.97h-1.9c-.05-.13-.11-.32-.18-.57-.03-.11-.05-.19-.07-.23-.33,.32-.68,.56-1.05,.72s-.77,.24-1.2,.24c-.75,0-1.34-.2-1.77-.61s-.65-.92-.65-1.54c0-.41,.1-.78,.29-1.1s.47-.57,.82-.74,.86-.32,1.53-.45c.9-.17,1.52-.33,1.87-.47v-.19c0-.37-.09-.63-.27-.79s-.53-.24-1.03-.24c-.34,0-.61,.07-.8,.2s-.35,.37-.46,.71Zm2.57,1.56c-.25,.08-.64,.18-1.17,.29s-.88,.23-1.05,.33c-.25,.18-.38,.4-.38,.68s.1,.5,.3,.7,.46,.29,.77,.29c.35,0,.68-.11,.99-.34,.23-.17,.39-.39,.46-.64,.05-.16,.08-.48,.08-.94v-.38Z"/><path class="cls-1" d="M554.27,103.61v-10.02h3.03l1.82,6.84,1.8-6.84h3.04v10.02h-1.88v-7.89l-1.99,7.89h-1.95l-1.98-7.89v7.89h-1.88Z"/><path class="cls-1" d="M570.15,101.29l1.91,.32c-.25,.7-.63,1.24-1.17,1.6s-1.2,.55-1.99,.55c-1.26,0-2.2-.41-2.8-1.24-.48-.66-.72-1.49-.72-2.5,0-1.2,.31-2.15,.94-2.83s1.42-1.02,2.39-1.02c1.08,0,1.93,.36,2.56,1.07s.92,1.81,.9,3.28h-4.81c.01,.57,.17,1.01,.46,1.33s.67,.48,1.11,.48c.3,0,.55-.08,.76-.25s.36-.43,.46-.79Zm.11-1.94c-.01-.56-.16-.98-.43-1.27s-.61-.43-1-.43c-.42,0-.77,.15-1.04,.46s-.41,.72-.4,1.24h2.87Zm-2.45-3.9l.94-2.04h2.15l-1.88,2.04h-1.22Z"/><path class="cls-1" d="M580.39,103.61h-1.78v-1.07c-.3,.41-.65,.72-1.05,.93s-.81,.3-1.22,.3c-.83,0-1.55-.34-2.14-1.01s-.89-1.61-.89-2.81,.29-2.17,.87-2.81,1.31-.96,2.19-.96c.81,0,1.51,.34,2.11,1.01v-3.61h1.92v10.02Zm-5.13-3.79c0,.77,.11,1.34,.32,1.68,.31,.5,.74,.75,1.3,.75,.44,0,.82-.19,1.13-.56s.46-.94,.46-1.69c0-.83-.15-1.43-.45-1.8s-.69-.55-1.16-.55-.84,.18-1.15,.54-.46,.9-.46,1.62Z"/><path class="cls-1" d="M582.29,95.36v-1.78h1.92v1.78h-1.92Zm0,8.24v-7.26h1.92v7.26h-1.92Z"/><path class="cls-1" d="M592.51,98.49l-1.89,.34c-.06-.38-.21-.66-.43-.85s-.52-.29-.88-.29c-.48,0-.86,.17-1.15,.5s-.43,.88-.43,1.66c0,.86,.14,1.47,.43,1.83s.68,.53,1.17,.53c.36,0,.66-.1,.9-.31s.4-.56,.49-1.07l1.89,.32c-.2,.87-.57,1.52-1.13,1.96s-1.3,.66-2.24,.66c-1.06,0-1.91-.33-2.54-1s-.95-1.6-.95-2.78,.32-2.13,.95-2.8,1.49-1,2.57-1c.88,0,1.59,.19,2.11,.57s.9,.96,1.12,1.74Z"/><path class="cls-1" d="M595.4,98.56l-1.74-.31c.2-.7,.53-1.22,1.01-1.56s1.19-.51,2.13-.51c.86,0,1.49,.1,1.91,.3s.71,.46,.89,.77,.26,.89,.26,1.72l-.02,2.24c0,.64,.03,1.11,.09,1.41s.18,.63,.35,.97h-1.9c-.05-.13-.11-.32-.18-.57-.03-.11-.05-.19-.07-.23-.33,.32-.68,.56-1.05,.72s-.77,.24-1.2,.24c-.75,0-1.34-.2-1.77-.61s-.65-.92-.65-1.54c0-.41,.1-.78,.29-1.1s.47-.57,.82-.74,.86-.32,1.53-.45c.9-.17,1.52-.33,1.87-.47v-.19c0-.37-.09-.63-.27-.79s-.53-.24-1.03-.24c-.34,0-.61,.07-.8,.2s-.35,.37-.46,.71Zm2.57,1.56c-.25,.08-.64,.18-1.17,.29s-.88,.23-1.05,.33c-.25,.18-.38,.4-.38,.68s.1,.5,.3,.7,.46,.29,.77,.29c.35,0,.68-.11,.99-.34,.23-.17,.39-.39,.46-.64,.05-.16,.08-.48,.08-.94v-.38Z"/></g><rect class="cls-3" x="677.14" y="180.24" width="173.12" height="39.35" rx="10" ry="10"/><g><path class="cls-1" d="M720.43,196.96v-8.33h-2.97v-1.7h7.96v1.7h-2.97v8.33h-2.02Z"/><path class="cls-1" d="M729.88,194.65l1.91,.32c-.25,.7-.63,1.24-1.17,1.6-.53,.37-1.19,.55-1.99,.55-1.26,0-2.2-.41-2.8-1.24-.48-.66-.72-1.49-.72-2.5,0-1.2,.31-2.15,.94-2.83s1.42-1.02,2.39-1.02c1.08,0,1.93,.36,2.56,1.07s.92,1.81,.9,3.28h-4.81c.01,.57,.17,1.01,.46,1.33s.67,.48,1.11,.48c.3,0,.55-.08,.76-.25s.36-.43,.46-.79Zm.11-1.94c-.01-.56-.16-.98-.43-1.27s-.61-.43-1-.43c-.42,0-.77,.15-1.04,.46s-.41,.72-.4,1.24h2.87Z"/><path class="cls-1" d="M739.79,191.84l-1.89,.34c-.06-.38-.21-.66-.43-.85-.23-.19-.52-.29-.88-.29-.48,0-.86,.17-1.14,.5-.29,.33-.43,.88-.43,1.66,0,.86,.14,1.47,.43,1.83,.29,.36,.68,.53,1.17,.53,.36,0,.66-.1,.9-.31s.4-.56,.49-1.07l1.89,.32c-.2,.87-.57,1.52-1.13,1.96s-1.3,.66-2.24,.66c-1.06,0-1.91-.33-2.54-1-.63-.67-.95-1.6-.95-2.78s.32-2.13,.95-2.8,1.49-1,2.57-1c.88,0,1.59,.19,2.11,.57,.52,.38,.9,.96,1.12,1.74Z"/><path class="cls-1" d="M747.85,196.96h-1.92v-3.71c0-.78-.04-1.29-.12-1.52s-.21-.41-.4-.54c-.18-.13-.41-.19-.67-.19-.33,0-.63,.09-.9,.27s-.45,.42-.54,.72c-.1,.3-.15,.86-.15,1.67v3.29h-1.92v-7.26h1.78v1.07c.63-.82,1.43-1.23,2.39-1.23,.42,0,.81,.08,1.16,.23s.62,.35,.8,.58c.18,.24,.3,.51,.38,.81,.07,.3,.11,.73,.11,1.29v4.51Z"/><path class="cls-1" d="M749.35,193.22c0-.64,.16-1.26,.47-1.85s.76-1.05,1.34-1.37c.58-.31,1.22-.47,1.93-.47,1.1,0,2,.36,2.7,1.07s1.05,1.61,1.05,2.7-.35,2.01-1.06,2.73c-.71,.72-1.6,1.08-2.68,1.08-.67,0-1.3-.15-1.9-.45-.6-.3-1.06-.74-1.38-1.32s-.47-1.29-.47-2.12Zm1.97,.1c0,.72,.17,1.27,.51,1.65s.76,.57,1.26,.57,.92-.19,1.26-.57c.34-.38,.51-.94,.51-1.67s-.17-1.26-.51-1.64c-.34-.38-.76-.57-1.26-.57s-.92,.19-1.26,.57-.51,.93-.51,1.65Z"/><path class="cls-1" d="M758.35,196.96v-10.02h1.92v10.02h-1.92Z"/><path class="cls-1" d="M761.79,193.22c0-.64,.16-1.26,.47-1.85s.76-1.05,1.34-1.37c.58-.31,1.22-.47,1.93-.47,1.1,0,2,.36,2.7,1.07s1.05,1.61,1.05,2.7-.35,2.01-1.06,2.73c-.71,.72-1.6,1.08-2.68,1.08-.67,0-1.3-.15-1.9-.45-.6-.3-1.06-.74-1.38-1.32s-.47-1.29-.47-2.12Zm1.97,.1c0,.72,.17,1.27,.51,1.65s.76,.57,1.26,.57,.92-.19,1.26-.57c.34-.38,.51-.94,.51-1.67s-.17-1.26-.51-1.64c-.34-.38-.76-.57-1.26-.57s-.92,.19-1.26,.57-.51,.93-.51,1.65Z"/><path class="cls-1" d="M770.61,197.43l2.19,.27c.04,.26,.12,.43,.25,.53,.18,.14,.47,.21,.86,.21,.5,0,.88-.08,1.13-.23,.17-.1,.3-.26,.38-.49,.06-.16,.09-.45,.09-.88v-1.06c-.57,.78-1.3,1.18-2.17,1.18-.98,0-1.75-.41-2.32-1.24-.45-.65-.67-1.46-.67-2.43,0-1.22,.29-2.15,.88-2.79,.58-.64,1.31-.96,2.18-.96s1.64,.39,2.22,1.18v-1.02h1.8v6.51c0,.86-.07,1.5-.21,1.92s-.34,.76-.59,1-.6,.43-1.02,.57c-.43,.14-.97,.21-1.62,.21-1.23,0-2.1-.21-2.62-.63s-.77-.96-.77-1.6c0-.06,0-.14,0-.23Zm1.72-4.26c0,.77,.15,1.33,.45,1.69,.3,.36,.67,.54,1.1,.54,.47,0,.87-.18,1.19-.55s.49-.91,.49-1.63-.16-1.31-.46-1.67-.7-.55-1.18-.55-.84,.18-1.14,.54c-.3,.36-.45,.9-.45,1.64Z"/><path class="cls-1" d="M779.34,188.71v-1.78h1.92v1.78h-1.92Zm0,8.24v-7.26h1.92v7.26h-1.92Z"/><path class="cls-1" d="M784.67,191.91l-1.74-.31c.2-.7,.53-1.22,1.01-1.56s1.19-.51,2.13-.51c.86,0,1.5,.1,1.91,.3s.71,.46,.88,.77c.17,.31,.26,.89,.26,1.72l-.02,2.24c0,.64,.03,1.11,.09,1.41,.06,.3,.18,.63,.35,.97h-1.9c-.05-.13-.11-.32-.18-.57-.03-.11-.05-.19-.07-.23-.33,.32-.68,.56-1.05,.72s-.77,.24-1.2,.24c-.75,0-1.34-.2-1.77-.61-.43-.41-.65-.92-.65-1.54,0-.41,.1-.78,.29-1.1s.47-.57,.82-.74c.35-.17,.86-.32,1.53-.45,.9-.17,1.52-.33,1.87-.47v-.19c0-.37-.09-.63-.27-.79s-.53-.24-1.03-.24c-.34,0-.61,.07-.8,.2s-.35,.37-.46,.71Zm2.57,1.56c-.25,.08-.64,.18-1.17,.29s-.88,.23-1.05,.33c-.25,.18-.38,.4-.38,.68s.1,.5,.3,.7,.46,.29,.77,.29c.35,0,.68-.11,.99-.34,.23-.17,.38-.39,.46-.64,.05-.16,.08-.48,.08-.94v-.38Z"/><path class="cls-1" d="M801.56,196.96h-1.78v-1.07c-.3,.41-.65,.72-1.05,.93-.4,.2-.81,.3-1.22,.3-.83,0-1.55-.34-2.14-1.01-.6-.67-.89-1.61-.89-2.81s.29-2.17,.87-2.81,1.31-.96,2.19-.96c.81,0,1.51,.34,2.11,1.01v-3.61h1.92v10.02Zm-5.13-3.79c0,.77,.11,1.34,.32,1.68,.31,.5,.74,.75,1.3,.75,.44,0,.82-.19,1.13-.56s.46-.94,.46-1.69c0-.83-.15-1.43-.45-1.8s-.69-.55-1.16-.55-.84,.18-1.14,.54c-.31,.36-.46,.9-.46,1.62Z"/><path class="cls-1" d="M807.66,194.65l1.91,.32c-.25,.7-.63,1.24-1.17,1.6-.53,.37-1.19,.55-1.99,.55-1.26,0-2.2-.41-2.8-1.24-.48-.66-.72-1.49-.72-2.5,0-1.2,.31-2.15,.94-2.83s1.42-1.02,2.39-1.02c1.08,0,1.93,.36,2.56,1.07s.92,1.81,.9,3.28h-4.81c.01,.57,.17,1.01,.46,1.33s.67,.48,1.11,.48c.3,0,.55-.08,.76-.25s.36-.43,.46-.79Zm.11-1.94c-.01-.56-.16-.98-.43-1.27s-.61-.43-1-.43c-.42,0-.77,.15-1.04,.46s-.41,.72-.4,1.24h2.87Z"/><path class="cls-1" d="M717.35,211.96h-2.2l-.88-2.28h-4.01l-.83,2.28h-2.15l3.9-10.02h2.14l4.01,10.02Zm-3.73-3.96l-1.38-3.72-1.35,3.72h2.73Z"/><path class="cls-1" d="M721.73,204.7v1.53h-1.31v2.93c0,.59,.01,.94,.04,1.04,.03,.1,.08,.18,.17,.24,.09,.06,.2,.1,.32,.1,.18,0,.44-.06,.77-.18l.16,1.49c-.45,.19-.95,.29-1.52,.29-.35,0-.66-.06-.94-.17s-.48-.27-.61-.45c-.13-.18-.22-.43-.27-.75-.04-.22-.06-.67-.06-1.35v-3.17h-.88v-1.53h.88v-1.44l1.93-1.12v2.56h1.31Z"/><path class="cls-1" d="M727.27,209.65l1.91,.32c-.25,.7-.63,1.24-1.17,1.6-.53,.37-1.19,.55-1.99,.55-1.26,0-2.2-.41-2.8-1.24-.48-.66-.72-1.49-.72-2.5,0-1.2,.31-2.15,.94-2.83s1.42-1.02,2.39-1.02c1.08,0,1.93,.36,2.56,1.07s.92,1.81,.9,3.28h-4.81c.01,.57,.17,1.01,.46,1.33s.67,.48,1.11,.48c.3,0,.55-.08,.76-.25s.36-.43,.46-.79Zm.11-1.94c-.01-.56-.16-.98-.43-1.27s-.61-.43-1-.43c-.42,0-.77,.15-1.04,.46s-.41,.72-.4,1.24h2.87Z"/><path class="cls-1" d="M737.46,211.96h-1.92v-3.71c0-.78-.04-1.29-.12-1.52s-.21-.41-.4-.54c-.18-.13-.41-.19-.67-.19-.33,0-.63,.09-.9,.27s-.45,.42-.54,.72c-.1,.3-.15,.86-.15,1.67v3.29h-1.92v-7.26h1.78v1.07c.63-.82,1.43-1.23,2.39-1.23,.42,0,.81,.08,1.16,.23s.62,.35,.8,.58c.18,.24,.3,.51,.38,.81,.07,.3,.11,.73,.11,1.29v4.51Z"/><path class="cls-1" d="M745.74,206.84l-1.89,.34c-.06-.38-.21-.66-.43-.85-.23-.19-.52-.29-.88-.29-.48,0-.86,.17-1.14,.5-.29,.33-.43,.88-.43,1.66,0,.86,.14,1.47,.43,1.83,.29,.36,.68,.53,1.17,.53,.36,0,.66-.1,.9-.31s.4-.56,.49-1.07l1.89,.32c-.2,.87-.57,1.52-1.13,1.96s-1.3,.66-2.24,.66c-1.06,0-1.91-.33-2.54-1-.63-.67-.95-1.6-.95-2.78s.32-2.13,.95-2.8,1.49-1,2.57-1c.88,0,1.59,.19,2.11,.57,.52,.38,.9,.96,1.12,1.74Zm-5.17,7.87v-.81c.47,.05,.9,.08,1.29,.08s.71-.07,.9-.22c.15-.11,.23-.25,.23-.42,0-.15-.07-.29-.21-.4s-.36-.17-.66-.17-.59,.05-.9,.14l.18-.68c.36-.12,.74-.18,1.15-.18,.57,0,1,.13,1.3,.38s.44,.56,.44,.92c0,.4-.16,.73-.49,.98-.44,.34-1.08,.51-1.9,.51-.59,0-1.03-.04-1.33-.11Z"/><path class="cls-1" d="M748.63,206.91l-1.74-.31c.2-.7,.53-1.22,1.01-1.56s1.19-.51,2.13-.51c.86,0,1.5,.1,1.91,.3s.71,.46,.88,.77c.17,.31,.26,.89,.26,1.72l-.02,2.24c0,.64,.03,1.11,.09,1.41,.06,.3,.18,.63,.35,.97h-1.9c-.05-.13-.11-.32-.18-.57-.03-.11-.05-.19-.07-.23-.33,.32-.68,.56-1.05,.72s-.77,.24-1.2,.24c-.75,0-1.34-.2-1.77-.61-.43-.41-.65-.92-.65-1.54,0-.41,.1-.78,.29-1.1s.47-.57,.82-.74c.35-.17,.86-.32,1.53-.45,.9-.17,1.52-.33,1.87-.47v-.19c0-.37-.09-.63-.27-.79s-.53-.24-1.03-.24c-.34,0-.61,.07-.8,.2s-.35,.37-.46,.71Zm-.01-3.19h-.88c0-.1,0-.19,0-.25,0-.48,.12-.85,.35-1.1s.53-.39,.9-.39c.16,0,.31,.02,.44,.05s.39,.13,.75,.29c.36,.16,.65,.24,.85,.24,.15,0,.27-.05,.37-.14,.1-.09,.16-.24,.19-.46h.89c0,.62-.12,1.06-.35,1.32-.22,.26-.52,.4-.87,.4-.16,0-.31-.02-.46-.05-.1-.03-.37-.12-.79-.28s-.72-.24-.92-.24c-.15,0-.26,.04-.34,.13s-.12,.24-.13,.46Zm2.58,4.75c-.25,.08-.64,.18-1.17,.29s-.88,.23-1.05,.33c-.25,.18-.38,.4-.38,.68s.1,.5,.3,.7,.46,.29,.77,.29c.35,0,.68-.11,.99-.34,.23-.17,.38-.39,.46-.64,.05-.16,.08-.48,.08-.94v-.38Z"/><path class="cls-1" d="M754.53,208.22c0-.64,.16-1.26,.47-1.85s.76-1.05,1.34-1.37c.58-.31,1.22-.47,1.93-.47,1.1,0,2,.36,2.7,1.07s1.05,1.61,1.05,2.7-.35,2.01-1.06,2.73c-.71,.72-1.6,1.08-2.68,1.08-.67,0-1.3-.15-1.9-.45-.6-.3-1.06-.74-1.38-1.32s-.47-1.29-.47-2.12Zm1.97,.1c0,.72,.17,1.27,.51,1.65s.76,.57,1.26,.57,.92-.19,1.26-.57c.34-.38,.51-.94,.51-1.67s-.17-1.26-.51-1.64c-.34-.38-.76-.57-1.26-.57s-.92,.19-1.26,.57-.51,.93-.51,1.65Z"/><path class="cls-1" d="M768.85,206.91l-1.74-.31c.2-.7,.53-1.22,1.01-1.56s1.19-.51,2.13-.51c.86,0,1.5,.1,1.91,.3s.71,.46,.88,.77c.17,.31,.26,.89,.26,1.72l-.02,2.24c0,.64,.03,1.11,.09,1.41,.06,.3,.18,.63,.35,.97h-1.9c-.05-.13-.11-.32-.18-.57-.03-.11-.05-.19-.07-.23-.33,.32-.68,.56-1.05,.72s-.77,.24-1.2,.24c-.75,0-1.34-.2-1.77-.61-.43-.41-.65-.92-.65-1.54,0-.41,.1-.78,.29-1.1s.47-.57,.82-.74c.35-.17,.86-.32,1.53-.45,.9-.17,1.52-.33,1.87-.47v-.19c0-.37-.09-.63-.27-.79s-.53-.24-1.03-.24c-.34,0-.61,.07-.8,.2s-.35,.37-.46,.71Zm2.43-3.1h-1.21l-1.89-2.04h2.15l.94,2.04Zm.14,4.66c-.25,.08-.64,.18-1.17,.29s-.88,.23-1.05,.33c-.25,.18-.38,.4-.38,.68s.1,.5,.3,.7,.46,.29,.77,.29c.35,0,.68-.11,.99-.34,.23-.17,.38-.39,.46-.64,.05-.16,.08-.48,.08-.94v-.38Z"/><path class="cls-1" d="M778.6,208.7l1.97-.19c.12,.66,.36,1.15,.72,1.46,.36,.31,.85,.46,1.47,.46,.65,0,1.14-.14,1.47-.41,.33-.28,.5-.6,.5-.97,0-.24-.07-.44-.21-.6-.14-.17-.38-.31-.73-.43-.24-.08-.78-.23-1.62-.44-1.08-.27-1.85-.6-2.28-.99-.62-.55-.92-1.22-.92-2.02,0-.51,.14-.99,.43-1.43,.29-.44,.71-.78,1.25-1.02,.54-.23,1.2-.35,1.97-.35,1.26,0,2.21,.28,2.84,.83,.64,.55,.97,1.29,1,2.21l-2.02,.09c-.09-.52-.27-.89-.56-1.11-.29-.23-.71-.34-1.28-.34s-1.05,.12-1.38,.36c-.21,.15-.32,.36-.32,.62,0,.24,.1,.44,.3,.61,.25,.21,.88,.44,1.86,.67s1.71,.47,2.18,.72c.47,.25,.84,.59,1.11,1.02,.27,.43,.4,.96,.4,1.6,0,.57-.16,1.11-.48,1.61s-.77,.87-1.35,1.12-1.31,.37-2.18,.37c-1.27,0-2.24-.29-2.92-.88s-1.08-1.44-1.22-2.56Z"/><path class="cls-1" d="M789.87,206.91l-1.74-.31c.2-.7,.53-1.22,1.01-1.56s1.19-.51,2.13-.51c.86,0,1.5,.1,1.91,.3s.71,.46,.88,.77c.17,.31,.26,.89,.26,1.72l-.02,2.24c0,.64,.03,1.11,.09,1.41,.06,.3,.18,.63,.35,.97h-1.9c-.05-.13-.11-.32-.18-.57-.03-.11-.05-.19-.07-.23-.33,.32-.68,.56-1.05,.72s-.77,.24-1.2,.24c-.75,0-1.34-.2-1.77-.61-.43-.41-.65-.92-.65-1.54,0-.41,.1-.78,.29-1.1s.47-.57,.82-.74c.35-.17,.86-.32,1.53-.45,.9-.17,1.52-.33,1.87-.47v-.19c0-.37-.09-.63-.27-.79s-.53-.24-1.03-.24c-.34,0-.61,.07-.8,.2s-.35,.37-.46,.71Zm2.57,1.56c-.25,.08-.64,.18-1.17,.29s-.88,.23-1.05,.33c-.25,.18-.38,.4-.38,.68s.1,.5,.3,.7,.46,.29,.77,.29c.35,0,.68-.11,.99-.34,.23-.17,.38-.39,.46-.64,.05-.16,.08-.48,.08-.94v-.38Z"/><path class="cls-1" d="M801,211.96v-1.09c-.26,.39-.61,.69-1.04,.92-.43,.22-.88,.33-1.36,.33s-.92-.11-1.31-.32-.67-.52-.84-.9-.26-.92-.26-1.61v-4.59h1.92v3.34c0,1.02,.04,1.65,.11,1.88,.07,.23,.2,.41,.39,.55s.42,.2,.71,.2c.33,0,.62-.09,.88-.27s.44-.4,.53-.67,.14-.92,.14-1.96v-3.06h1.92v7.26h-1.78Zm-2.49-8.15l.94-2.04h2.15l-1.88,2.04h-1.22Z"/><path class="cls-1" d="M811.43,211.96h-1.78v-1.07c-.3,.41-.65,.72-1.05,.93-.4,.2-.81,.3-1.22,.3-.83,0-1.55-.34-2.14-1.01-.6-.67-.89-1.61-.89-2.81s.29-2.17,.87-2.81,1.31-.96,2.19-.96c.81,0,1.51,.34,2.11,1.01v-3.61h1.92v10.02Zm-5.13-3.79c0,.77,.11,1.34,.32,1.68,.31,.5,.74,.75,1.3,.75,.44,0,.82-.19,1.13-.56s.46-.94,.46-1.69c0-.83-.15-1.43-.45-1.8s-.69-.55-1.16-.55-.84,.18-1.14,.54c-.31,.36-.46,.9-.46,1.62Z"/><path class="cls-1" d="M817.53,209.65l1.91,.32c-.25,.7-.63,1.24-1.17,1.6-.53,.37-1.19,.55-1.99,.55-1.26,0-2.2-.41-2.8-1.24-.48-.66-.72-1.49-.72-2.5,0-1.2,.31-2.15,.94-2.83s1.42-1.02,2.39-1.02c1.08,0,1.93,.36,2.56,1.07s.92,1.81,.9,3.28h-4.81c.01,.57,.17,1.01,.46,1.33s.67,.48,1.11,.48c.3,0,.55-.08,.76-.25s.36-.43,.46-.79Zm.11-1.94c-.01-.56-.16-.98-.43-1.27s-.61-.43-1-.43c-.42,0-.77,.15-1.04,.46s-.41,.72-.4,1.24h2.87Z"/></g><rect class="cls-5" x="902.19" y="259.48" width="173.12" height="39.35" rx="10" ry="10"/><g><path class="cls-1" d="M921.36,283.38v-8.33h-2.97v-1.7h7.96v1.7h-2.97v8.33h-2.02Z"/><path class="cls-1" d="M930.81,281.07l1.91,.32c-.25,.7-.63,1.24-1.17,1.6-.53,.37-1.19,.55-1.99,.55-1.26,0-2.2-.41-2.8-1.24-.48-.66-.72-1.49-.72-2.5,0-1.2,.31-2.15,.94-2.83s1.42-1.02,2.39-1.02c1.08,0,1.93,.36,2.56,1.07s.92,1.81,.9,3.28h-4.81c.01,.57,.17,1.01,.46,1.33s.67,.48,1.11,.48c.3,0,.55-.08,.76-.25s.36-.43,.46-.79Zm.11-1.94c-.01-.56-.16-.98-.43-1.27s-.61-.43-1-.43c-.42,0-.77,.15-1.04,.46s-.41,.72-.4,1.24h2.87Z"/><path class="cls-1" d="M940.72,278.27l-1.89,.34c-.06-.38-.21-.66-.43-.85-.23-.19-.52-.29-.88-.29-.48,0-.86,.17-1.14,.5-.29,.33-.43,.88-.43,1.66,0,.86,.14,1.47,.43,1.83,.29,.36,.68,.53,1.17,.53,.36,0,.66-.1,.9-.31s.4-.56,.49-1.07l1.89,.32c-.2,.87-.57,1.52-1.13,1.96s-1.3,.66-2.24,.66c-1.06,0-1.91-.33-2.54-1-.63-.67-.95-1.6-.95-2.78s.32-2.13,.95-2.8,1.49-1,2.57-1c.88,0,1.59,.19,2.11,.57,.52,.38,.9,.96,1.12,1.74Z"/><path class="cls-1" d="M948.78,283.38h-1.92v-3.71c0-.78-.04-1.29-.12-1.52s-.21-.41-.4-.54c-.18-.13-.41-.19-.67-.19-.33,0-.63,.09-.9,.27s-.45,.42-.54,.72c-.1,.3-.15,.86-.15,1.67v3.29h-1.92v-7.26h1.78v1.07c.63-.82,1.43-1.23,2.39-1.23,.42,0,.81,.08,1.16,.23s.62,.35,.8,.58c.18,.24,.3,.51,.38,.81,.07,.3,.11,.73,.11,1.29v4.51Z"/><path class="cls-1" d="M950.28,279.65c0-.64,.16-1.26,.47-1.85s.76-1.05,1.34-1.37c.58-.31,1.22-.47,1.93-.47,1.1,0,2,.36,2.7,1.07s1.05,1.61,1.05,2.7-.35,2.01-1.06,2.73c-.71,.72-1.6,1.08-2.68,1.08-.67,0-1.3-.15-1.9-.45-.6-.3-1.06-.74-1.38-1.32s-.47-1.29-.47-2.12Zm1.97,.1c0,.72,.17,1.27,.51,1.65s.76,.57,1.26,.57,.92-.19,1.26-.57c.34-.38,.51-.94,.51-1.67s-.17-1.26-.51-1.64c-.34-.38-.76-.57-1.26-.57s-.92,.19-1.26,.57-.51,.93-.51,1.65Z"/><path class="cls-1" d="M959.28,283.38v-10.02h1.92v10.02h-1.92Z"/><path class="cls-1" d="M962.72,279.65c0-.64,.16-1.26,.47-1.85s.76-1.05,1.34-1.37c.58-.31,1.22-.47,1.93-.47,1.1,0,2,.36,2.7,1.07s1.05,1.61,1.05,2.7-.35,2.01-1.06,2.73c-.71,.72-1.6,1.08-2.68,1.08-.67,0-1.3-.15-1.9-.45-.6-.3-1.06-.74-1.38-1.32s-.47-1.29-.47-2.12Zm1.97,.1c0,.72,.17,1.27,.51,1.65s.76,.57,1.26,.57,.92-.19,1.26-.57c.34-.38,.51-.94,.51-1.67s-.17-1.26-.51-1.64c-.34-.38-.76-.57-1.26-.57s-.92,.19-1.26,.57-.51,.93-.51,1.65Z"/><path class="cls-1" d="M971.54,283.86l2.19,.27c.04,.26,.12,.43,.25,.53,.18,.14,.47,.21,.86,.21,.5,0,.88-.08,1.13-.23,.17-.1,.3-.26,.38-.49,.06-.16,.09-.45,.09-.88v-1.06c-.57,.78-1.3,1.18-2.17,1.18-.98,0-1.75-.41-2.32-1.24-.45-.65-.67-1.46-.67-2.43,0-1.22,.29-2.15,.88-2.79,.58-.64,1.31-.96,2.18-.96s1.64,.39,2.22,1.18v-1.02h1.8v6.51c0,.86-.07,1.5-.21,1.92s-.34,.76-.59,1-.6,.43-1.02,.57c-.43,.14-.97,.21-1.62,.21-1.23,0-2.1-.21-2.62-.63s-.77-.96-.77-1.6c0-.06,0-.14,0-.23Zm1.72-4.26c0,.77,.15,1.33,.45,1.69,.3,.36,.67,.54,1.1,.54,.47,0,.87-.18,1.19-.55s.49-.91,.49-1.63-.16-1.31-.46-1.67-.7-.55-1.18-.55-.84,.18-1.14,.54c-.3,.36-.45,.9-.45,1.64Z"/><path class="cls-1" d="M980.27,275.14v-1.78h1.92v1.78h-1.92Zm0,8.24v-7.26h1.92v7.26h-1.92Z"/><path class="cls-1" d="M985.6,278.34l-1.74-.31c.2-.7,.53-1.22,1.01-1.56s1.19-.51,2.13-.51c.86,0,1.5,.1,1.91,.3s.71,.46,.88,.77c.17,.31,.26,.89,.26,1.72l-.02,2.24c0,.64,.03,1.11,.09,1.41,.06,.3,.18,.63,.35,.97h-1.9c-.05-.13-.11-.32-.18-.57-.03-.11-.05-.19-.07-.23-.33,.32-.68,.56-1.05,.72s-.77,.24-1.2,.24c-.75,0-1.34-.2-1.77-.61-.43-.41-.65-.92-.65-1.54,0-.41,.1-.78,.29-1.1s.47-.57,.82-.74c.35-.17,.86-.32,1.53-.45,.9-.17,1.52-.33,1.87-.47v-.19c0-.37-.09-.63-.27-.79s-.53-.24-1.03-.24c-.34,0-.61,.07-.8,.2s-.35,.37-.46,.71Zm2.57,1.56c-.25,.08-.64,.18-1.17,.29s-.88,.23-1.05,.33c-.25,.18-.38,.4-.38,.68s.1,.5,.3,.7,.46,.29,.77,.29c.35,0,.68-.11,.99-.34,.23-.17,.38-.39,.46-.64,.05-.16,.08-.48,.08-.94v-.38Z"/><path class="cls-1" d="M1000.04,281.07l1.91,.32c-.25,.7-.63,1.24-1.17,1.6-.53,.37-1.19,.55-1.99,.55-1.26,0-2.2-.41-2.8-1.24-.48-.66-.72-1.49-.72-2.5,0-1.2,.31-2.15,.94-2.83s1.42-1.02,2.39-1.02c1.08,0,1.93,.36,2.56,1.07s.92,1.81,.9,3.28h-4.81c.01,.57,.17,1.01,.46,1.33s.67,.48,1.11,.48c.3,0,.55-.08,.76-.25s.36-.43,.46-.79Zm.11-1.94c-.01-.56-.16-.98-.43-1.27s-.61-.43-1-.43c-.42,0-.77,.15-1.04,.46s-.41,.72-.4,1.24h2.87Z"/><path class="cls-1" d="M1003.48,276.12h1.77v.99c.63-.77,1.39-1.16,2.26-1.16,.46,0,.87,.1,1.21,.29s.62,.48,.84,.87c.32-.39,.66-.68,1.03-.87s.76-.29,1.18-.29c.53,0,.98,.11,1.35,.32s.64,.53,.83,.95c.13,.31,.2,.81,.2,1.5v4.64h-1.92v-4.15c0-.72-.07-1.19-.2-1.39-.18-.27-.45-.41-.82-.41-.27,0-.52,.08-.76,.25s-.41,.4-.51,.72-.16,.82-.16,1.5v3.49h-1.92v-3.98c0-.71-.03-1.16-.1-1.37s-.17-.36-.32-.46c-.14-.1-.34-.15-.58-.15-.3,0-.56,.08-.8,.24s-.41,.39-.51,.69c-.1,.3-.15,.8-.15,1.5v3.53h-1.92v-7.26Z"/><path class="cls-1" d="M1019.29,281.31l1.93-.29c.08,.37,.25,.66,.5,.85s.6,.29,1.05,.29c.5,0,.87-.09,1.12-.27,.17-.13,.25-.3,.25-.51,0-.15-.05-.27-.14-.36-.1-.09-.31-.18-.64-.25-1.55-.34-2.53-.65-2.95-.94-.57-.39-.86-.94-.86-1.63,0-.63,.25-1.16,.75-1.59s1.27-.64,2.31-.64,1.73,.16,2.21,.49,.82,.8,1,1.44l-1.81,.33c-.08-.28-.22-.5-.44-.65-.22-.15-.53-.23-.93-.23-.51,0-.87,.07-1.09,.21-.15,.1-.22,.23-.22,.39,0,.14,.06,.25,.19,.35,.17,.13,.77,.31,1.79,.54,1.02,.23,1.74,.52,2.14,.85,.4,.34,.6,.82,.6,1.43,0,.67-.28,1.24-.83,1.72s-1.38,.72-2.47,.72c-.99,0-1.77-.2-2.35-.6-.58-.4-.95-.95-1.13-1.63Z"/><path class="cls-1" d="M1029.18,278.34l-1.74-.31c.2-.7,.53-1.22,1.01-1.56s1.19-.51,2.13-.51c.86,0,1.5,.1,1.91,.3s.71,.46,.88,.77c.17,.31,.26,.89,.26,1.72l-.02,2.24c0,.64,.03,1.11,.09,1.41,.06,.3,.18,.63,.35,.97h-1.9c-.05-.13-.11-.32-.18-.57-.03-.11-.05-.19-.07-.23-.33,.32-.68,.56-1.05,.72s-.77,.24-1.2,.24c-.75,0-1.34-.2-1.77-.61-.43-.41-.65-.92-.65-1.54,0-.41,.1-.78,.29-1.1s.47-.57,.82-.74c.35-.17,.86-.32,1.53-.45,.9-.17,1.52-.33,1.87-.47v-.19c0-.37-.09-.63-.27-.79s-.53-.24-1.03-.24c-.34,0-.61,.07-.8,.2s-.35,.37-.46,.71Zm2.57,1.56c-.25,.08-.64,.18-1.17,.29s-.88,.23-1.05,.33c-.25,.18-.38,.4-.38,.68s.1,.5,.3,.7,.46,.29,.77,.29c.35,0,.68-.11,.99-.34,.23-.17,.38-.39,.46-.64,.05-.16,.08-.48,.08-.94v-.38Z"/><path class="cls-1" d="M1040.31,283.38v-1.09c-.26,.39-.61,.69-1.04,.92-.43,.22-.88,.33-1.36,.33s-.92-.11-1.31-.32-.67-.52-.84-.9-.26-.92-.26-1.61v-4.59h1.92v3.34c0,1.02,.04,1.65,.11,1.88,.07,.23,.2,.41,.39,.55s.42,.2,.71,.2c.33,0,.62-.09,.88-.27s.44-.4,.53-.67,.14-.92,.14-1.96v-3.06h1.92v7.26h-1.78Zm-2.49-8.15l.94-2.04h2.15l-1.88,2.04h-1.22Z"/><path class="cls-1" d="M1050.74,283.38h-1.78v-1.07c-.3,.41-.65,.72-1.05,.93-.4,.2-.81,.3-1.22,.3-.83,0-1.55-.34-2.14-1.01-.6-.67-.89-1.61-.89-2.81s.29-2.17,.87-2.81,1.31-.96,2.19-.96c.81,0,1.51,.34,2.11,1.01v-3.61h1.92v10.02Zm-5.13-3.79c0,.77,.11,1.34,.32,1.68,.31,.5,.74,.75,1.3,.75,.44,0,.82-.19,1.13-.56s.46-.94,.46-1.69c0-.83-.15-1.43-.45-1.8s-.69-.55-1.16-.55-.84,.18-1.14,.54c-.31,.36-.46,.9-.46,1.62Z"/><path class="cls-1" d="M1056.84,281.07l1.91,.32c-.25,.7-.63,1.24-1.17,1.6-.53,.37-1.19,.55-1.99,.55-1.26,0-2.2-.41-2.8-1.24-.48-.66-.72-1.49-.72-2.5,0-1.2,.31-2.15,.94-2.83s1.42-1.02,2.39-1.02c1.08,0,1.93,.36,2.56,1.07s.92,1.81,.9,3.28h-4.81c.01,.57,.17,1.01,.46,1.33s.67,.48,1.11,.48c.3,0,.55-.08,.76-.25s.36-.43,.46-.79Zm.11-1.94c-.01-.56-.16-.98-.43-1.27s-.61-.43-1-.43c-.42,0-.77,.15-1.04,.46s-.41,.72-.4,1.24h2.87Z"/></g></svg>