<?xml version="1.0" encoding="UTF-8"?><svg id="Camada_1" xmlns="http://www.w3.org/2000/svg" viewBox="0 0 548.28 126.73"><defs><style>.cls-1{fill:#2c558c;}.cls-1,.cls-2{fill-rule:evenodd;}.cls-2{fill:#0a528f;}</style></defs><path class="cls-2" d="M55.01,109.22c-2.93,0-5.84-.81-8.71-2.43-2.87-1.62-5.16-4.78-6.88-9.49l-2.29-5.96H11.46l-7.33,17.42H0L25.67,48.25h2.75l20.17,49.05c1.53,3.55,2.96,5.97,4.31,7.29,1.34,1.31,3.27,2.09,5.78,2.34v1.83c-1.1,.31-2.32,.46-3.67,.46h0ZM12.84,87.68h22.46l-11-26.59-11.46,26.59h0Zm61.25-35.76v56.85h8.25V51.92h20.63v-3.67H60.33c-5.2,0-7.79,2.44-7.79,7.33v6.88h1.83c0-7.03,3.82-10.54,11.46-10.54h8.25Zm55.84,58.4c-3.36,0-6.66-.46-9.9-1.38-3.24-.92-5.88-2.23-7.93-3.94-2.05-1.71-3.07-3.67-3.07-5.87v-9.81h1.65c1.04,6.11,3.06,10.53,6.05,13.25,2.99,2.72,7.12,4.08,12.38,4.08,3.3,0,6.13-.83,8.48-2.48,2.35-1.65,3.53-3.94,3.53-6.88,0-2.57-.79-4.8-2.38-6.69-1.59-1.89-4.16-3.88-7.7-5.96l-11.28-6.69c-3.91-2.32-6.68-4.68-8.3-7.06-1.62-2.38-2.43-5.29-2.43-8.71,0-4.71,1.63-8.48,4.91-11.32,3.27-2.84,7.56-4.26,12.88-4.26,3.12,0,6.2,.44,9.26,1.33,3.06,.89,5.58,2.17,7.56,3.85,1.99,1.68,2.98,3.62,2.98,5.82v9.81h-1.65c-1.04-6.11-3.01-10.5-5.91-13.16-2.9-2.66-6.98-3.99-12.24-3.99-2.81,0-5.29,.86-7.43,2.57-2.14,1.71-3.21,3.94-3.21,6.69,0,2.51,.78,4.58,2.34,6.23,1.56,1.65,4.17,3.58,7.84,5.78l11.28,6.69c4.16,2.51,7.09,4.83,8.8,6.97,1.71,2.14,2.57,4.86,2.57,8.16,0,5.13-1.71,9.24-5.13,12.33-3.42,3.09-8.07,4.63-13.94,4.63h0Zm55.65-51.07c0-3.12-.43-5.42-1.28-6.92-.86-1.5-2.57-2.25-5.13-2.25h-1.83v-1.83h39.06c5.2,0,7.79,2.44,7.79,7.33v6.88h-1.83c0-7.03-3.82-10.54-11.46-10.54h-17.05v23.84h24.76v3.67h-24.76v25.67h16.04c4.22,0,7.52-.76,9.9-2.29,2.38-1.53,4.28-4.13,5.68-7.79l1.83,.46-3.21,8.71c-1.1,3.06-3.39,4.58-6.88,4.58h-31.63V59.25h0Zm65.19,50.43c-5.32,0-9.4-2.11-12.24-6.33-2.84-4.22-4.26-9.6-4.26-16.14s1.48-11.92,4.45-16.14c2.96-4.22,7.29-6.33,12.97-6.33,2.32,0,4.37,.24,6.14,.73,1.77,.49,3.54,1.16,5.32,2.02v-8.25c0-3.12-.43-5.42-1.28-6.92-.86-1.5-2.57-2.25-5.13-2.25h-1.83v-1.83h8.25c2.26,0,3.96,.29,5.09,.87,1.13,.58,1.94,1.64,2.43,3.16,.49,1.53,.73,3.85,.73,6.97v49.51h-4.58l-3.21-4.13h-.46c-1.34,1.53-2.92,2.75-4.72,3.67-1.8,.92-4.36,1.38-7.66,1.38h0Zm2.75-3.67c2.51,0,4.4-.46,5.68-1.38,1.28-.92,2.6-2.29,3.94-4.13v-29.34c-1.83-.86-3.42-1.53-4.77-2.02-1.34-.49-2.66-.73-3.94-.73-3.91,0-6.8,1.71-8.66,5.13-1.86,3.42-2.8,7.98-2.8,13.66s.89,10.16,2.66,13.62c1.77,3.45,4.4,5.18,7.89,5.18h0Zm46.76,3.67c-4.58,0-8.33-1.22-11.23-3.67-2.9-2.45-4.35-6.72-4.35-12.84v-16.5c0-3.12-.43-5.42-1.28-6.92-.86-1.5-2.57-2.25-5.13-2.25h-.92v-1.83h7.33c2.26,0,3.96,.29,5.09,.87,1.13,.58,1.94,1.63,2.43,3.16,.49,1.53,.73,3.85,.73,6.97v16.5c0,4.28,.96,7.41,2.89,9.4,1.93,1.99,4.32,2.98,7.2,2.98,3.24,0,6.3-1.62,9.17-4.86v-35.02h8.25v43.09h-4.58l-3.21-3.67h-.46c-1.28,1.28-2.95,2.37-5,3.25-2.05,.89-4.36,1.33-6.92,1.33h0Zm51.07,0c-4.4,0-8.11-.99-11.14-2.98-3.03-1.99-5.29-4.68-6.78-8.07-1.5-3.39-2.25-7.2-2.25-11.41s.75-8.02,2.25-11.41c1.5-3.39,3.76-6.08,6.78-8.07,3.03-1.99,6.74-2.98,11.14-2.98,6.72,0,11.16,1.07,13.29,3.21,1.04,1.04,1.68,2.31,1.93,3.8,.24,1.5,.37,4.2,.37,8.11h-1.83c-.24-3.79-1.44-6.65-3.58-8.57-2.14-1.93-4.92-2.89-8.34-2.89-4.4,0-7.72,1.74-9.95,5.23-2.23,3.48-3.35,8.01-3.35,13.57s1.12,10.09,3.35,13.57c2.23,3.48,5.55,5.23,9.95,5.23,3.12,0,5.68-.6,7.7-1.79,2.02-1.19,3.88-3.04,5.59-5.55l1.83,1.38c-2.02,3.42-4.4,5.88-7.15,7.38-2.75,1.5-6.02,2.25-9.81,2.25h0Zm36.86,0c-1.96,0-3.94-.41-5.96-1.24s-3.74-2.19-5.18-4.08c-1.44-1.9-2.15-4.4-2.15-7.52,0-4.65,2.15-7.95,6.46-9.9s9.95-2.93,16.92-2.93h2.75c0-5.99-.83-10.09-2.48-12.29s-4.03-3.3-7.15-3.3c-2.75,0-4.95,.58-6.6,1.74-1.65,1.16-2.81,3.18-3.48,6.05h-4.13c0-2.08,.12-3.71,.37-4.91,.24-1.19,.89-2.31,1.93-3.35,1.1-1.1,2.92-1.91,5.46-2.43,2.54-.52,5.3-.78,8.3-.78,4.95,0,8.86,1.33,11.74,3.99,2.87,2.66,4.31,7.75,4.31,15.27v24.76h-4.58l-3.21-4.13h-.46c-1.1,1.41-2.72,2.6-4.86,3.58-2.14,.98-4.8,1.47-7.98,1.47h0Zm4.13-4.13c2.02,0,3.7-.49,5.04-1.47,1.34-.98,2.57-2.32,3.67-4.03v-12.38h-2.75c-4.52,0-8.1,.84-10.73,2.52-2.63,1.68-3.94,3.9-3.94,6.65s.84,4.97,2.52,6.46c1.68,1.5,3.74,2.25,6.19,2.25h0Zm44.28,17.42h4.58c2.45,0,3.67-.98,3.67-2.93s-1.22-3.03-3.67-3.03h-4.13v-7.33c-5.75-.73-10.1-3.15-13.07-7.24-2.96-4.1-4.45-9.17-4.45-15.22,0-4.22,.75-8.02,2.25-11.41,1.5-3.39,3.76-6.08,6.78-8.07,3.03-1.99,6.74-2.98,11.14-2.98,6.72,0,11.16,1.07,13.29,3.21,1.04,1.04,1.68,2.31,1.93,3.8,.24,1.5,.37,4.2,.37,8.11h-1.83c-.24-3.79-1.44-6.65-3.58-8.57-2.14-1.93-4.92-2.89-8.34-2.89-4.4,0-7.72,1.74-9.95,5.23-2.23,3.48-3.35,8.01-3.35,13.57s1.12,10.09,3.35,13.57c2.23,3.48,5.55,5.23,9.95,5.23,3.12,0,5.68-.6,7.7-1.79,2.02-1.19,3.88-3.04,5.59-5.55l1.83,1.38c-1.96,3.3-4.25,5.68-6.88,7.15-2.32,1.28-5.2,2.08-8.62,2.38v3.76h.92c2.14,0,3.9,.58,5.27,1.74,1.38,1.16,2.06,2.81,2.06,4.95s-.69,3.71-2.06,4.91-3.13,1.79-5.27,1.79h-5.5v-3.76h0Zm39.97-13.29c-1.96,0-3.94-.41-5.96-1.24-2.02-.83-3.74-2.19-5.18-4.08-1.44-1.9-2.15-4.4-2.15-7.52,0-4.65,2.15-7.95,6.46-9.9,4.31-1.96,9.95-2.93,16.92-2.93h2.75c0-5.99-.83-10.09-2.48-12.29-1.65-2.2-4.03-3.3-7.15-3.3-2.75,0-4.95,.58-6.6,1.74-1.65,1.16-2.81,3.18-3.48,6.05h-4.13c0-2.08,.12-3.71,.37-4.91,.24-1.19,.89-2.31,1.93-3.35,1.1-1.1,2.92-1.91,5.46-2.43,2.54-.52,5.3-.78,8.3-.78,4.95,0,8.86,1.33,11.74,3.99,2.87,2.66,4.31,7.75,4.31,15.27v24.76h-4.58l-3.21-4.13h-.46c-1.1,1.41-2.72,2.6-4.86,3.58-2.14,.98-4.8,1.47-7.98,1.47h0Zm4.13-4.13c2.02,0,3.7-.49,5.04-1.47,1.34-.98,2.57-2.32,3.67-4.03v-12.38h-2.75c-4.52,0-8.1,.84-10.73,2.52-2.63,1.68-3.94,3.9-3.94,6.65s.84,4.97,2.52,6.46c1.68,1.5,3.74,2.25,6.19,2.25h0Zm-9.72-45.93c0-3.18,.44-5.42,1.33-6.74,.89-1.31,2.28-1.97,4.17-1.97,.92,0,1.76,.17,2.52,.5,.76,.34,1.6,.81,2.52,1.42,.18,.12,.58,.35,1.19,.69,.61,.34,1.19,.6,1.74,.78,.55,.18,1.1,.27,1.65,.27,.67,0,1.3-.43,1.88-1.28,.58-.86,.87-1.65,.87-2.38h2.75c0,3.18-.44,5.42-1.33,6.74-.89,1.31-2.28,1.97-4.17,1.97-.86,0-1.67-.15-2.43-.46-.76-.31-1.6-.76-2.52-1.38-1.04-.61-1.88-1.07-2.52-1.38-.64-.31-1.36-.46-2.15-.46-.67,0-1.3,.43-1.88,1.28-.58,.86-.87,1.65-.87,2.38h-2.75Zm57.12,50.06c-4.16,0-7.76-.99-10.82-2.98-3.06-1.99-5.38-4.69-6.97-8.11-1.59-3.42-2.38-7.21-2.38-11.37s.79-7.95,2.38-11.37c1.59-3.42,3.91-6.13,6.97-8.11,3.06-1.99,6.66-2.98,10.82-2.98s7.76,.99,10.82,2.98c3.06,1.99,5.38,4.69,6.97,8.11,1.59,3.42,2.38,7.21,2.38,11.37s-.79,7.95-2.38,11.37c-1.59,3.42-3.91,6.13-6.97,8.11-3.06,1.99-6.66,2.98-10.82,2.98h0Zm0-3.67c2.26,0,4.26-.83,6.01-2.48,1.74-1.65,3.09-3.91,4.03-6.78,.95-2.87,1.42-6.05,1.42-9.54s-.47-6.66-1.42-9.54c-.95-2.87-2.29-5.13-4.03-6.78-1.74-1.65-3.74-2.48-6.01-2.48s-4.26,.83-6.01,2.48c-1.74,1.65-3.09,3.91-4.03,6.78-.95,2.87-1.42,6.05-1.42,9.54s.47,6.66,1.42,9.54c.95,2.87,2.29,5.13,4.03,6.78,1.74,1.65,3.74,2.48,6.01,2.48Z"/><path class="cls-1" d="M11.24,.36c3.93,0,6.85,.75,8.78,2.24,1.92,1.5,2.89,3.62,2.89,6.37,0,1.58-.28,2.92-.84,4.03-.56,1.11-1.36,2-2.4,2.69-1.04,.68-2.32,1.18-3.83,1.48-1.51,.31-3.21,.46-5.11,.46h-3.77v10.74h-2.73V1.12c.96-.27,2.09-.46,3.39-.58,1.3-.12,2.5-.18,3.63-.18h0Zm.12,2.36c-1.02,0-1.88,.03-2.58,.1-.71,.07-1.32,.13-1.82,.18V15.27h3.45c1.47,0,2.8-.09,3.99-.26,1.19-.17,2.2-.49,3.05-.96s1.49-1.12,1.94-1.94c.45-.83,.68-1.88,.68-3.17s-.25-2.24-.74-3.05c-.49-.8-1.15-1.44-1.96-1.9-.81-.47-1.74-.79-2.78-.98-1.04-.19-2.11-.28-3.21-.28h0Zm35.1,6.21c0,2.08-.55,3.73-1.64,4.93-1.1,1.2-2.54,2.07-4.33,2.6,.43,.53,.98,1.26,1.66,2.16,.68,.91,1.38,1.9,2.1,2.99,.72,1.08,1.43,2.21,2.12,3.39,.69,1.18,1.28,2.3,1.76,3.37h-2.93c-.56-1.07-1.17-2.14-1.82-3.21-.65-1.07-1.32-2.1-2-3.11-.68-1-1.34-1.93-1.98-2.79-.64-.85-1.2-1.6-1.68-2.24-.85,.08-1.71,.12-2.56,.12h-4.49v11.22h-2.73V1.12c.96-.27,2.09-.46,3.39-.58,1.3-.12,2.49-.18,3.59-.18,3.82,0,6.7,.72,8.64,2.16,1.94,1.44,2.91,3.58,2.91,6.41h0Zm-11.22-6.21c-1.01,0-1.9,.03-2.66,.1s-1.4,.13-1.9,.18V14.83h3.77c1.26,0,2.44-.06,3.57-.18,1.12-.12,2.1-.39,2.93-.8,.83-.41,1.48-1.01,1.96-1.78,.48-.77,.72-1.83,.72-3.17,0-1.23-.24-2.24-.72-3.05-.48-.8-1.11-1.44-1.88-1.9-.77-.47-1.66-.79-2.66-.96-1-.17-2.04-.26-3.11-.26h0Zm42.4,11.74c0,2.38-.35,4.48-1.04,6.29-.69,1.82-1.64,3.33-2.83,4.55-1.19,1.22-2.57,2.13-4.15,2.75-1.58,.61-3.25,.92-5.01,.92s-3.43-.31-5.01-.92c-1.58-.61-2.96-1.53-4.15-2.75-1.19-1.22-2.13-2.73-2.82-4.55-.69-1.82-1.04-3.91-1.04-6.29s.35-4.47,1.04-6.27c.69-1.8,1.64-3.31,2.82-4.53,1.19-1.22,2.57-2.13,4.15-2.74,1.58-.61,3.25-.92,5.01-.92s3.43,.31,5.01,.92c1.58,.61,2.96,1.53,4.15,2.74,1.19,1.22,2.13,2.72,2.83,4.53,.69,1.8,1.04,3.89,1.04,6.27h0Zm-2.89,0c0-1.87-.24-3.55-.72-5.03-.48-1.48-1.16-2.74-2.04-3.79-.88-1.04-1.94-1.84-3.19-2.38-1.24-.55-2.64-.82-4.19-.82s-2.95,.27-4.19,.82c-1.24,.55-2.3,1.34-3.19,2.38-.88,1.04-1.56,2.3-2.04,3.79-.48,1.48-.72,3.16-.72,5.03s.24,3.55,.72,5.03c.48,1.48,1.16,2.75,2.04,3.79s1.94,1.84,3.19,2.4c1.24,.56,2.64,.84,4.19,.84s2.95-.28,4.19-.84c1.24-.56,2.3-1.36,3.19-2.4,.88-1.04,1.56-2.3,2.04-3.79,.48-1.48,.72-3.16,.72-5.03h0Zm20.84,5.17c0,1.34-.13,2.57-.4,3.71-.27,1.14-.73,2.12-1.38,2.97-.65,.84-1.52,1.5-2.6,1.96-1.08,.47-2.44,.7-4.07,.7-.96,0-1.84-.09-2.64-.26-.8-.17-1.51-.38-2.12-.62-.61-.24-1.13-.49-1.54-.76-.41-.27-.73-.51-.94-.72l1.28-2.2c.24,.21,.54,.45,.9,.7,.36,.25,.78,.49,1.26,.7,.48,.21,1.02,.39,1.6,.52,.59,.13,1.23,.2,1.92,.2,2.06,0,3.57-.54,4.55-1.62,.98-1.08,1.46-2.93,1.46-5.55V.6h2.72V19.64h0Zm7.09,8.74V.6h16.03V2.97h-13.3V12.62h11.86v2.32h-11.86v11.06h14.35v2.36h-17.07ZM142.57,.6V2.97h-8.9V28.37h-2.72V2.97h-8.9V.6h20.52Zm28.61,13.87c0,2.38-.35,4.48-1.04,6.29-.69,1.82-1.64,3.33-2.83,4.55-1.19,1.22-2.57,2.13-4.15,2.75-1.58,.61-3.25,.92-5.01,.92s-3.43-.31-5.01-.92c-1.58-.61-2.96-1.53-4.15-2.75-1.19-1.22-2.13-2.73-2.82-4.55-.69-1.82-1.04-3.91-1.04-6.29s.35-4.47,1.04-6.27c.69-1.8,1.64-3.31,2.82-4.53,1.19-1.22,2.57-2.13,4.15-2.74,1.58-.61,3.25-.92,5.01-.92s3.43,.31,5.01,.92c1.58,.61,2.96,1.53,4.15,2.74,1.19,1.22,2.13,2.72,2.83,4.53,.69,1.8,1.04,3.89,1.04,6.27h0Zm-2.89,0c0-1.87-.24-3.55-.72-5.03-.48-1.48-1.16-2.74-2.04-3.79-.88-1.04-1.94-1.84-3.19-2.38-1.24-.55-2.64-.82-4.19-.82s-2.95,.27-4.19,.82c-1.24,.55-2.3,1.34-3.19,2.38-.88,1.04-1.56,2.3-2.04,3.79-.48,1.48-.72,3.16-.72,5.03s.24,3.55,.72,5.03c.48,1.48,1.16,2.75,2.04,3.79,.88,1.04,1.94,1.84,3.19,2.4,1.24,.56,2.64,.84,4.19,.84s2.95-.28,4.19-.84c1.24-.56,2.3-1.36,3.19-2.4s1.56-2.3,2.04-3.79c.48-1.48,.72-3.16,.72-5.03Z"/></svg>