<?xml version="1.0" encoding="UTF-8"?><svg id="Camada_1" xmlns="http://www.w3.org/2000/svg" viewBox="0 0 1500 1000"><defs><style>.cls-1,.cls-2{fill:#fff;}.cls-3{fill:#666;font-family:ArialMT, Arial;font-size:15px;}.cls-4{font-size:17px;}.cls-4,.cls-5{fill:#1c548f;}.cls-4,.cls-2{font-family:Arial-BoldMT, Arial;}.cls-6{fill:#0071bc;}.cls-2{font-size:35px;}.cls-7{letter-spacing:-.02em;}.cls-8{fill:none;stroke:#1c548f;stroke-miterlimit:10;stroke-width:2px;}.cls-9{fill:#ededec;}.cls-10{letter-spacing:-.06em;}</style></defs><path class="cls-5" d="M691.89,476.54l-6.81-4.31-13.17-8.4-60.08-33.95c-9.55,10.41-17.89,21.96-24.78,34.42l65.24,36.03,11.93,6.82,80.34,47.03-52.67-77.64Z"/><path class="cls-5" d="M734.35,463.66l-8.08-11.33-7.89-11.31-43.62-61.32c-13.33,5.31-23.22,16.62-34.76,24.8l43.73,60.71,7.89,11.31,52.55,77.44-9.82-90.3Z"/><path class="cls-5" d="M721.23,373.22l10.52,74.48,1.72,13.63,10.46,92.67,33.19-84.21-1.87-13.74-1.72-13.63-9.82-69.53c-6.52-.72-13.14-1.09-19.85-1.09-7.67,0-15.22,.48-22.63,1.42Z"/><path class="cls-5" d="M808.02,383.65l-25.4,70.64-4.84,12.86-34,86.84,68.66-58.99,4.76-13.03,4.84-12.86,23.59-65.61c-11.61-8.03-24.22-14.73-37.61-19.87Z"/><path class="cls-5" d="M879.71,434.2l-54.71,49.69-10.31,9.09-70.76,60.75,88.3-19.89,10.31-9.27,10.31-9.09,61.14-54.48c-6.51-12.73-25.05-16.06-34.29-26.8Z"/><path class="cls-5" d="M935,544c0-13.53-13.54-19.79-16.38-32.47l-70.46,18.13-13.36,3.23-90.94,20.7,87.38,23.62,13.45-3.39,13.36-3.23,87.95-22.6c.02-.99-11-3-11-4Z"/><path class="cls-5" d="M916.67,598.14l-69.17-16.7-13.31-3.42-90.01-24.42,66.06,61.89,13.46,3.32,13.31,3.42,63.61,15.36c6.83-12.33,12.25-25.55,16.04-39.45Z"/><path class="cls-5" d="M822.64,626.31l-10.17-9.24-68.21-63.61,29.54,85.56,10.36,9.22,10.17,9.24,48.48,42.74c11.87-7.89,22.75-17.15,32.41-27.56l-52.58-46.35Z"/><path class="cls-5" d="M803.94,719.69l-24.43-64.89-4.65-12.93-30.4-88.17-14.04,89.42,4.82,13,4.65,12.93,22.59,60.01c14.4-1.49,28.29-4.68,41.47-9.37Z"/><path class="cls-5" d="M690.45,626.22l-1.81,13.75-1.92,13.61-8.1,64.19c13.03,5.1,26.8,8.71,41.1,10.64l8.7-68.94,1.92-13.61,14.26-92.17-54.15,72.53Z"/><path class="cls-5" d="M662.87,592.61l-8.07,11.28-8.1,11.1-37.91,53.55c9.31,10.68,19.86,20.25,31.44,28.47l40.49-57.18,8.1-11.1,56-74.58-81.94,38.46Z"/><path class="cls-5" d="M654.48,550.05l-12.4,6.21-12.35,6.03-69.74,35.72c3.34,13.96,17.97,22.02,24.36,34.49l63.86-32.37,12.35-6.03,84.33-39.82-90.42-4.23Z"/><path class="cls-5" d="M666.73,508.21l-13.86-.33-13.73-.46-84.14-1.42c-3.47,13.46,9.99,27.63,9.77,42.12l72.95,1.39,13.73,.46,93.16,4.38-77.87-46.14Z"/><circle class="cls-1" cx="745.5" cy="554.5" r="101.5"/><rect class="cls-9" x="368.66" y="322.52" width="258" height="50" rx="10.61" ry="10.61"/><rect class="cls-9" x="588" y="182.64" width="313" height="129" rx="18.78" ry="18.78"/><rect class="cls-9" x="855" y="322.52" width="271" height="50" rx="10.88" ry="10.88"/><rect class="cls-9" x="305" y="407.64" width="270" height="50" rx="10.86" ry="10.86"/><rect class="cls-9" x="913" y="407.64" width="303" height="50" rx="11.5" ry="11.5"/><rect class="cls-9" x="913" y="596.52" width="303" height="50" rx="11.5" ry="11.5"/><rect class="cls-9" x="879" y="681.66" width="179" height="50" rx="8.84" ry="8.84"/><rect class="cls-9" x="937" y="500.64" width="316" height="50" rx="11.75" ry="11.75"/><rect class="cls-9" x="263" y="500.64" width="273" height="50" rx="10.92" ry="10.92"/><rect class="cls-9" x="341" y="596.52" width="195" height="50" rx="10.92" ry="10.92"/><rect class="cls-9" x="271" y="681.66" width="341" height="50" rx="14.44" ry="14.44"/><rect class="cls-9" x="415" y="769.53" width="273" height="50" rx="12.92" ry="12.92"/><rect class="cls-9" x="796" y="769.53" width="229" height="50" rx="11.83" ry="11.83"/><path class="cls-5" d="M733.62,396.81l.07-.09s.01-.02,.02-.03c0-.01,0-.02,0-.03,0-.01,0-.02,0-.03,0-.01,0-.02-.02-.03-.02-.02-.04-.03-.06-.03h-.02s-.03,.01-.04,.03l-.07,.09s-.01,.02-.02,.03c0,.01,0,.02,0,.03,0,.01,0,.02,0,.03,0,.01,0,.02,.02,.03,.02,.02,.04,.03,.06,.03h.02s.03-.01,.04-.03h0Z"/><path class="cls-5" d="M745.56,492.26l.09,.07s.02,.01,.03,.02c.01,0,.02,0,.03,0,.01,0,.02,0,.03,0,.01,0,.02,0,.03-.02,.02-.02,.03-.04,.03-.06v-.02s-.01-.03-.03-.04l-.09-.07s-.02-.01-.03-.02c-.01,0-.02,0-.03,0-.01,0-.02,0-.03,0-.01,0-.02,0-.03,.02-.02,.02-.03,.04-.03,.06v.02s.01,.03,.03,.04h0Z"/><path class="cls-5" d="M804.12,492.26l.09,.07s.02,.01,.03,.02c.01,0,.02,0,.03,0,.01,0,.02,0,.03,0,.01,0,.02,0,.03-.02,.02-.02,.03-.04,.03-.06v-.02s-.01-.03-.03-.04l-.09-.07s-.02-.01-.03-.02c-.01,0-.02,0-.03,0-.01,0-.02,0-.03,0-.01,0-.02,0-.03,.02-.02,.02-.03,.04-.03,.06v.02s.01,.03,.03,.04h0Z"/><circle class="cls-6" cx="912.2" cy="434.43" r="33.26"/><circle class="cls-6" cx="943.98" cy="524.77" r="33.26"/><circle class="cls-6" cx="930.36" cy="621.93" r="33.26"/><circle class="cls-6" cx="875.2" cy="701.27" r="33.26"/><circle class="cls-6" cx="789.39" cy="746.56" r="33.26"/><circle class="cls-6" cx="693.37" cy="746.56" r="33.26"/><circle class="cls-6" cx="607.56" cy="701.27" r="33.26"/><circle class="cls-6" cx="552.85" cy="621.93" r="33.26"/><circle class="cls-6" cx="541.5" cy="524.77" r="33.26"/><circle class="cls-6" cx="579.18" cy="434.43" r="33.26"/><circle class="cls-6" cx="645.69" cy="371.77" r="33.26"/><circle class="cls-6" cx="741.94" cy="347.26" r="33.26"/><circle class="cls-6" cx="839.1" cy="371.77" r="33.26"/><text class="cls-3" transform="translate(400.38 342.32)"><tspan x="0" y="0">Câmaras setoriais e entidades</tspan><tspan x="18.33" y="18">representativas da indústria</tspan></text><text class="cls-3" transform="translate(879 341.82)"><tspan x="0" y="0">Agências de </tspan><tspan class="cls-7" x="86.73" y="0">V</tspan><tspan x="96.46" y="0">igilância Sanitária</tspan><tspan x="0" y="18">e de Saúde Suplementar</tspan></text><text class="cls-3" transform="translate(960 426.95)"><tspan x="0" y="0">Secretarias Estaduais e Municipais </tspan><tspan x="0" y="18">de Saúde</tspan></text><text class="cls-3" transform="translate(978 624.32)"><tspan x="0" y="0">Prestadores de serviço de saúde</tspan></text><text class="cls-2" transform="translate(920.27 635.32)"><tspan x="0" y="0">5</tspan></text><text class="cls-2" transform="translate(934.27 537.32)"><tspan x="0" y="0">4</tspan></text><text class="cls-2" transform="translate(522.5 537.32)"><tspan class="cls-10" x="0" y="0">1</tspan><tspan x="17.53" y="0">1</tspan></text><text class="cls-2" transform="translate(559.53 446.32)"><tspan x="0" y="0">12</tspan></text><text class="cls-2" transform="translate(625.53 384.32)"><tspan x="0" y="0">13</tspan></text><text class="cls-2" transform="translate(829.27 384.32)"><tspan x="0" y="0">2</tspan></text><text class="cls-2" transform="translate(732.27 360.32)"><tspan x="0" y="0">1</tspan></text><text class="cls-2" transform="translate(901.27 446.32)"><tspan x="0" y="0">3</tspan></text><text class="cls-2" transform="translate(533.53 635.32)"><tspan x="0" y="0">10</tspan></text><text class="cls-2" transform="translate(865.27 714.32)"><tspan x="0" y="0">6</tspan></text><text class="cls-2" transform="translate(598.27 714.32)"><tspan x="0" y="0">9</tspan></text><text class="cls-2" transform="translate(683.27 759.32)"><tspan x="0" y="0">8</tspan></text><text class="cls-2" transform="translate(779.27 759.32)"><tspan x="0" y="0">7</tspan></text><text class="cls-3" transform="translate(923 711.96)"><tspan x="0" y="0">Ministério Público</tspan></text><text class="cls-3" transform="translate(812 797.34)"><tspan x="0" y="0">Poder Judiciário e Legislativo</tspan></text><text class="cls-3" transform="translate(437.37 789.34)"><tspan x="0" y="0">Entidades do controle social, como</tspan><tspan x="99.2" y="18">conselhos de saúde</tspan></text><text class="cls-3" transform="translate(992 520.45)"><tspan x="0" y="0">Universidades, hospitais de ensino e </tspan><tspan x="0" y="18">centros de pesquisa</tspan></text><text class="cls-3" transform="translate(358.41 427.45)"><tspan x="0" y="0">Associações, conselhos e</tspan><tspan x="-11.68" y="18">sociedades de profissionais</tspan></text><text class="cls-3" transform="translate(355.75 624.32)"><tspan x="0" y="0">Sociedades científicas</tspan></text><text class="cls-3" transform="translate(313.21 701.46)"><tspan x="0" y="0">Órgãos do Executivo envolvidos com </tspan><tspan x="-20.05" y="18">ciência, tecnologia e produção industrial</tspan></text><text class="cls-3" transform="translate(279.96 528.45)"><tspan x="0" y="0">Operadoras de planos de saúde</tspan></text><text class="cls-3" transform="translate(636.53 205.66)"><tspan x="0" y="0">MS (na administração direta das</tspan><tspan x="-25.46" y="18">áreas de ciência, tecnologia e inovação;</tspan><tspan x="-24.2" y="36">insumos estratégicos; atenção à saúde;</tspan><tspan x="-28.78" y="54">vigilância em saúde; gestão participativa;</tspan><tspan x="-7.53" y="72">gestão do trabalho e educação em</tspan><tspan x="40.84" y="90">saúde, entre outras)</tspan></text><text class="cls-4" transform="translate(676.03 568.18)"><tspan x="0" y="0">Setores - gestão </tspan><tspan x="8.98" y="18">de tecnologias</tspan><tspan x="29.28" y="36">em saúde</tspan></text><g><g><polyline class="cls-8" points="752.44 496 765.93 496 765.93 546.43 723.12 546.43 723.12 496 736.61 496"/><polygon class="cls-8" points="741.2 492.01 736.61 496 736.61 501.66 752.44 501.66 752.44 496 747.85 492.01 741.2 492.01"/></g><g><polyline class="cls-8" points="743.95 518.34 743.95 522.28 730.34 522.28 730.34 507.73 741.14 507.73"/><polyline class="cls-8" points="734.35 513.46 738.37 517.47 746.2 509.64"/><polyline class="cls-8" points="743.95 535.42 743.95 539.36 730.34 539.36 730.34 528.56"/><polyline class="cls-8" points="734.35 530.54 738.37 534.55 746.2 526.72"/></g></g></svg>