<?xml version="1.0" encoding="UTF-8"?><svg id="Camada_1" xmlns="http://www.w3.org/2000/svg" viewBox="0 0 1500 1000"><defs><style>.cls-1,.cls-2,.cls-3{font-size:13.36px;}.cls-1,.cls-4,.cls-5{fill:#fff;}.cls-1,.cls-3{font-family:Arial-BoldMT, Arial;}.cls-2{font-family:ArialMT, Arial;}.cls-2,.cls-3{fill:#666;}.cls-6{letter-spacing:-.06em;}.cls-4{stroke-width:2px;}.cls-4,.cls-5,.cls-7,.cls-8{stroke-miterlimit:10;}.cls-4,.cls-7,.cls-8{stroke:#ccc;}.cls-5{stroke:#1c548f;}.cls-7{stroke-dasharray:0 0 1.99 1.99;}.cls-7,.cls-8{fill:none;}.cls-9{fill:#1c548f;}.cls-10{letter-spacing:-.04em;}.cls-11{letter-spacing:-.07em;}</style></defs><polygon class="cls-9" points="335.97 412.9 226.17 412.9 254.89 386.69 226.17 360.47 335.97 360.47 366.38 386.69 335.97 412.9"/><polygon class="cls-9" points="453.93 412.9 344.13 412.9 372.85 386.69 344.13 360.47 453.93 360.47 484.34 386.69 453.93 412.9"/><polygon class="cls-9" points="571.15 412.9 461.34 412.9 490.06 386.69 461.34 360.47 571.15 360.47 601.56 386.69 571.15 412.9"/><polygon class="cls-9" points="688.37 412.9 578.56 412.9 607.28 386.69 578.56 360.47 688.37 360.47 718.78 386.69 688.37 412.9"/><polygon class="cls-9" points="805.59 412.9 695.78 412.9 724.5 386.69 695.78 360.47 805.59 360.47 836 386.69 805.59 412.9"/><polygon class="cls-9" points="923.55 412.9 813.74 412.9 842.46 386.69 813.74 360.47 923.55 360.47 953.96 386.69 923.55 412.9"/><polygon class="cls-9" points="1040.77 412.9 930.96 412.9 959.68 386.69 930.96 360.47 1040.77 360.47 1071.18 386.69 1040.77 412.9"/><polygon class="cls-9" points="1157.99 412.9 1048.18 412.9 1076.9 386.69 1048.18 360.47 1157.99 360.47 1188.39 386.69 1157.99 412.9"/><text class="cls-1" transform="translate(277.36 384.34)"><tspan x="0" y="0">CONSU</tspan><tspan x="8.32" y="14.26">nº 10</tspan></text><text class="cls-1" transform="translate(410.34 384.34)"><tspan x="0" y="0">RN </tspan><tspan x="-9.88" y="14.26">nº 167</tspan></text><text class="cls-1" transform="translate(527.05 384.34)"><tspan x="0" y="0">RN </tspan><tspan x="-9.51" y="14.26">nº 2</tspan><tspan class="cls-6" x="14.68" y="14.26">1</tspan><tspan x="21.38" y="14.26">1</tspan></text><text class="cls-1" transform="translate(644.66 384.34)"><tspan x="0" y="0">RN </tspan><tspan x="-9.88" y="14.26">nº 262</tspan></text><text class="cls-1" transform="translate(761.37 384.34)"><tspan x="0" y="0">RN </tspan><tspan x="-9.88" y="14.26">nº 338</tspan></text><text class="cls-1" transform="translate(879.87 384.34)"><tspan x="0" y="0">RN </tspan><tspan x="-9.88" y="14.26">nº 387</tspan></text><text class="cls-1" transform="translate(996.58 384.34)"><tspan x="0" y="0">RN </tspan><tspan x="-9.88" y="14.26">nº 428</tspan></text><text class="cls-1" transform="translate(1115.08 384.34)"><tspan x="0" y="0">RN </tspan><tspan x="-9.88" y="14.26">nº 439</tspan></text><polygon class="cls-9" points="1275.59 412.9 1165.78 412.9 1194.5 386.69 1165.78 360.47 1275.59 360.47 1306 386.69 1275.59 412.9"/><text class="cls-1" transform="translate(1232.68 384.34)"><tspan x="0" y="0">RN </tspan><tspan x="-9.88" y="14.26">nº 470</tspan></text><text class="cls-2" transform="translate(367.89 440.47)"><tspan x="0" y="0">Abril 2008</tspan></text><text class="cls-2" transform="translate(241.34 440.47)"><tspan x="0" y="0">Janeiro 1999</tspan></text><text class="cls-2" transform="translate(593.34 440.47)"><tspan x="0" y="0">Janeiro 2012</tspan></text><text class="cls-2" transform="translate(478.96 441.47)"><tspan x="0" y="0" xml:space="preserve">Junho  2010</tspan></text><text class="cls-2" transform="translate(829.34 440.47)"><tspan x="0" y="0">Janeiro 2016</tspan></text><text class="cls-2" transform="translate(946.34 440.47)"><tspan x="0" y="0">Janeiro 2018</tspan></text><text class="cls-2" transform="translate(1054.43 440.47)"><tspan x="0" y="0">Dezembro 2018</tspan></text><text class="cls-2" transform="translate(1187.28 440.47)"><tspan x="0" y="0">Julho 2021</tspan></text><text class="cls-2" transform="translate(711.34 440.47)"><tspan x="0" y="0">Janeiro 2014</tspan></text><rect class="cls-9" x="396.25" y="452" width="3" height="19"/><polygon class="cls-9" points="397.75 476.07 390.68 469 397.75 469 404.82 469 397.75 476.07"/><rect class="cls-9" x="514.24" y="453" width="3" height="19"/><polygon class="cls-9" points="515.74 477.07 508.67 470 515.74 470 522.81 470 515.74 477.07"/><rect class="cls-9" x="631.25" y="452" width="3" height="19"/><polygon class="cls-9" points="632.75 476.07 625.68 469 632.75 469 639.82 469 632.75 476.07"/><rect class="cls-9" x="748.25" y="452" width="3" height="19"/><polygon class="cls-9" points="749.75 476.07 742.68 469 749.75 469 756.82 469 749.75 476.07"/><rect class="cls-9" x="869.25" y="452" width="3" height="19"/><polygon class="cls-9" points="870.75 476.07 863.68 469 870.75 469 877.82 469 870.75 476.07"/><rect class="cls-9" x="986.25" y="452" width="3" height="19"/><polygon class="cls-9" points="987.75 476.07 980.68 469 987.75 469 994.82 469 987.75 476.07"/><rect class="cls-9" x="1101.25" y="452" width="3" height="19"/><polygon class="cls-9" points="1102.75 476.07 1095.68 469 1102.75 469 1109.82 469 1102.75 476.07"/><rect class="cls-9" x="1219.25" y="452" width="3" height="19"/><polygon class="cls-9" points="1220.75 476.07 1213.68 469 1220.75 469 1227.82 469 1220.75 476.07"/><rect class="cls-5" x="344" y="482.09" width="110" height="94.5"/><text class="cls-2" transform="translate(370.78 518.36)"><tspan x="0" y="0">Diretrizes </tspan><tspan x="-10.41" y="14.26">Clínicas e de </tspan><tspan x="-.75" y="28.51">Utilização</tspan></text><rect class="cls-5" x="460.74" y="482.09" width="110" height="94.5"/><text class="cls-2" transform="translate(475.25 527)"><tspan x="0" y="0">Periodicidade </tspan><tspan x="-4.83" y="14.26">Regular 2 anos</tspan></text><rect class="cls-5" x="578" y="482.09" width="110" height="94.5"/><text class="cls-2" transform="translate(585.09 518.36)"><tspan x="0" y="0">Critério inclusão </tspan><tspan x="13.86" y="14.26">uso da</tspan><tspan class="cls-6" x="53.98" y="14.26"> </tspan><tspan class="cls-11" x="56.96" y="14.26">A</tspan><tspan x="64.88" y="14.26">TS </tspan><tspan x="28.59" y="28.51">(2013)</tspan></text><rect class="cls-5" x="695.74" y="482.09" width="110" height="94.5"/><text class="cls-2" transform="translate(717.7 527)"><tspan x="0" y="0">COSAÚDE </tspan><tspan x="13.73" y="14.26">(2014)</tspan></text><rect class="cls-5" x="814" y="482.09" width="110" height="94.5"/><text class="cls-2" transform="translate(837.07 518.36)"><tspan x="0" y="0">Formulário </tspan><tspan x="2.96" y="14.26">eletrônico </tspan><tspan x="12.62" y="28.51">(2015)</tspan></text><rect class="cls-5" x="930.74" y="482.09" width="110" height="94.5"/><text class="cls-2" transform="translate(951.2 510.39)"><tspan x="0" y="0">Análises de </tspan><tspan x="11.15" y="14.26">impacto </tspan><tspan x="-2.6" y="28.51">regulatório e </tspan><tspan x="-4.45" y="42.77">orçamentário</tspan></text><rect class="cls-5" x="1048" y="482.09" width="110" height="94.5"/><text class="cls-2" transform="translate(1057.68 518.36)"><tspan x="0" y="0">Regulamenta o </tspan><tspan x="21.92" y="14.26">fluxo do </tspan><tspan x="18.21" y="28.51">processo</tspan></text><rect class="cls-5" x="1165.74" y="482.09" width="110" height="94.5"/><text class="cls-2" transform="translate(1179.89 497.89)"><tspan x="0" y="0">Institui o fluxo </tspan><tspan x="5.93" y="14.26">contínuo de </tspan><tspan x="0" y="28.51">avaliação das </tspan><tspan x="2.22" y="42.77">propostas de </tspan><tspan x="-2.24" y="57.02">atualização do </tspan><tspan x="30.83" y="71.28">Rol</tspan></text><g><line class="cls-8" x1="336" y1="327" x2="336" y2="328"/><line class="cls-7" x1="336" y1="329.99" x2="336" y2="444.5"/><line class="cls-8" x1="336" y1="445.5" x2="336" y2="446.5"/></g><rect class="cls-4" x="268.5" y="297" width="135" height="50"/><text class="cls-3" transform="translate(282.67 318.51)"><tspan x="0" y="0">Lei nº 9.961/2000 </tspan><tspan x="3.45" y="14.26">Criação da</tspan><tspan class="cls-10" x="71.78" y="14.26"> </tspan><tspan x="75" y="14.26">ANS</tspan></text></svg>