<?xml version="1.0" encoding="UTF-8"?><svg id="Camada_1" xmlns="http://www.w3.org/2000/svg" viewBox="0 0 1500 1000"><defs><style>.cls-1{fill:#fff;}.cls-2{font-family:ArialMT, Arial;font-size:15px;}.cls-2,.cls-3{fill:#666;}.cls-4{fill:#1c548f;}.cls-3{font-family:Arial-BoldMT, Arial;font-size:35px;}.cls-5{fill:#0071bc;}.cls-6{letter-spacing:-.02em;}.cls-7{letter-spacing:-.06em;}</style></defs><text class="cls-3" transform="translate(558.64 -2.9)"><tspan x="0" y="0">2.2</tspan></text><g><g><rect class="cls-4" x="543.35" y="152.96" width="466.96" height="634.35" rx="19.03" ry="19.03" transform="translate(306.7 1246.96) rotate(-90)"/><rect class="cls-1" x="563.92" y="170.37" width="423.13" height="600.44" transform="translate(304.89 1246.07) rotate(-90)"/></g><g><rect class="cls-5" x="411.69" y="469.4" width="138.4" height="6.72" transform="translate(8.12 953.65) rotate(-90)"/><path class="cls-4" d="M441.48,413.24v38.52s-.11,4.17-4.64,2.3c-.02-.01-.04,0-.07,0-3.67-1.84-7.93-2.66-12.45-1.99-9.26,1.36-16.6,8.98-17.64,18.28-1.41,12.64,8.44,23.34,20.79,23.34,3.37,0,6.45-1.02,9.36-2.23,4.53-1.87,4.64,2.3,4.64,2.3v38.52c0,5.34,4.33,9.68,9.68,9.68h26.37v-138.4h-26.37c-5.34,0-9.68,4.33-9.68,9.68Zm-15.1,66.32c-2.9-.45-5.27-2.81-5.71-5.71-.71-4.65,3.24-8.59,7.89-7.88,2.9,.44,5.27,2.81,5.71,5.71,.72,4.65-3.24,8.61-7.89,7.89Z"/></g><text class="cls-2" transform="translate(544.33 297.73)"><tspan x="0" y="0">Formar um G</tspan><tspan class="cls-6" x="89.17" y="0">T</tspan><tspan x="98.06" y="0" xml:space="preserve"> ou indicar</tspan><tspan x="0" y="20">ponto focal dentro da secretaria </tspan><tspan x="0" y="40">estadual de saúde.</tspan><tspan x="0" y="80">Criar uma agenda interna de </tspan><tspan x="0" y="100">prioridades para avaliação.</tspan><tspan x="0" y="140">Articular os interesses da </tspan><tspan x="0" y="160">secretaria estadual de saúde </tspan><tspan x="0" y="180">com os de outras secretarias.</tspan><tspan x="0" y="220">Discutir e, se possível, alinhar a </tspan><tspan x="0" y="240">agenda de participação na </tspan><tspan x="0" y="260">consulta pública com o Conass.</tspan><tspan class="cls-7" x="0" y="300">V</tspan><tspan x="9.18" y="300">erificar periodicamente as </tspan><tspan x="0" y="320">consultas públicas da Conitec </tspan><tspan x="0" y="340">que estão vigentes.</tspan></text><path class="cls-5" d="M531.93,298.27c3.04,0,5.5-2.46,5.5-5.5s-2.46-5.5-5.5-5.5-5.5,2.46-5.5,5.5,2.46,5.5,5.5,5.5Zm2.43-6.51l-2.75,2.75c-.2,.2-.53,.2-.73,0l-1.38-1.38c-.2-.2-.2-.53,0-.73s.53-.2,.73,0l1.01,1.01,2.38-2.39c.2-.2,.53-.2,.73,0s.2,.53,0,.73h0Z"/><path class="cls-5" d="M531.93,377.27c3.04,0,5.5-2.46,5.5-5.5s-2.46-5.5-5.5-5.5-5.5,2.46-5.5,5.5,2.46,5.5,5.5,5.5Zm2.43-6.51l-2.75,2.75c-.2,.2-.53,.2-.73,0l-1.38-1.38c-.2-.2-.2-.53,0-.73s.53-.2,.73,0l1.01,1.01,2.38-2.39c.2-.2,.53-.2,.73,0s.2,.53,0,.73h0Z"/><path class="cls-5" d="M531.93,438.27c3.04,0,5.5-2.46,5.5-5.5s-2.46-5.5-5.5-5.5-5.5,2.46-5.5,5.5,2.46,5.5,5.5,5.5Zm2.43-6.51l-2.75,2.75c-.2,.2-.53,.2-.73,0l-1.38-1.38c-.2-.2-.2-.53,0-.73s.53-.2,.73,0l1.01,1.01,2.38-2.39c.2-.2,.53-.2,.73,0s.2,.53,0,.73h0Z"/><path class="cls-5" d="M531.93,518.27c3.04,0,5.5-2.46,5.5-5.5s-2.46-5.5-5.5-5.5-5.5,2.46-5.5,5.5,2.46,5.5,5.5,5.5Zm2.43-6.51l-2.75,2.75c-.2,.2-.53,.2-.73,0l-1.38-1.38c-.2-.2-.2-.53,0-.73s.53-.2,.73,0l1.01,1.01,2.38-2.39c.2-.2,.53-.2,.73,0s.2,.53,0,.73h0Z"/><path class="cls-5" d="M531.93,598.27c3.04,0,5.5-2.46,5.5-5.5s-2.46-5.5-5.5-5.5-5.5,2.46-5.5,5.5,2.46,5.5,5.5,5.5Zm2.43-6.51l-2.75,2.75c-.2,.2-.53,.2-.73,0l-1.38-1.38c-.2-.2-.2-.53,0-.73s.53-.2,.73,0l1.01,1.01,2.38-2.39c.2-.2,.53-.2,.73,0s.2,.53,0,.73h0Z"/><text class="cls-2" transform="translate(809.33 297.73)"><tspan x="0" y="0">Identificar entre as consultas </tspan><tspan x="0" y="20">públicas vigentes aquelas que </tspan><tspan x="0" y="40">são de interesse da secretaria de </tspan><tspan x="0" y="60">saúde.</tspan><tspan x="0" y="100">Participar da consulta pública por </tspan><tspan x="0" y="120">meio da plataforma Participa + </tspan><tspan x="0" y="140">Brasil.</tspan><tspan x="0" y="180">Atuar na implementação das </tspan><tspan x="0" y="200">decisões da consulta pública na </tspan><tspan x="0" y="220">sua secretaria estadual de saúde.</tspan><tspan x="0" y="260">Monitorar os resultados da </tspan><tspan x="0" y="280">aplicação dessas decisões nas </tspan><tspan x="0" y="300">políticas e ações de saúde em </tspan><tspan x="0" y="320">seu estado.</tspan></text><path class="cls-5" d="M796.93,298.27c3.04,0,5.5-2.46,5.5-5.5s-2.46-5.5-5.5-5.5-5.5,2.46-5.5,5.5,2.46,5.5,5.5,5.5Zm2.43-6.51l-2.75,2.75c-.2,.2-.53,.2-.73,0l-1.38-1.38c-.2-.2-.2-.53,0-.73s.53-.2,.73,0l1.01,1.01,2.38-2.39c.2-.2,.53-.2,.73,0s.2,.53,0,.73h0Z"/><path class="cls-5" d="M796.93,397.27c3.04,0,5.5-2.46,5.5-5.5s-2.46-5.5-5.5-5.5-5.5,2.46-5.5,5.5,2.46,5.5,5.5,5.5Zm2.43-6.51l-2.75,2.75c-.2,.2-.53,.2-.73,0l-1.38-1.38c-.2-.2-.2-.53,0-.73s.53-.2,.73,0l1.01,1.01,2.38-2.39c.2-.2,.53-.2,.73,0s.2,.53,0,.73h0Z"/><path class="cls-5" d="M796.93,478.27c3.04,0,5.5-2.46,5.5-5.5s-2.46-5.5-5.5-5.5-5.5,2.46-5.5,5.5,2.46,5.5,5.5,5.5Zm2.43-6.51l-2.75,2.75c-.2,.2-.53,.2-.73,0l-1.38-1.38c-.2-.2-.2-.53,0-.73s.53-.2,.73,0l1.01,1.01,2.38-2.39c.2-.2,.53-.2,.73,0s.2,.53,0,.73h0Z"/><path class="cls-5" d="M796.93,558.27c3.04,0,5.5-2.46,5.5-5.5s-2.46-5.5-5.5-5.5-5.5,2.46-5.5,5.5,2.46,5.5,5.5,5.5Zm2.43-6.51l-2.75,2.75c-.2,.2-.53,.2-.73,0l-1.38-1.38c-.2-.2-.2-.53,0-.73s.53-.2,.73,0l1.01,1.01,2.38-2.39c.2-.2,.53-.2,.73,0s.2,.53,0,.73h0Z"/></g></svg>