<?xml version="1.0" encoding="UTF-8"?><svg id="Camada_1" xmlns="http://www.w3.org/2000/svg" viewBox="0 0 1500 1000"><defs><style>.cls-1,.cls-2{fill:#1c548f;}.cls-3{fill:#b3b3b3;stroke:#1c548f;stroke-miterlimit:10;}.cls-2{font-family:Arial-BoldMT, Arial;font-size:16px;}.cls-4{fill:#dcdcdc;}.cls-5{fill:#ccc;}.cls-6{letter-spacing:-.06em;}</style></defs><rect class="cls-4" x="291.46" y="488.66" width="921" height="8" rx="4" ry="4"/><path class="cls-5" d="M353.37,492.48c-.16,0-.3-.13-.3-.3v-1.48c0-.16,.13-.3,.3-.3s.3,.13,.3,.3v1.48c0,.16-.13,.3-.3,.3Z"/><circle class="cls-1" cx="367.12" cy="492.17" r="8.18" transform="translate(-177.5 775.71) rotate(-80.78)"/><path class="cls-3" d="M368.1,447.32s-.09-.02-.12-.07l-3.69-6h-6.03c-1.5,0-2.73-1.11-2.73-2.48v-31.53c0-1.37,1.22-2.48,2.73-2.48h68.85c1.5,0,2.73,1.11,2.73,2.48v31.53c0,1.37-1.22,2.48-2.73,2.48h-55.21l-3.69,6s-.07,.07-.12,.07Zm-9.84-42.28c-1.35,0-2.45,.99-2.45,2.2v31.53c0,1.22,1.1,2.2,2.45,2.2h6.11s.09,.02,.12,.07l3.61,5.88,3.61-5.88s.07-.07,.12-.07h55.28c1.35,0,2.45-.99,2.45-2.2v-31.53c0-1.22-1.1-2.2-2.45-2.2h-68.85Z"/><path class="cls-5" d="M367.77,451.8c-.16,0-.3-.13-.3-.3v-1.48c0-.16,.13-.3,.3-.3s.3,.13,.3,.3v1.48c0,.16-.13,.3-.3,.3Z"/><path class="cls-5" d="M367.77,479.35c-.16,0-.3-.13-.3-.3v-2.75c0-.16,.13-.3,.3-.3s.3,.13,.3,.3v2.75c0,.16-.13,.3-.3,.3Zm0-5.51c-.16,0-.3-.13-.3-.3v-2.76c0-.16,.13-.3,.3-.3s.3,.13,.3,.3v2.76c0,.16-.13,.3-.3,.3Zm0-5.51c-.16,0-.3-.13-.3-.3v-2.75c0-.16,.13-.3,.3-.3s.3,.13,.3,.3v2.75c0,.16-.13,.3-.3,.3Zm0-5.51c-.16,0-.3-.13-.3-.3v-2.76c0-.16,.13-.3,.3-.3s.3,.13,.3,.3v2.76c0,.16-.13,.3-.3,.3Zm0-5.51c-.16,0-.3-.13-.3-.3v-2.75c0-.16,.13-.3,.3-.3s.3,.13,.3,.3v2.75c0,.16-.13,.3-.3,.3Z"/><text class="cls-2" transform="translate(375.15 428.53)"><tspan x="0" y="0">2006</tspan></text><circle class="cls-1" cx="470.12" cy="492.17" r="8.18" transform="translate(-91 877.38) rotate(-80.78)"/><path class="cls-3" d="M471.1,447.32s-.09-.02-.12-.07l-3.69-6h-6.03c-1.5,0-2.73-1.11-2.73-2.48v-31.53c0-1.37,1.22-2.48,2.73-2.48h68.85c1.5,0,2.73,1.11,2.73,2.48v31.53c0,1.37-1.22,2.48-2.73,2.48h-55.21l-3.69,6s-.07,.07-.12,.07Zm-9.84-42.28c-1.35,0-2.45,.99-2.45,2.2v31.53c0,1.22,1.1,2.2,2.45,2.2h6.11s.09,.02,.12,.07l3.61,5.88,3.61-5.88s.07-.07,.12-.07h55.28c1.35,0,2.45-.99,2.45-2.2v-31.53c0-1.22-1.1-2.2-2.45-2.2h-68.85Z"/><path class="cls-5" d="M470.77,451.8c-.16,0-.3-.13-.3-.3v-1.48c0-.16,.13-.3,.3-.3s.3,.13,.3,.3v1.48c0,.16-.13,.3-.3,.3Z"/><path class="cls-5" d="M470.77,479.35c-.16,0-.3-.13-.3-.3v-2.75c0-.16,.13-.3,.3-.3s.3,.13,.3,.3v2.75c0,.16-.13,.3-.3,.3Zm0-5.51c-.16,0-.3-.13-.3-.3v-2.76c0-.16,.13-.3,.3-.3s.3,.13,.3,.3v2.76c0,.16-.13,.3-.3,.3Zm0-5.51c-.16,0-.3-.13-.3-.3v-2.75c0-.16,.13-.3,.3-.3s.3,.13,.3,.3v2.75c0,.16-.13,.3-.3,.3Zm0-5.51c-.16,0-.3-.13-.3-.3v-2.76c0-.16,.13-.3,.3-.3s.3,.13,.3,.3v2.76c0,.16-.13,.3-.3,.3Zm0-5.51c-.16,0-.3-.13-.3-.3v-2.75c0-.16,.13-.3,.3-.3s.3,.13,.3,.3v2.75c0,.16-.13,.3-.3,.3Z"/><text class="cls-2" transform="translate(478.15 428.53)"><tspan x="0" y="0">2008</tspan></text><circle class="cls-1" cx="573.12" cy="492.17" r="8.18" transform="translate(-4.49 979.05) rotate(-80.78)"/><path class="cls-3" d="M574.1,447.32s-.09-.02-.12-.07l-3.69-6h-6.03c-1.5,0-2.73-1.11-2.73-2.48v-31.53c0-1.37,1.22-2.48,2.73-2.48h68.85c1.5,0,2.73,1.11,2.73,2.48v31.53c0,1.37-1.22,2.48-2.73,2.48h-55.21l-3.69,6s-.07,.07-.12,.07Zm-9.84-42.28c-1.35,0-2.45,.99-2.45,2.2v31.53c0,1.22,1.1,2.2,2.45,2.2h6.11s.09,.02,.12,.07l3.61,5.88,3.61-5.88s.07-.07,.12-.07h55.28c1.35,0,2.45-.99,2.45-2.2v-31.53c0-1.22-1.1-2.2-2.45-2.2h-68.85Z"/><path class="cls-5" d="M573.77,451.8c-.16,0-.3-.13-.3-.3v-1.48c0-.16,.13-.3,.3-.3s.3,.13,.3,.3v1.48c0,.16-.13,.3-.3,.3Z"/><path class="cls-5" d="M573.77,479.35c-.16,0-.3-.13-.3-.3v-2.75c0-.16,.13-.3,.3-.3s.3,.13,.3,.3v2.75c0,.16-.13,.3-.3,.3Zm0-5.51c-.16,0-.3-.13-.3-.3v-2.76c0-.16,.13-.3,.3-.3s.3,.13,.3,.3v2.76c0,.16-.13,.3-.3,.3Zm0-5.51c-.16,0-.3-.13-.3-.3v-2.75c0-.16,.13-.3,.3-.3s.3,.13,.3,.3v2.75c0,.16-.13,.3-.3,.3Zm0-5.51c-.16,0-.3-.13-.3-.3v-2.76c0-.16,.13-.3,.3-.3s.3,.13,.3,.3v2.76c0,.16-.13,.3-.3,.3Zm0-5.51c-.16,0-.3-.13-.3-.3v-2.75c0-.16,.13-.3,.3-.3s.3,.13,.3,.3v2.75c0,.16-.13,.3-.3,.3Z"/><text class="cls-2" transform="translate(581.15 428.53)"><tspan x="0" y="0">2009</tspan></text><circle class="cls-1" cx="676.12" cy="492.17" r="8.18" transform="translate(82.01 1080.72) rotate(-80.78)"/><path class="cls-3" d="M677.1,447.32s-.09-.02-.12-.07l-3.69-6h-6.03c-1.5,0-2.73-1.11-2.73-2.48v-31.53c0-1.37,1.22-2.48,2.73-2.48h68.85c1.5,0,2.73,1.11,2.73,2.48v31.53c0,1.37-1.22,2.48-2.73,2.48h-55.21l-3.69,6s-.07,.07-.12,.07Zm-9.84-42.28c-1.35,0-2.45,.99-2.45,2.2v31.53c0,1.22,1.1,2.2,2.45,2.2h6.11s.09,.02,.12,.07l3.61,5.88,3.61-5.88s.07-.07,.12-.07h55.28c1.35,0,2.45-.99,2.45-2.2v-31.53c0-1.22-1.1-2.2-2.45-2.2h-68.85Z"/><path class="cls-5" d="M676.77,451.8c-.16,0-.3-.13-.3-.3v-1.48c0-.16,.13-.3,.3-.3s.3,.13,.3,.3v1.48c0,.16-.13,.3-.3,.3Z"/><path class="cls-5" d="M676.77,479.35c-.16,0-.3-.13-.3-.3v-2.75c0-.16,.13-.3,.3-.3s.3,.13,.3,.3v2.75c0,.16-.13,.3-.3,.3Zm0-5.51c-.16,0-.3-.13-.3-.3v-2.76c0-.16,.13-.3,.3-.3s.3,.13,.3,.3v2.76c0,.16-.13,.3-.3,.3Zm0-5.51c-.16,0-.3-.13-.3-.3v-2.75c0-.16,.13-.3,.3-.3s.3,.13,.3,.3v2.75c0,.16-.13,.3-.3,.3Zm0-5.51c-.16,0-.3-.13-.3-.3v-2.76c0-.16,.13-.3,.3-.3s.3,.13,.3,.3v2.76c0,.16-.13,.3-.3,.3Zm0-5.51c-.16,0-.3-.13-.3-.3v-2.75c0-.16,.13-.3,.3-.3s.3,.13,.3,.3v2.75c0,.16-.13,.3-.3,.3Z"/><text class="cls-2" transform="translate(684.59 428.53)"><tspan x="0" y="0">20</tspan><tspan class="cls-6" x="17.8" y="0">1</tspan><tspan x="25.81" y="0">1</tspan></text><circle class="cls-1" cx="779.12" cy="492.17" r="8.18" transform="translate(168.51 1182.39) rotate(-80.78)"/><path class="cls-3" d="M780.1,447.32s-.09-.02-.12-.07l-3.69-6h-6.03c-1.5,0-2.73-1.11-2.73-2.48v-31.53c0-1.37,1.22-2.48,2.73-2.48h68.85c1.5,0,2.73,1.11,2.73,2.48v31.53c0,1.37-1.22,2.48-2.73,2.48h-55.21l-3.69,6s-.07,.07-.12,.07Zm-9.84-42.28c-1.35,0-2.45,.99-2.45,2.2v31.53c0,1.22,1.1,2.2,2.45,2.2h6.11s.09,.02,.12,.07l3.61,5.88,3.61-5.88s.07-.07,.12-.07h55.28c1.35,0,2.45-.99,2.45-2.2v-31.53c0-1.22-1.1-2.2-2.45-2.2h-68.85Z"/><path class="cls-5" d="M779.77,451.8c-.16,0-.3-.13-.3-.3v-1.48c0-.16,.13-.3,.3-.3s.3,.13,.3,.3v1.48c0,.16-.13,.3-.3,.3Z"/><path class="cls-5" d="M779.77,479.35c-.16,0-.3-.13-.3-.3v-2.75c0-.16,.13-.3,.3-.3s.3,.13,.3,.3v2.75c0,.16-.13,.3-.3,.3Zm0-5.51c-.16,0-.3-.13-.3-.3v-2.76c0-.16,.13-.3,.3-.3s.3,.13,.3,.3v2.76c0,.16-.13,.3-.3,.3Zm0-5.51c-.16,0-.3-.13-.3-.3v-2.75c0-.16,.13-.3,.3-.3s.3,.13,.3,.3v2.75c0,.16-.13,.3-.3,.3Zm0-5.51c-.16,0-.3-.13-.3-.3v-2.76c0-.16,.13-.3,.3-.3s.3,.13,.3,.3v2.76c0,.16-.13,.3-.3,.3Zm0-5.51c-.16,0-.3-.13-.3-.3v-2.75c0-.16,.13-.3,.3-.3s.3,.13,.3,.3v2.75c0,.16-.13,.3-.3,.3Z"/><text class="cls-2" transform="translate(787.15 428.53)"><tspan x="0" y="0">2013</tspan></text><circle class="cls-1" cx="882.12" cy="492.17" r="8.18" transform="translate(255.01 1284.06) rotate(-80.78)"/><path class="cls-3" d="M883.1,447.32s-.09-.02-.12-.07l-3.69-6h-6.03c-1.5,0-2.73-1.11-2.73-2.48v-31.53c0-1.37,1.22-2.48,2.73-2.48h68.85c1.5,0,2.73,1.11,2.73,2.48v31.53c0,1.37-1.22,2.48-2.73,2.48h-55.21l-3.69,6s-.07,.07-.12,.07Zm-9.84-42.28c-1.35,0-2.45,.99-2.45,2.2v31.53c0,1.22,1.1,2.2,2.45,2.2h6.11s.09,.02,.12,.07l3.61,5.88,3.61-5.88s.07-.07,.12-.07h55.28c1.35,0,2.45-.99,2.45-2.2v-31.53c0-1.22-1.1-2.2-2.45-2.2h-68.85Z"/><path class="cls-5" d="M882.77,451.8c-.16,0-.3-.13-.3-.3v-1.48c0-.16,.13-.3,.3-.3s.3,.13,.3,.3v1.48c0,.16-.13,.3-.3,.3Z"/><path class="cls-5" d="M882.77,479.35c-.16,0-.3-.13-.3-.3v-2.75c0-.16,.13-.3,.3-.3s.3,.13,.3,.3v2.75c0,.16-.13,.3-.3,.3Zm0-5.51c-.16,0-.3-.13-.3-.3v-2.76c0-.16,.13-.3,.3-.3s.3,.13,.3,.3v2.76c0,.16-.13,.3-.3,.3Zm0-5.51c-.16,0-.3-.13-.3-.3v-2.75c0-.16,.13-.3,.3-.3s.3,.13,.3,.3v2.75c0,.16-.13,.3-.3,.3Zm0-5.51c-.16,0-.3-.13-.3-.3v-2.76c0-.16,.13-.3,.3-.3s.3,.13,.3,.3v2.76c0,.16-.13,.3-.3,.3Zm0-5.51c-.16,0-.3-.13-.3-.3v-2.75c0-.16,.13-.3,.3-.3s.3,.13,.3,.3v2.75c0,.16-.13,.3-.3,.3Z"/><text class="cls-2" transform="translate(890.15 428.53)"><tspan x="0" y="0">2015</tspan></text><circle class="cls-1" cx="985.12" cy="492.17" r="8.18" transform="translate(341.51 1385.73) rotate(-80.78)"/><path class="cls-3" d="M986.1,447.32s-.09-.02-.12-.07l-3.69-6h-6.03c-1.5,0-2.73-1.11-2.73-2.48v-31.53c0-1.37,1.22-2.48,2.73-2.48h68.85c1.5,0,2.73,1.11,2.73,2.48v31.53c0,1.37-1.22,2.48-2.73,2.48h-55.21l-3.69,6s-.07,.07-.12,.07Zm-9.84-42.28c-1.35,0-2.45,.99-2.45,2.2v31.53c0,1.22,1.1,2.2,2.45,2.2h6.11s.09,.02,.12,.07l3.61,5.88,3.61-5.88s.07-.07,.12-.07h55.28c1.35,0,2.45-.99,2.45-2.2v-31.53c0-1.22-1.1-2.2-2.45-2.2h-68.85Z"/><path class="cls-5" d="M985.77,451.8c-.16,0-.3-.13-.3-.3v-1.48c0-.16,.13-.3,.3-.3s.3,.13,.3,.3v1.48c0,.16-.13,.3-.3,.3Z"/><path class="cls-5" d="M985.77,479.35c-.16,0-.3-.13-.3-.3v-2.75c0-.16,.13-.3,.3-.3s.3,.13,.3,.3v2.75c0,.16-.13,.3-.3,.3Zm0-5.51c-.16,0-.3-.13-.3-.3v-2.76c0-.16,.13-.3,.3-.3s.3,.13,.3,.3v2.76c0,.16-.13,.3-.3,.3Zm0-5.51c-.16,0-.3-.13-.3-.3v-2.75c0-.16,.13-.3,.3-.3s.3,.13,.3,.3v2.75c0,.16-.13,.3-.3,.3Zm0-5.51c-.16,0-.3-.13-.3-.3v-2.76c0-.16,.13-.3,.3-.3s.3,.13,.3,.3v2.76c0,.16-.13,.3-.3,.3Zm0-5.51c-.16,0-.3-.13-.3-.3v-2.75c0-.16,.13-.3,.3-.3s.3,.13,.3,.3v2.75c0,.16-.13,.3-.3,.3Z"/><text class="cls-2" transform="translate(993.15 428.53)"><tspan x="0" y="0">2019</tspan></text><circle class="cls-1" cx="1088.12" cy="492.17" r="8.18" transform="translate(428.01 1487.4) rotate(-80.78)"/><path class="cls-3" d="M1089.1,447.32s-.09-.02-.12-.07l-3.69-6h-6.03c-1.5,0-2.73-1.11-2.73-2.48v-31.53c0-1.37,1.22-2.48,2.73-2.48h68.85c1.5,0,2.73,1.11,2.73,2.48v31.53c0,1.37-1.22,2.48-2.73,2.48h-55.21l-3.69,6s-.07,.07-.12,.07Zm-9.84-42.28c-1.35,0-2.45,.99-2.45,2.2v31.53c0,1.22,1.1,2.2,2.45,2.2h6.11s.09,.02,.12,.07l3.61,5.88,3.61-5.88s.07-.07,.12-.07h55.28c1.35,0,2.45-.99,2.45-2.2v-31.53c0-1.22-1.1-2.2-2.45-2.2h-68.85Z"/><path class="cls-5" d="M1088.77,451.8c-.16,0-.3-.13-.3-.3v-1.48c0-.16,.13-.3,.3-.3s.3,.13,.3,.3v1.48c0,.16-.13,.3-.3,.3Z"/><path class="cls-5" d="M1088.77,479.35c-.16,0-.3-.13-.3-.3v-2.75c0-.16,.13-.3,.3-.3s.3,.13,.3,.3v2.75c0,.16-.13,.3-.3,.3Zm0-5.51c-.16,0-.3-.13-.3-.3v-2.76c0-.16,.13-.3,.3-.3s.3,.13,.3,.3v2.76c0,.16-.13,.3-.3,.3Zm0-5.51c-.16,0-.3-.13-.3-.3v-2.75c0-.16,.13-.3,.3-.3s.3,.13,.3,.3v2.75c0,.16-.13,.3-.3,.3Zm0-5.51c-.16,0-.3-.13-.3-.3v-2.76c0-.16,.13-.3,.3-.3s.3,.13,.3,.3v2.76c0,.16-.13,.3-.3,.3Zm0-5.51c-.16,0-.3-.13-.3-.3v-2.75c0-.16,.13-.3,.3-.3s.3,.13,.3,.3v2.75c0,.16-.13,.3-.3,.3Z"/><text class="cls-2" transform="translate(1096.15 428.53)"><tspan x="0" y="0">2021</tspan></text><circle class="cls-4" cx="367.05" cy="492.16" r="4.5"/><circle class="cls-4" cx="470.05" cy="492.16" r="4.5"/><circle class="cls-4" cx="573.05" cy="492.16" r="4.5"/><circle class="cls-4" cx="676.05" cy="492.16" r="4.5"/><circle class="cls-4" cx="779.05" cy="492.16" r="4.5"/><circle class="cls-4" cx="882.05" cy="492.16" r="4.5"/><circle class="cls-4" cx="985.05" cy="492.16" r="4.5"/><circle class="cls-4" cx="1088.05" cy="492.16" r="4.5"/></svg>