<?xml version="1.0" encoding="UTF-8"?><svg id="Camada_1" xmlns="http://www.w3.org/2000/svg" viewBox="0 0 1500 1000"><defs><style>.cls-1,.cls-2{fill:#1c548f;}.cls-3{fill:#fff;font-size:15px;}.cls-3,.cls-2{font-family:Arial-BoldMT, Arial;}.cls-4{fill:#0071bc;}.cls-5{fill:none;opacity:.1;stroke:#1c548f;stroke-miterlimit:10;stroke-width:20px;}.cls-2{font-size:20px;}</style></defs><text class="cls-2" transform="translate(584.28 483.68)"><tspan x="0" y="0">Conitec</tspan></text><path class="cls-4" d="M687.8,365.34c-.3,0-.59-.11-.82-.34-.45-.45-.45-1.19,0-1.64l56.7-56.7c.22-.22,.51-.34,.82-.34h47.32c.64,0,1.16,.52,1.16,1.16s-.52,1.16-1.16,1.16h-46.84l-56.36,56.36c-.23,.23-.52,.34-.82,.34Z"/><path class="cls-4" d="M736.65,414.18c-.3,0-.59-.11-.82-.34-.45-.45-.45-1.19,0-1.64l18.91-18.91c.22-.22,.51-.34,.82-.34h88.85c.64,0,1.16,.52,1.16,1.16s-.52,1.16-1.16,1.16h-88.37l-18.57,18.57c-.23,.23-.52,.34-.82,.34Z"/><path class="cls-4" d="M791.82,653.17h-47.32c-.31,0-.6-.12-.82-.34l-56.7-56.7c-.45-.45-.45-1.19,0-1.64,.45-.45,1.19-.45,1.64,0l56.36,56.36h46.84c.64,0,1.16,.52,1.16,1.16s-.52,1.16-1.16,1.16Z"/><path class="cls-4" d="M844.41,566.54h-88.85c-.31,0-.6-.12-.82-.34l-18.91-18.91c-.45-.45-.45-1.19,0-1.64,.45-.45,1.19-.45,1.64,0l18.57,18.57h88.37c.64,0,1.16,.52,1.16,1.16s-.52,1.16-1.16,1.16Z"/><path class="cls-4" d="M889.78,480.91h-135.25c-.64,0-1.16-.52-1.16-1.16s.52-1.16,1.16-1.16h135.25c.64,0,1.16,.52,1.16,1.16s-.52,1.16-1.16,1.16Z"/><path class="cls-4" d="M621.29,614.94c-74.06,0-134.32-60.25-134.32-134.32s60.26-134.32,134.32-134.32,134.32,60.26,134.32,134.32-60.26,134.32-134.32,134.32Zm0-266.9c-73.1,0-132.58,59.47-132.58,132.58s59.47,132.58,132.58,132.58,132.58-59.47,132.58-132.58-59.47-132.58-132.58-132.58Z"/><path class="cls-4" d="M693.69,591.92c1.88,3.25,.76,7.41-2.49,9.28-3.25,1.88-7.41,.76-9.28-2.49-1.88-3.25-.76-7.41,2.49-9.28,3.25-1.88,7.41-.76,9.28,2.49Z"/><path class="cls-4" d="M740.05,540.58c3.25,1.88,4.36,6.03,2.49,9.28-1.88,3.25-6.03,4.36-9.28,2.49-3.25-1.88-4.36-6.03-2.49-9.28,1.88-3.25,6.03-4.36,9.28-2.49Z"/><path class="cls-4" d="M754.53,472.95c3.75,0,6.8,3.04,6.8,6.8s-3.04,6.8-6.8,6.8-6.8-3.04-6.8-6.8,3.04-6.8,6.8-6.8Z"/><path class="cls-4" d="M733.25,407.14c3.25-1.88,7.41-.76,9.28,2.49,1.88,3.25,.76,7.41-2.49,9.28-3.25,1.88-7.41,.76-9.28-2.49-1.88-3.25-.76-7.41,2.49-9.28Z"/><path class="cls-4" d="M681.92,360.78c1.88-3.25,6.03-4.36,9.28-2.49,3.25,1.88,4.36,6.03,2.49,9.28-1.88,3.25-6.03,4.36-9.28,2.49-3.25-1.88-4.36-6.03-2.49-9.28Z"/><path class="cls-1" d="M958.95,340.06c18.54,0,33.63-15.09,33.63-33.63s-15.09-33.63-33.63-33.63h-123.18c-18.54,0-33.63,15.09-33.63,33.63s15.09,33.63,33.63,33.63h123.18Z"/><text class="cls-3" transform="translate(869.85 312.18)"><tspan x="0" y="0">O que é</tspan></text><path class="cls-1" d="M958.95,619.43c18.54,0,33.63,15.09,33.63,33.63s-15.09,33.63-33.63,33.63h-123.18c-18.54,0-33.63-15.09-33.63-33.63s15.09-33.63,33.63-33.63h123.18Z"/><text class="cls-3" transform="translate(816.93 659.18)"><tspan x="0" y="0">Atribuições/Finalidade</tspan></text><path class="cls-1" d="M1010.71,426.72c18.54,0,33.63-15.09,33.63-33.63s-15.09-33.63-33.63-33.63h-123.18c-18.54,0-33.63,15.09-33.63,33.63s15.09,33.63,33.63,33.63h123.18Z"/><text class="cls-3" transform="translate(899.11 399.18)"><tspan x="0" y="0">Objetivo geral</tspan></text><path class="cls-1" d="M1010.71,600.04c18.54,0,33.63-15.09,33.63-33.63s-15.09-33.63-33.63-33.63h-123.18c-18.54,0-33.63,15.09-33.63,33.63s15.09,33.63,33.63,33.63h123.18Z"/><text class="cls-3" transform="translate(869.94 572.18)"><tspan x="0" y="0">Estrutura/composição</tspan></text><path class="cls-1" d="M1056.43,513.38c18.54,0,33.63-15.09,33.63-33.63s-15.09-33.63-33.63-33.63h-123.18c-18.54,0-33.63,15.09-33.63,33.63s15.09,33.63,33.63,33.63h123.18Z"/><text class="cls-3" transform="translate(953.58 485.18)"><tspan x="0" y="0">Marco legal</tspan></text><circle class="cls-5" cx="621.29" cy="480.62" r="104"/></svg>