<?xml version="1.0" encoding="UTF-8"?><svg id="Camada_1" xmlns="http://www.w3.org/2000/svg" viewBox="0 0 1500 1000"><defs><style>.cls-1{letter-spacing:-.07em;}.cls-2,.cls-3{fill:#1c548f;}.cls-2,.cls-4{font-family:Arial-BoldMT, Arial;font-size:15px;}.cls-5{stroke:#fff;stroke-width:5px;}.cls-5,.cls-6{fill:none;stroke-miterlimit:10;}.cls-4{fill:#fff;}.cls-6{stroke:#1c548f;stroke-width:2px;}.cls-7{letter-spacing:-.04em;}</style></defs><path class="cls-3" d="M523.1,599.6c-43.16,0-78.28-35.12-78.28-78.28s35.12-78.28,78.28-78.28,78.28,35.12,78.28,78.28-35.12,78.28-78.28,78.28Z"/><path class="cls-3" d="M748.85,599.6c-43.16,0-78.28-35.12-78.28-78.28s35.12-78.28,78.28-78.28,78.28,35.12,78.28,78.28-35.12,78.28-78.28,78.28Z"/><path class="cls-3" d="M974.92,599.42c-43.16,0-78.28-35.12-78.28-78.28s35.12-78.28,78.28-78.28,78.28,35.12,78.28,78.28-35.12,78.28-78.28,78.28Z"/><g><rect class="cls-3" x="747.68" y="372.47" width="1.44" height="50.4"/><polygon class="cls-3" points="741.19 420.76 748.4 433.24 755.61 420.76 741.19 420.76"/></g><g><polygon class="cls-3" points="523.51 424.29 522.26 424.29 522.26 402.95 673.3 402.95 673.3 372.47 674.54 372.47 674.54 404.2 523.51 404.2 523.51 424.29"/><polygon class="cls-3" points="529.1 422.47 522.89 433.24 516.67 422.47 529.1 422.47"/></g><g><polygon class="cls-3" points="973.29 424.29 974.53 424.29 974.53 402.95 823.5 402.95 823.5 372.47 822.25 372.47 822.25 404.2 973.29 404.2 973.29 424.29"/><polygon class="cls-3" points="967.69 422.47 973.91 433.24 980.13 422.47 967.69 422.47"/></g><rect class="cls-6" x="570" y="326.24" width="357" height="39.95" rx="18.98" ry="18.98"/><text class="cls-4" transform="translate(488.02 525.52)"><tspan x="0" y="0">CONITEC</tspan></text><text class="cls-4" transform="translate(712.08 526.76)"><tspan x="0" y="0">REBR</tspan><tspan class="cls-1" x="42.5" y="0">A</tspan><tspan x="52.22" y="0">TS</tspan></text><text class="cls-2" transform="translate(599.29 351.58)"><tspan x="0" y="0">Principais organizações em</tspan><tspan class="cls-7" x="197.58" y="0"> </tspan><tspan class="cls-1" x="201.19" y="0">A</tspan><tspan x="210.91" y="0">TS no Brasil </tspan></text><text class="cls-4" transform="translate(953.91 526.76)"><tspan x="0" y="0">N</tspan><tspan class="cls-1" x="10.83" y="0">A</tspan><tspan x="20.55" y="0">TS</tspan></text><circle class="cls-5" cx="523.1" cy="521.32" r="68"/><circle class="cls-5" cx="974.5" cy="521.5" r="68"/><circle class="cls-5" cx="748.85" cy="521.32" r="68"/></svg>