<?xml version="1.0" encoding="UTF-8"?><svg id="Camada_1" xmlns="http://www.w3.org/2000/svg" xmlns:xlink="http://www.w3.org/1999/xlink" viewBox="0 0 1500 1000"><defs><style>.cls-1{stroke-width:6px;}.cls-1,.cls-2{fill:#0071bc;}.cls-1,.cls-3{stroke:#0071bc;stroke-miterlimit:10;}.cls-4{font-family:Arial-BoldMT, Arial;}.cls-4,.cls-5{font-size:15px;}.cls-4,.cls-5,.cls-6{fill:#1c548f;}.cls-5{font-family:ArialMT, Arial;}.cls-7{letter-spacing:-.04em;}.cls-3{fill:none;stroke-width:3px;}</style></defs><text class="cls-4" transform="translate(484.49 398.98)"><tspan x="0" y="0">Evidências Científicas</tspan></text><text class="cls-4" transform="translate(898.98 398.98)"><tspan x="0" y="0">Estudos de avaliação econômica</tspan></text><text class="cls-5" transform="translate(454.46 415.98)"><tspan x="0" y="0">eficácia / segurança / efetividade</tspan></text><text class="cls-5" transform="translate(881.46 415.74)"><tspan x="0" y="0">custo-efetividade / impacto orçamentário</tspan></text><text class="cls-4" transform="translate(528.95 504.98)"><tspan class="cls-7" x="0" y="0">A</tspan><tspan x="10.28" y="0">valiação</tspan></text><text class="cls-4" transform="translate(928.6 504.98)"><tspan x="0" y="0">Disponibilização no SUS </tspan></text><text class="cls-5" transform="translate(499.69 521.98)"><tspan x="0" y="0">180 dias (+90 dias)</tspan></text><text class="cls-5" transform="translate(988.17 521.74)"><tspan x="0" y="0">180 dias</tspan></text><rect class="cls-2" x="385.31" y="544" width="400" height="6"/><rect class="cls-2" x="350.81" y="578.5" width="75" height="6" transform="translate(-193.19 969.81) rotate(-90)"/><g><rect class="cls-6" x="807.98" y="544" width="400" height="6"/><rect class="cls-6" x="1167.48" y="578.5" width="75" height="6" transform="translate(623.48 1786.48) rotate(-90)"/></g><rect class="cls-2" x="759.31" y="578.5" width="75" height="6" transform="translate(215.31 1378.31) rotate(-90)"/><text class="cls-5" transform="translate(384.81 634.74)"><tspan x="0" y="0">Solicitação de </tspan><tspan x="0" y="16">incorporação</tspan></text><text class="cls-5" transform="translate(1054.09 634.74)"><tspan x="0" y="0">Disponibilização – SUS</tspan></text><text class="cls-5" transform="translate(714.37 634.74)"><tspan x="0" y="0">Portaria de incorporação</tspan></text><circle class="cls-1" cx="796.64" cy="548.5" r="35.5"/><polygon class="cls-6" points="584.29 479.05 578.08 489.82 571.86 479.05 584.29 479.05"/><g><polygon class="cls-6" points="561.29 479.05 555.08 489.82 548.86 479.05 561.29 479.05"/><rect class="cls-6" x="553.57" y="424" width="3" height="61"/></g><rect class="cls-6" x="576.57" y="453" width="3.24" height="32"/><rect class="cls-6" x="1014.91" y="421" width="3.24" height="35"/><rect class="cls-6" x="795.82" y="234" width="3" height="441" transform="translate(1251.82 -342.82) rotate(90)"/><text class="cls-4" transform="translate(656.11 351.36)"><tspan x="0" y="0">Regras para incorporação baseadas em</tspan></text><rect class="cls-3" x="634.35" y="327.5" width="327.82" height="40"/><image width="185" height="234" transform="translate(781 527) scale(.18)" xlink:href="../../../../Users/eduardo.caletti/Downloads/B09.png"/></svg>