<?xml version="1.0" encoding="UTF-8"?><svg id="Camada_1" xmlns="http://www.w3.org/2000/svg" viewBox="0 0 1500 1000"><defs><style>.cls-1,.cls-2,.cls-3,.cls-4{fill:#fff;}.cls-5{fill:#666;}.cls-5,.cls-4{font-family:ArialMT, Arial;font-size:15px;}.cls-6{letter-spacing:-.07em;}.cls-7{letter-spacing:-.06em;}.cls-8,.cls-9{fill:#1c548f;}.cls-10{letter-spacing:-.02em;}.cls-9,.cls-2{font-family:Arial-BoldMT, Arial;font-size:18px;}.cls-11{letter-spacing:-.02em;}.cls-12{letter-spacing:-.11em;}.cls-3{stroke:#1c548f;stroke-miterlimit:10;stroke-width:2px;}</style></defs><rect class="cls-8" x="613.89" y="107" width="5" height="815"/><rect class="cls-8" x="727.5" y="112.07" width="5" height="230" transform="translate(957.07 -502.93) rotate(90)"/><rect class="cls-8" x="727.5" y="249.99" width="5" height="230" transform="translate(1094.99 -365.01) rotate(90)"/><rect class="cls-8" x="727.5" y="388.99" width="5" height="230" transform="translate(1233.99 -226.01) rotate(90)"/><rect class="cls-8" x="727.5" y="527.49" width="5" height="230" transform="translate(1372.49 -87.51) rotate(90)"/><rect class="cls-8" x="727.5" y="666.68" width="5" height="230" transform="translate(1511.68 51.68) rotate(90)"/><rect class="cls-8" x="727.5" y="804.49" width="5" height="230" transform="translate(1649.49 189.49) rotate(90)"/><g><rect class="cls-8" x="464.89" y="28.1" width="300" height="114" rx="21.87" ry="21.87"/><g><text class="cls-2" transform="translate(558.39 56.19)"><tspan x="0" y="0">DGITS/SCTIE</tspan></text><text class="cls-4" transform="translate(524.42 88.04)"><tspan x="0" y="0">Departamento de Gestão e </tspan><tspan x="-17.79" y="18">Incorporação de</tspan><tspan class="cls-11" x="90.62" y="18"> </tspan><tspan class="cls-12" x="94.51" y="18">T</tspan><tspan x="102.01" y="18">ecnologias em </tspan><tspan x="68.79" y="36">Saúde</tspan></text><polygon class="cls-1" points="622.81 61.9 614.89 69.82 606.97 61.9 614.89 61.9 622.81 61.9"/></g></g><rect class="cls-3" x="688.79" y="170.4" width="300" height="113.35" rx="21.8" ry="21.8"/><text class="cls-9" transform="translate(776.78 207.32)"><tspan x="0" y="0">SEGAD/DGITS</tspan></text><text class="cls-5" transform="translate(742.63 239.18)"><tspan x="0" y="0">Serviço de Gestão</tspan><tspan class="cls-11" x="123.4" y="0"> </tspan><tspan x="127.29" y="0">Técnica e </tspan><tspan x="49.06" y="18">Administrativa</tspan></text><polygon class="cls-8" points="846.71 213.03 838.79 220.95 830.87 213.03 838.79 213.03 846.71 213.03"/><rect class="cls-3" x="688.79" y="308.32" width="300" height="113.35" rx="21.8" ry="21.8"/><text class="cls-9" transform="translate(807.96 345.48)"><tspan x="0" y="0">CG</tspan><tspan class="cls-6" x="27" y="0">A</tspan><tspan x="38.66" y="0">TS </tspan></text><text class="cls-5" transform="translate(718.01 377.34)"><tspan x="0" y="0">Coordenação-Geral de</tspan><tspan class="cls-7" x="152.59" y="0"> </tspan><tspan class="cls-10" x="155.93" y="0">A</tspan><tspan x="165.66" y="0">valiação de </tspan><tspan class="cls-12" x="44.89" y="18">T</tspan><tspan x="52.39" y="18">ecnologias em Saúde</tspan></text><polygon class="cls-8" points="846.71 351.19 838.79 359.11 830.87 351.19 838.79 351.19 846.71 351.19"/><rect class="cls-3" x="688.79" y="447.32" width="300" height="113.35" rx="21.8" ry="21.8"/><text class="cls-9" transform="translate(813.29 484.48)"><tspan x="0" y="0">CMTS </tspan></text><text class="cls-5" transform="translate(720.8 516.34)"><tspan x="0" y="0">Coordenação de Monitoramento de </tspan><tspan class="cls-12" x="42.11" y="18">T</tspan><tspan x="49.61" y="18">ecnologias em Saúde</tspan></text><polygon class="cls-8" points="846.71 490.19 838.79 498.11 830.87 490.19 838.79 490.19 846.71 490.19"/><rect class="cls-3" x="688.79" y="585.82" width="300" height="113.35" rx="21.8" ry="21.8"/><text class="cls-9" transform="translate(811.79 622.48)"><tspan x="0" y="0">CITEC</tspan></text><text class="cls-5" transform="translate(727.04 654.34)"><tspan x="0" y="0">Coordenação de Incorporação de </tspan><tspan class="cls-12" x="72.14" y="18">T</tspan><tspan x="79.64" y="18">ecnologias</tspan></text><polygon class="cls-8" points="846.71 628.19 838.79 636.11 830.87 628.19 838.79 628.19 846.71 628.19"/><rect class="cls-3" x="688.79" y="725" width="300" height="113.35" rx="21.8" ry="21.8"/><text class="cls-9" transform="translate(800.79 753.12)"><tspan x="0" y="0">CGPCDT</tspan></text><text class="cls-5" transform="translate(725.8 784.97)"><tspan x="0" y="0">Coordenação-Geral de Gestão de </tspan><tspan x="9.62" y="18">protocolos Clínicos e Diretrizes </tspan><tspan class="cls-12" x="70.46" y="36">T</tspan><tspan x="77.96" y="36">erapêuticas</tspan></text><polygon class="cls-8" points="846.71 758.82 838.79 766.74 830.87 758.82 838.79 758.82 846.71 758.82"/><rect class="cls-3" x="688.79" y="862.82" width="300" height="113.35" rx="21.8" ry="21.8"/><text class="cls-9" transform="translate(806.79 901.48)"><tspan x="0" y="0">CGGTS </tspan></text><text class="cls-5" transform="translate(736.23 933.34)"><tspan x="0" y="0">Coordenação-Geral de Gestão </tspan><tspan x="-23.21" y="18">Estratégica de</tspan><tspan class="cls-11" x="72.67" y="18"> </tspan><tspan class="cls-12" x="76.57" y="18">T</tspan><tspan x="84.07" y="18">ecnologias em Saúde</tspan></text><polygon class="cls-8" points="846.71 907.19 838.79 915.11 830.87 907.19 838.79 907.19 846.71 907.19"/></svg>