<?xml version="1.0" encoding="UTF-8"?><svg id="Camada_1" xmlns="http://www.w3.org/2000/svg" viewBox="0 0 1500 1000"><defs><style>.cls-1,.cls-2{fill:#1c548f;}.cls-3{fill:#b3b3b3;stroke:#1c548f;stroke-miterlimit:10;}.cls-2{font-family:Arial-BoldMT, Arial;font-size:16px;}.cls-4{fill:#dcdcdc;}.cls-5{fill:#ccc;}.cls-6{letter-spacing:-.06em;}</style></defs><rect class="cls-4" x="317.46" y="500" width="921" height="8" rx="4" ry="4"/><g><path class="cls-5" d="M379.37,503.82c-.16,0-.3-.13-.3-.3v-1.48c0-.16,.13-.3,.3-.3s.3,.13,.3,.3v1.48c0,.16-.13,.3-.3,.3Z"/><circle class="cls-1" cx="393.12" cy="503.51" r="8.18" transform="translate(-166.86 810.9) rotate(-80.78)"/><path class="cls-3" d="M394.1,458.66s-.09-.02-.12-.07l-3.69-6h-6.03c-1.5,0-2.73-1.11-2.73-2.48v-31.53c0-1.37,1.22-2.48,2.73-2.48h68.85c1.5,0,2.73,1.11,2.73,2.48v31.53c0,1.37-1.22,2.48-2.73,2.48h-55.21l-3.69,6s-.07,.07-.12,.07Zm-9.84-42.28c-1.35,0-2.45,.99-2.45,2.2v31.53c0,1.22,1.1,2.2,2.45,2.2h6.11s.09,.02,.12,.07l3.61,5.88,3.61-5.88s.07-.07,.12-.07h55.28c1.35,0,2.45-.99,2.45-2.2v-31.53c0-1.22-1.1-2.2-2.45-2.2h-68.85Z"/><path class="cls-5" d="M393.77,463.14c-.16,0-.3-.13-.3-.3v-1.48c0-.16,.13-.3,.3-.3s.3,.13,.3,.3v1.48c0,.16-.13,.3-.3,.3Z"/><path class="cls-5" d="M393.77,490.69c-.16,0-.3-.13-.3-.3v-2.75c0-.16,.13-.3,.3-.3s.3,.13,.3,.3v2.75c0,.16-.13,.3-.3,.3Zm0-5.51c-.16,0-.3-.13-.3-.3v-2.76c0-.16,.13-.3,.3-.3s.3,.13,.3,.3v2.76c0,.16-.13,.3-.3,.3Zm0-5.51c-.16,0-.3-.13-.3-.3v-2.75c0-.16,.13-.3,.3-.3s.3,.13,.3,.3v2.75c0,.16-.13,.3-.3,.3Zm0-5.51c-.16,0-.3-.13-.3-.3v-2.76c0-.16,.13-.3,.3-.3s.3,.13,.3,.3v2.76c0,.16-.13,.3-.3,.3Zm0-5.51c-.16,0-.3-.13-.3-.3v-2.75c0-.16,.13-.3,.3-.3s.3,.13,.3,.3v2.75c0,.16-.13,.3-.3,.3Z"/><text class="cls-2" transform="translate(401.15 439.87)"><tspan x="0" y="0">2005</tspan></text><circle class="cls-1" cx="496.12" cy="503.51" r="8.18" transform="translate(-80.36 912.57) rotate(-80.78)"/><path class="cls-3" d="M497.1,458.66s-.09-.02-.12-.07l-3.69-6h-6.03c-1.5,0-2.73-1.11-2.73-2.48v-31.53c0-1.37,1.22-2.48,2.73-2.48h68.85c1.5,0,2.73,1.11,2.73,2.48v31.53c0,1.37-1.22,2.48-2.73,2.48h-55.21l-3.69,6s-.07,.07-.12,.07Zm-9.84-42.28c-1.35,0-2.45,.99-2.45,2.2v31.53c0,1.22,1.1,2.2,2.45,2.2h6.11s.09,.02,.12,.07l3.61,5.88,3.61-5.88s.07-.07,.12-.07h55.28c1.35,0,2.45-.99,2.45-2.2v-31.53c0-1.22-1.1-2.2-2.45-2.2h-68.85Z"/><path class="cls-5" d="M496.77,463.14c-.16,0-.3-.13-.3-.3v-1.48c0-.16,.13-.3,.3-.3s.3,.13,.3,.3v1.48c0,.16-.13,.3-.3,.3Z"/><path class="cls-5" d="M496.77,490.69c-.16,0-.3-.13-.3-.3v-2.75c0-.16,.13-.3,.3-.3s.3,.13,.3,.3v2.75c0,.16-.13,.3-.3,.3Zm0-5.51c-.16,0-.3-.13-.3-.3v-2.76c0-.16,.13-.3,.3-.3s.3,.13,.3,.3v2.76c0,.16-.13,.3-.3,.3Zm0-5.51c-.16,0-.3-.13-.3-.3v-2.75c0-.16,.13-.3,.3-.3s.3,.13,.3,.3v2.75c0,.16-.13,.3-.3,.3Zm0-5.51c-.16,0-.3-.13-.3-.3v-2.76c0-.16,.13-.3,.3-.3s.3,.13,.3,.3v2.76c0,.16-.13,.3-.3,.3Zm0-5.51c-.16,0-.3-.13-.3-.3v-2.75c0-.16,.13-.3,.3-.3s.3,.13,.3,.3v2.75c0,.16-.13,.3-.3,.3Z"/><text class="cls-2" transform="translate(504.15 439.87)"><tspan x="0" y="0">2006</tspan></text><circle class="cls-1" cx="599.12" cy="503.51" r="8.18" transform="translate(6.14 1014.24) rotate(-80.78)"/><path class="cls-3" d="M600.1,458.66s-.09-.02-.12-.07l-3.69-6h-6.03c-1.5,0-2.73-1.11-2.73-2.48v-31.53c0-1.37,1.22-2.48,2.73-2.48h68.85c1.5,0,2.73,1.11,2.73,2.48v31.53c0,1.37-1.22,2.48-2.73,2.48h-55.21l-3.69,6s-.07,.07-.12,.07Zm-9.84-42.28c-1.35,0-2.45,.99-2.45,2.2v31.53c0,1.22,1.1,2.2,2.45,2.2h6.11s.09,.02,.12,.07l3.61,5.88,3.61-5.88s.07-.07,.12-.07h55.28c1.35,0,2.45-.99,2.45-2.2v-31.53c0-1.22-1.1-2.2-2.45-2.2h-68.85Z"/><path class="cls-5" d="M599.77,463.14c-.16,0-.3-.13-.3-.3v-1.48c0-.16,.13-.3,.3-.3s.3,.13,.3,.3v1.48c0,.16-.13,.3-.3,.3Z"/><path class="cls-5" d="M599.77,490.69c-.16,0-.3-.13-.3-.3v-2.75c0-.16,.13-.3,.3-.3s.3,.13,.3,.3v2.75c0,.16-.13,.3-.3,.3Zm0-5.51c-.16,0-.3-.13-.3-.3v-2.76c0-.16,.13-.3,.3-.3s.3,.13,.3,.3v2.76c0,.16-.13,.3-.3,.3Zm0-5.51c-.16,0-.3-.13-.3-.3v-2.75c0-.16,.13-.3,.3-.3s.3,.13,.3,.3v2.75c0,.16-.13,.3-.3,.3Zm0-5.51c-.16,0-.3-.13-.3-.3v-2.76c0-.16,.13-.3,.3-.3s.3,.13,.3,.3v2.76c0,.16-.13,.3-.3,.3Zm0-5.51c-.16,0-.3-.13-.3-.3v-2.75c0-.16,.13-.3,.3-.3s.3,.13,.3,.3v2.75c0,.16-.13,.3-.3,.3Z"/><text class="cls-2" transform="translate(607.15 439.87)"><tspan x="0" y="0">2008</tspan></text><circle class="cls-1" cx="702.12" cy="503.51" r="8.18" transform="translate(92.65 1115.91) rotate(-80.78)"/><path class="cls-3" d="M703.1,458.66s-.09-.02-.12-.07l-3.69-6h-6.03c-1.5,0-2.73-1.11-2.73-2.48v-31.53c0-1.37,1.22-2.48,2.73-2.48h68.85c1.5,0,2.73,1.11,2.73,2.48v31.53c0,1.37-1.22,2.48-2.73,2.48h-55.21l-3.69,6s-.07,.07-.12,.07Zm-9.84-42.28c-1.35,0-2.45,.99-2.45,2.2v31.53c0,1.22,1.1,2.2,2.45,2.2h6.11s.09,.02,.12,.07l3.61,5.88,3.61-5.88s.07-.07,.12-.07h55.28c1.35,0,2.45-.99,2.45-2.2v-31.53c0-1.22-1.1-2.2-2.45-2.2h-68.85Z"/><path class="cls-5" d="M702.77,463.14c-.16,0-.3-.13-.3-.3v-1.48c0-.16,.13-.3,.3-.3s.3,.13,.3,.3v1.48c0,.16-.13,.3-.3,.3Z"/><path class="cls-5" d="M702.77,490.69c-.16,0-.3-.13-.3-.3v-2.75c0-.16,.13-.3,.3-.3s.3,.13,.3,.3v2.75c0,.16-.13,.3-.3,.3Zm0-5.51c-.16,0-.3-.13-.3-.3v-2.76c0-.16,.13-.3,.3-.3s.3,.13,.3,.3v2.76c0,.16-.13,.3-.3,.3Zm0-5.51c-.16,0-.3-.13-.3-.3v-2.75c0-.16,.13-.3,.3-.3s.3,.13,.3,.3v2.75c0,.16-.13,.3-.3,.3Zm0-5.51c-.16,0-.3-.13-.3-.3v-2.76c0-.16,.13-.3,.3-.3s.3,.13,.3,.3v2.76c0,.16-.13,.3-.3,.3Zm0-5.51c-.16,0-.3-.13-.3-.3v-2.75c0-.16,.13-.3,.3-.3s.3,.13,.3,.3v2.75c0,.16-.13,.3-.3,.3Z"/><text class="cls-2" transform="translate(710.15 439.87)"><tspan x="0" y="0">2009</tspan></text><circle class="cls-1" cx="805.12" cy="503.51" r="8.18" transform="translate(179.15 1217.58) rotate(-80.78)"/><path class="cls-3" d="M806.1,458.66s-.09-.02-.12-.07l-3.69-6h-6.03c-1.5,0-2.73-1.11-2.73-2.48v-31.53c0-1.37,1.22-2.48,2.73-2.48h68.85c1.5,0,2.73,1.11,2.73,2.48v31.53c0,1.37-1.22,2.48-2.73,2.48h-55.21l-3.69,6s-.07,.07-.12,.07Zm-9.84-42.28c-1.35,0-2.45,.99-2.45,2.2v31.53c0,1.22,1.1,2.2,2.45,2.2h6.11s.09,.02,.12,.07l3.61,5.88,3.61-5.88s.07-.07,.12-.07h55.28c1.35,0,2.45-.99,2.45-2.2v-31.53c0-1.22-1.1-2.2-2.45-2.2h-68.85Z"/><path class="cls-5" d="M805.77,463.14c-.16,0-.3-.13-.3-.3v-1.48c0-.16,.13-.3,.3-.3s.3,.13,.3,.3v1.48c0,.16-.13,.3-.3,.3Z"/><path class="cls-5" d="M805.77,490.69c-.16,0-.3-.13-.3-.3v-2.75c0-.16,.13-.3,.3-.3s.3,.13,.3,.3v2.75c0,.16-.13,.3-.3,.3Zm0-5.51c-.16,0-.3-.13-.3-.3v-2.76c0-.16,.13-.3,.3-.3s.3,.13,.3,.3v2.76c0,.16-.13,.3-.3,.3Zm0-5.51c-.16,0-.3-.13-.3-.3v-2.75c0-.16,.13-.3,.3-.3s.3,.13,.3,.3v2.75c0,.16-.13,.3-.3,.3Zm0-5.51c-.16,0-.3-.13-.3-.3v-2.76c0-.16,.13-.3,.3-.3s.3,.13,.3,.3v2.76c0,.16-.13,.3-.3,.3Zm0-5.51c-.16,0-.3-.13-.3-.3v-2.75c0-.16,.13-.3,.3-.3s.3,.13,.3,.3v2.75c0,.16-.13,.3-.3,.3Z"/><text class="cls-2" transform="translate(813.59 439.87)"><tspan x="0" y="0">20</tspan><tspan class="cls-6" x="17.8" y="0">1</tspan><tspan x="25.81" y="0">1</tspan></text><circle class="cls-1" cx="908.12" cy="503.51" r="8.18" transform="translate(265.65 1319.25) rotate(-80.78)"/><path class="cls-3" d="M909.1,458.66s-.09-.02-.12-.07l-3.69-6h-6.03c-1.5,0-2.73-1.11-2.73-2.48v-31.53c0-1.37,1.22-2.48,2.73-2.48h68.85c1.5,0,2.73,1.11,2.73,2.48v31.53c0,1.37-1.22,2.48-2.73,2.48h-55.21l-3.69,6s-.07,.07-.12,.07Zm-9.84-42.28c-1.35,0-2.45,.99-2.45,2.2v31.53c0,1.22,1.1,2.2,2.45,2.2h6.11s.09,.02,.12,.07l3.61,5.88,3.61-5.88s.07-.07,.12-.07h55.28c1.35,0,2.45-.99,2.45-2.2v-31.53c0-1.22-1.1-2.2-2.45-2.2h-68.85Z"/><path class="cls-5" d="M908.77,463.14c-.16,0-.3-.13-.3-.3v-1.48c0-.16,.13-.3,.3-.3s.3,.13,.3,.3v1.48c0,.16-.13,.3-.3,.3Z"/><path class="cls-5" d="M908.77,490.69c-.16,0-.3-.13-.3-.3v-2.75c0-.16,.13-.3,.3-.3s.3,.13,.3,.3v2.75c0,.16-.13,.3-.3,.3Zm0-5.51c-.16,0-.3-.13-.3-.3v-2.76c0-.16,.13-.3,.3-.3s.3,.13,.3,.3v2.76c0,.16-.13,.3-.3,.3Zm0-5.51c-.16,0-.3-.13-.3-.3v-2.75c0-.16,.13-.3,.3-.3s.3,.13,.3,.3v2.75c0,.16-.13,.3-.3,.3Zm0-5.51c-.16,0-.3-.13-.3-.3v-2.76c0-.16,.13-.3,.3-.3s.3,.13,.3,.3v2.76c0,.16-.13,.3-.3,.3Zm0-5.51c-.16,0-.3-.13-.3-.3v-2.75c0-.16,.13-.3,.3-.3s.3,.13,.3,.3v2.75c0,.16-.13,.3-.3,.3Z"/><text class="cls-2" transform="translate(916.15 439.87)"><tspan x="0" y="0">2012</tspan></text><circle class="cls-1" cx="1011.12" cy="503.51" r="8.18" transform="translate(352.15 1420.92) rotate(-80.78)"/><path class="cls-3" d="M1012.1,458.66s-.09-.02-.12-.07l-3.69-6h-6.03c-1.5,0-2.73-1.11-2.73-2.48v-31.53c0-1.37,1.22-2.48,2.73-2.48h68.85c1.5,0,2.73,1.11,2.73,2.48v31.53c0,1.37-1.22,2.48-2.73,2.48h-55.21l-3.69,6s-.07,.07-.12,.07Zm-9.84-42.28c-1.35,0-2.45,.99-2.45,2.2v31.53c0,1.22,1.1,2.2,2.45,2.2h6.11s.09,.02,.12,.07l3.61,5.88,3.61-5.88s.07-.07,.12-.07h55.28c1.35,0,2.45-.99,2.45-2.2v-31.53c0-1.22-1.1-2.2-2.45-2.2h-68.85Z"/><path class="cls-5" d="M1011.77,463.14c-.16,0-.3-.13-.3-.3v-1.48c0-.16,.13-.3,.3-.3s.3,.13,.3,.3v1.48c0,.16-.13,.3-.3,.3Z"/><path class="cls-5" d="M1011.77,490.69c-.16,0-.3-.13-.3-.3v-2.75c0-.16,.13-.3,.3-.3s.3,.13,.3,.3v2.75c0,.16-.13,.3-.3,.3Zm0-5.51c-.16,0-.3-.13-.3-.3v-2.76c0-.16,.13-.3,.3-.3s.3,.13,.3,.3v2.76c0,.16-.13,.3-.3,.3Zm0-5.51c-.16,0-.3-.13-.3-.3v-2.75c0-.16,.13-.3,.3-.3s.3,.13,.3,.3v2.75c0,.16-.13,.3-.3,.3Zm0-5.51c-.16,0-.3-.13-.3-.3v-2.76c0-.16,.13-.3,.3-.3s.3,.13,.3,.3v2.76c0,.16-.13,.3-.3,.3Zm0-5.51c-.16,0-.3-.13-.3-.3v-2.75c0-.16,.13-.3,.3-.3s.3,.13,.3,.3v2.75c0,.16-.13,.3-.3,.3Z"/><text class="cls-2" transform="translate(1019.15 439.87)"><tspan x="0" y="0">2019</tspan></text><circle class="cls-1" cx="1114.12" cy="503.51" r="8.18" transform="translate(438.65 1522.59) rotate(-80.78)"/><path class="cls-3" d="M1115.1,458.66s-.09-.02-.12-.07l-3.69-6h-6.03c-1.5,0-2.73-1.11-2.73-2.48v-31.53c0-1.37,1.22-2.48,2.73-2.48h68.85c1.5,0,2.73,1.11,2.73,2.48v31.53c0,1.37-1.22,2.48-2.73,2.48h-55.21l-3.69,6s-.07,.07-.12,.07Zm-9.84-42.28c-1.35,0-2.45,.99-2.45,2.2v31.53c0,1.22,1.1,2.2,2.45,2.2h6.11s.09,.02,.12,.07l3.61,5.88,3.61-5.88s.07-.07,.12-.07h55.28c1.35,0,2.45-.99,2.45-2.2v-31.53c0-1.22-1.1-2.2-2.45-2.2h-68.85Z"/><path class="cls-5" d="M1114.77,463.14c-.16,0-.3-.13-.3-.3v-1.48c0-.16,.13-.3,.3-.3s.3,.13,.3,.3v1.48c0,.16-.13,.3-.3,.3Z"/><path class="cls-5" d="M1114.77,490.69c-.16,0-.3-.13-.3-.3v-2.75c0-.16,.13-.3,.3-.3s.3,.13,.3,.3v2.75c0,.16-.13,.3-.3,.3Zm0-5.51c-.16,0-.3-.13-.3-.3v-2.76c0-.16,.13-.3,.3-.3s.3,.13,.3,.3v2.76c0,.16-.13,.3-.3,.3Zm0-5.51c-.16,0-.3-.13-.3-.3v-2.75c0-.16,.13-.3,.3-.3s.3,.13,.3,.3v2.75c0,.16-.13,.3-.3,.3Zm0-5.51c-.16,0-.3-.13-.3-.3v-2.76c0-.16,.13-.3,.3-.3s.3,.13,.3,.3v2.76c0,.16-.13,.3-.3,.3Zm0-5.51c-.16,0-.3-.13-.3-.3v-2.75c0-.16,.13-.3,.3-.3s.3,.13,.3,.3v2.75c0,.16-.13,.3-.3,.3Z"/><text class="cls-2" transform="translate(1122.15 439.87)"><tspan x="0" y="0">2022</tspan></text><circle class="cls-4" cx="393.04" cy="503.5" r="4.5"/><circle class="cls-4" cx="496.04" cy="503.5" r="4.5"/><circle class="cls-4" cx="599.04" cy="503.5" r="4.5"/><circle class="cls-4" cx="702.04" cy="503.5" r="4.5"/><circle class="cls-4" cx="805.04" cy="503.5" r="4.5"/><circle class="cls-4" cx="908.04" cy="503.5" r="4.5"/><circle class="cls-4" cx="1011.04" cy="503.5" r="4.5"/><circle class="cls-4" cx="1114.04" cy="503.5" r="4.5"/></g></svg>