<?xml version="1.0" encoding="UTF-8"?><svg id="Camada_1" xmlns="http://www.w3.org/2000/svg" viewBox="0 0 1500 1000"><defs><style>.cls-1{fill:#666;font-family:ArialMT, Arial;font-size:15px;}.cls-2,.cls-3{fill:#1c548f;}.cls-4{fill:#fff;font-family:Arial-BoldMT, Arial;font-size:20px;}.cls-3{stroke:#1c548f;stroke-miterlimit:10;stroke-width:3px;}.cls-5{fill:#ededec;}</style></defs><rect class="cls-5" x="849" y="544" width="227" height="58" rx="29" ry="29"/><text class="cls-1" transform="translate(882.45 567.8)"><tspan x="0" y="0">Perspectiva do paciente </tspan><tspan x="44.19" y="18">na Conitec</tspan></text><rect class="cls-5" x="849" y="373" width="227" height="58" rx="29" ry="29"/><text class="cls-1" transform="translate(895.38 404.65)"><tspan x="0" y="0">Audiências Públicas</tspan></text><rect class="cls-5" x="406" y="373" width="227" height="58" rx="29" ry="29"/><text class="cls-1" transform="translate(433.62 396.8)"><tspan x="0" y="0">Cadastro de especialistas</tspan><tspan x="52.94" y="18">em saúde</tspan></text><rect class="cls-5" x="406" y="544" width="227" height="58" rx="29" ry="29"/><text class="cls-1" transform="translate(438.2 567.8)"><tspan x="0" y="0">Cadastro de pacientes e </tspan><tspan x="-4.58" y="18">associações de pacientes</tspan></text><rect class="cls-5" x="627.5" y="625" width="227" height="58" rx="29" ry="29"/><text class="cls-1" transform="translate(705.14 658.03)"><tspan x="0" y="0">Enquentes</tspan></text><rect class="cls-5" x="628" y="292" width="227" height="58" rx="29" ry="29"/><text class="cls-1" transform="translate(677.72 325.32)"><tspan x="0" y="0">Consultas Públicas</tspan></text><g><circle class="cls-2" cx="633.39" cy="402.58" r="5.7"/><line class="cls-3" x1="635.58" y1="403.66" x2="717.29" y2="444.1"/></g><g><circle class="cls-2" cx="848.2" cy="402.58" r="5.7"/><line class="cls-3" x1="846.01" y1="403.66" x2="764.29" y2="444.1"/></g><g><circle class="cls-2" cx="741.56" cy="350.83" r="5.7"/><line class="cls-3" x1="741.56" y1="353.27" x2="741.56" y2="444.44"/></g><g><circle class="cls-2" cx="848.2" cy="572.99" r="5.7"/><line class="cls-3" x1="846.01" y1="571.91" x2="764.29" y2="531.47"/></g><g><circle class="cls-2" cx="633.39" cy="572.99" r="5.7"/><line class="cls-3" x1="635.58" y1="571.91" x2="717.29" y2="531.47"/></g><g><circle class="cls-2" cx="740.03" cy="624.74" r="5.7"/><line class="cls-3" x1="740.03" y1="622.3" x2="740.03" y2="531.13"/></g><circle class="cls-2" cx="741.56" cy="487.78" r="107.75"/><text class="cls-4" transform="translate(676.53 470.67)"><tspan x="0" y="0" xml:space="preserve"> Participação </tspan><tspan x="22.23" y="22">social na</tspan><tspan x="28.36" y="44">Conitec</tspan></text></svg>