<?xml version="1.0" encoding="UTF-8"?><svg id="Camada_1" xmlns="http://www.w3.org/2000/svg" xmlns:xlink="http://www.w3.org/1999/xlink" viewBox="0 0 1500 1000"><defs><style>.cls-1,.cls-2,.cls-3,.cls-4,.cls-5,.cls-6,.cls-7,.cls-8{fill:none;stroke:#1c548f;stroke-miterlimit:10;}.cls-1,.cls-2,.cls-3,.cls-4,.cls-6,.cls-7{stroke-width:2px;}.cls-1,.cls-8{stroke-dasharray:0 0 1.96 3.92;}.cls-9{letter-spacing:0em;}.cls-2{stroke-dasharray:0 0 2.09 4.17;}.cls-10{letter-spacing:-.06em;}.cls-11{letter-spacing:-.06em;}.cls-3{stroke-dasharray:0 0 2.02 4.04;}.cls-12,.cls-13{fill:#1c548f;}.cls-4{stroke-dasharray:0 0 1.99 3.99;}.cls-14{fill:#666;font-family:ArialMT, Arial;}.cls-6{stroke-dasharray:0 0 2.14 4.27;}.cls-15{font-size:15px;}.cls-13{font-family:Arial-BoldMT, Arial;}</style></defs><text class="cls-15" transform="translate(752.83 245.86)"><tspan class="cls-13"><tspan x="0" y="0">1</tspan></tspan><tspan class="cls-14"><tspan x="-102.55" y="20">Secretaria Executiva da Conitec </tspan></tspan><tspan class="cls-14"><tspan x="-109.66" y="40">recebe o pedido e a conformidade </tspan></tspan><tspan class="cls-14"><tspan x="-55.46" y="60">da documentação</tspan></tspan></text><circle class="cls-12" cx="757" cy="171" r="52.5"/><polygon class="cls-12" points="363.58 391.97 357.36 402.73 351.15 391.97 363.58 391.97"/><g><line class="cls-7" x1="357.36" y1="399.75" x2="357.36" y2="398.75"/><line class="cls-3" x1="357.36" y1="394.71" x2="357.36" y2="348.28"/><line class="cls-7" x1="357.36" y1="346.26" x2="357.36" y2="345.26"/></g><polygon class="cls-12" points="363.58 391.97 357.36 402.73 351.15 391.97 363.58 391.97"/><polygon class="cls-12" points="363.58 391.97 357.36 402.73 351.15 391.97 363.58 391.97"/><text class="cls-15" transform="translate(350.39 537.47)"><tspan class="cls-13"><tspan x="0" y="0">2</tspan></tspan><tspan class="cls-14"><tspan class="cls-11" x="-90.88" y="20">A</tspan><tspan x="-81.7" y="20" xml:space="preserve"> secretaria executiva avalia </tspan></tspan><tspan class="cls-14"><tspan x="-67.53" y="40">os estudos científicos </tspan></tspan><tspan class="cls-14"><tspan x="-57.54" y="60">apresentados pelo </tspan></tspan><tspan class="cls-14"><tspan x="-37.53" y="80">demandante</tspan></tspan></text><text class="cls-15" transform="translate(620.39 537.49)"><tspan class="cls-13"><tspan x="0" y="0">3</tspan></tspan><tspan class="cls-14"><tspan x="-89.62" y="20">Secretaria Executiva solicita </tspan></tspan><tspan class="cls-14"><tspan x="-64.21" y="40">estudos e pesquisas </tspan></tspan><tspan class="cls-14"><tspan x="-63.77" y="60">complementares (se </tspan></tspan><tspan class="cls-14"><tspan x="-34.6" y="80">necessário)</tspan></tspan></text><text class="cls-15" transform="translate(893.39 537.49)"><tspan class="cls-13"><tspan x="0" y="0">4</tspan></tspan><tspan class="cls-14"><tspan x="-72.94" y="20">Os Comitês da Conitec </tspan></tspan><tspan class="cls-14"><tspan x="-75.45" y="40">analisam o relatório, faz </tspan></tspan><tspan class="cls-14"><tspan x="-75.87" y="60">recomendações e emite </tspan></tspan><tspan class="cls-14"><tspan x="-58.36" y="80">parecer conclusivo</tspan></tspan></text><text class="cls-15" transform="translate(1160.39 537.49)"><tspan class="cls-13"><tspan x="0" y="0">5</tspan></tspan><tspan class="cls-14"><tspan x="-64.61" y="20">Secretaria Executiva </tspan></tspan><tspan class="cls-14"><tspan x="-64.62" y="40">submete o parecer à </tspan></tspan><tspan class="cls-14"><tspan x="-77.55" y="60">consulta pública e avalia</tspan></tspan><tspan class="cls-14"><tspan x="-50.02" y="80">as contribuições</tspan></tspan></text><circle class="cls-12" cx="354.67" cy="460.74" r="52.5"/><circle class="cls-12" cx="624.67" cy="460.76" r="52.5"/><polygon class="cls-12" points="554.89 454.53 565.66 460.74 554.89 466.96 554.89 454.53"/><g><line class="cls-7" x1="562.67" y1="460.74" x2="561.67" y2="460.74"/><line class="cls-1" x1="557.76" y1="460.74" x2="418.63" y2="460.74"/><line class="cls-7" x1="416.67" y1="460.74" x2="415.67" y2="460.74"/></g><polygon class="cls-12" points="554.89 454.53 565.66 460.74 554.89 466.96 554.89 454.53"/><g><line class="cls-7" x1="562.67" y1="460.74" x2="561.67" y2="460.74"/><line class="cls-1" x1="557.76" y1="460.74" x2="418.63" y2="460.74"/><line class="cls-7" x1="416.67" y1="460.74" x2="415.67" y2="460.74"/></g><polygon class="cls-12" points="554.89 454.53 565.66 460.74 554.89 466.96 554.89 454.53"/><g><line class="cls-7" x1="756.87" y1="345.26" x2="755.87" y2="345.26"/><line class="cls-4" x1="751.88" y1="345.26" x2="364.86" y2="345.26"/><line class="cls-7" x1="362.87" y1="345.26" x2="361.87" y2="345.26"/></g><polygon class="cls-12" points="823.89 454.53 834.66 460.74 823.89 466.96 823.89 454.53"/><g><line class="cls-5" x1="831.67" y1="460.74" x2="830.67" y2="460.74"/><line class="cls-8" x1="826.75" y1="460.74" x2="687.63" y2="460.74"/><line class="cls-5" x1="685.67" y1="460.74" x2="684.67" y2="460.74"/></g><polygon class="cls-12" points="823.89 454.53 834.66 460.74 823.89 466.96 823.89 454.53"/><circle class="cls-12" cx="893.67" cy="460.76" r="52.5"/><g><line class="cls-5" x1="831.67" y1="460.74" x2="830.67" y2="460.74"/><line class="cls-8" x1="826.75" y1="460.74" x2="687.63" y2="460.74"/><line class="cls-5" x1="685.67" y1="460.74" x2="684.67" y2="460.74"/></g><g><line class="cls-7" x1="831.67" y1="460.74" x2="830.67" y2="460.74"/><line class="cls-1" x1="826.75" y1="460.74" x2="687.63" y2="460.74"/><line class="cls-7" x1="685.67" y1="460.74" x2="684.67" y2="460.74"/></g><g><line class="cls-7" x1="756.37" y1="340.76" x2="756.37" y2="339.76"/><line class="cls-6" x1="756.37" y1="335.49" x2="756.37" y2="318.4"/><line class="cls-7" x1="756.37" y1="316.26" x2="756.37" y2="315.26"/></g><polygon class="cls-12" points="1094.89 454.53 1105.66 460.74 1094.89 466.96 1094.89 454.53"/><g><line class="cls-5" x1="1102.67" y1="460.74" x2="1101.67" y2="460.74"/><line class="cls-8" x1="1097.76" y1="460.74" x2="958.63" y2="460.74"/><line class="cls-5" x1="956.67" y1="460.74" x2="955.67" y2="460.74"/></g><polygon class="cls-12" points="1094.89 454.53 1105.66 460.74 1094.89 466.96 1094.89 454.53"/><circle class="cls-12" cx="1164.67" cy="460.76" r="52.5"/><g><line class="cls-7" x1="1102.67" y1="460.74" x2="1101.67" y2="460.74"/><line class="cls-1" x1="1097.76" y1="460.74" x2="958.63" y2="460.74"/><line class="cls-7" x1="956.67" y1="460.74" x2="955.67" y2="460.74"/></g><g><line class="cls-7" x1="1276.67" y1="460.26" x2="1275.67" y2="460.26"/><line class="cls-2" x1="1271.5" y1="460.26" x2="1229.76" y2="460.26"/><line class="cls-7" x1="1227.67" y1="460.26" x2="1226.67" y2="460.26"/></g><text class="cls-15" transform="translate(353.39 766.47)"><tspan class="cls-13"><tspan x="0" y="0">6</tspan></tspan><tspan class="cls-14"><tspan x="-75.85" y="20">Os Comitês ratificam ou </tspan></tspan><tspan class="cls-14"><tspan x="-82.12" y="40">retificam a recomendação</tspan></tspan></text><text class="cls-15" transform="translate(620.39 766.49)"><tspan class="cls-13"><tspan x="0" y="0">7</tspan></tspan><tspan class="cls-14"><tspan class="cls-10" x="-52.52" y="20">A</tspan><tspan class="cls-9" x="-43.34" y="20" xml:space="preserve"> SCTIE avalia a </tspan></tspan><tspan class="cls-14"><tspan x="-75.04" y="40">necessidade de realizar </tspan></tspan><tspan class="cls-14"><tspan x="-53.79" y="60">audiência pública</tspan></tspan></text><text class="cls-15" transform="translate(893.39 766.49)"><tspan class="cls-13"><tspan x="0" y="0">8</tspan></tspan><tspan class="cls-14"><tspan x="-88.79" y="20">Secretaria Executiva realiza </tspan></tspan><tspan class="cls-14"><tspan x="-86.31" y="40">a audiência pública se esta </tspan></tspan><tspan class="cls-14"><tspan x="-88.79" y="60">for determinada pela SCTIE</tspan></tspan></text><text class="cls-15" transform="translate(1160.39 766.49)"><tspan class="cls-13"><tspan x="0" y="0">9</tspan></tspan><tspan class="cls-14"><tspan x="-86.29" y="20">Secretário da SCTIE avalia</tspan></tspan><tspan class="cls-14"><tspan x="-87.55" y="40">o relatório, decide e publica </tspan></tspan><tspan class="cls-14"><tspan x="-22.92" y="60">no DOU</tspan></tspan></text><circle class="cls-12" cx="354.67" cy="689.74" r="52.5"/><polygon class="cls-12" points="554.89 683.53 565.66 689.74 554.89 695.96 554.89 683.53"/><g><line class="cls-7" x1="562.67" y1="689.74" x2="561.67" y2="689.74"/><line class="cls-1" x1="557.75" y1="689.74" x2="418.63" y2="689.74"/><line class="cls-7" x1="416.67" y1="689.74" x2="415.67" y2="689.74"/></g><polygon class="cls-12" points="554.89 683.53 565.66 689.74 554.89 695.96 554.89 683.53"/><circle class="cls-12" cx="624.67" cy="689.76" r="52.5"/><g><line class="cls-7" x1="562.67" y1="689.74" x2="561.67" y2="689.74"/><line class="cls-1" x1="557.75" y1="689.74" x2="418.63" y2="689.74"/><line class="cls-7" x1="416.67" y1="689.74" x2="415.67" y2="689.74"/></g><polygon class="cls-12" points="823.89 683.53 834.66 689.74 823.89 695.96 823.89 683.53"/><g><line class="cls-5" x1="831.67" y1="689.74" x2="830.67" y2="689.74"/><line class="cls-8" x1="826.75" y1="689.74" x2="687.63" y2="689.74"/><line class="cls-5" x1="685.67" y1="689.74" x2="684.67" y2="689.74"/></g><polygon class="cls-12" points="823.89 683.53 834.66 689.74 823.89 695.96 823.89 683.53"/><circle class="cls-12" cx="893.67" cy="689.76" r="52.5"/><g><line class="cls-7" x1="831.67" y1="689.74" x2="830.67" y2="689.74"/><line class="cls-1" x1="826.75" y1="689.74" x2="687.63" y2="689.74"/><line class="cls-7" x1="685.67" y1="689.74" x2="684.67" y2="689.74"/></g><polygon class="cls-12" points="1094.89 683.53 1105.66 689.74 1094.89 695.96 1094.89 683.53"/><g><line class="cls-5" x1="1102.67" y1="689.74" x2="1101.67" y2="689.74"/><line class="cls-8" x1="1097.75" y1="689.74" x2="958.63" y2="689.74"/><line class="cls-5" x1="956.67" y1="689.74" x2="955.67" y2="689.74"/></g><polygon class="cls-12" points="1094.89 683.53 1105.66 689.74 1094.89 695.96 1094.89 683.53"/><circle class="cls-12" cx="1164.67" cy="689.76" r="52.5"/><g><line class="cls-7" x1="1102.67" y1="689.74" x2="1101.67" y2="689.74"/><line class="cls-1" x1="1097.75" y1="689.74" x2="958.63" y2="689.74"/><line class="cls-7" x1="956.67" y1="689.74" x2="955.67" y2="689.74"/></g><g><line class="cls-7" x1="293.67" y1="689.26" x2="292.67" y2="689.26"/><line class="cls-2" x1="288.5" y1="689.26" x2="246.76" y2="689.26"/><line class="cls-7" x1="244.67" y1="689.26" x2="243.67" y2="689.26"/></g><image width="254" height="161" transform="translate(322 440) scale(.25)" xlink:href="../../../../Users/eduardo.caletti/Downloads/B02.png"/><image width="234" height="265" transform="translate(594 427) scale(.25)" xlink:href="../../../../Users/eduardo.caletti/Downloads/B03.png"/><image width="277" height="217" transform="translate(319 661) scale(.25)" xlink:href="../../../../Users/eduardo.caletti/Downloads/B06.png"/><image width="271" height="238" transform="translate(866 435) scale(.21)" xlink:href="../../../../Users/eduardo.caletti/Downloads/B04.png"/><image width="224" height="232" transform="translate(735 148) scale(.2)" xlink:href="../../../../Users/eduardo.caletti/Downloads/B01.png"/><image width="248" height="253" transform="translate(598 662) scale(.21)" xlink:href="../../../../Users/eduardo.caletti/Downloads/B07.png"/><image width="332" height="193" transform="translate(852 664) scale(.25)" xlink:href="../../../../Users/eduardo.caletti/Downloads/B08.png"/><image width="262" height="237" transform="translate(1137 435) scale(.2)" xlink:href="../../../../Users/eduardo.caletti/Downloads/B05.png"/><image width="185" height="234" transform="translate(1143 660) scale(.25)" xlink:href="../../../../Users/eduardo.caletti/Downloads/B09.png"/></svg>