<?xml version="1.0" encoding="UTF-8"?><svg id="Camada_1" xmlns="http://www.w3.org/2000/svg" viewBox="0 0 1500 1000"><defs><style>.cls-1,.cls-2{fill:#666;font-size:15px;}.cls-1,.cls-3,.cls-4{font-family:ArialMT, Arial;}.cls-5{letter-spacing:-.07em;}.cls-6{letter-spacing:0em;}.cls-7{letter-spacing:-.06em;}.cls-8{font-family:Arial-ItalicMT, Arial;}.cls-9{font-family:Arial-BoldMT, Arial;}.cls-10{letter-spacing:-.06em;}.cls-11,.cls-4{fill:#1c548f;}.cls-12{letter-spacing:-.09em;}.cls-4{font-size:32.16px;}</style></defs><path class="cls-11" d="M320.55,359.63c-2.1,0-3.81-1.71-3.81-3.82s1.71-3.81,3.81-3.81,3.82,1.71,3.82,3.81-1.71,3.82-3.82,3.82Zm0-6.66c-1.57,0-2.84,1.28-2.84,2.84s1.28,2.85,2.84,2.85,2.85-1.28,2.85-2.85-1.28-2.84-2.85-2.84Z"/><path class="cls-11" d="M608.13,359.85c-2.1,0-3.81-1.71-3.81-3.82s1.71-3.81,3.81-3.81,3.82,1.71,3.82,3.81-1.71,3.82-3.82,3.82Zm0-6.66c-1.57,0-2.84,1.28-2.84,2.84s1.28,2.85,2.84,2.85,2.85-1.28,2.85-2.85-1.28-2.84-2.85-2.84Z"/><path class="cls-11" d="M895.71,359.85c-2.11,0-3.82-1.71-3.82-3.81s1.71-3.82,3.82-3.82,3.81,1.71,3.81,3.82-1.71,3.81-3.81,3.81Zm0-6.66c-1.57,0-2.85,1.28-2.85,2.85s1.28,2.84,2.85,2.84,2.84-1.28,2.84-2.84-1.27-2.85-2.84-2.85Z"/><path class="cls-11" d="M1183.29,359.85c-2.1,0-3.81-1.71-3.81-3.82s1.71-3.81,3.81-3.81,3.82,1.71,3.82,3.81-1.71,3.82-3.82,3.82Zm0-6.66c-1.57,0-2.84,1.28-2.84,2.84s1.27,2.85,2.84,2.85,2.85-1.28,2.85-2.85-1.28-2.84-2.85-2.84Z"/><g><path class="cls-11" d="M259.57,476.03c-2.1,0-3.81-1.71-3.81-3.81s1.71-3.82,3.81-3.82,3.82,1.71,3.82,3.82-1.71,3.81-3.82,3.81Zm0-6.66c-1.57,0-2.84,1.28-2.84,2.85s1.28,2.84,2.84,2.84,2.85-1.28,2.85-2.84-1.28-2.85-2.85-2.85Z"/><path class="cls-11" d="M259.66,468.19h-.03c-.27-.01-.47-.24-.46-.51,1.75-32.59,28.71-58.11,61.37-58.11s58.9,24.95,61.29,56.8c.01,.15,.07,1.07,.08,1.23,.02,.27-.19,.5-.46,.51h-.03c-.26,0-.47-.19-.48-.46,0-.15-.07-1.05-.08-1.21-2.35-31.36-28.84-55.91-60.32-55.91s-58.68,25.12-60.4,57.19c-.01,.26-.23,.46-.48,.46Z"/><path class="cls-11" d="M260.16,480c-.24,0-.45-.17-.48-.42-.12-.8-.21-1.61-.29-2.43-.03-.27,.17-.5,.44-.53,.28,.01,.51,.17,.53,.44,.08,.8,.18,1.6,.28,2.39,.04,.27-.15,.51-.41,.55-.02,0-.04,0-.07,0Z"/><path class="cls-11" d="M266.03,498.88c-.18,0-.35-.09-.44-.27-.76-1.54-1.45-3.07-2.06-4.56-.1-.25,.02-.53,.27-.63,.22-.09,.53,.01,.63,.27,.59,1.47,1.28,2.98,2.03,4.49,.12,.25,.02,.53-.22,.66-.07,.03-.15,.05-.22,.05Zm-3.71-9.21c-.21,0-.4-.13-.47-.34-.49-1.57-.92-3.19-1.29-4.83-.06-.27,.1-.52,.37-.58,.25-.08,.52,.11,.58,.37,.36,1.61,.79,3.21,1.27,4.75,.08,.26-.06,.53-.32,.61-.05,.01-.1,.02-.15,.02Z"/><path class="cls-11" d="M320.55,532.49c-.95,0-1.9-.02-2.85-.07-.27,0-.47-.24-.46-.51,.01-.27,.21-.49,.51-.46,1.64,.09,3.29,.1,4.92,.03h.02c.26,0,.47,.2,.48,.47,.01,.27-.19,.49-.47,.5-.71,.03-1.43,.04-2.15,.04Zm7.08-.41c-.24,0-.46-.18-.48-.43-.03-.27,.16-.51,.43-.54,1.64-.19,3.27-.45,4.86-.76,.27-.08,.52,.12,.57,.38,.06,.27-.11,.52-.38,.57-1.61,.32-3.28,.59-4.94,.78h-.06Zm-14.86-.08h-.06c-1.66-.21-3.32-.49-4.93-.84-.27-.06-.43-.31-.37-.58,.05-.27,.3-.47,.57-.37,1.59,.33,3.22,.61,4.86,.82,.27,.04,.46,.28,.42,.54-.03,.25-.24,.43-.48,.43Zm24.59-1.85c-.21,0-.41-.13-.47-.35-.08-.26,.08-.52,.33-.6,1.59-.46,3.16-.98,4.67-1.56,.26-.09,.53,.03,.63,.28,.1,.25-.03,.53-.28,.63-1.54,.59-3.14,1.12-4.75,1.58-.04,.02-.09,.02-.13,.02Zm-34.29-.2s-.1,0-.14-.02c-1.58-.47-3.17-1.02-4.73-1.62-.25-.11-.37-.38-.28-.64,.09-.25,.38-.36,.63-.28,1.54,.6,3.11,1.14,4.65,1.6,.26,.08,.4,.35,.33,.61-.06,.21-.26,.34-.47,.34Zm43.57-3.3c-.18,0-.36-.1-.44-.28-.11-.25,0-.53,.23-.65,1.52-.72,2.99-1.5,4.36-2.3,.23-.15,.52-.07,.66,.17,.14,.24,.06,.53-.17,.66-1.4,.82-2.89,1.6-4.43,2.34-.07,.04-.14,.05-.21,.05Zm-52.81-.29c-.07,0-.14,0-.21-.05-1.48-.72-2.96-1.52-4.4-2.37-.23-.13-.31-.44-.17-.66s.45-.3,.66-.17c1.42,.85,2.87,1.63,4.33,2.34,.24,.11,.34,.41,.22,.65-.08,.18-.26,.28-.44,.28Zm61.4-4.67c-.15,0-.3-.08-.4-.21-.15-.22-.1-.52,.12-.67,1.33-.92,2.66-1.92,3.93-2.97,.21-.14,.52-.13,.68,.07,.17,.21,.14,.52-.07,.69-1.3,1.06-2.64,2.08-4,3.01-.09,.06-.18,.08-.28,.08Zm-69.93-.39c-.1,0-.2-.03-.28-.08-1.34-.96-2.67-1.99-3.96-3.07-.2-.17-.23-.47-.06-.68,.17-.21,.48-.24,.68-.06,1.27,1.06,2.58,2.08,3.89,3.01,.22,.16,.27,.47,.11,.68-.09,.13-.24,.2-.39,.2Zm77.6-5.9c-.13,0-.26-.05-.35-.14-.19-.2-.18-.5,.01-.69,1.19-1.14,2.33-2.34,3.4-3.56,.17-.19,.47-.24,.69-.04,.2,.17,.22,.48,.04,.68-1.09,1.23-2.25,2.45-3.46,3.62-.09,.09-.21,.13-.34,.13Zm-85.19-.48c-.12,0-.25-.05-.34-.14-1.2-1.19-2.35-2.41-3.41-3.66-.18-.2-.16-.5,.05-.68,.19-.17,.51-.15,.68,.06,1.05,1.22,2.18,2.42,3.37,3.6,.19,.19,.19,.49,0,.68-.09,.1-.22,.14-.35,.14Zm91.75-6.96c-.1,0-.2-.03-.29-.09-.22-.16-.26-.47-.1-.68,.96-1.28,1.9-2.65,2.78-4.05,.15-.23,.46-.31,.67-.15,.23,.14,.3,.44,.16,.66-.9,1.43-1.85,2.82-2.83,4.13-.1,.12-.24,.19-.39,.19Zm-98.23-.55c-.15,0-.3-.07-.39-.2-.99-1.37-1.92-2.77-2.77-4.16-.14-.23-.07-.53,.16-.67,.22-.14,.52-.06,.66,.16,.84,1.38,1.76,2.75,2.74,4.1,.16,.22,.11,.52-.11,.67-.09,.07-.19,.09-.29,.09Zm103.49-7.85c-.08,0-.15-.02-.22-.06-.24-.12-.33-.42-.21-.66,.76-1.45,1.46-2.95,2.09-4.45,.09-.26,.39-.38,.63-.26,.25,.1,.37,.38,.26,.63-.64,1.54-1.35,3.06-2.12,4.54-.08,.16-.26,.26-.43,.26Zm3.83-9.14s-.1,0-.15-.02c-.25-.08-.39-.36-.31-.61,.5-1.54,.94-3.14,1.32-4.74,.07-.26,.34-.4,.59-.36,.26,.06,.42,.33,.36,.59-.39,1.63-.84,3.25-1.35,4.82-.07,.2-.26,.33-.46,.33Z"/><path class="cls-11" d="M380.86,480.52s-.05,0-.07,0c-.27-.04-.45-.28-.41-.55,.12-.79,.21-1.6,.3-2.39,.03-.25,.24-.43,.48-.43h.05c.27,.03,.46,.27,.43,.54-.09,.82-.19,1.63-.31,2.43-.03,.24-.24,.41-.48,.41Z"/><path class="cls-11" d="M381.52,474.85c-2.11,0-3.82-1.71-3.82-3.81s1.71-3.82,3.82-3.82,3.81,1.71,3.81,3.82-1.71,3.81-3.81,3.81Zm0-6.66c-1.57,0-2.85,1.28-2.85,2.85s1.28,2.84,2.85,2.84,2.84-1.28,2.84-2.84-1.28-2.85-2.84-2.85Z"/><path class="cls-11" d="M320.55,410.54c-.27,0-.48-.21-.48-.48v-50.91c0-.27,.21-.48,.48-.48s.48,.21,.48,.48v50.91c0,.27-.21,.48-.48,.48Z"/><path class="cls-11" d="M464.34,532.49c-31.98,0-58.9-24.95-61.29-56.8,0-.16-.07-1.06-.08-1.22-.02-.27,.17-.5,.44-.53,.24,0,.5,.18,.53,.44,.01,.16,.07,1.08,.08,1.24,2.35,31.34,28.85,55.89,60.32,55.89s58.68-25.13,60.4-57.19c.01-.26,.23-.46,.48-.46h.02c.27,.01,.47,.24,.46,.51-1.75,32.59-28.71,58.11-61.37,58.11Z"/><path class="cls-11" d="M525.02,465.44c-.25,0-.46-.18-.48-.44-.08-.8-.18-1.6-.28-2.39-.04-.27,.15-.51,.41-.55,.02,0,.04,0,.07,0,.24,0,.45,.17,.48,.42,.12,.8,.21,1.61,.29,2.43,.03,.27-.17,.5-.44,.53h-.05Z"/><path class="cls-11" d="M523.85,458.14c-.22,0-.42-.15-.47-.38-.36-1.6-.79-3.21-1.27-4.76-.08-.26,.07-.53,.32-.61,.27-.08,.53,.07,.61,.32,.49,1.57,.92,3.2,1.29,4.83,.06,.26-.1,.52-.37,.58-.03,0-.07,0-.1,0Zm-2.95-9.47c-.19,0-.38-.11-.45-.3-.62-1.53-1.31-3.04-2.03-4.48-.12-.24-.03-.53,.21-.65,.24-.13,.52-.03,.65,.21,.75,1.46,1.44,3,2.07,4.56,.1,.25-.02,.53-.27,.63-.06,.02-.12,.03-.18,.03Z"/><path class="cls-11" d="M405,457.42s-.08,0-.11,0c-.26-.06-.42-.33-.36-.59,.39-1.63,.85-3.25,1.35-4.82,.08-.26,.32-.42,.61-.31,.25,.08,.39,.36,.31,.61-.5,1.54-.95,3.14-1.32,4.74-.06,.22-.26,.37-.47,.37Zm3.06-9.43c-.06,0-.13,0-.19-.04-.25-.1-.36-.38-.26-.64,.64-1.52,1.35-3.05,2.12-4.53,.12-.23,.42-.34,.66-.21,.24,.12,.33,.42,.21,.66-.76,1.46-1.46,2.96-2.09,4.46-.08,.19-.26,.29-.45,.29Zm108.35-8.21c-.16,0-.32-.08-.41-.23-.85-1.38-1.77-2.75-2.73-4.09-.16-.22-.11-.52,.11-.68,.22-.15,.52-.11,.68,.11,.98,1.36,1.92,2.75,2.77,4.16,.14,.23,.07,.53-.16,.66-.08,.05-.17,.07-.25,.07Zm-103.78-.6c-.09,0-.18-.02-.26-.07-.22-.15-.29-.45-.15-.67,.9-1.42,1.85-2.81,2.83-4.12,.16-.22,.47-.27,.68-.1,.22,.16,.26,.47,.1,.68-.96,1.29-1.9,2.66-2.78,4.06-.09,.14-.25,.22-.41,.22Zm97.94-7.43c-.14,0-.27-.06-.37-.17-1.06-1.24-2.19-2.45-3.36-3.6-.19-.19-.19-.5,0-.69,.19-.19,.5-.19,.69,0,1.18,1.17,2.33,2.4,3.41,3.66,.18,.2,.15,.51-.05,.69-.09,.08-.2,.11-.32,.11Zm-92.01-.53c-.11,0-.23-.04-.32-.12-.2-.18-.22-.48-.04-.69,1.1-1.24,2.26-2.46,3.46-3.61,.19-.19,.5-.19,.69,.01,.19,.19,.18,.5-.01,.69-1.18,1.13-2.32,2.33-3.4,3.56-.09,.11-.23,.16-.37,.16Zm84.96-6.44c-.11,0-.22-.03-.31-.11-1.24-1.04-2.55-2.06-3.89-3.01-.22-.15-.27-.46-.11-.67,.16-.22,.46-.27,.67-.11,1.36,.97,2.7,1.99,3.96,3.06,.2,.17,.23,.47,.06,.68-.09,.11-.23,.17-.37,.17Zm-77.81-.45c-.14,0-.28-.06-.38-.18-.17-.21-.14-.52,.07-.68,1.31-1.07,2.65-2.08,4-3.01,.2-.16,.52-.1,.67,.12,.15,.22,.1,.52-.12,.67-1.32,.92-2.64,1.91-3.93,2.96-.09,.08-.2,.11-.31,.11Zm69.72-5.29c-.09,0-.17-.02-.25-.07-1.41-.84-2.86-1.62-4.33-2.34-.24-.12-.34-.41-.22-.65,.12-.24,.4-.35,.65-.22,1.5,.73,2.97,1.53,4.4,2.38,.23,.14,.31,.44,.17,.66-.09,.16-.25,.24-.42,.24Zm-61.56-.36c-.17,0-.33-.09-.42-.24-.13-.23-.05-.53,.18-.66,1.42-.82,2.92-1.6,4.43-2.33,.24-.09,.54-.01,.65,.23,.11,.24,0,.53-.23,.65-1.49,.71-2.96,1.48-4.36,2.29-.08,.04-.16,.06-.24,.06Zm52.66-3.99c-.06,0-.12,0-.18-.03-1.54-.6-3.11-1.13-4.65-1.6-.26-.08-.4-.35-.33-.6,.08-.26,.39-.39,.6-.33,1.58,.47,3.17,1.02,4.73,1.63,.25,.09,.38,.38,.28,.63-.07,.19-.26,.31-.45,.31Zm-43.69-.26c-.19,0-.38-.12-.46-.31-.09-.25,.03-.53,.28-.63,1.57-.59,3.17-1.12,4.75-1.57,.25-.07,.53,.08,.6,.33,.08,.26-.08,.53-.33,.6-1.55,.45-3.12,.96-4.67,1.55-.06,.02-.11,.03-.17,.03Zm34.18-2.59s-.07,0-.1,0c-1.59-.34-3.22-.61-4.86-.82-.27-.04-.46-.28-.42-.55,.03-.25,.24-.42,.48-.42h.06c1.66,.21,3.32,.49,4.93,.84,.27,.06,.43,.31,.38,.57-.05,.23-.25,.38-.47,.38Zm-24.65-.14c-.23,0-.43-.16-.47-.39-.06-.26,.11-.52,.38-.57,1.61-.33,3.28-.59,4.94-.78,.26,0,.51,.16,.54,.43s-.16,.51-.43,.54c-1.64,.19-3.27,.44-4.86,.76-.03,0-.06,0-.09,0Zm14.81-1.11h-.02c-1.63-.07-3.29-.08-4.92-.03h-.01c-.26,0-.47-.2-.48-.47,0-.27,.2-.49,.47-.5,1.66-.06,3.33-.05,5,.03,.27,0,.47,.24,.46,.51,0,.26-.23,.46-.48,.46Z"/><path class="cls-11" d="M403.71,464.93h-.05c-.27-.03-.46-.27-.43-.54,.09-.81,.19-1.63,.31-2.43,.04-.27,.25-.5,.55-.41,.27,.04,.45,.28,.41,.55-.11,.79-.22,1.59-.3,2.39-.03,.25-.24,.43-.48,.43Z"/><path class="cls-11" d="M525.31,474.85c-2.1,0-3.81-1.71-3.81-3.81s1.71-3.82,3.81-3.82,3.82,1.71,3.82,3.82-1.71,3.81-3.82,3.81Zm0-6.66c-1.57,0-2.84,1.28-2.84,2.85s1.28,2.84,2.84,2.84,2.85-1.28,2.85-2.84-1.28-2.85-2.85-2.85Z"/><path class="cls-11" d="M403.36,474.85c-2.11,0-3.82-1.71-3.82-3.81s1.71-3.82,3.82-3.82,3.81,1.71,3.81,3.82-1.71,3.81-3.81,3.81Zm0-6.66c-1.57,0-2.85,1.28-2.85,2.85s1.28,2.84,2.85,2.84,2.84-1.28,2.84-2.84-1.28-2.85-2.84-2.85Z"/><path class="cls-11" d="M464.34,590.06c-2.11,0-3.82-1.71-3.82-3.82s1.71-3.81,3.82-3.81,3.81,1.71,3.81,3.81-1.71,3.82-3.81,3.82Zm0-6.66c-1.57,0-2.85,1.27-2.85,2.84s1.28,2.85,2.85,2.85,2.84-1.28,2.84-2.85-1.28-2.84-2.84-2.84Z"/><path class="cls-11" d="M464.34,583.41c-.27,0-.48-.22-.48-.48v-50.92c0-.27,.21-.48,.48-.48s.48,.22,.48,.48v50.92c0,.27-.21,.48-.48,.48Z"/><path class="cls-11" d="M400.03,471.52h-15.17c-.27,0-.48-.21-.48-.48s.21-.48,.48-.48h15.17c.27,0,.48,.21,.48,.48s-.21,.48-.48,.48Z"/><path class="cls-11" d="M547.24,468.41h-.02c-.27-.01-.47-.24-.46-.51,1.75-32.59,28.71-58.11,61.37-58.11s58.9,24.95,61.29,56.8l.08,1.23c.02,.27-.19,.5-.46,.51h-.03c-.26,0-.47-.19-.48-.46l-.08-1.22c-2.35-31.34-28.85-55.9-60.32-55.9s-58.68,25.12-60.4,57.19c-.01,.26-.23,.46-.48,.46Z"/><path class="cls-11" d="M547.74,480.22c-.24,0-.45-.17-.48-.42-.12-.8-.21-1.61-.29-2.44-.02-.27,.17-.5,.44-.53,.3-.02,.5,.17,.53,.44,.08,.8,.18,1.6,.29,2.4,.04,.27-.15,.51-.41,.55-.02,0-.04,0-.07,0Z"/><path class="cls-11" d="M553.63,499.1c-.18,0-.35-.1-.43-.27-.76-1.5-1.45-3.03-2.07-4.56-.1-.25,.02-.53,.27-.63,.23-.1,.53,.02,.63,.27,.61,1.5,1.29,3.02,2.03,4.49,.12,.24,.03,.53-.21,.66-.07,.03-.14,.05-.22,.05Zm-3.72-9.21c-.21,0-.4-.13-.47-.34-.49-1.57-.92-3.19-1.29-4.83-.06-.27,.1-.52,.37-.58,.27-.07,.52,.11,.58,.37,.36,1.61,.79,3.21,1.27,4.75,.08,.26-.07,.53-.32,.61-.05,.01-.1,.02-.15,.02Z"/><path class="cls-11" d="M608.13,532.71c-.95,0-1.9-.02-2.85-.07-.27,0-.47-.24-.46-.51,.01-.26,.23-.46,.48-.46h.02c1.63,.08,3.29,.09,4.92,.03h.02c.26,0,.47,.2,.48,.47,.01,.27-.19,.49-.47,.5-.71,.03-1.43,.04-2.16,.04Zm7.08-.41c-.24,0-.46-.18-.48-.43-.03-.27,.16-.51,.43-.54,1.67-.19,3.3-.45,4.86-.77,.24-.07,.52,.1,.57,.38,.06,.26-.11,.51-.37,.57-1.58,.33-3.25,.59-4.94,.79h-.06Zm-14.86-.09h-.06c-1.66-.21-3.32-.49-4.93-.84-.27-.06-.43-.31-.37-.58s.32-.47,.57-.37c1.59,.33,3.22,.61,4.86,.82,.27,.04,.46,.28,.42,.54-.03,.25-.24,.43-.48,.43Zm24.59-1.86c-.21,0-.41-.13-.47-.35-.08-.26,.08-.52,.33-.6,1.59-.46,3.16-.98,4.67-1.56,.26-.09,.53,.03,.63,.28,.09,.25-.03,.53-.28,.63-1.54,.59-3.14,1.12-4.75,1.58-.04,.02-.09,.02-.13,.02Zm-34.29-.18s-.09,0-.14-.02c-1.58-.47-3.17-1.02-4.73-1.62-.25-.1-.37-.38-.28-.64,.09-.25,.38-.36,.63-.28,1.54,.6,3.1,1.14,4.65,1.6,.26,.08,.4,.35,.33,.61-.06,.21-.26,.34-.47,.34Zm43.57-3.31c-.18,0-.36-.1-.44-.28-.11-.25,0-.53,.23-.65,1.52-.72,2.99-1.5,4.36-2.3,.23-.14,.52-.07,.66,.17,.14,.24,.06,.53-.17,.66-1.4,.82-2.89,1.6-4.43,2.34-.07,.04-.14,.05-.21,.05Zm-52.81-.3c-.07,0-.14,0-.21-.05-1.48-.72-2.96-1.52-4.4-2.37-.23-.13-.31-.44-.17-.66,.14-.23,.45-.3,.66-.17,1.42,.85,2.87,1.63,4.33,2.34,.24,.11,.34,.41,.22,.65-.09,.18-.26,.28-.44,.28Zm61.4-4.66c-.15,0-.3-.08-.4-.21-.15-.22-.1-.52,.12-.67,1.33-.92,2.66-1.92,3.93-2.97,.21-.14,.52-.13,.68,.07,.17,.21,.14,.52-.07,.69-1.3,1.06-2.64,2.08-4,3.01-.09,.06-.18,.09-.28,.09Zm-69.92-.39c-.1,0-.19-.03-.28-.09-1.34-.96-2.67-1.98-3.96-3.07-.2-.17-.23-.47-.06-.68,.17-.2,.48-.23,.68-.06,1.27,1.06,2.58,2.08,3.89,3.01,.22,.16,.27,.47,.11,.68-.09,.13-.24,.2-.39,.2Zm77.6-5.9c-.13,0-.26-.05-.35-.14-.18-.2-.18-.5,.01-.69,1.19-1.14,2.33-2.34,3.4-3.56,.18-.2,.48-.23,.69-.04,.2,.17,.22,.48,.04,.68-1.09,1.23-2.25,2.45-3.46,3.62-.09,.09-.21,.13-.34,.13Zm-85.19-.48c-.12,0-.25-.05-.34-.14-1.2-1.19-2.35-2.41-3.41-3.66-.18-.2-.16-.5,.05-.68,.2-.17,.51-.14,.68,.06,1.05,1.22,2.18,2.42,3.37,3.6,.19,.19,.19,.49,0,.68-.09,.09-.22,.14-.35,.14Zm91.75-6.96c-.1,0-.2-.03-.29-.09-.21-.16-.26-.47-.1-.68,.98-1.32,1.92-2.69,2.78-4.06,.15-.24,.44-.31,.67-.15,.23,.14,.3,.44,.16,.66-.87,1.4-1.82,2.79-2.83,4.14-.09,.12-.24,.19-.39,.19Zm-98.23-.55c-.15,0-.3-.07-.39-.2-.99-1.37-1.92-2.77-2.77-4.16-.14-.23-.07-.53,.16-.67,.22-.14,.53-.06,.66,.16,.84,1.38,1.76,2.75,2.73,4.1,.16,.22,.11,.52-.11,.67-.09,.07-.18,.09-.28,.09Zm103.49-7.85c-.08,0-.15-.02-.22-.06-.24-.12-.33-.42-.21-.66,.75-1.45,1.46-2.95,2.09-4.45,.09-.25,.4-.39,.63-.26,.25,.1,.37,.38,.26,.63-.64,1.54-1.35,3.06-2.12,4.54-.09,.16-.26,.26-.43,.26Zm3.83-9.15s-.1,0-.15-.02c-.25-.08-.39-.36-.31-.61,.5-1.54,.95-3.14,1.32-4.74,.07-.26,.33-.42,.59-.36,.26,.06,.42,.33,.36,.59-.39,1.63-.85,3.25-1.35,4.82-.07,.2-.26,.33-.46,.33Z"/><path class="cls-11" d="M668.45,480.74s-.05,0-.07,0c-.27-.04-.45-.28-.41-.55,.11-.79,.22-1.59,.3-2.39,.03-.26,.28-.42,.54-.43,.27,.03,.46,.27,.43,.54-.09,.81-.19,1.63-.31,2.43-.03,.24-.24,.41-.48,.41Z"/><path class="cls-11" d="M547.15,475.06c-2.1,0-3.81-1.71-3.81-3.81s1.71-3.82,3.81-3.82,3.82,1.71,3.82,3.82-1.71,3.81-3.82,3.81Zm0-6.66c-1.57,0-2.84,1.28-2.84,2.85s1.28,2.84,2.84,2.84,2.85-1.28,2.85-2.84-1.28-2.85-2.85-2.85Z"/><path class="cls-11" d="M669.11,475.06c-2.1,0-3.81-1.71-3.81-3.81s1.71-3.82,3.81-3.82,3.82,1.71,3.82,3.82-1.71,3.81-3.82,3.81Zm0-6.66c-1.57,0-2.84,1.28-2.84,2.85s1.28,2.84,2.84,2.84,2.85-1.28,2.85-2.84-1.28-2.85-2.85-2.85Z"/><path class="cls-11" d="M608.13,410.76c-.27,0-.48-.21-.48-.48v-50.91c0-.27,.21-.48,.48-.48s.48,.21,.48,.48v50.91c0,.27-.21,.48-.48,.48Z"/><path class="cls-11" d="M543.82,471.74h-15.17c-.27,0-.48-.21-.48-.48s.21-.48,.48-.48h15.17c.27,0,.48,.21,.48,.48s-.21,.48-.48,.48Z"/><path class="cls-11" d="M751.92,532.71c-31.98,0-58.9-24.95-61.29-56.8l-.08-1.23c-.02-.27,.18-.5,.46-.51,.27-.05,.49,.18,.51,.46l.08,1.22c2.35,31.34,28.85,55.89,60.32,55.89s58.68-25.13,60.4-57.19c.01-.27,.2-.44,.51-.46,.27,.01,.47,.24,.46,.51-1.75,32.58-28.71,58.11-61.37,58.11Z"/><path class="cls-11" d="M812.6,465.66c-.25,0-.46-.18-.48-.44-.08-.8-.18-1.6-.28-2.39-.04-.27,.15-.51,.41-.55,.02,0,.04,0,.07,0,.24,0,.45,.17,.48,.42,.12,.8,.21,1.61,.29,2.43,.03,.27-.17,.5-.44,.53h-.05Z"/><path class="cls-11" d="M811.43,458.36c-.22,0-.42-.15-.47-.38-.36-1.6-.79-3.21-1.27-4.76-.08-.26,.07-.53,.32-.61,.26-.07,.53,.07,.61,.32,.49,1.57,.92,3.2,1.29,4.83,.06,.26-.1,.52-.37,.58-.03,0-.07,0-.1,0Zm-2.95-9.47c-.19,0-.37-.11-.45-.3-.62-1.53-1.31-3.04-2.03-4.48-.12-.24-.03-.53,.21-.65,.24-.13,.52-.03,.65,.21,.75,1.46,1.44,3,2.07,4.56,.1,.25-.02,.53-.27,.63-.06,.02-.12,.03-.18,.03Z"/><path class="cls-11" d="M692.58,457.63s-.08,0-.11,0c-.26-.06-.42-.33-.36-.59,.39-1.63,.85-3.25,1.35-4.82,.08-.25,.32-.41,.61-.31,.25,.08,.39,.36,.31,.61-.5,1.54-.95,3.14-1.32,4.74-.06,.22-.26,.37-.47,.37Zm3.07-9.43c-.06,0-.13,0-.19-.04-.25-.1-.36-.38-.26-.64,.64-1.52,1.35-3.05,2.12-4.53,.12-.24,.41-.34,.66-.21,.24,.12,.33,.42,.21,.66-.75,1.46-1.46,2.96-2.09,4.46-.08,.18-.26,.29-.45,.29Zm108.35-8.21c-.16,0-.32-.08-.41-.23-.84-1.38-1.77-2.75-2.73-4.09-.16-.22-.11-.52,.11-.68,.21-.15,.52-.11,.68,.11,.98,1.36,1.92,2.75,2.77,4.16,.14,.23,.07,.53-.16,.66-.08,.05-.17,.07-.25,.07Zm-103.79-.6c-.09,0-.18-.02-.26-.07-.22-.15-.29-.45-.15-.67,.9-1.42,1.85-2.81,2.83-4.12,.16-.22,.46-.27,.68-.1,.22,.16,.26,.47,.1,.68-.96,1.29-1.9,2.66-2.78,4.06-.09,.14-.25,.22-.41,.22Zm97.94-7.42c-.14,0-.27-.06-.37-.17-1.08-1.25-2.21-2.46-3.37-3.6-.19-.19-.19-.5,0-.69,.19-.19,.5-.19,.69,0,1.17,1.16,2.32,2.39,3.41,3.66,.18,.2,.16,.51-.05,.69-.09,.08-.2,.11-.32,.11Zm-92.01-.53c-.11,0-.23-.04-.32-.12-.2-.18-.22-.48-.04-.69,1.1-1.24,2.26-2.46,3.46-3.61,.18-.19,.5-.19,.69,.01,.18,.19,.18,.5-.01,.69-1.18,1.14-2.32,2.33-3.4,3.56-.1,.11-.23,.16-.37,.16Zm84.95-6.44c-.11,0-.22-.03-.31-.11-1.24-1.04-2.55-2.06-3.89-3.01-.22-.15-.27-.46-.11-.67,.16-.21,.46-.27,.67-.11,1.36,.97,2.7,1.99,3.96,3.06,.2,.17,.23,.47,.06,.68-.1,.11-.23,.17-.37,.17Zm-77.82-.46c-.14,0-.28-.06-.37-.18-.17-.21-.14-.52,.07-.68,1.31-1.07,2.65-2.08,4-3.01,.2-.15,.52-.1,.67,.12,.15,.22,.1,.52-.12,.67-1.32,.92-2.64,1.91-3.93,2.96-.09,.08-.2,.11-.31,.11Zm69.72-5.28c-.08,0-.17-.02-.25-.07-1.41-.84-2.86-1.62-4.33-2.34-.24-.12-.34-.41-.22-.65,.12-.23,.39-.35,.65-.22,1.5,.73,2.97,1.53,4.4,2.38,.23,.14,.31,.44,.17,.66-.09,.16-.25,.24-.42,.24Zm-61.57-.36c-.17,0-.33-.08-.42-.24-.13-.23-.05-.53,.18-.66,1.42-.82,2.92-1.6,4.43-2.33,.24-.09,.53,0,.65,.23,.11,.24,0,.53-.23,.65-1.49,.71-2.96,1.48-4.36,2.29-.08,.04-.16,.06-.24,.06Zm52.66-4c-.06,0-.12,0-.18-.03-1.54-.6-3.11-1.14-4.65-1.6-.26-.08-.4-.35-.33-.6,.08-.26,.37-.4,.6-.33,1.58,.47,3.17,1.02,4.73,1.63,.25,.09,.37,.38,.28,.63-.07,.19-.26,.31-.45,.31Zm-43.69-.25c-.19,0-.38-.12-.46-.31-.1-.25,.03-.53,.28-.63,1.57-.59,3.17-1.12,4.75-1.57,.26-.09,.53,.08,.6,.33,.08,.26-.08,.53-.33,.6-1.55,.45-3.12,.96-4.67,1.55-.06,.02-.11,.03-.17,.03Zm34.19-2.58s-.07,0-.1,0c-1.59-.34-3.22-.61-4.86-.82-.27-.03-.46-.28-.42-.55,.03-.25,.24-.42,.48-.42h.06c1.66,.21,3.32,.49,4.93,.84,.27,.06,.43,.31,.37,.57-.05,.23-.25,.38-.47,.38Zm-24.65-.15c-.23,0-.43-.16-.47-.39-.06-.26,.11-.52,.38-.57,1.61-.33,3.28-.59,4.94-.78,.26-.03,.51,.16,.54,.43,.03,.27-.16,.51-.43,.54-1.64,.18-3.27,.44-4.86,.76-.03,0-.06,0-.09,0Zm14.81-1.11h-.02c-1.64-.08-3.29-.09-4.93-.03-.3,.04-.49-.2-.5-.47,0-.27,.2-.49,.47-.5,1.67-.05,3.34-.04,5,.03,.27,0,.47,.24,.46,.51,0,.26-.23,.46-.48,.46Z"/><path class="cls-11" d="M691.29,465.14h-.05c-.27-.03-.46-.27-.43-.54,.09-.82,.19-1.63,.31-2.43,.04-.27,.28-.46,.55-.41,.27,.04,.45,.28,.41,.55-.12,.79-.21,1.6-.3,2.39-.03,.25-.24,.43-.48,.43Z"/><path class="cls-11" d="M812.9,475.06c-2.11,0-3.82-1.71-3.82-3.81s1.71-3.82,3.82-3.82,3.81,1.71,3.81,3.82-1.71,3.81-3.81,3.81Zm0-6.66c-1.57,0-2.85,1.28-2.85,2.85s1.28,2.84,2.85,2.84,2.84-1.28,2.84-2.84-1.28-2.85-2.84-2.85Z"/><path class="cls-11" d="M690.94,475.06c-2.1,0-3.81-1.71-3.81-3.81s1.71-3.82,3.81-3.82,3.82,1.71,3.82,3.82-1.71,3.81-3.82,3.81Zm0-6.66c-1.57,0-2.84,1.28-2.84,2.85s1.28,2.84,2.84,2.84,2.85-1.28,2.85-2.84-1.28-2.85-2.85-2.85Z"/><path class="cls-11" d="M751.92,590.28c-2.11,0-3.82-1.71-3.82-3.82s1.71-3.81,3.82-3.81,3.81,1.71,3.81,3.81-1.71,3.82-3.81,3.82Zm0-6.66c-1.57,0-2.85,1.27-2.85,2.84s1.28,2.85,2.85,2.85,2.84-1.28,2.84-2.85-1.28-2.84-2.84-2.84Z"/><path class="cls-11" d="M751.92,583.63c-.27,0-.48-.22-.48-.48v-50.92c0-.27,.21-.48,.48-.48s.48,.22,.48,.48v50.92c0,.27-.21,.48-.48,.48Z"/><path class="cls-11" d="M687.61,471.74h-15.17c-.27,0-.48-.21-.48-.48s.21-.48,.48-.48h15.17c.27,0,.48,.21,.48,.48s-.21,.48-.48,.48Z"/><path class="cls-11" d="M834.83,468.41h-.03c-.27-.01-.47-.24-.46-.51,1.75-32.59,28.71-58.11,61.37-58.11s58.89,24.95,61.29,56.8l.08,1.23c.02,.27-.19,.5-.46,.51h-.03c-.26,0-.47-.19-.48-.46l-.08-1.22c-2.35-31.34-28.85-55.9-60.32-55.9s-58.68,25.12-60.4,57.19c0,.26-.23,.46-.48,.46Z"/><path class="cls-11" d="M835.32,480.22c-.24,0-.45-.17-.48-.42-.11-.81-.21-1.62-.28-2.44-.03-.27,.17-.51,.44-.53,.28,0,.5,.17,.53,.44,.08,.81,.17,1.6,.28,2.4,.04,.27-.15,.51-.42,.55-.02,0-.05,0-.07,0Z"/><path class="cls-11" d="M841.21,499.11c-.18,0-.35-.09-.44-.27-.74-1.49-1.43-3.02-2.06-4.56-.1-.25,0-.53,.27-.64,.24-.11,.52,.02,.63,.27,.63,1.52,1.31,3.03,2.04,4.5,.11,.24,.02,.53-.22,.66-.07,.03-.14,.05-.22,.05Zm-3.72-9.21c-.21,0-.4-.13-.47-.34-.49-1.57-.93-3.19-1.29-4.83-.06-.26,.1-.52,.37-.58,.26-.07,.52,.1,.58,.37,.36,1.61,.79,3.21,1.27,4.75,.08,.26-.07,.53-.32,.61-.05,.01-.09,.02-.14,.02Z"/><path class="cls-11" d="M895.71,532.72c-.95,0-1.91-.02-2.86-.07-.27,0-.47-.24-.46-.51,0-.26,.23-.46,.48-.46h.03c1.63,.09,3.3,.1,4.91,.03h.02c.26,0,.47,.2,.48,.47,0,.27-.2,.49-.47,.5-.71,.03-1.42,.04-2.15,.04Zm7.07-.41c-.25,0-.46-.18-.48-.43-.03-.27,.16-.51,.43-.54,1.62-.19,3.27-.45,4.87-.76,.25-.11,.51,.12,.57,.38,.06,.27-.11,.52-.38,.57-1.63,.32-3.29,.59-4.95,.78h-.06Zm-14.86-.09h-.06c-1.67-.21-3.33-.49-4.94-.84-.26-.06-.43-.31-.37-.58,.06-.26,.26-.46,.58-.37,1.58,.33,3.21,.61,4.84,.82,.27,.04,.46,.28,.43,.54-.03,.25-.25,.43-.48,.43Zm24.59-1.85c-.21,0-.41-.13-.47-.35-.08-.26,.08-.52,.33-.6,1.59-.46,3.16-.98,4.68-1.56,.25-.09,.52,.03,.63,.28,.1,.25-.03,.53-.28,.63-1.54,.59-3.14,1.12-4.76,1.58-.05,.02-.09,.02-.13,.02Zm-34.29-.2s-.09,0-.14-.02c-1.57-.47-3.15-1.02-4.74-1.62-.25-.1-.37-.38-.28-.64,.1-.25,.34-.36,.64-.28,1.55,.61,3.11,1.15,4.66,1.6,.26,.08,.4,.34,.32,.61-.07,.21-.26,.34-.47,.34Zm43.57-3.3c-.18,0-.35-.1-.44-.28-.11-.25,0-.53,.23-.65,1.49-.71,2.96-1.48,4.36-2.3,.22-.14,.53-.06,.66,.17,.13,.24,.06,.53-.17,.66-1.42,.84-2.92,1.61-4.43,2.34-.07,.04-.14,.05-.21,.05Zm-52.82-.31c-.07,0-.14,0-.21-.05-1.46-.7-2.94-1.5-4.41-2.37-.24-.14-.3-.44-.17-.66,.14-.23,.44-.3,.66-.17,1.43,.86,2.9,1.64,4.33,2.34,.25,.11,.34,.41,.23,.65-.08,.18-.26,.28-.44,.28Zm61.4-4.65c-.15,0-.3-.07-.4-.21-.15-.22-.1-.52,.12-.67,1.34-.93,2.66-1.93,3.92-2.97,.23-.16,.5-.13,.69,.07,.17,.21,.13,.52-.07,.69-1.29,1.05-2.63,2.07-4,3.01-.09,.06-.18,.09-.28,.09Zm-69.91-.4c-.1,0-.2-.03-.28-.09-1.34-.95-2.67-1.97-3.96-3.07-.21-.17-.23-.47-.06-.68,.18-.21,.47-.22,.68-.06,1.27,1.06,2.58,2.08,3.9,3.01,.22,.15,.27,.46,.11,.68-.1,.13-.25,.2-.4,.2Zm77.58-5.89c-.12,0-.26-.05-.35-.14-.18-.2-.18-.5,0-.69,1.16-1.11,2.3-2.31,3.41-3.56,.17-.2,.47-.23,.68-.04,.2,.17,.22,.48,.04,.68-1.12,1.27-2.28,2.49-3.45,3.62-.1,.08-.22,.13-.34,.13Zm-85.19-.49c-.12,0-.25-.05-.34-.14-1.2-1.19-2.35-2.41-3.42-3.66-.17-.2-.15-.5,.06-.68,.18-.17,.5-.16,.68,.06,1.04,1.22,2.18,2.42,3.36,3.6,.19,.19,.19,.49,0,.68-.09,.09-.22,.14-.34,.14Zm91.74-6.95c-.1,0-.2-.03-.29-.1-.21-.16-.26-.47-.09-.68,1-1.33,1.94-2.7,2.78-4.05,.13-.23,.44-.31,.66-.15,.23,.13,.29,.44,.15,.66-.85,1.38-1.8,2.77-2.82,4.13-.1,.12-.24,.19-.39,.19Zm-98.21-.56c-.15,0-.29-.07-.39-.2-.99-1.34-1.92-2.74-2.79-4.16-.13-.23-.07-.53,.16-.67,.24-.14,.52-.06,.67,.16,.86,1.4,1.78,2.78,2.74,4.1,.16,.22,.11,.52-.1,.67-.09,.07-.18,.09-.28,.09Zm103.48-7.84c-.08,0-.15-.02-.23-.06-.24-.12-.32-.42-.2-.66,.74-1.43,1.44-2.93,2.09-4.46,.1-.25,.39-.37,.64-.26,.25,.1,.36,.39,.26,.64-.65,1.54-1.37,3.07-2.13,4.53-.08,.16-.26,.26-.43,.26Zm3.84-9.15s-.1,0-.15-.02c-.26-.08-.39-.36-.31-.61,.49-1.5,.95-3.1,1.34-4.74,.07-.26,.34-.37,.59-.36,.26,.07,.42,.33,.36,.59-.41,1.67-.86,3.29-1.36,4.81-.07,.2-.26,.33-.47,.33Z"/><path class="cls-11" d="M956.03,480.74s-.05,0-.07,0c-.27-.04-.46-.28-.42-.55,.11-.8,.22-1.6,.3-2.4,.03-.25,.24-.43,.48-.43h.05c.28,.03,.47,.27,.44,.54-.09,.81-.19,1.62-.3,2.43-.04,.25-.25,.42-.48,.42Z"/><path class="cls-11" d="M834.73,475.07c-2.1,0-3.81-1.71-3.81-3.81s1.71-3.82,3.81-3.82,3.82,1.71,3.82,3.82-1.71,3.81-3.82,3.81Zm0-6.66c-1.57,0-2.84,1.28-2.84,2.85s1.27,2.84,2.84,2.84,2.85-1.28,2.85-2.84-1.28-2.85-2.85-2.85Z"/><path class="cls-11" d="M956.69,475.07c-2.11,0-3.82-1.71-3.82-3.81s1.71-3.82,3.82-3.82,3.82,1.71,3.82,3.82-1.71,3.81-3.82,3.81Zm0-6.66c-1.57,0-2.85,1.28-2.85,2.85s1.28,2.84,2.85,2.84,2.85-1.28,2.85-2.84-1.28-2.85-2.85-2.85Z"/><path class="cls-11" d="M895.71,410.76c-.27,0-.48-.21-.48-.48v-50.91c0-.27,.22-.48,.48-.48s.48,.21,.48,.48v50.91c0,.27-.22,.48-.48,.48Z"/><path class="cls-11" d="M831.41,471.74h-15.18c-.27,0-.48-.21-.48-.48s.21-.48,.48-.48h15.18c.27,0,.48,.21,.48,.48s-.22,.48-.48,.48Z"/><path class="cls-11" d="M1039.5,532.72c-31.97,0-58.89-24.96-61.29-56.81,0-.16-.07-1.05-.08-1.21-.03-.27,.16-.51,.43-.54,.29,.01,.51,.17,.54,.43,.02,.16,.08,1.09,.09,1.25,2.35,31.35,28.85,55.9,60.32,55.9s58.68-25.13,60.4-57.19c0-.26,.23-.46,.48-.46h.03c.27,.01,.47,.24,.46,.51-1.75,32.59-28.71,58.12-61.37,58.12Z"/><path class="cls-11" d="M1100.18,465.67c-.25,0-.46-.18-.48-.44-.08-.81-.18-1.6-.28-2.4-.03-.27,.15-.51,.42-.55h.07c.24,0,.45,.18,.48,.42,.1,.81,.21,1.61,.28,2.43,.03,.27-.17,.51-.44,.53h-.05Z"/><path class="cls-11" d="M1099.01,458.36c-.23,0-.43-.15-.47-.38-.36-1.6-.79-3.2-1.27-4.75-.08-.26,.07-.53,.32-.61,.27-.07,.53,.07,.61,.32,.49,1.58,.93,3.2,1.29,4.84,.06,.26-.1,.52-.37,.58-.04,0-.07,0-.1,0Zm-2.96-9.47c-.19,0-.37-.11-.45-.3-.63-1.54-1.31-3.05-2.04-4.49-.11-.24-.02-.53,.22-.65,.22-.13,.53-.03,.66,.21,.73,1.46,1.43,3,2.06,4.55,.1,.25,0,.53-.27,.64-.06,.02-.12,.03-.18,.03Z"/><path class="cls-11" d="M980.15,457.64s-.08,0-.11,0c-.26-.07-.42-.33-.36-.59,.4-1.67,.86-3.29,1.36-4.82,.09-.25,.37-.39,.62-.31,.26,.08,.39,.36,.31,.61-.49,1.51-.95,3.1-1.34,4.74-.06,.22-.26,.37-.47,.37Zm3.08-9.43c-.07,0-.12,0-.19-.04-.25-.1-.36-.39-.26-.64,.65-1.54,1.37-3.07,2.13-4.53,.12-.24,.41-.34,.66-.21,.24,.12,.32,.42,.2,.66-.74,1.44-1.44,2.94-2.09,4.46-.08,.19-.26,.29-.45,.29Zm108.35-8.21c-.16,0-.32-.08-.42-.23-.85-1.41-1.78-2.78-2.73-4.09-.16-.22-.11-.52,.1-.68,.21-.16,.52-.11,.67,.1,.98,1.33,1.92,2.74,2.79,4.16,.13,.23,.07,.53-.16,.66-.08,.05-.17,.07-.26,.07Zm-103.77-.59c-.09,0-.18-.02-.26-.07-.23-.14-.29-.44-.15-.67,.86-1.37,1.8-2.76,2.82-4.13,.16-.21,.46-.26,.68-.1,.21,.16,.26,.47,.1,.68-1,1.34-1.94,2.71-2.78,4.06-.09,.15-.25,.23-.41,.23Zm97.93-7.43c-.13,0-.28-.06-.37-.17-1.07-1.25-2.2-2.46-3.36-3.6-.19-.19-.19-.5,0-.69s.49-.19,.68,0c1.17,1.16,2.32,2.39,3.42,3.66,.17,.2,.15,.51-.06,.69-.09,.08-.2,.11-.31,.11Zm-92.01-.53c-.11,0-.23-.04-.32-.12-.2-.18-.22-.49-.04-.69,1.13-1.28,2.29-2.49,3.45-3.61,.19-.18,.5-.19,.69,.01,.18,.19,.18,.5,0,.69-1.14,1.1-2.29,2.3-3.41,3.56-.1,.11-.23,.16-.36,.16Zm84.94-6.44c-.11,0-.22-.04-.31-.11-1.24-1.05-2.55-2.06-3.9-3.01-.22-.16-.27-.46-.11-.68,.15-.22,.45-.27,.68-.12,1.36,.96,2.7,1.99,3.96,3.06,.21,.17,.23,.48,.06,.68-.09,.11-.23,.17-.37,.17Zm-77.81-.45c-.14,0-.28-.06-.38-.18-.17-.21-.13-.52,.08-.68,1.29-1.06,2.64-2.07,3.99-3.01,.21-.16,.51-.1,.67,.12,.15,.22,.09,.52-.12,.67-1.33,.93-2.65,1.92-3.93,2.96-.09,.08-.2,.11-.3,.11Zm69.72-5.29c-.08,0-.17-.02-.25-.07-1.44-.86-2.9-1.64-4.33-2.34-.25-.11-.34-.41-.23-.65,.12-.24,.42-.34,.65-.22,1.46,.71,2.94,1.51,4.41,2.37,.23,.14,.3,.44,.17,.66-.09,.16-.26,.24-.42,.24Zm-61.56-.35c-.17,0-.33-.09-.42-.24-.13-.23-.06-.53,.17-.66,1.45-.84,2.94-1.62,4.43-2.33,.26-.11,.53,0,.65,.23,.11,.24,0,.53-.23,.65-1.46,.69-2.93,1.46-4.36,2.29-.08,.04-.16,.06-.25,.06Zm52.67-3.99c-.06,0-.11,0-.18-.03-1.55-.6-3.12-1.14-4.66-1.6-.26-.08-.4-.35-.32-.6,.09-.26,.36-.39,.61-.33,1.57,.47,3.15,1.01,4.74,1.63,.25,.09,.37,.37,.28,.63-.08,.19-.27,.31-.46,.31Zm-43.72-.26c-.2,0-.38-.12-.46-.31-.09-.25,.04-.53,.28-.63,1.58-.59,3.18-1.12,4.76-1.57,.26-.07,.53,.07,.6,.33,.08,.26-.08,.53-.33,.6-1.55,.45-3.12,.96-4.68,1.55-.06,.02-.11,.03-.17,.03Zm34.21-2.58s-.07,0-.1,0c-1.58-.34-3.21-.61-4.84-.82-.27-.03-.46-.28-.43-.55,.03-.25,.25-.42,.48-.42h.06c1.67,.21,3.33,.49,4.94,.84,.26,.06,.43,.31,.37,.57-.05,.23-.25,.38-.47,.38Zm-24.67-.15c-.23,0-.43-.16-.47-.39-.06-.26,.11-.52,.38-.57,1.63-.33,3.3-.59,4.95-.78h.06c.25,0,.46,.18,.48,.43,.03,.27-.16,.51-.43,.54-1.62,.19-3.27,.44-4.87,.76-.03,0-.07,0-.09,0Zm14.83-1.11h-.02c-1.63-.07-3.3-.09-4.93-.03h-.02c-.27,0-.47-.2-.48-.47,0-.27,.2-.49,.47-.5,1.67-.05,3.37-.04,5,.03,.28,0,.47,.24,.47,.51,0,.26-.23,.46-.48,.46Z"/><path class="cls-11" d="M978.88,465.15h-.05c-.27-.03-.47-.27-.44-.54,.08-.82,.19-1.62,.3-2.43,.04-.25,.25-.42,.48-.42,.02,0,.05,0,.07,0,.27,.04,.46,.28,.42,.55-.11,.79-.22,1.59-.3,2.4-.03,.25-.24,.43-.48,.43Z"/><path class="cls-11" d="M1100.48,475.07c-2.1,0-3.81-1.71-3.81-3.81s1.71-3.82,3.81-3.82,3.82,1.71,3.82,3.82-1.71,3.81-3.82,3.81Zm0-6.66c-1.57,0-2.84,1.28-2.84,2.85s1.27,2.84,2.84,2.84,2.85-1.28,2.85-2.84-1.28-2.85-2.85-2.85Z"/><path class="cls-11" d="M978.53,475.07c-2.11,0-3.82-1.71-3.82-3.81s1.71-3.82,3.82-3.82,3.81,1.71,3.81,3.82-1.71,3.81-3.81,3.81Zm0-6.66c-1.57,0-2.85,1.28-2.85,2.85s1.28,2.84,2.85,2.84,2.84-1.28,2.84-2.84-1.27-2.85-2.84-2.85Z"/><path class="cls-11" d="M1039.5,590.28c-2.11,0-3.82-1.71-3.82-3.81s1.71-3.82,3.82-3.82,3.82,1.71,3.82,3.82-1.71,3.81-3.82,3.81Zm0-6.66c-1.57,0-2.85,1.28-2.85,2.85s1.28,2.84,2.85,2.84,2.85-1.27,2.85-2.84-1.28-2.85-2.85-2.85Z"/><path class="cls-11" d="M1039.5,583.63c-.27,0-.48-.22-.48-.48v-50.91c0-.27,.22-.48,.48-.48s.48,.22,.48,.48v50.91c0,.27-.22,.48-.48,.48Z"/><path class="cls-11" d="M975.2,471.74h-15.17c-.27,0-.48-.21-.48-.48s.22-.48,.48-.48h15.17c.27,0,.48,.21,.48,.48s-.22,.48-.48,.48Z"/><path class="cls-11" d="M1122.4,468.41h-.03c-.27-.01-.47-.24-.46-.51,1.75-32.59,28.71-58.12,61.37-58.12s58.9,24.95,61.3,56.8l.08,1.23c.02,.27-.19,.5-.46,.51h-.03c-.26,0-.47-.19-.48-.46l-.08-1.22c-2.35-31.34-28.85-55.9-60.33-55.9s-58.68,25.13-60.4,57.2c0,.26-.23,.46-.48,.46Z"/><path class="cls-11" d="M1122.91,480.22c-.24,0-.45-.17-.48-.42-.11-.8-.21-1.61-.29-2.43-.03-.27,.16-.51,.44-.54h.05c.25,0,.46,.18,.48,.43,.08,.8,.18,1.6,.29,2.4,.04,.27-.15,.51-.42,.55-.02,0-.05,0-.07,0Z"/><path class="cls-11" d="M1128.79,499.11c-.18,0-.35-.09-.44-.27-.74-1.49-1.43-3.02-2.06-4.56-.1-.25,0-.53,.27-.64,.25-.11,.52,.02,.63,.27,.63,1.52,1.31,3.03,2.04,4.5,.11,.24,.02,.53-.22,.66-.07,.03-.14,.05-.22,.05Zm-3.72-9.21c-.21,0-.4-.13-.47-.34-.49-1.58-.93-3.2-1.29-4.84-.06-.26,.1-.52,.37-.58,.27-.07,.52,.1,.58,.37,.36,1.6,.79,3.21,1.27,4.75,.08,.26-.07,.53-.32,.61-.05,.01-.09,.02-.14,.02Z"/><path class="cls-11" d="M1183.29,532.71c-.97,0-1.92-.02-2.87-.07-.27,0-.47-.24-.46-.51,0-.26,.23-.46,.48-.46h.03c1.62,.09,3.29,.09,4.93,.03,.29-.02,.49,.19,.5,.47,0,.27-.2,.49-.47,.5-.72,.03-1.43,.04-2.16,.04Zm7.08-.41c-.25,0-.46-.18-.48-.43-.03-.27,.16-.51,.43-.54,1.62-.19,3.27-.45,4.87-.76,.25-.1,.51,.12,.57,.38,.06,.27-.11,.52-.38,.57-1.63,.32-3.29,.59-4.95,.78h-.06Zm-14.87-.09h-.06c-1.67-.21-3.33-.49-4.94-.84-.26-.06-.43-.31-.37-.58,.05-.23,.25-.38,.47-.38,.03,0,.07,0,.1,0,1.58,.33,3.21,.61,4.84,.82,.27,.04,.46,.28,.43,.54-.03,.25-.25,.43-.48,.43Zm24.6-1.85c-.21,0-.41-.13-.47-.35-.08-.26,.08-.52,.33-.6,1.55-.45,3.12-.97,4.68-1.55,.25-.09,.52,.03,.63,.28,.09,.26-.04,.53-.28,.63-1.58,.59-3.18,1.12-4.76,1.57-.05,.02-.08,.02-.13,.02Zm-34.28-.2s-.09,0-.14-.02c-1.57-.47-3.15-1.02-4.74-1.62-.25-.1-.37-.38-.28-.64,.09-.25,.36-.35,.64-.28,1.55,.61,3.11,1.15,4.66,1.6,.26,.08,.4,.34,.32,.61-.07,.21-.26,.34-.47,.34Zm43.56-3.3c-.18,0-.35-.1-.44-.28-.11-.25-.02-.53,.23-.65,1.49-.71,2.96-1.48,4.36-2.3,.22-.15,.53-.07,.66,.17s.06,.53-.17,.66c-1.42,.84-2.92,1.61-4.43,2.34-.07,.04-.14,.05-.21,.05Zm-52.81-.29c-.07,0-.14,0-.21-.05-1.46-.7-2.94-1.5-4.41-2.37-.24-.14-.3-.44-.17-.66,.14-.23,.45-.3,.66-.17,1.43,.85,2.9,1.64,4.33,2.34,.25,.11,.34,.41,.23,.65-.09,.18-.26,.28-.44,.28Zm61.4-4.67c-.15,0-.3-.07-.4-.21-.15-.22-.1-.52,.12-.67,1.34-.93,2.66-1.93,3.92-2.97,.22-.16,.51-.13,.69,.07,.17,.21,.13,.52-.07,.69-1.29,1.05-2.63,2.07-4,3.01-.09,.06-.18,.09-.28,.09Zm-69.93-.39c-.1,0-.2-.03-.29-.09-1.34-.95-2.67-1.97-3.96-3.07-.21-.17-.23-.47-.06-.68,.17-.21,.47-.22,.68-.06,1.27,1.06,2.58,2.08,3.9,3.01,.22,.15,.27,.46,.11,.68-.09,.13-.25,.2-.4,.2Zm77.59-5.9c-.12,0-.26-.05-.35-.14-.18-.2-.18-.5,0-.69,1.16-1.11,2.3-2.31,3.41-3.56,.17-.2,.47-.23,.68-.04,.2,.17,.22,.48,.04,.68-1.12,1.27-2.28,2.49-3.45,3.62-.09,.09-.22,.13-.34,.13Zm-85.2-.48c-.12,0-.25-.05-.34-.14-1.2-1.19-2.35-2.41-3.42-3.66-.17-.2-.15-.5,.06-.68,.18-.17,.5-.16,.68,.06,1.04,1.22,2.18,2.42,3.36,3.6,.19,.19,.19,.49,0,.68-.1,.09-.22,.14-.34,.14Zm91.75-6.96c-.1,0-.2-.03-.29-.09-.21-.16-.26-.47-.09-.68,1-1.33,1.94-2.7,2.78-4.06,.12-.24,.45-.31,.66-.15,.23,.13,.29,.44,.15,.66-.86,1.38-1.8,2.77-2.82,4.13-.09,.12-.24,.19-.39,.19Zm-98.22-.55c-.15,0-.29-.07-.39-.2-.99-1.34-1.92-2.74-2.79-4.16-.13-.23-.07-.53,.16-.67,.25-.14,.52-.06,.67,.16,.85,1.4,1.78,2.78,2.74,4.1,.16,.22,.11,.52-.1,.67-.09,.07-.18,.09-.28,.09Zm103.49-7.85c-.08,0-.15-.02-.23-.06-.24-.12-.32-.42-.2-.66,.74-1.43,1.44-2.93,2.09-4.46,.1-.25,.38-.36,.64-.26,.25,.1,.36,.39,.26,.64-.65,1.54-1.37,3.07-2.13,4.53-.09,.16-.26,.26-.43,.26Zm3.83-9.15s-.1,0-.15-.02c-.26-.08-.39-.36-.31-.61,.49-1.51,.95-3.1,1.34-4.74,.07-.26,.34-.39,.59-.36,.26,.07,.42,.33,.36,.59-.4,1.67-.86,3.29-1.36,4.82-.07,.2-.26,.33-.47,.33Z"/><path class="cls-11" d="M1243.61,480.74s-.05,0-.08,0c-.27-.04-.45-.29-.41-.56,.12-.79,.22-1.59,.31-2.39,.03-.26,.29-.41,.54-.43,.27,.03,.46,.28,.43,.54-.09,.81-.19,1.62-.31,2.43-.04,.24-.25,.41-.48,.41Z"/><path class="cls-11" d="M1122.32,475.07c-2.11,0-3.82-1.71-3.82-3.82s1.71-3.81,3.82-3.81,3.82,1.71,3.82,3.81-1.71,3.82-3.82,3.82Zm0-6.66c-1.57,0-2.85,1.28-2.85,2.84s1.28,2.85,2.85,2.85,2.85-1.28,2.85-2.85-1.28-2.84-2.85-2.84Z"/><path class="cls-11" d="M1244.27,475.07c-2.11,0-3.82-1.71-3.82-3.82s1.71-3.81,3.82-3.81,3.81,1.71,3.81,3.81-1.71,3.82-3.81,3.82Zm0-6.66c-1.57,0-2.85,1.28-2.85,2.84s1.28,2.85,2.85,2.85,2.84-1.28,2.84-2.85-1.27-2.84-2.84-2.84Z"/><path class="cls-11" d="M1183.29,410.76c-.27,0-.48-.21-.48-.48v-50.91c0-.27,.22-.48,.48-.48s.48,.21,.48,.48v50.91c0,.27-.22,.48-.48,.48Z"/><path class="cls-11" d="M1118.98,471.74h-15.17c-.27,0-.48-.21-.48-.48s.22-.48,.48-.48h15.17c.27,0,.48,.21,.48,.48s-.22,.48-.48,.48Z"/><g><text class="cls-4" transform="translate(306.3 478.85)"><tspan x="0" y="0">1º</tspan></text><text class="cls-4" transform="translate(449.63 478.85)"><tspan x="0" y="0">2º</tspan></text><text class="cls-4" transform="translate(592.97 478.85)"><tspan x="0" y="0">3º</tspan></text><text class="cls-4" transform="translate(737.22 478.85)"><tspan x="0" y="0">4º</tspan></text><text class="cls-4" transform="translate(880.56 478.85)"><tspan x="0" y="0">5º</tspan></text><text class="cls-4" transform="translate(1023.9 478.85)"><tspan x="0" y="0">6º</tspan></text><text class="cls-4" transform="translate(1168.15 478.85)"><tspan x="0" y="0">7º</tspan></text></g></g><text class="cls-2" transform="translate(225.86 295.74)"><tspan class="cls-3" x="0" y="0">Efetue cadastro/</tspan><tspan class="cls-8" x="109.23" y="0">login</tspan><tspan class="cls-3" x="140.92" y="0" xml:space="preserve"> no site </tspan><tspan class="cls-3"><tspan x=".57" y="20">https://ww</tspan><tspan class="cls-10" x="67.26" y="20">w</tspan><tspan x="77.26" y="20">.go</tspan><tspan class="cls-5" x="98.11" y="20">v</tspan><tspan x="104.5" y="20">.br/pt-b</tspan><tspan class="cls-7" x="152.02" y="20">r</tspan><tspan x="156.19" y="20">.pela </tspan></tspan><tspan class="cls-3"><tspan x="67.13" y="40">Conitec. </tspan></tspan></text><text class="cls-1" transform="translate(375.53 612.74)"><tspan x="0" y="0">Aguarde a confirmação de </tspan><tspan x="6.25" y="20">acesso e/ou cadastro de </tspan><tspan x="20.01" y="40">dados efetuado com </tspan><tspan x="58.37" y="60">sucesso.</tspan></text><text class="cls-1" transform="translate(681.62 612.74)"><tspan x="0" y="0">Busque pelo tema de </tspan><tspan x="38.37" y="20">interesse.</tspan></text><text class="cls-2" transform="translate(941.95 612.74)"><tspan class="cls-3" x="0" y="0">Clique em enviar para </tspan><tspan class="cls-9" x="150.9" y="0">enviar </tspan><tspan class="cls-3"><tspan x="40.85" y="20">sua contribuição.</tspan></tspan></text><text class="cls-1" transform="translate(520.36 295.95)"><tspan x="0" y="0">Permaneça logado no site </tspan><tspan x="3.2" y="20">GO</tspan><tspan class="cls-12" x="26.54" y="20">V</tspan><tspan x="35.17" y="20">.BR e retorne para a </tspan><tspan x="13.76" y="40">página da Plataforma. </tspan></text><text class="cls-1" transform="translate(818.37 295.95)"><tspan x="0" y="0">Clique diretamente nos </tspan><tspan x="-16.67" y="20">formulários disponíveis para </tspan><tspan x="41.69" y="40">preenche</tspan><tspan class="cls-7" x="104.23" y="40">r</tspan><tspan class="cls-6" x="108.4" y="40">.</tspan></text><text class="cls-1" transform="translate(1094.72 295.95)"><tspan x="0" y="0">Uma mensagem informará </tspan><tspan x="-2.11" y="20">se o processo foi concluído </tspan><tspan x="42.93" y="40">com sucesso.</tspan></text></svg>