<?xml version="1.0" encoding="UTF-8"?><svg id="Camada_1" xmlns="http://www.w3.org/2000/svg" viewBox="0 0 1500 1000"><defs><style>.cls-1,.cls-2{fill:#fff;}.cls-3{letter-spacing:-.07em;}.cls-4,.cls-5{fill:#1c548f;}.cls-4,.cls-2{font-family:Arial-BoldMT, Arial;font-size:15px;}.cls-6{opacity:.1;stroke-width:20px;}.cls-6,.cls-7{stroke-miterlimit:10;}.cls-6,.cls-7,.cls-8{fill:none;stroke:#1c548f;}.cls-7{stroke-width:3px;}.cls-8{stroke-linecap:round;stroke-linejoin:round;stroke-width:1.4px;}.cls-9{letter-spacing:-.02em;}.cls-10{letter-spacing:-.04em;}</style></defs><path class="cls-5" d="M740.77,416.32l-1.59-2.48-72.11,46.34c-.64-.45-1.39-.78-2.23-.78-2.19,0-3.96,1.77-3.96,3.96s1.77,3.96,3.96,3.96,3.96-1.77,3.96-3.96c0-.25-.1-.47-.14-.7l72.12-46.35Z"/><path class="cls-7" d="M665.76,475.08c0,44.1-35.75,79.85-79.85,79.85s-79.84-35.75-79.84-79.85,35.75-79.85,79.84-79.85,79.85,35.75,79.85,79.85Z"/><text class="cls-4" transform="translate(566.09 460.39)"><tspan class="cls-9" x="0" y="0">T</tspan><tspan x="8.89" y="0">ipos </tspan><tspan x="-20.99" y="18">específicos</tspan><tspan x="-25.15" y="36">de relatórios</tspan></text><path class="cls-5" d="M668.65,487.49c.04-.24,.14-.45,.14-.7,0-2.19-1.77-3.96-3.96-3.96s-3.96,1.77-3.96,3.96,1.77,3.96,3.96,3.96c.84,0,1.59-.33,2.23-.77l72.11,46.34,1.59-2.47-72.12-46.35Z"/><path class="cls-5" d="M1000,415.09c0,19.54-12.79,35.39-28.56,35.39h-205.25c-15.77,0-28.56-15.85-28.56-35.39h0c0-19.55,12.79-35.39,28.56-35.39h205.25c15.77,0,28.56,15.84,28.56,35.39h0Z"/><path class="cls-5" d="M1000,531.59c0,19.54-12.79,35.39-28.56,35.39h-205.25c-15.77,0-28.56-15.84-28.56-35.39h0c0-19.54,12.79-35.39,28.56-35.39h205.25c15.77,0,28.56,15.85,28.56,35.39h0Z"/><circle class="cls-1" cx="774" cy="415" r="29"/><circle class="cls-1" cx="774" cy="532" r="29"/><text class="cls-2" transform="translate(818.67 538.2)"><tspan x="0" y="0">Relatório completo</tspan></text><text class="cls-2" transform="translate(818.67 422.2)"><tspan x="0" y="0">Mini</tspan><tspan class="cls-10" x="29.99" y="0"> </tspan><tspan class="cls-3" x="33.6" y="0">A</tspan><tspan x="43.32" y="0">TS</tspan></text><g><g><polyline class="cls-8" points="779.06 398.92 788 398.92 788 432.32 759.65 432.32 759.65 398.92 768.59 398.92"/><polygon class="cls-8" points="771.62 396.27 768.59 398.92 768.59 402.67 779.06 402.67 779.06 398.92 776.03 396.27 771.62 396.27"/></g><line class="cls-8" x1="773.88" y1="411.15" x2="782.04" y2="411.15"/><polyline class="cls-8" points="765.7 411.16 767.24 412.71 770.35 409.6"/><line class="cls-8" x1="773.88" y1="417" x2="782.04" y2="417"/><polyline class="cls-8" points="765.7 417 767.24 418.55 770.35 415.44"/><line class="cls-8" x1="773.88" y1="422.84" x2="782.04" y2="422.84"/><polyline class="cls-8" points="765.7 422.85 767.24 424.4 770.35 421.29"/></g><g><polyline class="cls-8" points="779.06 516.81 788 516.81 788 550.21 759.65 550.21 759.65 516.81 768.59 516.81"/><polygon class="cls-8" points="771.62 514.16 768.59 516.81 768.59 520.56 779.06 520.56 779.06 516.81 776.03 514.16 771.62 514.16"/></g><line class="cls-8" x1="766.22" y1="534.6" x2="781.43" y2="534.6"/><line class="cls-8" x1="766.22" y1="530.26" x2="781.43" y2="530.26"/><line class="cls-8" x1="766.22" y1="525.92" x2="781.43" y2="525.92"/><line class="cls-8" x1="766.22" y1="538.94" x2="781.43" y2="538.94"/><line class="cls-8" x1="766.22" y1="543.28" x2="775.5" y2="543.28"/><circle class="cls-6" cx="585.5" cy="475.5" r="68.5"/></svg>