<?xml version="1.0" encoding="UTF-8"?><svg id="Camada_1" xmlns="http://www.w3.org/2000/svg" viewBox="0 0 1500 1000"><defs><style>.cls-1,.cls-2,.cls-3{fill:#fff;}.cls-2,.cls-4,.cls-5{font-family:ArialMT, Arial;}.cls-2,.cls-5{font-size:9px;}.cls-4{font-size:15px;}.cls-4,.cls-5{fill:#666;}.cls-6{letter-spacing:0em;}.cls-7{fill:#1c548f;}.cls-8{letter-spacing:-.02em;}.cls-3{font-family:Arial-BoldMT, Arial;font-size:20px;}.cls-9{fill:none;stroke:#1c548f;stroke-miterlimit:10;stroke-width:2px;}.cls-10{letter-spacing:-.11em;}</style></defs><path class="cls-9" d="M291.54,515.05h456.98v80.9c0,38.21-31.02,69.23-69.23,69.23H291.54c-38.21,0-69.23-31.02-69.23-69.23v-11.67c0-38.21,31.02-69.23,69.23-69.23Z"/><path class="cls-9" d="M291.54,336.45h387.76c38.21,0,69.23,31.02,69.23,69.23v80.9H291.54c-38.21,0-69.23-31.02-69.23-69.23v-11.67c0-38.21,31.02-69.23,69.23-69.23Z"/><text class="cls-4" transform="translate(289.2 398.82)"><tspan class="cls-8" x="0" y="0">V</tspan><tspan class="cls-6" x="9.73" y="0">isam a maior publicidade e transparência ao trabalho de </tspan><tspan x="26.96" y="20">elaboração de PCD</tspan><tspan class="cls-10" x="157.88" y="20">T</tspan><tspan x="165.38" y="20">s desenvolvido pela Conitec. </tspan></text><text class="cls-4" transform="translate(284.52 585.82)"><tspan x="0" y="0">Foram criadas como mais um meio de comunicação com a </tspan><tspan x="47.08" y="20">sociedade, a fim de melhorar esse processo. </tspan></text><path class="cls-9" d="M845.88,336.45h456.44v80.9c0,38.21-31.02,69.23-69.23,69.23h-387.22c-38.21,0-69.23-31.02-69.23-69.23v-11.67c0-38.21,31.02-69.23,69.23-69.23Z" transform="translate(2078.97 823.02) rotate(180)"/><path class="cls-9" d="M845.88,515.05h387.22c38.21,0,69.23,31.02,69.23,69.23v80.9h-456.44c-38.21,0-69.23-31.02-69.23-69.23v-11.67c0-38.21,31.02-69.23,69.23-69.23Z" transform="translate(2078.97 1180.22) rotate(-180)"/><text class="cls-4" transform="translate(838.4 367.03)"><tspan x="0" y="0">São disponibilizadas como consulta prévia, ainda na primeira </tspan><tspan x="-5.84" y="20">etapa dos protocolos, para que se possa discutir uma proposta </tspan><tspan x="-9.99" y="40">inicial e, assim, melhorá-la, identificando aspectos considerados </tspan><tspan x="15.85" y="60">anteriormente. Dessa forma, a participação popular será </tspan><tspan x="-1.28" y="80">considerada desde o início do processo de elaboração, e não </tspan><tspan x="38.33" y="100">apenas na consulta pública para deliberação fina.</tspan></text><text class="cls-4" transform="translate(880.49 595.82)"><tspan x="0" y="0">Para consultar as enquetes vigentes clique aqui.</tspan></text><text class="cls-2" transform="translate(1201.9 459.61)"><tspan x="0" y="0">13</tspan></text><g><circle class="cls-7" cx="762.32" cy="500.81" r="73.07" transform="translate(-130.85 685.72) rotate(-45)"/><g><text class="cls-3" transform="translate(714.53 524.56)"><tspan x="0" y="0" xml:space="preserve"> Enquetes</tspan></text><g><g><path class="cls-1" d="M757.78,482.11h-4.19c-.77,0-1.4-.63-1.4-1.4v-4.19c0-.77,.63-1.4,1.4-1.4h4.19c.77,0,1.4,.63,1.4,1.4v4.19c0,.77-.63,1.4-1.4,1.4h0Zm-4.19-5.59v4.19h4.19v-4.19h-4.19Z"/><path class="cls-1" d="M763.37,477.22h-2.1c-.39,0-.7-.31-.7-.7s.31-.7,.7-.7h2.1c.39,0,.7,.31,.7,.7s-.31,.7-.7,.7h0Z"/><path class="cls-1" d="M766.44,480.02h-5.17c-.39,0-.7-.31-.7-.7s.31-.7,.7-.7h5.17c.39,0,.7,.31,.7,.7s-.31,.7-.7,.7h0Z"/><path class="cls-1" d="M768.26,487h-6.99c-.39,0-.7-.31-.7-.7s.31-.7,.7-.7h6.99c.39,0,.7,.31,.7,.7s-.31,.7-.7,.7h0Z"/><path class="cls-1" d="M771.75,489.8h-10.48c-.39,0-.7-.31-.7-.7s.31-.7,.7-.7h10.48c.39,0,.7,.31,.7,.7s-.31,.7-.7,.7h0Z"/><path class="cls-1" d="M764.06,496.08h-2.79c-.39,0-.7-.31-.7-.7s.31-.7,.7-.7h2.79c.39,0,.7,.31,.7,.7s-.31,.7-.7,.7h0Z"/><path class="cls-1" d="M771.75,498.88h-10.48c-.39,0-.7-.31-.7-.7s.31-.7,.7-.7h10.48c.39,0,.7,.31,.7,.7s-.31,.7-.7,.7h0Z"/><path class="cls-1" d="M757.78,500.27h-4.19c-.77,0-1.4-.63-1.4-1.4v-4.19c0-.77,.63-1.4,1.4-1.4h4.19c.77,0,1.4,.63,1.4,1.4v4.19c0,.77-.63,1.4-1.4,1.4h0Zm-4.19-5.59v4.19h4.19v-4.19h-4.19Z"/><path class="cls-1" d="M756.38,489.1c-.18,0-.36-.07-.49-.2l-1.4-1.4c-.27-.27-.27-.72,0-.99,.27-.27,.72-.27,.99,0l.9,.9,3-3c.27-.27,.72-.27,.99,0,.27,.27,.27,.72,0,.99l-3.49,3.49c-.14,.14-.32,.2-.49,.2h0Z"/><path class="cls-1" d="M757.78,488.9v.9h-4.19v-4.19h3.69l1.2-1.2c-.21-.12-.45-.19-.71-.19h-4.19c-.77,0-1.4,.63-1.4,1.4v4.19c0,.77,.63,1.4,1.4,1.4h4.19c.77,0,1.4-.63,1.4-1.4v-2.3l-1.4,1.4Z"/></g><path class="cls-1" d="M776.32,475.12l-4.84-4.84c-.48-.48-1.13-.75-1.81-.75h-19.89c-1.22,0-2.22,.99-2.22,2.22v31.9c0,1.22,.99,2.22,2.22,2.22h25.08c1.22,0,2.22-.99,2.22-2.22v-26.72c0-.68-.27-1.33-.75-1.81Zm-6.65-3.5c.13,0,.24,.05,.33,.14l4.84,4.84c.09,.09,.14,.21,.14,.33v.18h-4.78c-.39,0-.71-.32-.71-.71v-4.78h.18Zm5.18,32.16h-25.08c-.07,0-.13-.06-.13-.13v-31.9c0-.07,.06-.13,.13-.13h17.62v4.78c0,1.54,1.25,2.8,2.8,2.8h4.78v24.45c0,.07-.06,.13-.13,.13Z"/></g></g></g><text class="cls-5" transform="translate(1201.56 460.07)"><tspan x="0" y="0">13</tspan></text></svg>