<?xml version="1.0" encoding="UTF-8"?><svg id="Camada_1" xmlns="http://www.w3.org/2000/svg" viewBox="0 0 1500 1000"><defs><style>.cls-1{font-size:35.98px;}.cls-1,.cls-2,.cls-3{fill:#1c548f;}.cls-1,.cls-3{font-family:Arial-BoldMT, Arial;}.cls-4{fill:none;stroke:#1c548f;stroke-miterlimit:10;stroke-width:3px;}.cls-3{font-size:22px;}</style></defs><g><path class="cls-2" d="M204,582.2v13.41h141.99c-11.13-3.32-21.73-7.85-31.69-13.41h-110.3Z"/><path class="cls-2" d="M579.45,588.91l-11.62,6.71-11.6,6.71-23.12,13.35v-20.05h-141.38c-15.22,0-29.94-2.25-43.83-6.42-1.31-.39-2.62-.8-3.91-1.22-5.06-1.66-10.01-3.6-14.82-5.77-.4-.18-.8-.37-1.19-.55-1.02-.47-2.05-.96-3.07-1.46-1.11-.54-2.21-1.09-3.3-1.66-.3-.15-.6-.32-.91-.49-.96-.49-1.89-1.01-2.83-1.53-.62-.34-1.22-.67-1.83-1.02-45.92-26.32-76.92-75.85-76.92-132.47,0-84.13,68.45-152.58,152.6-152.58s152.58,68.45,152.58,152.58c0,56.62-31,106.14-76.92,132.47h-32.98c55.91-18.06,96.49-70.62,96.49-132.47,0-76.74-62.44-139.17-139.17-139.17s-139.19,62.44-139.19,139.17c0,61.85,40.57,114.41,96.5,132.47,13.45,4.36,27.8,6.71,42.69,6.71h141.38v-20.03l23.1,13.33,23.24,13.41Z"/></g><g><path class="cls-2" d="M698.27,595.61h-117.04l11.62-6.71-11.62-6.71h85.35c.08,.05,.17,.1,.25,.13,.8,.45,1.61,.89,2.43,1.32,.67,.37,1.36,.72,2.05,1.07,.96,.5,1.91,.99,2.87,1.44,1.27,.64,2.57,1.24,3.87,1.84,6.52,2.97,13.26,5.52,20.22,7.59Z"/><path class="cls-2" d="M931.73,588.91l-11.62,6.71-34.72,20.05v-20.05h-141.38c-15.22,0-29.94-2.25-43.83-6.42-3.89-1.16-7.71-2.48-11.47-3.94-2.45-.96-4.88-1.98-7.26-3.05-.4-.18-.8-.37-1.21-.57-1.02-.45-2.03-.94-3.05-1.44-1.01-.49-2.03-.99-3.02-1.53-1.98-1.01-3.92-2.06-5.85-3.17-45.92-26.32-76.92-75.85-76.92-132.47,0-84.13,68.45-152.58,152.6-152.58s152.58,68.45,152.58,152.58c0,56.62-31,106.14-76.92,132.47h-32.98c55.91-18.06,96.49-70.62,96.49-132.47,0-76.74-62.44-139.17-139.17-139.17s-139.19,62.44-139.19,139.17c0,61.85,40.57,114.41,96.5,132.47,13.45,4.36,27.8,6.71,42.69,6.71h141.38v-20.03l34.72,20.03,11.62,6.71Z"/></g><g><path class="cls-2" d="M933.51,595.61l11.62-6.71-11.62-6.71h85.35c9.96,5.57,20.55,10.09,31.69,13.41h-117.04Z"/><path class="cls-2" d="M1284,588.91l-46.33-26.75v20.04h-141.39c-14.89,0-29.24-2.35-42.69-6.71-55.93-18.06-96.5-70.62-96.5-132.47,0-76.74,62.44-139.17,139.19-139.17s139.17,62.44,139.17,139.17c0,61.85-40.57,114.41-96.49,132.47h32.98c45.92-26.32,76.92-75.85,76.92-132.47,0-84.13-68.45-152.58-152.58-152.58s-152.6,68.45-152.6,152.58c0,56.62,31,106.14,76.92,132.47,4.26,2.43,8.63,4.68,13.13,6.71,19.1,8.62,40.27,13.41,62.55,13.41h141.39v20.05l46.33-26.75Z"/></g><circle class="cls-4" cx="391.32" cy="391.35" r="31.98"/><text class="cls-3" transform="translate(309.41 460.17)"><tspan x="0" y="0" xml:space="preserve"> Fortalecimento</tspan><tspan x="14.06" y="26.4">como campo</tspan><tspan x="33.62" y="52.8">científico</tspan></text><text class="cls-1" transform="translate(381.31 405.02)"><tspan x="0" y="0">1</tspan></text><circle class="cls-4" cx="743.32" cy="391.33" r="31.98"/><text class="cls-3" transform="translate(654.06 460.15)"><tspan x="0" y="0" xml:space="preserve"> Legitimação nas</tspan><tspan x="44.63" y="26.4">políticas</tspan></text><text class="cls-1" transform="translate(733.31 405)"><tspan x="0" y="0">2</tspan></text><circle class="cls-4" cx="1098.15" cy="391.33" r="31.98"/><text class="cls-3" transform="translate(996.68 460.15)"><tspan x="0" y="0" xml:space="preserve"> Institucionalização</tspan><tspan x="2.43" y="26.4">e desenvolvimento</tspan><tspan x="33.01" y="52.8">internacional</tspan></text><text class="cls-1" transform="translate(1088.14 405)"><tspan x="0" y="0">3</tspan></text></svg>