<?xml version="1.0" encoding="UTF-8"?><svg id="Camada_1" xmlns="http://www.w3.org/2000/svg" viewBox="0 0 1500 1000"><defs><style>.cls-1{fill:#1c548f;}.cls-2{fill:#fff;font-family:ArialMT, Arial;font-size:15px;}</style></defs><g id="template"><polygon class="cls-1" points="659.06 456.34 659.06 372.65 449.63 372.65 449.63 452.94 474.05 477.37 449.63 501.8 449.63 582.09 659.06 582.09 659.06 498.39 680.08 477.37 659.06 456.34"/><polygon class="cls-1" points="441.41 456.34 441.41 372.65 231.98 372.65 231.98 582.09 441.41 582.09 441.41 498.39 462.44 477.37 441.41 456.34"/><polygon class="cls-1" points="1094.35 456.34 1094.35 372.65 884.92 372.65 884.92 452.94 909.35 477.37 884.92 501.8 884.92 582.09 1094.35 582.09 1094.35 498.39 1115.38 477.37 1094.35 456.34"/><polygon class="cls-1" points="876.71 456.34 876.71 372.65 667.27 372.65 667.27 452.94 691.7 477.37 667.27 501.8 667.27 582.09 876.71 582.09 876.71 498.39 897.73 477.37 876.71 456.34"/><polygon class="cls-1" points="1312 372.65 1102.57 372.65 1102.57 452.94 1126.99 477.37 1102.57 501.8 1102.57 582.09 1312 582.09 1312 372.65"/></g><text class="cls-2" transform="translate(272.05 472.74)"><tspan x="0" y="0">Chamada pública e </tspan><tspan x="35.03" y="20">inscrição</tspan></text><text class="cls-2" transform="translate(481.71 462.74)"><tspan x="0" y="0">Indicação/ sorteio dos </tspan><tspan x="12.5" y="20">representantes da </tspan><tspan x="-7.92" y="40">Perspectiva do Paciente</tspan></text><text class="cls-2" transform="translate(913.23 452.74)"><tspan x="0" y="0">Primeiro encontro com </tspan><tspan x="17.49" y="20">equipe do DGITS </tspan><tspan x="20.41" y="40">(representante e </tspan><tspan x="44.59" y="60">suplente)</tspan></text><text class="cls-2" transform="translate(1128.87 452.74)"><tspan x="0" y="0">Participação na reunião </tspan><tspan x="42.95" y="20">da Conitec </tspan><tspan x="19.6" y="40">(representante ou </tspan><tspan x="47.95" y="60">suplente)</tspan></text><text class="cls-2" transform="translate(695.23 452.74)"><tspan x="0" y="0">Primeiro encontro com </tspan><tspan x="17.49" y="20">equipe do DGITS </tspan><tspan x="20.41" y="40">(representante e </tspan><tspan x="44.59" y="60">suplente)</tspan></text></svg>