<svg id="Layer_1" data-name="Layer 1" xmlns="http://www.w3.org/2000/svg" viewBox="0 0 332.5 251.5"><defs><style>.cls-1{fill:none;}.cls-2{fill:#e0e1e1;}.cls-3{opacity:0.5;}.cls-4{fill:#0e468e;}.cls-5{fill:#fff;}</style></defs><path class="cls-1" d="M166.2,224.3h0v0Z" transform="translate(0)"/><polygon class="cls-2" points="166.2 230.7 166.2 231.1 166.3 231.1 166.2 230.7"/><path class="cls-2" d="M166.3,224.3h0l-.1,2.3.8-.6Z" transform="translate(0)"/><polygon class="cls-2" points="166.1 231.1 166.2 231.1 166.2 230.7 166.1 231.1"/><path class="cls-2" d="M166.2,224.3h0l-.8,1.8.8.6Z" transform="translate(0)"/><g class="cls-3"><path class="cls-4" d="M166.2,228a313.61,313.61,0,0,0-31.4-15.3c-42.6-13.8-113.7-30-120.2-29.6a65.9,65.9,0,0,0-8.7,10.3l160.3,37.1V228Z" transform="translate(0)"/><path class="cls-4" d="M166.2,230.5h0l160.3-37.1a60.88,60.88,0,0,0-8.7-10.3c-6.5-.5-77.6,15.8-120.2,29.6A313.61,313.61,0,0,0,166.2,228Z" transform="translate(0)"/><path class="cls-4" d="M168,225.4a8.73,8.73,0,0,1-.8,1l-.1-.4-.8.6V228a313.61,313.61,0,0,1,31.4-15.3c27.1-11.7,69.5-26.7,118.9-32.6,0,0-3.1-3.7-4.9-6.3-35.7,3.8-82.1,16.4-120.5,36.7C179.4,217.4,171.3,223,168,225.4Z" transform="translate(0)"/><path class="cls-4" d="M168,225.4c3.3-2.4,11.4-8,23.2-14.9,24.2-14.1,64.1-33.3,111-40.7,0,0-1.5-3.3-3.1-6.4-36,5.1-85.2,22.3-122.1,51.7A110.6,110.6,0,0,0,168,225.4Z" transform="translate(0)"/><path class="cls-4" d="M167,226.1l.1.4s.3-.4.8-1a111.63,111.63,0,0,1,9.1-10.3c14.9-15.2,47.3-41.9,100.4-55.1,0,0-1.2-3.9-2.5-7.5-32.4,6.6-77.9,30.3-108.6,71.6l.1.2Z" transform="translate(0)"/><path class="cls-4" d="M166.2,226.6l-.8-.6-.1.4s-.3-.4-.8-1c-3.3-2.4-11.4-8-23.2-14.9-38.4-20.3-84.8-32.9-120.5-36.7-1.8,2.6-4.9,6.3-4.9,6.3,49.4,5.9,91.8,20.9,118.9,32.6A313.61,313.61,0,0,1,166.2,228v-1.4Z" transform="translate(0)"/><path class="cls-4" d="M164.5,225.4a111.63,111.63,0,0,0-9.1-10.3c-36.9-29.4-86-46.6-122.1-51.7-1.6,3.1-3.1,6.4-3.1,6.4,46.9,7.4,86.8,26.6,111,40.7C153.1,217.4,161.2,223,164.5,225.4Z" transform="translate(0)"/><path class="cls-4" d="M164.5,225.4a8.73,8.73,0,0,0,.8,1l.1-.4.7-1.8.1-.2C135.5,182.7,90,159,57.6,152.4c-1.3,3.7-2.5,7.5-2.5,7.5,53.1,13.2,85.4,39.8,100.4,55.1A126.51,126.51,0,0,1,164.5,225.4Z" transform="translate(0)"/></g><path class="cls-4" d="M329.7,192.7l-3.1.7L166.3,230.5h0L5.9,193.5l-3.1-.7L0,204.8l145.9,33.8v2.3a10.58,10.58,0,0,0,10.5,10.6H176a10.61,10.61,0,0,0,10.6-10.6h0v-2.3l145.9-33.7ZM166.1,231.1l.1-.5h0l.1.5Z" transform="translate(0)"/><circle class="cls-4" cx="104.5" cy="69.1" r="51.3"/><polygon class="cls-4" points="85.4 112.7 82.2 154 122.8 112.7 85.4 112.7"/><circle class="cls-4" cx="241.4" cy="53.4" r="53.4"/><polygon class="cls-4" points="222.3 99.3 222.3 138.3 264.8 99.3 222.3 99.3"/><circle class="cls-4" cx="171" cy="145.1" r="34.8"/><polygon class="cls-4" points="157.7 173.3 184.3 194.7 184.3 173.3 157.7 173.3"/><path class="cls-5" d="M167.9,150.6,167,137q-.3-3.9-.3-5.7a5.67,5.67,0,0,1,1.2-3.7,3.89,3.89,0,0,1,3.2-1.3,3.31,3.31,0,0,1,3.3,1.7,11.5,11.5,0,0,1,.8,4.9c0,1.3-.1,2.5-.2,3.8l-1.2,13.9a8.49,8.49,0,0,1-.9,3.8,2.17,2.17,0,0,1-2.1,1.3,2.08,2.08,0,0,1-2.1-1.3A16.06,16.06,0,0,1,167.9,150.6Zm3.2,18.6a4.62,4.62,0,0,1-3-1.1,4,4,0,0,1-1.3-3.1,4.23,4.23,0,0,1,4.2-4.2h0a4.23,4.23,0,0,1,3,1.2,4.34,4.34,0,0,1,1.3,3,3.7,3.7,0,0,1-1.3,3.1,4.56,4.56,0,0,1-2.9,1.1Z" transform="translate(0)"/><path class="cls-5" d="M87,58.6a10.93,10.93,0,0,1,1.9-6,15.52,15.52,0,0,1,5.5-5,16.67,16.67,0,0,1,8.5-2,17,17,0,0,1,8,1.7,12.94,12.94,0,0,1,5.3,4.5,11.32,11.32,0,0,1,1.9,6.2,9.2,9.2,0,0,1-1.1,4.6,14.23,14.23,0,0,1-2.5,3.4c-1,1-2.8,2.6-5.3,4.9a13.65,13.65,0,0,0-1.7,1.7,5.08,5.08,0,0,0-.9,1.3,6.12,6.12,0,0,0-.5,1.2c-.1.4-.3,1.1-.5,2.1-.4,2.2-1.6,3.2-3.7,3.2a3.86,3.86,0,0,1-2.7-1.1,4,4,0,0,1-1.1-3.1,11,11,0,0,1,3-7.9,29,29,0,0,1,3.6-3.4c1.3-1.2,2.3-2,2.9-2.6a9.51,9.51,0,0,0,1.5-2,4.75,4.75,0,0,0,.6-2.4,5.69,5.69,0,0,0-1.9-4.2A6.47,6.47,0,0,0,103,52c-2.3,0-4,.6-5,1.7a12.58,12.58,0,0,0-2.7,5.1c-.7,2.3-2,3.5-4,3.5a3.85,3.85,0,0,1-2.9-1.2A3.08,3.08,0,0,1,87,58.6Zm15.2,34.1a5,5,0,0,1-3.3-1.2,4.07,4.07,0,0,1-1.4-3.4,4.71,4.71,0,0,1,1.4-3.3,4.3,4.3,0,0,1,3.4-1.3,4.42,4.42,0,0,1,4.6,4.4v.2a4.07,4.07,0,0,1-1.4,3.4,5.8,5.8,0,0,1-3.3,1.2Z" transform="translate(0)"/><circle class="cls-5" cx="215.4" cy="53.4" r="9.9"/><circle class="cls-5" cx="241.4" cy="53.4" r="9.9"/><circle class="cls-5" cx="268.6" cy="54.1" r="10"/></svg>